<?xml version="1.0" encoding="utf-8"?>
<!-- Generator: Adobe Illustrator 24.0.0, SVG Export Plug-In . SVG Version: 6.00 Build 0)  -->
<svg version="1.1" xmlns="http://www.w3.org/2000/svg" xmlns:xlink="http://www.w3.org/1999/xlink" x="0px" y="0px"
	 viewBox="0 0 757.01 483.94" style="enable-background:new 0 0 757.01 483.94;" xml:space="preserve">
<style type="text/css">
	.st0{display:none;}
	.st1{display:inline;}
	.st2{opacity:0.1;}
	.st3{clip-path:url(#SVGID_2_);fill:#CB0613;}
	.st4{clip-path:url(#SVGID_4_);fill:#CB0613;}
	.st5{clip-path:url(#SVGID_6_);fill:#CB0613;}
	.st6{clip-path:url(#SVGID_8_);fill:#CB0613;}
	.st7{clip-path:url(#SVGID_10_);fill:#CB0613;}
	.st8{clip-path:url(#SVGID_12_);fill:#CB0613;}
	.st9{clip-path:url(#SVGID_14_);fill:#CB0613;}
	.st10{clip-path:url(#SVGID_16_);fill:#CB0613;}
	.st11{clip-path:url(#SVGID_18_);fill:#CB0613;}
	.st12{clip-path:url(#SVGID_20_);fill:#CB0613;}
	.st13{clip-path:url(#SVGID_22_);fill:#CB0613;}
	.st14{clip-path:url(#SVGID_24_);fill:#CB0613;}
	.st15{enable-background:new    ;}
	.st16{clip-path:url(#SVGID_26_);enable-background:new    ;}
	.st17{fill:none;stroke:#90A5AF;stroke-miterlimit:10;}
	.st18{fill:none;stroke:#000000;stroke-width:0.55;stroke-miterlimit:10;}
	.st19{clip-path:url(#SVGID_26_);fill:none;stroke:#90A5AF;stroke-miterlimit:10;}
	.st20{clip-path:url(#SVGID_28_);enable-background:new    ;}
	.st21{clip-path:url(#SVGID_28_);fill:none;stroke:#90A5AF;stroke-miterlimit:10;}
	.st22{clip-path:url(#SVGID_30_);enable-background:new    ;}
	.st23{clip-path:url(#SVGID_30_);fill:none;stroke:#90A5AF;stroke-miterlimit:10;}
	.st24{clip-path:url(#SVGID_32_);enable-background:new    ;}
	.st25{clip-path:url(#SVGID_32_);fill:none;stroke:#90A5AF;stroke-miterlimit:10;}
	.st26{clip-path:url(#SVGID_34_);enable-background:new    ;}
	.st27{clip-path:url(#SVGID_34_);fill:none;stroke:#000000;stroke-width:0.55;stroke-miterlimit:10;}
	.st28{clip-path:url(#SVGID_36_);enable-background:new    ;}
	.st29{clip-path:url(#SVGID_36_);fill:none;stroke:#000000;stroke-width:0.55;stroke-miterlimit:10;}
	.st30{clip-path:url(#SVGID_38_);enable-background:new    ;}
	.st31{clip-path:url(#SVGID_38_);fill:none;stroke:#000000;stroke-width:0.55;stroke-miterlimit:10;}
	.st32{clip-path:url(#SVGID_40_);enable-background:new    ;}
	.st33{clip-path:url(#SVGID_40_);fill:none;stroke:#000000;stroke-width:0.55;stroke-miterlimit:10;}
	.st34{clip-path:url(#SVGID_42_);enable-background:new    ;}
	.st35{clip-path:url(#SVGID_42_);fill:none;stroke:#000000;stroke-width:0.55;stroke-miterlimit:10;}
	.st36{clip-path:url(#SVGID_44_);enable-background:new    ;}
	.st37{clip-path:url(#SVGID_44_);fill:none;stroke:#000000;stroke-width:0.55;stroke-miterlimit:10;}
	.st38{clip-path:url(#SVGID_46_);enable-background:new    ;}
	.st39{clip-path:url(#SVGID_46_);fill:none;stroke:#000000;stroke-width:0.55;stroke-miterlimit:10;}
</style>
<g id="Layer_2" class="st0">
	<g class="st1">
		<g class="st2">
			<g>
				<defs>
					<rect id="SVGID_1_" x="-551.54" y="-5332.71" width="175.92" height="12844"/>
				</defs>
				<clipPath id="SVGID_2_">
					<use xlink:href="#SVGID_1_"  style="overflow:visible;"/>
				</clipPath>
				<rect x="-551.54" y="-5332.73" class="st3" width="175.91" height="12844"/>
			</g>
		</g>
		<g class="st2">
			<g>
				<defs>
					<rect id="SVGID_3_" x="-786.09" y="-5332.71" width="175.91" height="12844"/>
				</defs>
				<clipPath id="SVGID_4_">
					<use xlink:href="#SVGID_3_"  style="overflow:visible;"/>
				</clipPath>
				<rect x="-786.09" y="-5332.73" class="st4" width="175.91" height="12844"/>
			</g>
		</g>
		<g class="st2">
			<g>
				<defs>
					<rect id="SVGID_5_" x="-1020.65" y="-5332.71" width="175.91" height="12844"/>
				</defs>
				<clipPath id="SVGID_6_">
					<use xlink:href="#SVGID_5_"  style="overflow:visible;"/>
				</clipPath>
				<rect x="-1020.65" y="-5332.73" class="st5" width="175.91" height="12844"/>
			</g>
		</g>
		<g class="st2">
			<g>
				<defs>
					<rect id="SVGID_7_" x="-1255.2" y="-5332.71" width="175.91" height="12844"/>
				</defs>
				<clipPath id="SVGID_8_">
					<use xlink:href="#SVGID_7_"  style="overflow:visible;"/>
				</clipPath>
				<rect x="-1255.2" y="-5332.73" class="st6" width="175.91" height="12844"/>
			</g>
		</g>
		<g class="st2">
			<g>
				<defs>
					<rect id="SVGID_9_" x="-1489.75" y="-5332.71" width="175.91" height="12844"/>
				</defs>
				<clipPath id="SVGID_10_">
					<use xlink:href="#SVGID_9_"  style="overflow:visible;"/>
				</clipPath>
				<rect x="-1489.75" y="-5332.73" class="st7" width="175.91" height="12844"/>
			</g>
		</g>
		<g class="st2">
			<g>
				<defs>
					<rect id="SVGID_11_" x="-1724.31" y="-5332.71" width="175.91" height="12844"/>
				</defs>
				<clipPath id="SVGID_12_">
					<use xlink:href="#SVGID_11_"  style="overflow:visible;"/>
				</clipPath>
				<rect x="-1724.31" y="-5332.73" class="st8" width="175.91" height="12844"/>
			</g>
		</g>
		<g class="st2">
			<g>
				<defs>
					<rect id="SVGID_13_" x="-1958.86" y="-5332.71" width="175.91" height="12844"/>
				</defs>
				<clipPath id="SVGID_14_">
					<use xlink:href="#SVGID_13_"  style="overflow:visible;"/>
				</clipPath>
				<rect x="-1958.86" y="-5332.73" class="st9" width="175.91" height="12844"/>
			</g>
		</g>
		<g class="st2">
			<g>
				<defs>
					<rect id="SVGID_15_" x="-2193.41" y="-5332.71" width="175.91" height="12844"/>
				</defs>
				<clipPath id="SVGID_16_">
					<use xlink:href="#SVGID_15_"  style="overflow:visible;"/>
				</clipPath>
				<rect x="-2193.41" y="-5332.73" class="st10" width="175.91" height="12844"/>
			</g>
		</g>
		<g class="st2">
			<g>
				<defs>
					<rect id="SVGID_17_" x="-2427.96" y="-5332.71" width="175.91" height="12844"/>
				</defs>
				<clipPath id="SVGID_18_">
					<use xlink:href="#SVGID_17_"  style="overflow:visible;"/>
				</clipPath>
				<rect x="-2427.96" y="-5332.73" class="st11" width="175.91" height="12844"/>
			</g>
		</g>
		<g class="st2">
			<g>
				<defs>
					<rect id="SVGID_19_" x="-2662.52" y="-5332.71" width="175.91" height="12844"/>
				</defs>
				<clipPath id="SVGID_20_">
					<use xlink:href="#SVGID_19_"  style="overflow:visible;"/>
				</clipPath>
				<rect x="-2662.52" y="-5332.73" class="st12" width="175.91" height="12844"/>
			</g>
		</g>
		<g class="st2">
			<g>
				<defs>
					<rect id="SVGID_21_" x="-2897.07" y="-5332.71" width="175.91" height="12844"/>
				</defs>
				<clipPath id="SVGID_22_">
					<use xlink:href="#SVGID_21_"  style="overflow:visible;"/>
				</clipPath>
				<rect x="-2897.07" y="-5332.73" class="st13" width="175.91" height="12844"/>
			</g>
		</g>
		<g class="st2">
			<g>
				<defs>
					<rect id="SVGID_23_" x="-3131.62" y="-5332.71" width="175.91" height="12844"/>
				</defs>
				<clipPath id="SVGID_24_">
					<use xlink:href="#SVGID_23_"  style="overflow:visible;"/>
				</clipPath>
				<rect x="-3131.62" y="-5332.73" class="st14" width="175.91" height="12844"/>
			</g>
		</g>
	</g>
</g>
<g id="Layer_1">
	<rect x="-1572.47" y="825.2" style="fill:none;" width="2051.85" height="426.09"/>
	<text transform="matrix(1 0 0 1 -1572.474 898.4988)" class="st0"><tspan x="0" y="0" class="st1" style="font-family:'AllianceNo.2-Regular'; font-size:100px; letter-spacing:-2;">The worlds most </tspan><tspan x="0" y="130" class="st1" style="font-family:'AllianceNo.2-Regular'; font-size:100px; letter-spacing:-2;">impac</tspan><tspan x="285.4" y="130" class="st1" style="font-family:'AllianceNo.2-Regular'; font-size:100px; letter-spacing:-4;">t</tspan><tspan x="315.9" y="130" class="st1" style="font-family:'AllianceNo.2-Regular'; font-size:100px; letter-spacing:-2;">ful data </tspan><tspan x="0" y="260" class="st1" style="font-family:'AllianceNo.2-Regular'; font-size:100px; letter-spacing:-2;">pla</tspan><tspan x="140.3" y="260" class="st1" style="font-family:'AllianceNo.2-Regular'; font-size:100px; letter-spacing:-4;">t</tspan><tspan x="170.8" y="260" class="st1" style="font-family:'AllianceNo.2-Regular'; font-size:100px; letter-spacing:-2;">form</tspan></text>
	<text transform="matrix(1 0 0 1 -1572.6381 741.6185)" class="st0" style="font-family:'AllianceNo.2-Medium'; font-size:20px;">Introducing Foundry</text>
	
		<text transform="matrix(1 0 0 1 -1021.3534 13796.1748)" style="fill:#181B1C; font-family:'AllianceNo.2-Regular'; font-size:90.4027px; letter-spacing:-2;">Governance and Security</text>
</g>
<g id="Layer_3">
</g>
<g id="Layer_4">
</g>
<g id="Layer_5">
</g>
<g id="Layer_6">
</g>
<g id="Layer_7">
</g>
<g id="Layer_8">
	<g>
		<g class="st15">
			<g class="st15">
				<defs>
					<path id="SVGID_25_" class="st15" d="M378.51,242.22c0.03-13.68-1.52-27-4.48-39.8l0,0c-1.08-3.93-2.23-9.27-3.59-13.11
						c-2.51-7.08-6.23-16.39-9.29-23.24c-1.74-3.26-3.95-7.67-5.81-10.86c-1.89-3.24-4.58-7.47-6.71-10.57
						c-2.13-2.87-4.87-6.77-7.11-9.55c-2.27-2.82-5.43-6.47-7.9-9.11c-2.43-2.41-5.58-5.72-8.1-8.04c-2.53-2.33-6.03-5.31-8.74-7.44
						c-1.85-1.36-4.26-3.25-6.17-4.52c-2.69-1.8-6.35-4.1-9.15-5.73c-1.6-0.83-3.68-2.02-5.32-2.75c-2.17-0.97-5.1-2.15-7.35-2.92
						c-0.01,0.07-0.02,0.15-0.02,0.22c0.26,0.16,0.6,0.39,0.88,0.53c0.53,0.24,1.24,0.57,1.78,0.78c0.85,0.34,1.99,0.77,2.85,1.08
						c4.93,1.11,10.11,2.12,15.51,3.03c8.09,1.36,16.66,2.47,25.54,3.33l0,0c2.15,0.22,5.03,0.52,7.18,0.74
						c2.54,0.27,5.94,0.63,8.48,0.9c6.76,0.37,13.62,0.62,20.53,0.73c6.91,0.11,13.88,0.08,20.84-0.08l0,0
						c2.77-0.19,6.46-0.44,9.22-0.62c2.57-0.17,5.99-0.39,8.56-0.55c9.45-0.61,18.8-1.53,27.9-2.75l0,0
						c2.08-0.33,4.86-0.72,6.94-1.08c3.2-0.56,7.46-1.36,10.65-2c1.15-0.23,2.68-0.58,3.81-0.87c1.34-0.34,3.13-0.83,4.46-1.24
						c-1.27,0.53-2.95,1.28-4.19,1.89c-1.25,0.62-2.87,1.51-4.09,2.19c-1.73,1.04-4.09,2.35-5.77,3.48
						c-2.92,1.96-6.74,4.69-9.55,6.81c-2.73,2.33-6.56,5.24-9.11,7.77c-4.9,4.86-11.18,11.6-15.68,16.83c-2.1,2.82-5,6.51-7,9.41
						c-2.1,3.05-4.75,7.23-6.63,10.43c-1.73,3.22-4.16,7.45-5.77,10.73c-1.69,3.45-3.77,8.12-5.21,11.68
						c-3.19,7.93-5.8,16.16-7.79,24.63l0,0c-0.78,4.03-2.12,9.37-2.6,13.45C379.6,223.85,378.8,234.34,378.51,242.22z"/>
				</defs>
				<clipPath id="SVGID_26_">
					<use xlink:href="#SVGID_25_"  style="overflow:visible;"/>
				</clipPath>
				<g class="st16">
					<g>
						<path class="st17" d="M295.6,13.3c45.97,26.12,83.09,128.61,82.9,228.93c0.19-100.31-75.67-171.41-169.43-158.81
							C163.11,57.3,201.84,25.9,295.6,13.3z"/>
						<path class="st18" d="M337.57,61.96c-46.44,6.24-65.62,21.79-42.85,34.73"/>
						<path class="st18" d="M367.31,144.09c-12.8,1.72-18.09,6.01-11.81,9.57"/>
					</g>
					<g>
						<path class="st17" d="M209.08,83.42c93.76-12.61,169.61,58.49,169.43,158.81c0.19-100.31,37.61-160.46,83.58-134.34
							C368.33,120.49,255.05,109.54,209.08,83.42z"/>
						<path class="st18" d="M294.72,96.69c22.77,12.94,78.87,18.36,125.31,12.12"/>
						<path class="st18" d="M355.5,153.67c6.28,3.57,21.74,5.06,34.54,3.34"/>
						<path class="st17" d="M274.27,104.17c57.75-24.07,104.42,37.74,104.23,138.05"/>
						<path class="st17" d="M365.04,112.95c7.62-28.92,13.65,28.96,13.47,129.28"/>
					</g>
					<g>
						<path class="st17" d="M462.09,107.88c-45.97-26.12-83.39,34.03-83.58,134.34c0.19-100.31,76.34-191.86,170.1-204.46
							C594.58,63.88,555.84,95.27,462.09,107.88z"/>
						<path class="st18" d="M420.03,108.81c46.44-6.24,65.62-21.79,42.85-34.73"/>
						<path class="st18" d="M390.04,157.01c12.8-1.72,18.09-6.01,11.81-9.57"/>
						<path class="st17" d="M536.4,89.9c-87.02-16.19-157.71,52.01-157.9,152.32"/>
						<path class="st17" d="M567.44,64.75c-104.16-2.3-188.75,77.16-188.94,177.48"/>
					</g>
					<g>
						<path class="st18" d="M378.51,242.22c-0.19,100.31-37.61,160.46-83.58,134.34c-93.76,12.61-132.49,44-86.52,70.12
							C302.16,434.08,378.32,342.54,378.51,242.22z"/>
					</g>
					<g>
						<path class="st18" d="M378.51,242.22c-0.19,100.31-76.34,191.85-170.1,204.46c45.97,26.12,159.25,37.07,253.01,24.46
							C415.44,445.03,378.32,342.54,378.51,242.22z"/>
						<path class="st18" d="M378.51,242.22c-0.19,100.31-47.16,201.15-104.91,225.21"/>
						<path class="st18" d="M378.51,242.22c-0.19,100.31-6.52,205.07-14.14,233.99"/>
					</g>
					<g>
						<path class="st18" d="M378.51,242.22c-0.19,100.31,36.93,202.81,82.9,228.93c93.76-12.61,132.49-44,86.52-70.12
							C454.17,413.64,378.32,342.54,378.51,242.22z"/>
						<path class="st18" d="M378.51,242.22c-0.19,100.31,70.21,194.76,157.22,210.95"/>
						<path class="st18" d="M378.51,242.22c-0.19,100.31,84.1,183.49,188.26,185.79"/>
					</g>
				</g>
				<path class="st19" d="M378.51,242.22c0.03-13.68-1.52-27-4.48-39.8l0,0c-1.08-3.93-2.23-9.27-3.59-13.11
					c-2.51-7.08-6.23-16.39-9.29-23.24c-1.74-3.26-3.95-7.67-5.81-10.86c-1.89-3.24-4.58-7.47-6.71-10.57
					c-2.13-2.87-4.87-6.77-7.11-9.55c-2.27-2.82-5.43-6.47-7.9-9.11c-2.43-2.41-5.58-5.72-8.1-8.04c-2.53-2.33-6.03-5.31-8.74-7.44
					c-1.85-1.36-4.26-3.25-6.17-4.52c-2.69-1.8-6.35-4.1-9.15-5.73c-1.6-0.83-3.68-2.02-5.32-2.75c-2.17-0.97-5.1-2.15-7.35-2.92
					c-0.01,0.07-0.02,0.15-0.02,0.22c0.26,0.16,0.6,0.39,0.88,0.53c0.53,0.24,1.24,0.57,1.78,0.78c0.85,0.34,1.99,0.77,2.85,1.08
					c4.93,1.11,10.11,2.12,15.51,3.03c8.09,1.36,16.66,2.47,25.54,3.33l0,0c2.15,0.22,5.03,0.52,7.18,0.74
					c2.54,0.27,5.94,0.63,8.48,0.9c6.76,0.37,13.62,0.62,20.53,0.73c6.91,0.11,13.88,0.08,20.84-0.08l0,0
					c2.77-0.19,6.46-0.44,9.22-0.62c2.57-0.17,5.99-0.39,8.56-0.55c9.45-0.61,18.8-1.53,27.9-2.75l0,0
					c2.08-0.33,4.86-0.72,6.94-1.08c3.2-0.56,7.46-1.36,10.65-2c1.15-0.23,2.68-0.58,3.81-0.87c1.34-0.34,3.13-0.83,4.46-1.24
					c-1.27,0.53-2.95,1.28-4.19,1.89c-1.25,0.62-2.87,1.51-4.09,2.19c-1.73,1.04-4.09,2.35-5.77,3.48
					c-2.92,1.96-6.74,4.69-9.55,6.81c-2.73,2.33-6.56,5.24-9.11,7.77c-4.9,4.86-11.18,11.6-15.68,16.83c-2.1,2.82-5,6.51-7,9.41
					c-2.1,3.05-4.75,7.23-6.63,10.43c-1.73,3.22-4.16,7.45-5.77,10.73c-1.69,3.45-3.77,8.12-5.21,11.68
					c-3.19,7.93-5.8,16.16-7.79,24.63l0,0c-0.78,4.03-2.12,9.37-2.6,13.45C379.6,223.85,378.8,234.34,378.51,242.22z"/>
				<use xlink:href="#SVGID_25_"  style="overflow:visible;fill:none;stroke:#90A5AF;stroke-miterlimit:10;"/>
			</g>
			<g class="st15">
				<defs>
					<path id="SVGID_27_" class="st15" d="M383.11,202.56c-1.64,7.58-3.12,17.83-4.01,25.53c-0.49,4.21-0.41,9.89-0.59,14.13
						c0.19-100.31,84.9-180.32,189.21-178.7c-3.36,18.44-41.71,35.77-105.63,44.36c-59.66,8.02-127.23,6.51-180.33-2.39
						c-30.34-5.08-55.96-12.58-72.68-22.07c-12.54-7.12-18.78-14.64-19.31-22.06c90.18-0.37,165.51,59.98,184.26,141.06
						c-1.97-7.34-4.98-17.03-7.52-24.19c-1.33-3.76-3.75-8.52-5.36-12.17c-1.68-3.42-4.09-7.91-6.01-11.2
						c-1.83-3.14-4.56-7.16-6.51-10.22c-2.1-3.03-5.04-6.98-7.35-9.85c-2.19-2.73-5.36-6.17-7.66-8.81
						c-2.42-2.58-5.77-5.9-8.37-8.29c-2.45-2.25-5.93-5.03-8.47-7.19c-2.82-2.12-6.66-4.84-9.59-6.81
						c-1.67-1.12-4.01-2.41-5.73-3.45c-2.4-1.29-5.66-2.9-8.15-4.01c-1.32-0.59-3.16-1.16-4.52-1.66c0,0-0.01,0-0.01,0
						c0,0.07,0,0.16,0,0.23c0.26,0.15,0.61,0.36,0.87,0.51c0.54,0.27,1.29,0.59,1.85,0.81c0.82,0.33,1.88,1.05,2.77,1.05
						c4.93,1.11,10.11,2.12,15.51,3.03c8.09,1.36,16.66,2.47,25.54,3.33c2.23,0.22,5.2,0.54,7.43,0.77
						c2.47,0.26,5.76,0.61,8.23,0.87c6.76,0.37,13.62,0.62,20.53,0.73c6.91,0.11,13.88,0.08,20.84-0.08
						c2.85-0.19,6.66-0.45,9.51-0.64c2.48-0.16,5.79-0.37,8.27-0.53c9.45-0.61,18.8-1.53,27.9-2.75c3.43-0.53,8-1.27,11.42-1.87
						c1.52-0.26,3.54-0.68,5.06-0.98c1.22-0.25,2.85-0.59,4.06-0.9c1.61-0.4,3.74-0.98,5.32-1.45c-0.71,0.27-1.64,0.68-2.33,1
						c-0.81,0.37-1.86,0.92-2.66,1.31c-1,0.5-2.3,1.24-3.28,1.78c-2.81,1.64-6.48,3.96-9.19,5.77c-1.9,1.27-4.29,3.16-6.13,4.52
						c-5.19,4.37-11.86,10.49-16.68,15.27c-2.63,2.61-5.68,6.53-8.12,9.33c-2.27,2.84-5.16,6.73-7.22,9.73
						c-2.03,2.96-4.49,7.07-6.41,10.1c-1.9,3.26-4.28,7.7-5.94,11.09c-1.63,3.34-3.52,7.92-5.03,11.32
						C387.71,185.86,385.1,194.09,383.11,202.56z"/>
				</defs>
				<clipPath id="SVGID_28_">
					<use xlink:href="#SVGID_27_"  style="overflow:visible;"/>
				</clipPath>
				<g class="st20">
					<g>
						<path class="st17" d="M295.6,13.3c45.97,26.12,83.09,128.61,82.9,228.93c0.19-100.31-75.67-171.41-169.43-158.81
							C163.11,57.3,201.84,25.9,295.6,13.3z"/>
						<path class="st17" d="M337.57,61.96c-46.44,6.24-65.62,21.79-42.85,34.73"/>
						<path class="st18" d="M367.31,144.09c-12.8,1.72-18.09,6.01-11.81,9.57"/>
					</g>
					<g>
						<path class="st17" d="M209.08,83.42c93.76-12.61,169.61,58.49,169.43,158.81c0.19-100.31,37.61-160.46,83.58-134.34
							C368.33,120.49,255.05,109.54,209.08,83.42z"/>
						<path class="st17" d="M294.72,96.69c22.77,12.94,78.87,18.36,125.31,12.12"/>
						<path class="st18" d="M355.5,153.67c6.28,3.57,21.74,5.06,34.54,3.34"/>
						<path class="st17" d="M274.27,104.17c57.75-24.07,104.42,37.74,104.23,138.05"/>
						<path class="st17" d="M365.04,112.95c7.62-28.92,13.65,28.96,13.47,129.28"/>
					</g>
					<g>
						<path class="st17" d="M462.09,107.88c-45.97-26.12-83.39,34.03-83.58,134.34c0.19-100.31,76.34-191.86,170.1-204.46
							C594.58,63.88,555.84,95.27,462.09,107.88z"/>
						<path class="st17" d="M420.03,108.81c46.44-6.24,65.62-21.79,42.85-34.73"/>
						<path class="st18" d="M390.04,157.01c12.8-1.72,18.09-6.01,11.81-9.57"/>
						<path class="st17" d="M536.4,89.9c-87.02-16.19-157.71,52.01-157.9,152.32"/>
						<path class="st17" d="M567.44,64.75c-104.16-2.3-188.75,77.16-188.94,177.48"/>
					</g>
					<g>
						<path class="st18" d="M378.51,242.22c-0.19,100.31-37.61,160.46-83.58,134.34c-93.76,12.61-132.49,44-86.52,70.12
							C302.16,434.08,378.32,342.54,378.51,242.22z"/>
					</g>
					<g>
						<path class="st18" d="M378.51,242.22c-0.19,100.31-76.34,191.85-170.1,204.46c45.97,26.12,159.25,37.07,253.01,24.46
							C415.44,445.03,378.32,342.54,378.51,242.22z"/>
						<path class="st18" d="M378.51,242.22c-0.19,100.31-47.16,201.15-104.91,225.21"/>
						<path class="st18" d="M378.51,242.22c-0.19,100.31-6.52,205.07-14.14,233.99"/>
					</g>
					<g>
						<path class="st18" d="M378.51,242.22c-0.19,100.31,36.93,202.81,82.9,228.93c93.76-12.61,132.49-44,86.52-70.12
							C454.17,413.64,378.32,342.54,378.51,242.22z"/>
						<path class="st18" d="M378.51,242.22c-0.19,100.31,70.21,194.76,157.22,210.95"/>
						<path class="st18" d="M378.51,242.22c-0.19,100.31,84.1,183.49,188.26,185.79"/>
					</g>
				</g>
				<path class="st21" d="M383.11,202.56c-1.64,7.58-3.12,17.83-4.01,25.53c-0.49,4.21-0.41,9.89-0.59,14.13
					c0.19-100.31,84.9-180.32,189.21-178.7c-3.36,18.44-41.71,35.77-105.63,44.36c-59.66,8.02-127.23,6.51-180.33-2.39
					c-30.34-5.08-55.96-12.58-72.68-22.07c-12.54-7.12-18.78-14.64-19.31-22.06c90.18-0.37,165.51,59.98,184.26,141.06
					c-1.97-7.34-4.98-17.03-7.52-24.19c-1.33-3.76-3.75-8.52-5.36-12.17c-1.68-3.42-4.09-7.91-6.01-11.2
					c-1.83-3.14-4.56-7.16-6.51-10.22c-2.1-3.03-5.04-6.98-7.35-9.85c-2.19-2.73-5.36-6.17-7.66-8.81c-2.42-2.58-5.77-5.9-8.37-8.29
					c-2.45-2.25-5.93-5.03-8.47-7.19c-2.82-2.12-6.66-4.84-9.59-6.81c-1.67-1.12-4.01-2.41-5.73-3.45c-2.4-1.29-5.66-2.9-8.15-4.01
					c-1.32-0.59-3.16-1.16-4.52-1.66c0,0-0.01,0-0.01,0c0,0.07,0,0.16,0,0.23c0.26,0.15,0.61,0.36,0.87,0.51
					c0.54,0.27,1.29,0.59,1.85,0.81c0.82,0.33,1.88,1.05,2.77,1.05c4.93,1.11,10.11,2.12,15.51,3.03
					c8.09,1.36,16.66,2.47,25.54,3.33c2.23,0.22,5.2,0.54,7.43,0.77c2.47,0.26,5.76,0.61,8.23,0.87c6.76,0.37,13.62,0.62,20.53,0.73
					c6.91,0.11,13.88,0.08,20.84-0.08c2.85-0.19,6.66-0.45,9.51-0.64c2.48-0.16,5.79-0.37,8.27-0.53c9.45-0.61,18.8-1.53,27.9-2.75
					c3.43-0.53,8-1.27,11.42-1.87c1.52-0.26,3.54-0.68,5.06-0.98c1.22-0.25,2.85-0.59,4.06-0.9c1.61-0.4,3.74-0.98,5.32-1.45
					c-0.71,0.27-1.64,0.68-2.33,1c-0.81,0.37-1.86,0.92-2.66,1.31c-1,0.5-2.3,1.24-3.28,1.78c-2.81,1.64-6.48,3.96-9.19,5.77
					c-1.9,1.27-4.29,3.16-6.13,4.52c-5.19,4.37-11.86,10.49-16.68,15.27c-2.63,2.61-5.68,6.53-8.12,9.33
					c-2.27,2.84-5.16,6.73-7.22,9.73c-2.03,2.96-4.49,7.07-6.41,10.1c-1.9,3.26-4.28,7.7-5.94,11.09
					c-1.63,3.34-3.52,7.92-5.03,11.32C387.71,185.86,385.1,194.09,383.11,202.56z"/>
				<use xlink:href="#SVGID_27_"  style="overflow:visible;fill:none;stroke:#90A5AF;stroke-miterlimit:10;"/>
			</g>
			<g class="st15">
				<defs>
					<path id="SVGID_29_" class="st15" d="M378.51,242.22c0.03-13.68-1.52-27-4.48-39.8c-18.75-81.08-94.07-141.43-184.26-141.06
						c-1.44-19.79,37.65-38.89,105.84-48.06c93.76-12.61,207.03-1.65,253.01,24.46C454.85,50.37,378.69,141.91,378.51,242.22z"/>
				</defs>
				<clipPath id="SVGID_30_">
					<use xlink:href="#SVGID_29_"  style="overflow:visible;"/>
				</clipPath>
				<g class="st22">
					<g>
						<path class="st17" d="M548.61,37.76c-93.76,12.61-169.91,104.15-170.1,204.46c0.19-100.31-36.93-202.81-82.9-228.93
							C389.36,0.69,502.63,11.64,548.61,37.76z"/>
						<path class="st17" d="M462.88,74.08c-22.77-12.94-78.87-18.36-125.31-12.12"/>
						<path class="st18" d="M401.85,147.43c-6.28-3.57-21.74-5.06-34.54-3.34"/>
						<path class="st17" d="M483.41,17.01c-57.75,24.07-104.72,124.9-104.91,225.22"/>
						<path class="st17" d="M392.65,8.23c-7.62,28.92-13.96,133.68-14.14,233.99"/>
					</g>
					<g>
						<path class="st17" d="M295.6,13.3c45.97,26.12,83.09,128.61,82.9,228.93c0.19-100.31-75.67-171.41-169.43-158.81
							C163.11,57.3,201.84,25.9,295.6,13.3z"/>
						<path class="st17" d="M337.57,61.96c-46.44,6.24-65.62,21.79-42.85,34.73"/>
						<path class="st18" d="M367.31,144.09c-12.8,1.72-18.09,6.01-11.81,9.57"/>
						<path class="st17" d="M221.28,31.28c87.02,16.19,157.41,110.64,157.22,210.95"/>
						<path class="st17" d="M190.24,56.43c104.16,2.3,188.45,85.48,188.26,185.79"/>
					</g>
					<g>
						<path class="st18" d="M378.51,242.22c-0.19,100.31,75.67,171.41,169.43,158.8c-45.97-26.12-159.25-37.07-253.01-24.46
							C340.9,402.68,378.32,342.54,378.51,242.22z"/>
						<path class="st18" d="M378.51,242.22c-0.19,100.31,46.48,162.12,104.23,138.05"/>
						<path class="st18" d="M378.51,242.22c-0.19,100.31,5.84,158.19,13.47,129.27"/>
					</g>
					<g>
						<path class="st18" d="M378.51,242.22c-0.19,100.31-37.61,160.46-83.58,134.34c-93.76,12.61-132.49,44-86.52,70.12
							C302.16,434.08,378.32,342.54,378.51,242.22z"/>
						<path class="st18" d="M378.51,242.22c-0.19,100.31-70.88,168.51-157.9,152.32"/>
						<path class="st18" d="M378.51,242.22C378.32,342.54,293.73,422,189.57,419.7"/>
					</g>
				</g>
				<path class="st23" d="M378.51,242.22c0.03-13.68-1.52-27-4.48-39.8c-18.75-81.08-94.07-141.43-184.26-141.06
					c-1.44-19.79,37.65-38.89,105.84-48.06c93.76-12.61,207.03-1.65,253.01,24.46C454.85,50.37,378.69,141.91,378.51,242.22z"/>
				<use xlink:href="#SVGID_29_"  style="overflow:visible;fill:none;stroke:#90A5AF;stroke-miterlimit:10;"/>
			</g>
			<g class="st15">
				<defs>
					<path id="SVGID_31_" class="st15" d="M567.72,63.52c-104.31-1.62-189.03,78.39-189.21,178.7
						c0.19-100.31,76.34-191.86,170.1-204.46C563.23,46.07,569.29,54.92,567.72,63.52z"/>
				</defs>
				<clipPath id="SVGID_32_">
					<use xlink:href="#SVGID_31_"  style="overflow:visible;"/>
				</clipPath>
				<g class="st24">
					<g>
						<path class="st17" d="M462.09,107.88c-45.97-26.12-83.39,34.03-83.58,134.34c0.19-100.31,76.34-191.86,170.1-204.46
							C594.58,63.88,555.84,95.27,462.09,107.88z"/>
						<path class="st17" d="M420.03,108.81c46.44-6.24,65.62-21.79,42.85-34.73"/>
						<path class="st18" d="M390.04,157.01c12.8-1.72,18.09-6.01,11.81-9.57"/>
					</g>
					<g>
						<path class="st18" d="M378.51,242.22c-0.19,100.31,36.93,202.81,82.9,228.93c93.76-12.61,132.49-44,86.52-70.12
							C454.17,413.64,378.32,342.54,378.51,242.22z"/>
					</g>
				</g>
				<path class="st25" d="M567.72,63.52c-104.31-1.62-189.03,78.39-189.21,178.7c0.19-100.31,76.34-191.86,170.1-204.46
					C563.23,46.07,569.29,54.92,567.72,63.52z"/>
				<use xlink:href="#SVGID_31_"  style="overflow:visible;fill:none;stroke:#90A5AF;stroke-miterlimit:10;"/>
			</g>
			<g class="st15">
				<defs>
					<path id="SVGID_33_" class="st15" d="M378.51,242.22c-0.11,59.28,26.33,108.35,67.33,135.98c2.38,1.64,5.6,3.74,8.06,5.24
						c1.33,0.81,3.19,1.73,4.56,2.47c0.13,0.1,0.24,0.28,0.35,0.41c-0.14,0.03-0.33,0.07-0.47,0.11c-0.41-0.02-0.96-0.11-1.37-0.17
						c-0.67-0.11-1.57-0.3-2.24-0.43c-4.46-1.01-9.15-1.92-14.04-2.74c-7.32-1.23-15.08-2.24-23.11-3.01
						c-1.99-0.04-4.63-0.13-6.62-0.2c-2.22-0.09-5.29-1.04-7.39-0.33c-6.15-0.34-12.4-0.56-18.7-0.66
						c-6.3-0.1-12.64-0.08-18.99,0.08c-2.58,0.04-6.02,0.09-8.59,0.11c-2.23,0.02-5.19,0.01-7.42,0.01
						c-8.55,0.56-17.02,1.38-25.25,2.49c-3.03,0.33-7.06,0.8-10.08,1.18c-1.5,0.19-3.48,0.47-4.97,0.7
						c-2.19,0.33-5.1,0.82-7.28,1.23c-1.22,0.23-2.82,0.6-4.03,0.89c2.3-1.19,5.3-2.89,7.51-4.24c1.64-1,3.72-2.5,5.32-3.56
						c2.73-2,6.3-4.77,8.91-6.92c1.82-1.49,4.11-3.65,5.87-5.21c4.86-4.81,11.1-11.49,15.57-16.67c2.45-2.84,5.21-7.01,7.45-10.02
						c2.07-3.04,4.69-7.19,6.53-10.37c1.82-3.14,3.98-7.48,5.69-10.68c1.67-3.43,3.73-8.09,5.15-11.64
						c1.39-3.49,2.95-8.26,4.21-11.8c1.18-3.76,2.58-8.84,3.48-12.68c0.89-3.78,1.73-8.88,2.47-12.69
						c0.62-4.02,1.25-9.42,1.57-13.47C378.29,251.57,378.35,246.22,378.51,242.22z"/>
				</defs>
				<clipPath id="SVGID_34_">
					<use xlink:href="#SVGID_33_"  style="overflow:visible;"/>
				</clipPath>
				<g class="st26">
					<g>
						<path class="st18" d="M548.61,37.76c-93.76,12.61-169.91,104.15-170.1,204.46c0.19-100.31-36.93-202.81-82.9-228.93
							C389.36,0.69,502.63,11.64,548.61,37.76z"/>
						<path class="st18" d="M483.41,17.01c-57.75,24.07-104.72,124.9-104.91,225.22"/>
						<path class="st18" d="M392.65,8.23c-7.62,28.92-13.96,133.68-14.14,233.99"/>
					</g>
					<g>
						<path class="st18" d="M295.6,13.3c45.97,26.12,83.09,128.61,82.9,228.93c0.19-100.31-75.67-171.41-169.43-158.81
							C163.11,57.3,201.84,25.9,295.6,13.3z"/>
						<path class="st18" d="M221.28,31.28c87.02,16.19,157.41,110.64,157.22,210.95"/>
						<path class="st18" d="M190.24,56.43c104.16,2.3,188.45,85.48,188.26,185.79"/>
					</g>
					<g>
						<path class="st18" d="M378.51,242.22c-0.19,100.31,75.67,171.41,169.43,158.8c-45.97-26.12-159.25-37.07-253.01-24.46
							C340.9,402.68,378.32,342.54,378.51,242.22z"/>
						<path class="st18" d="M401.51,330.78c-6.28-3.57-21.74-5.06-34.54-3.34"/>
						<path class="st18" d="M462.3,387.75c-22.77-12.94-78.87-18.36-125.31-12.12"/>
						<path class="st18" d="M378.51,242.22c-0.19,100.31,46.48,162.12,104.23,138.05"/>
						<path class="st18" d="M378.51,242.22c-0.19,100.31,5.84,158.19,13.47,129.27"/>
					</g>
					<g>
						<path class="st18" d="M378.51,242.22c-0.19,100.31-37.61,160.46-83.58,134.34c-93.76,12.61-132.49,44-86.52,70.12
							C302.16,434.08,378.32,342.54,378.51,242.22z"/>
						<path class="st18" d="M366.97,327.44c-12.8,1.72-18.09,6.01-11.81,9.57"/>
						<path class="st18" d="M336.99,375.64c-46.44,6.24-65.62,21.79-42.85,34.73"/>
						<path class="st18" d="M378.51,242.22c-0.19,100.31-70.88,168.51-157.9,152.32"/>
						<path class="st18" d="M378.51,242.22C378.32,342.54,293.73,422,189.57,419.7"/>
					</g>
				</g>
				<path class="st27" d="M378.51,242.22c-0.11,59.28,26.33,108.35,67.33,135.98c2.38,1.64,5.6,3.74,8.06,5.24
					c1.33,0.81,3.19,1.73,4.56,2.47c0.13,0.1,0.24,0.28,0.35,0.41c-0.14,0.03-0.33,0.07-0.47,0.11c-0.41-0.02-0.96-0.11-1.37-0.17
					c-0.67-0.11-1.57-0.3-2.24-0.43c-4.46-1.01-9.15-1.92-14.04-2.74c-7.32-1.23-15.08-2.24-23.11-3.01
					c-1.99-0.04-4.63-0.13-6.62-0.2c-2.22-0.09-5.29-1.04-7.39-0.33c-6.15-0.34-12.4-0.56-18.7-0.66c-6.3-0.1-12.64-0.08-18.99,0.08
					c-2.58,0.04-6.02,0.09-8.59,0.11c-2.23,0.02-5.19,0.01-7.42,0.01c-8.55,0.56-17.02,1.38-25.25,2.49
					c-3.03,0.33-7.06,0.8-10.08,1.18c-1.5,0.19-3.48,0.47-4.97,0.7c-2.19,0.33-5.1,0.82-7.28,1.23c-1.22,0.23-2.82,0.6-4.03,0.89
					c2.3-1.19,5.3-2.89,7.51-4.24c1.64-1,3.72-2.5,5.32-3.56c2.73-2,6.3-4.77,8.91-6.92c1.82-1.49,4.11-3.65,5.87-5.21
					c4.86-4.81,11.1-11.49,15.57-16.67c2.45-2.84,5.21-7.01,7.45-10.02c2.07-3.04,4.69-7.19,6.53-10.37
					c1.82-3.14,3.98-7.48,5.69-10.68c1.67-3.43,3.73-8.09,5.15-11.64c1.39-3.49,2.95-8.26,4.21-11.8c1.18-3.76,2.58-8.84,3.48-12.68
					c0.89-3.78,1.73-8.88,2.47-12.69c0.62-4.02,1.25-9.42,1.57-13.47C378.29,251.57,378.35,246.22,378.51,242.22z"/>
				<use xlink:href="#SVGID_33_"  style="overflow:visible;fill:none;stroke:#000000;stroke-width:0.55;stroke-miterlimit:10;"/>
			</g>
			<g class="st15">
				<defs>
					<path id="SVGID_35_" class="st15" d="M458.33,386.43c-0.39-0.05-0.92-0.1-1.32-0.17c-0.69-0.12-1.61-0.3-2.3-0.44
						c-4.46-1.01-9.15-1.92-14.04-2.74c-7.32-1.23-15.08-2.24-23.11-3.01c-1.92,0-4.48-0.12-6.39-0.2
						c-2.29-0.09-5.33-0.23-7.62-0.34c-6.15-0.34-12.4-0.56-18.7-0.66c-6.3-0.1-12.64-0.08-18.99,0.08l0,0
						c-2.5,0.03-5.84,0.09-8.34,0.1c-2.3,0.02-5.37,0.02-7.68,0.01c-8.55,0.56-17.02,1.38-25.25,2.49
						c-1.96,0.22-4.57,0.48-6.53,0.73c-3.06,0.39-7.13,0.93-10.18,1.39c-2,0.3-4.65,0.79-6.63,1.17c-0.91,0.18-2.12,0.46-3.02,0.69
						c1.39-0.75,3.29-1.68,4.64-2.5c2.5-1.52,5.77-3.64,8.19-5.3c1.68-1.27,3.99-2.88,5.61-4.22c2.81-2.31,6.48-5.47,9.17-7.91
						c2.56-2.56,6.18-5.79,8.54-8.53c4.55-5.27,10.34-12.55,14.47-18.15c1.9-3.01,4.55-6.95,6.33-10.03
						c1.88-3.24,4.24-7.66,5.89-11.02c1.5-3.38,3.63-7.83,5-11.26c1.44-3.6,3.19-8.48,4.36-12.18c1.01-3.68,2.51-8.55,3.38-12.27
						c0.91-3.9,1.94-9.14,2.57-13.1c0.46-3.91,1.23-9.11,1.54-13.04c0.32-4.12,0.55-9.63,0.56-13.77
						c-0.19,100.31-84.99,181.98-189.42,182.4c-1.44-19.79,37.65-38.89,105.84-48.06c93.76-12.61,207.03-1.65,253.01,24.46
						c-38.36,5.16-73.71-3.69-102.1-22.82c1.34,1.34,3.63,2.54,5.24,3.53c2.17,1.33,5.12,3.01,7.37,4.19
						c0.1,0.12,0.24,0.28,0.35,0.4C458.66,386.35,458.48,386.44,458.33,386.43z"/>
				</defs>
				<clipPath id="SVGID_36_">
					<use xlink:href="#SVGID_35_"  style="overflow:visible;"/>
				</clipPath>
				<g class="st28">
					<g>
						<path class="st18" d="M548.61,37.76c-93.76,12.61-169.91,104.15-170.1,204.46c0.19-100.31-36.93-202.81-82.9-228.93
							C389.36,0.69,502.63,11.64,548.61,37.76z"/>
						<path class="st18" d="M483.41,17.01c-57.75,24.07-104.72,124.9-104.91,225.22"/>
						<path class="st18" d="M392.65,8.23c-7.62,28.92-13.96,133.68-14.14,233.99"/>
					</g>
					<g>
						<path class="st18" d="M295.6,13.3c45.97,26.12,83.09,128.61,82.9,228.93c0.19-100.31-75.67-171.41-169.43-158.81
							C163.11,57.3,201.84,25.9,295.6,13.3z"/>
						<path class="st18" d="M221.28,31.28c87.02,16.19,157.41,110.64,157.22,210.95"/>
						<path class="st18" d="M190.24,56.43c104.16,2.3,188.45,85.48,188.26,185.79"/>
					</g>
					<g>
						<path class="st18" d="M378.51,242.22c-0.19,100.31,75.67,171.41,169.43,158.8c-45.97-26.12-159.25-37.07-253.01-24.46
							C340.9,402.68,378.32,342.54,378.51,242.22z"/>
						<path class="st18" d="M401.51,330.78c-6.28-3.57-21.74-5.06-34.54-3.34"/>
						<path class="st18" d="M462.3,387.75c-22.77-12.94-78.87-18.36-125.31-12.12"/>
						<path class="st18" d="M378.51,242.22c-0.19,100.31,46.48,162.12,104.23,138.05"/>
						<path class="st18" d="M378.51,242.22c-0.19,100.31,5.84,158.19,13.47,129.27"/>
					</g>
					<g>
						<path class="st18" d="M378.51,242.22c-0.19,100.31-37.61,160.46-83.58,134.34c-93.76,12.61-132.49,44-86.52,70.12
							C302.16,434.08,378.32,342.54,378.51,242.22z"/>
						<path class="st18" d="M366.97,327.44c-12.8,1.72-18.09,6.01-11.81,9.57"/>
						<path class="st18" d="M336.99,375.64c-46.44,6.24-65.62,21.79-42.85,34.73"/>
						<path class="st18" d="M378.51,242.22c-0.19,100.31-70.88,168.51-157.9,152.32"/>
						<path class="st18" d="M378.51,242.22C378.32,342.54,293.73,422,189.57,419.7"/>
					</g>
					<g>
						<path class="st18" d="M547.93,401.03c93.76-12.61,169.91-104.15,170.1-204.46c-91.95-52.24-318.49-74.14-506.01-48.93
							c-0.19,100.31,36.93,202.81,82.9,228.93C388.68,363.96,501.96,374.91,547.93,401.03z"/>
						<path class="st18" d="M482.74,380.27c57.75-24.07,104.72-124.9,104.91-225.21"/>
						<path class="st18" d="M391.97,371.5c7.62-28.92,13.96-133.68,14.14-233.99"/>
					</g>
					<g>
						<path class="st18" d="M294.93,376.56c-45.97-26.12-83.09-128.61-82.9-228.93C24.51,172.85-52.97,235.64,38.98,287.88
							c-0.19,100.31,75.67,171.41,169.42,158.8C162.43,420.57,201.17,389.17,294.93,376.56z"/>
						<path class="st18" d="M220.61,394.54C133.59,378.35,63.2,283.91,63.39,183.6"/>
						<path class="st18" d="M189.57,419.7C85.41,417.4,1.12,334.22,1.31,233.91"/>
					</g>
				</g>
				<path class="st29" d="M458.33,386.43c-0.39-0.05-0.92-0.1-1.32-0.17c-0.69-0.12-1.61-0.3-2.3-0.44
					c-4.46-1.01-9.15-1.92-14.04-2.74c-7.32-1.23-15.08-2.24-23.11-3.01c-1.92,0-4.48-0.12-6.39-0.2c-2.29-0.09-5.33-0.23-7.62-0.34
					c-6.15-0.34-12.4-0.56-18.7-0.66c-6.3-0.1-12.64-0.08-18.99,0.08l0,0c-2.5,0.03-5.84,0.09-8.34,0.1
					c-2.3,0.02-5.37,0.02-7.68,0.01c-8.55,0.56-17.02,1.38-25.25,2.49c-1.96,0.22-4.57,0.48-6.53,0.73
					c-3.06,0.39-7.13,0.93-10.18,1.39c-2,0.3-4.65,0.79-6.63,1.17c-0.91,0.18-2.12,0.46-3.02,0.69c1.39-0.75,3.29-1.68,4.64-2.5
					c2.5-1.52,5.77-3.64,8.19-5.3c1.68-1.27,3.99-2.88,5.61-4.22c2.81-2.31,6.48-5.47,9.17-7.91c2.56-2.56,6.18-5.79,8.54-8.53
					c4.55-5.27,10.34-12.55,14.47-18.15c1.9-3.01,4.55-6.95,6.33-10.03c1.88-3.24,4.24-7.66,5.89-11.02c1.5-3.38,3.63-7.83,5-11.26
					c1.44-3.6,3.19-8.48,4.36-12.18c1.01-3.68,2.51-8.55,3.38-12.27c0.91-3.9,1.94-9.14,2.57-13.1c0.46-3.91,1.23-9.11,1.54-13.04
					c0.32-4.12,0.55-9.63,0.56-13.77c-0.19,100.31-84.99,181.98-189.42,182.4c-1.44-19.79,37.65-38.89,105.84-48.06
					c93.76-12.61,207.03-1.65,253.01,24.46c-38.36,5.16-73.71-3.69-102.1-22.82c1.34,1.34,3.63,2.54,5.24,3.53
					c2.17,1.33,5.12,3.01,7.37,4.19c0.1,0.12,0.24,0.28,0.35,0.4C458.66,386.35,458.48,386.44,458.33,386.43z"/>
				<use xlink:href="#SVGID_35_"  style="overflow:visible;fill:none;stroke:#000000;stroke-width:0.55;stroke-miterlimit:10;"/>
			</g>
			<g class="st15">
				<defs>
					<path id="SVGID_37_" class="st15" d="M378.51,242.22c-0.19,100.31,84.23,182.94,188.54,184.56
						c-3.36,18.44-41.71,35.77-105.63,44.36c-93.76,12.61-207.03,1.65-253.01-24.46c-12.54-7.12-18.78-14.64-19.31-22.06
						C293.51,424.2,378.32,342.54,378.51,242.22z"/>
				</defs>
				<clipPath id="SVGID_38_">
					<use xlink:href="#SVGID_37_"  style="overflow:visible;"/>
				</clipPath>
				<g class="st30">
					<g>
						<path class="st18" d="M295.6,13.3c45.97,26.12,83.09,128.61,82.9,228.93c0.19-100.31-75.67-171.41-169.43-158.81
							C163.11,57.3,201.84,25.9,295.6,13.3z"/>
					</g>
					<g>
						<path class="st18" d="M209.08,83.42c93.76-12.61,169.61,58.49,169.43,158.81c0.19-100.31,37.61-160.46,83.58-134.34
							C368.33,120.49,255.05,109.54,209.08,83.42z"/>
						<path class="st18" d="M274.27,104.17c57.75-24.07,104.42,37.74,104.23,138.05"/>
						<path class="st18" d="M365.04,112.95c7.62-28.92,13.65,28.96,13.47,129.28"/>
					</g>
					<g>
						<path class="st18" d="M462.09,107.88c-45.97-26.12-83.39,34.03-83.58,134.34c0.19-100.31,76.34-191.86,170.1-204.46
							C594.58,63.88,555.84,95.27,462.09,107.88z"/>
						<path class="st18" d="M536.4,89.9c-87.02-16.19-157.71,52.01-157.9,152.32"/>
						<path class="st18" d="M567.44,64.75c-104.16-2.3-188.75,77.16-188.94,177.48"/>
					</g>
					<g>
						<path class="st18" d="M378.51,242.22c-0.19,100.31-37.61,160.46-83.58,134.34c-93.76,12.61-132.49,44-86.52,70.12
							C302.16,434.08,378.32,342.54,378.51,242.22z"/>
						<path class="st18" d="M366.97,327.44c-12.8,1.72-18.09,6.01-11.81,9.57"/>
						<path class="st18" d="M336.99,375.64c-46.44,6.24-65.62,21.79-42.85,34.73"/>
					</g>
					<g>
						<path class="st18" d="M378.51,242.22c-0.19,100.31-76.34,191.85-170.1,204.46c45.97,26.12,159.25,37.07,253.01,24.46
							C415.44,445.03,378.32,342.54,378.51,242.22z"/>
						<path class="st18" d="M355.16,337.01c6.28,3.57,21.74,5.06,34.54,3.34"/>
						<path class="st18" d="M294.13,410.37c22.77,12.94,78.87,18.36,125.31,12.12"/>
						<path class="st18" d="M378.51,242.22c-0.19,100.31-47.16,201.15-104.91,225.21"/>
						<path class="st18" d="M378.51,242.22c-0.19,100.31-6.52,205.07-14.14,233.99"/>
					</g>
					<g>
						<path class="st18" d="M378.51,242.22c-0.19,100.31,36.93,202.81,82.9,228.93c93.76-12.61,132.49-44,86.52-70.12
							C454.17,413.64,378.32,342.54,378.51,242.22z"/>
						<path class="st18" d="M389.7,340.35c12.8-1.72,18.09-6.01,11.81-9.57"/>
						<path class="st18" d="M419.44,422.48c46.44-6.24,65.62-21.79,42.85-34.73"/>
						<path class="st18" d="M378.51,242.22c-0.19,100.31,70.21,194.76,157.22,210.95"/>
						<path class="st18" d="M378.51,242.22c-0.19,100.31,84.1,183.49,188.26,185.79"/>
					</g>
					<g>
						<path class="st18" d="M294.93,376.56c-45.97-26.12-83.09-128.61-82.9-228.93C24.51,172.85-52.97,235.64,38.98,287.88
							c-0.19,100.31,75.67,171.41,169.42,158.8C162.43,420.57,201.17,389.17,294.93,376.56z"/>
					</g>
					<g>
						<path class="st18" d="M208.4,446.69c-93.76,12.61-169.61-58.49-169.42-158.8c91.95,52.24,318.49,74.14,506.01,48.93
							c-0.19,100.31-37.61,160.46-83.58,134.34C367.65,483.76,254.38,472.81,208.4,446.69z"/>
						<path class="st18" d="M273.6,467.44c-57.75,24.07-104.42-37.74-104.23-138.05"/>
						<path class="st18" d="M364.36,476.22c-7.62,28.92-13.65-28.96-13.47-129.27"/>
					</g>
					<g>
						<path class="st18" d="M461.41,471.15c45.97,26.12,83.39-34.03,83.58-134.34c187.51-25.22,264.99-88.01,173.04-140.24
							c-0.19,100.31-76.34,191.85-170.1,204.46C593.91,427.15,555.17,458.54,461.41,471.15z"/>
						<path class="st18" d="M535.73,453.17c87.02,16.19,157.71-52.01,157.9-152.32"/>
						<path class="st18" d="M566.77,428.01c104.16,2.3,188.75-77.16,188.94-177.48"/>
					</g>
				</g>
				<path class="st31" d="M378.51,242.22c-0.19,100.31,84.23,182.94,188.54,184.56c-3.36,18.44-41.71,35.77-105.63,44.36
					c-93.76,12.61-207.03,1.65-253.01-24.46c-12.54-7.12-18.78-14.64-19.31-22.06C293.51,424.2,378.32,342.54,378.51,242.22z"/>
				<use xlink:href="#SVGID_37_"  style="overflow:visible;fill:none;stroke:#000000;stroke-width:0.55;stroke-miterlimit:10;"/>
			</g>
			<g class="st15">
				<defs>
					<path id="SVGID_39_" class="st15" d="M408.39,339.8c4.05,5.89,10.22,13.19,14.9,18.58c2.45,2.82,6.19,6.15,8.85,8.78
						c1.71,1.5,4.01,3.47,5.78,4.9c2.34,1.89,5.52,4.33,7.92,6.14c-41-27.63-67.44-76.71-67.33-135.98c0,4.14,0.2,9.65,0.51,13.78
						c0.29,3.93,1.04,9.14,1.49,13.06c0.61,3.96,1.62,9.22,2.53,13.13c0.86,3.73,2.35,8.61,3.35,12.31
						c2.58,8.24,5.76,16.22,9.49,23.89c1.68,3.42,4.09,7.91,6.01,11.2C403.71,332.72,406.33,336.81,408.39,339.8z"/>
				</defs>
				<clipPath id="SVGID_40_">
					<use xlink:href="#SVGID_39_"  style="overflow:visible;"/>
				</clipPath>
				<g class="st32">
					<g>
						<path class="st18" d="M462.09,107.88c-45.97-26.12-83.39,34.03-83.58,134.34c0.19-100.31,76.34-191.86,170.1-204.46
							C594.58,63.88,555.84,95.27,462.09,107.88z"/>
					</g>
					<g>
						<path class="st18" d="M378.51,242.22c-0.19,100.31,36.93,202.81,82.9,228.93c93.76-12.61,132.49-44,86.52-70.12
							C454.17,413.64,378.32,342.54,378.51,242.22z"/>
						<path class="st18" d="M389.7,340.35c12.8-1.72,18.09-6.01,11.81-9.57"/>
					</g>
				</g>
				<path class="st33" d="M408.39,339.8c4.05,5.89,10.22,13.19,14.9,18.58c2.45,2.82,6.19,6.15,8.85,8.78
					c1.71,1.5,4.01,3.47,5.78,4.9c2.34,1.89,5.52,4.33,7.92,6.14c-41-27.63-67.44-76.71-67.33-135.98c0,4.14,0.2,9.65,0.51,13.78
					c0.29,3.93,1.04,9.14,1.49,13.06c0.61,3.96,1.62,9.22,2.53,13.13c0.86,3.73,2.35,8.61,3.35,12.31
					c2.58,8.24,5.76,16.22,9.49,23.89c1.68,3.42,4.09,7.91,6.01,11.2C403.71,332.72,406.33,336.81,408.39,339.8z"/>
				<use xlink:href="#SVGID_39_"  style="overflow:visible;fill:none;stroke:#000000;stroke-width:0.55;stroke-miterlimit:10;"/>
			</g>
			<g class="st15">
				<defs>
					<path id="SVGID_41_" class="st15" d="M378.51,242.22c0.14,4,0.18,9.35,0.48,13.34c0.3,4.06,0.91,9.46,1.52,13.49
						c0.73,3.82,1.56,8.93,2.43,12.72c0.89,3.85,2.27,8.94,3.45,12.72c2.58,8.24,5.76,16.22,9.49,23.89c0,3.69,3.95,7.67,5.81,10.86
						c1.89,3.24,4.58,7.47,6.71,10.57c2.3,3.07,5.14,7.34,7.65,10.24c4.62,5.32,11.07,12.18,16.09,17.12
						c1.37,1.17,3.16,2.77,4.56,3.9c1.28,1.03,2.98,2.42,4.27,3.44c1.45,1.13,3.39,2.61,4.86,3.7
						c28.38,19.13,63.74,27.98,102.1,22.82c14.63,8.31,20.68,17.16,19.11,25.76C462.73,425.17,378.32,342.54,378.51,242.22z"/>
				</defs>
				<clipPath id="SVGID_42_">
					<use xlink:href="#SVGID_41_"  style="overflow:visible;"/>
				</clipPath>
				<g class="st34">
					<g>
						<path class="st18" d="M462.09,107.88c-45.97-26.12-83.39,34.03-83.58,134.34c0.19-100.31,76.34-191.86,170.1-204.46
							C594.58,63.88,555.84,95.27,462.09,107.88z"/>
					</g>
					<g>
						<path class="st18" d="M378.51,242.22c-0.19,100.31,36.93,202.81,82.9,228.93c93.76-12.61,132.49-44,86.52-70.12
							C454.17,413.64,378.32,342.54,378.51,242.22z"/>
						<path class="st18" d="M389.7,340.35c12.8-1.72,18.09-6.01,11.81-9.57"/>
						<path class="st18" d="M419.44,422.48c46.44-6.24,65.62-21.79,42.85-34.73"/>
					</g>
					<g>
						<path class="st18" d="M461.41,471.15c45.97,26.12,83.39-34.03,83.58-134.34c187.51-25.22,264.99-88.01,173.04-140.24
							c-0.19,100.31-76.34,191.85-170.1,204.46C593.91,427.15,555.17,458.54,461.41,471.15z"/>
					</g>
				</g>
				<path class="st35" d="M378.51,242.22c0.14,4,0.18,9.35,0.48,13.34c0.3,4.06,0.91,9.46,1.52,13.49
					c0.73,3.82,1.56,8.93,2.43,12.72c0.89,3.85,2.27,8.94,3.45,12.72c2.58,8.24,5.76,16.22,9.49,23.89c0,3.69,3.95,7.67,5.81,10.86
					c1.89,3.24,4.58,7.47,6.71,10.57c2.3,3.07,5.14,7.34,7.65,10.24c4.62,5.32,11.07,12.18,16.09,17.12
					c1.37,1.17,3.16,2.77,4.56,3.9c1.28,1.03,2.98,2.42,4.27,3.44c1.45,1.13,3.39,2.61,4.86,3.7
					c28.38,19.13,63.74,27.98,102.1,22.82c14.63,8.31,20.68,17.16,19.11,25.76C462.73,425.17,378.32,342.54,378.51,242.22z"/>
				<use xlink:href="#SVGID_41_"  style="overflow:visible;fill:none;stroke:#000000;stroke-width:0.55;stroke-miterlimit:10;"/>
			</g>
			<g class="st15">
				<defs>
					<path id="SVGID_43_" class="st15" d="M567.72,63.52c1.57-8.6-4.48-17.45-19.11-25.76c38.36-5.16,73.71,3.69,102.1,22.82
						c5.55,3.45,12.95,8.09,18.1,12.12c7.48,5.85,17.01,14.23,23.91,20.76c6.19,6.36,14.14,15.15,19.84,21.96
						c3.05,3.64,6.51,8.98,9.31,12.82c2.78,4.2,6.26,9.94,8.7,14.35c2.35,4.26,5.08,10.16,7.25,14.52
						c3.73,7.67,6.91,15.64,9.49,23.89c1.54,4.89,3.32,11.49,4.44,16.5c1.09,4.87,2.05,11.46,2.93,16.37
						c0.69,5.15,1.31,12.06,1.55,17.26c0.24,5.09,0.03,11.88,0.04,16.98c-0.61,9.33-1.92,21.75-3.27,31.01
						c-0.71,4.87-2.52,11.2-3.6,15.99c-1.99,8.47-4.6,16.7-7.79,24.63c-1.93,4.7-4.76,10.85-7.06,15.38
						c-2.23,4.38-5.61,10-8.01,14.29c-2.66,4.33-6.43,9.96-9.41,14.07c-2.89,3.99-7.09,9.03-10.12,12.9
						c-5.91,6.64-14.12,15.22-20.49,21.42c-3.38,3.29-8.39,7.13-11.98,10.18c-6.22,4.75-14.75,10.81-21.27,15.14
						c-4.23,2.8-10.18,6.04-14.55,8.63c-5.67,3.06-13.28,7.08-19.18,9.67c-9.54,4.19-22.48,9.26-32.25,12.89
						c-8.57,2.79-20.08,6.27-28.76,8.72c-5.19,1.46-12.18,3.12-17.44,4.3c-5.4,1.21-12.6,2.83-18.05,3.79
						c-5.57,0.98-12.98,2.38-18.57,3.28c-5.69,0.91-13.24,2.75-19,2.75c-16.48,2.22-33.42,3.87-50.55,4.98
						c-5.55,0.37-12.97,0.73-18.53,0.92c-5.13,0.17-11.97,0.19-17.1,0.27c-10.88,0.26-21.75,0.3-32.55,0.13
						c-10.79-0.17-21.51-0.55-32.06-1.13c-5.31-0.16-12.38-0.48-17.68-0.81c-5.3-0.33-12.36-0.98-17.66-1.4
						c-16.09-1.56-31.61-3.58-46.28-6.03c-9.78-1.64-19.17-3.47-28.1-5.49c-5.33-1.07-12.42-2.64-17.7-3.92
						c-5.11-1.24-11.87-3.13-16.96-4.47c-5.18-1.48-12.06-3.61-17.17-5.32c-4.88-1.64-11.3-4.09-16.15-5.84
						c-7.71-3.08-17.87-7.46-25.38-10.98c-4.78-2.24-10.9-5.72-15.57-8.18c-7.01-4.13-16.19-9.94-22.91-14.52
						c-4.16-2.84-9.32-7.14-13.32-10.2c-3.94-3.21-9.05-7.68-12.75-11.17c-3.57-3.37-8.04-8.17-11.48-11.67
						c-3.41-3.74-7.77-8.89-10.89-12.87c-3.01-3.85-6.66-9.24-9.52-13.21c-2.78-4.2-6.26-9.94-8.7-14.35
						c-2.35-4.26-5.08-10.16-7.25-14.52c-3.48-8.3-7.68-19.55-10.48-28.09c-1.51-4.61-2.72-10.98-3.89-15.69
						c-1.54-9.09-3.1-21.3-3.89-30.49c-0.43-5-0.13-11.7-0.18-16.71c0.02-9.12,0.73-18.07,2.1-26.81
						c0.83-5.09,2.23-11.84,3.49-16.84c1.21-4.82,3.31-11.11,4.73-15.87c1.67-4.84,4.16-11.19,6.22-15.88
						c1.99-4.53,5.07-10.37,7.24-14.82c2.43-4.5,5.9-10.37,8.66-14.67c2.68-4.17,6.62-9.47,9.46-13.53
						c5.53-7.02,13.25-16.13,19.27-22.74c3.19-3.51,7.99-7.67,11.41-10.95c6.1-5.08,14.47-11.58,20.89-16.24
						c4.17-3.03,10.08-6.56,14.39-9.37c7.08-4.14,16.7-9.38,24.01-13.11c4.69-2.39,11.19-5.09,15.98-7.28
						c7.53-2.94,17.61-6.78,25.32-9.22c10.28-3.25,24.15-7.08,34.6-9.75c5.51-1.41,12.9-3.09,18.48-4.16
						c11.64-2.23,27.2-4.95,38.9-6.83c17.34-2.33,35.17-4.07,53.2-5.24c5.82-0.53,13.58-1.11,19.41-1.46
						c5.39-0.32,12.79-2.27,17.99-0.78c11.5-0.27,23-0.32,34.41-0.14c11.41,0.18,22.73,0.58,33.89,1.2
						c5.57,0.32,12.98,0.87,18.54,1.37c5.54,0.5,12.91,1.36,18.45,1.95c16.94,1.64,33.27,3.76,48.7,6.35
						c10.29,1.72,20.18,3.65,29.57,5.78c5.5,1.26,12.8,3.08,18.25,4.56c5.26,1.42,12.19,3.56,17.42,5.09
						c5.31,1.67,12.35,4.05,17.58,5.96c4.99,1.82,11.53,4.52,16.47,6.45c7.72,3.46,17.9,8.35,25.41,12.24
						c4.77,2.47,10.85,6.27,15.49,8.95c-28.38-19.13-63.74-27.98-102.1-22.82C502.63,11.64,389.36,0.69,295.6,13.3
						c-68.19,9.17-107.27,28.28-105.84,48.06c0.54,7.42,6.78,14.94,19.31,22.06c16.72,9.5,42.33,16.99,72.68,22.07
						c-3.37-0.02-7.85,0.01-11.22,0.06c-1.68,0.03-3.91,0.14-5.59,0.21c-3.36,0.13-7.84,0.47-11.19,0.8
						c-3.38,0.33-7.88,0.9-11.26,1.35c-1.7,0.23-3.96,0.62-5.66,0.89c-3.43,0.54-7.97,1.49-11.38,2.2
						c-3.46,0.73-8.03,1.86-11.45,2.75c-3.47,0.91-8.09,2.19-11.52,3.24c-3.48,1.07-8.12,2.5-11.57,3.65
						c-9.05,3.01-21.48,6.17-30.12,10.23c-18.9,8.91-41.64,25.7-57.42,39.39c-8.48,7.35-16.8,20.23-22.48,29.91
						c-12.07,20.59-17.22,53.32-19.9,77.04c-1.47,13.04,4.32,30.3,6.35,43.26c4.06,25.9,26.2,56.32,44.2,75.38
						c18.09,19.15,48.06,39.02,71.61,50.84c23.03,11.56,56.53,21.19,81.82,26.15c25.89,5.08,61.13,7.5,87.45,9.13
						c15.08,0.93,35.26-0.41,50.37-0.59c26.44-0.32,61.39-6.61,87.42-11.25c27.68-4.93,62.37-20.75,87.86-32.61
						c12.86-5.98,28.62-17,39.16-26.49c20.66-18.61,42.7-49.27,56.81-73.23c7.02-11.92,10.63-30.69,12.45-44.4
						c3.36-25.22-2.21-60.72-12.88-83.82c-10.21-22.09-35.11-45.14-53.86-60.65c-19.1-15.79-52.26-25.53-76.24-31.77
						c-23.8-6.2-56.91-7.71-81.45-9.27C526.01,99.29,564.36,81.96,567.72,63.52z"/>
				</defs>
				<clipPath id="SVGID_44_">
					<use xlink:href="#SVGID_43_"  style="overflow:visible;"/>
				</clipPath>
				<g class="st36">
					<g>
						<path class="st18" d="M547.93,401.03c93.76-12.61,169.91-104.15,170.1-204.46c-91.95-52.24-318.49-74.14-506.01-48.93
							c-0.19,100.31,36.93,202.81,82.9,228.93C388.68,363.96,501.96,374.91,547.93,401.03z"/>
						<path class="st18" d="M633.66,364.71c-69.18-39.3-239.62-55.78-380.7-36.81"/>
						<path class="st18" d="M694.68,291.36c-85.67-48.67-296.75-69.08-471.47-45.59"/>
						<path class="st18" d="M482.74,380.27c57.75-24.07,104.72-124.9,104.91-225.21"/>
						<path class="st18" d="M391.97,371.5c7.62-28.92,13.96-133.68,14.14-233.99"/>
					</g>
					<g>
						<path class="st18" d="M294.93,376.56c-45.97-26.12-83.09-128.61-82.9-228.93C24.51,172.85-52.97,235.64,38.98,287.88
							c-0.19,100.31,75.67,171.41,169.42,158.8C162.43,420.57,201.17,389.17,294.93,376.56z"/>
						<path class="st18" d="M252.96,327.9c-141.08,18.97-199.37,66.21-130.19,105.51"/>
						<path class="st18" d="M223.22,245.77c-174.71,23.49-246.9,82-161.23,130.67"/>
						<path class="st18" d="M220.61,394.54C133.59,378.35,63.2,283.91,63.39,183.6"/>
						<path class="st18" d="M189.57,419.7C85.41,417.4,1.12,334.22,1.31,233.91"/>
					</g>
					<g>
						<path class="st18" d="M208.4,446.69c-93.76,12.61-169.61-58.49-169.42-158.8c91.95,52.24,318.49,74.14,506.01,48.93
							c-0.19,100.31-37.61,160.46-83.58,134.34C367.65,483.76,254.38,472.81,208.4,446.69z"/>
						<path class="st18" d="M122.77,433.41c69.18,39.3,239.62,55.78,380.7,36.81"/>
						<path class="st18" d="M61.99,376.44c85.67,48.67,296.75,69.08,471.47,45.59"/>
						<path class="st18" d="M273.6,467.44c-57.75,24.07-104.42-37.74-104.23-138.05"/>
						<path class="st18" d="M364.36,476.22c-7.62,28.92-13.65-28.96-13.47-129.27"/>
					</g>
					<g>
						<path class="st18" d="M461.41,471.15c45.97,26.12,83.39-34.03,83.58-134.34c187.51-25.22,264.99-88.01,173.04-140.24
							c-0.19,100.31-76.34,191.85-170.1,204.46C593.91,427.15,555.17,458.54,461.41,471.15z"/>
						<path class="st18" d="M503.47,470.22c141.08-18.97,199.37-66.21,130.19-105.51"/>
						<path class="st18" d="M533.45,422.03c174.71-23.49,246.9-82,161.23-130.67"/>
						<path class="st18" d="M535.73,453.17c87.02,16.19,157.71-52.01,157.9-152.32"/>
						<path class="st18" d="M566.77,428.01c104.16,2.3,188.75-77.16,188.94-177.48"/>
					</g>
					<g>
						<path class="st18" d="M718.03,196.57c0.19-100.31-75.67-171.41-169.42-158.81C502.63,11.64,389.36,0.69,295.6,13.3
							c-45.97-26.12-83.39,34.03-83.58,134.34C399.54,122.42,626.08,144.33,718.03,196.57z"/>
						<path class="st18" d="M695.02,108.01c-85.67-48.67-296.75-69.08-471.47-45.59"/>
						<path class="st18" d="M634.24,51.04c-69.18-39.3-239.62-55.78-380.7-36.81"/>
						<path class="st18" d="M587.65,155.06C587.83,54.75,541.17-7.06,483.41,17.01"/>
						<path class="st18" d="M406.12,137.51c0.19-100.31-5.84-158.19-13.47-129.28"/>
					</g>
					<g>
						<path class="st18" d="M212.02,147.64C212.21,47.32,249.63-12.82,295.6,13.3c-93.76,12.61-132.49,44-86.52,70.12
							C115.32,96.03,39.17,187.57,38.98,287.88C-52.97,235.64,24.51,172.85,212.02,147.64z"/>
						<path class="st18" d="M223.56,62.42c-174.71,23.49-246.9,82-161.23,130.67"/>
						<path class="st18" d="M253.54,14.22C112.46,33.2,54.17,80.44,123.35,119.74"/>
						<path class="st18" d="M63.39,183.6c0.19-100.31,70.88-168.51,157.9-152.32"/>
						<path class="st18" d="M1.31,233.91C1.49,133.6,86.08,54.14,190.24,56.43"/>
					</g>
					<g>
						<path class="st18" d="M38.98,287.88c0.19-100.31,76.34-191.86,170.1-204.46c45.97,26.12,159.25,37.07,253.01,24.46
							c45.97,26.12,83.09,128.61,82.9,228.93C357.47,362.03,130.93,340.12,38.98,287.88z"/>
						<path class="st18" d="M62.33,193.09c85.67,48.67,296.75,69.08,471.47,45.59"/>
						<path class="st18" d="M123.35,119.74c69.18,39.3,239.62,55.78,380.7,36.81"/>
						<path class="st18" d="M169.36,329.39c0.19-100.31,47.15-201.15,104.91-225.22"/>
						<path class="st18" d="M350.89,346.94c0.19-100.31,6.52-205.08,14.14-233.99"/>
					</g>
					<g>
						<path class="st18" d="M544.99,336.81c0.19-100.31-36.93-202.81-82.9-228.93c93.76-12.61,132.49-44,86.52-70.12
							c93.76-12.61,169.61,58.49,169.42,158.81C809.98,248.8,732.5,311.59,544.99,336.81z"/>
						<path class="st18" d="M533.79,238.68c174.71-23.49,246.9-82,161.23-130.67"/>
						<path class="st18" d="M504.05,156.55c141.08-18.97,199.37-66.21,130.19-105.51"/>
						<path class="st18" d="M693.62,300.85c0.19-100.31-70.2-194.76-157.22-210.95"/>
						<path class="st18" d="M755.7,250.54c0.19-100.31-84.1-183.5-188.26-185.79"/>
					</g>
				</g>
				<path class="st37" d="M567.72,63.52c1.57-8.6-4.48-17.45-19.11-25.76c38.36-5.16,73.71,3.69,102.1,22.82
					c5.55,3.45,12.95,8.09,18.1,12.12c7.48,5.85,17.01,14.23,23.91,20.76c6.19,6.36,14.14,15.15,19.84,21.96
					c3.05,3.64,6.51,8.98,9.31,12.82c2.78,4.2,6.26,9.94,8.7,14.35c2.35,4.26,5.08,10.16,7.25,14.52
					c3.73,7.67,6.91,15.64,9.49,23.89c1.54,4.89,3.32,11.49,4.44,16.5c1.09,4.87,2.05,11.46,2.93,16.37
					c0.69,5.15,1.31,12.06,1.55,17.26c0.24,5.09,0.03,11.88,0.04,16.98c-0.61,9.33-1.92,21.75-3.27,31.01
					c-0.71,4.87-2.52,11.2-3.6,15.99c-1.99,8.47-4.6,16.7-7.79,24.63c-1.93,4.7-4.76,10.85-7.06,15.38
					c-2.23,4.38-5.61,10-8.01,14.29c-2.66,4.33-6.43,9.96-9.41,14.07c-2.89,3.99-7.09,9.03-10.12,12.9
					c-5.91,6.64-14.12,15.22-20.49,21.42c-3.38,3.29-8.39,7.13-11.98,10.18c-6.22,4.75-14.75,10.81-21.27,15.14
					c-4.23,2.8-10.18,6.04-14.55,8.63c-5.67,3.06-13.28,7.08-19.18,9.67c-9.54,4.19-22.48,9.26-32.25,12.89
					c-8.57,2.79-20.08,6.27-28.76,8.72c-5.19,1.46-12.18,3.12-17.44,4.3c-5.4,1.21-12.6,2.83-18.05,3.79
					c-5.57,0.98-12.98,2.38-18.57,3.28c-5.69,0.91-13.24,2.75-19,2.75c-16.48,2.22-33.42,3.87-50.55,4.98
					c-5.55,0.37-12.97,0.73-18.53,0.92c-5.13,0.17-11.97,0.19-17.1,0.27c-10.88,0.26-21.75,0.3-32.55,0.13
					c-10.79-0.17-21.51-0.55-32.06-1.13c-5.31-0.16-12.38-0.48-17.68-0.81c-5.3-0.33-12.36-0.98-17.66-1.4
					c-16.09-1.56-31.61-3.58-46.28-6.03c-9.78-1.64-19.17-3.47-28.1-5.49c-5.33-1.07-12.42-2.64-17.7-3.92
					c-5.11-1.24-11.87-3.13-16.96-4.47c-5.18-1.48-12.06-3.61-17.17-5.32c-4.88-1.64-11.3-4.09-16.15-5.84
					c-7.71-3.08-17.87-7.46-25.38-10.98c-4.78-2.24-10.9-5.72-15.57-8.18c-7.01-4.13-16.19-9.94-22.91-14.52
					c-4.16-2.84-9.32-7.14-13.32-10.2c-3.94-3.21-9.05-7.68-12.75-11.17c-3.57-3.37-8.04-8.17-11.48-11.67
					c-3.41-3.74-7.77-8.89-10.89-12.87c-3.01-3.85-6.66-9.24-9.52-13.21c-2.78-4.2-6.26-9.94-8.7-14.35
					c-2.35-4.26-5.08-10.16-7.25-14.52c-3.48-8.3-7.68-19.55-10.48-28.09c-1.51-4.61-2.72-10.98-3.89-15.69
					c-1.54-9.09-3.1-21.3-3.89-30.49c-0.43-5-0.13-11.7-0.18-16.71c0.02-9.12,0.73-18.07,2.1-26.81c0.83-5.09,2.23-11.84,3.49-16.84
					c1.21-4.82,3.31-11.11,4.73-15.87c1.67-4.84,4.16-11.19,6.22-15.88c1.99-4.53,5.07-10.37,7.24-14.82
					c2.43-4.5,5.9-10.37,8.66-14.67c2.68-4.17,6.62-9.47,9.46-13.53c5.53-7.02,13.25-16.13,19.27-22.74
					c3.19-3.51,7.99-7.67,11.41-10.95c6.1-5.08,14.47-11.58,20.89-16.24c4.17-3.03,10.08-6.56,14.39-9.37
					c7.08-4.14,16.7-9.38,24.01-13.11c4.69-2.39,11.19-5.09,15.98-7.28c7.53-2.94,17.61-6.78,25.32-9.22
					c10.28-3.25,24.15-7.08,34.6-9.75c5.51-1.41,12.9-3.09,18.48-4.16c11.64-2.23,27.2-4.95,38.9-6.83
					c17.34-2.33,35.17-4.07,53.2-5.24c5.82-0.53,13.58-1.11,19.41-1.46c5.39-0.32,12.79-2.27,17.99-0.78
					c11.5-0.27,23-0.32,34.41-0.14c11.41,0.18,22.73,0.58,33.89,1.2c5.57,0.32,12.98,0.87,18.54,1.37
					c5.54,0.5,12.91,1.36,18.45,1.95c16.94,1.64,33.27,3.76,48.7,6.35c10.29,1.72,20.18,3.65,29.57,5.78
					c5.5,1.26,12.8,3.08,18.25,4.56c5.26,1.42,12.19,3.56,17.42,5.09c5.31,1.67,12.35,4.05,17.58,5.96
					c4.99,1.82,11.53,4.52,16.47,6.45c7.72,3.46,17.9,8.35,25.41,12.24c4.77,2.47,10.85,6.27,15.49,8.95
					c-28.38-19.13-63.74-27.98-102.1-22.82C502.63,11.64,389.36,0.69,295.6,13.3c-68.19,9.17-107.27,28.28-105.84,48.06
					c0.54,7.42,6.78,14.94,19.31,22.06c16.72,9.5,42.33,16.99,72.68,22.07c-3.37-0.02-7.85,0.01-11.22,0.06
					c-1.68,0.03-3.91,0.14-5.59,0.21c-3.36,0.13-7.84,0.47-11.19,0.8c-3.38,0.33-7.88,0.9-11.26,1.35c-1.7,0.23-3.96,0.62-5.66,0.89
					c-3.43,0.54-7.97,1.49-11.38,2.2c-3.46,0.73-8.03,1.86-11.45,2.75c-3.47,0.91-8.09,2.19-11.52,3.24
					c-3.48,1.07-8.12,2.5-11.57,3.65c-9.05,3.01-21.48,6.17-30.12,10.23c-18.9,8.91-41.64,25.7-57.42,39.39
					c-8.48,7.35-16.8,20.23-22.48,29.91c-12.07,20.59-17.22,53.32-19.9,77.04c-1.47,13.04,4.32,30.3,6.35,43.26
					c4.06,25.9,26.2,56.32,44.2,75.38c18.09,19.15,48.06,39.02,71.61,50.84c23.03,11.56,56.53,21.19,81.82,26.15
					c25.89,5.08,61.13,7.5,87.45,9.13c15.08,0.93,35.26-0.41,50.37-0.59c26.44-0.32,61.39-6.61,87.42-11.25
					c27.68-4.93,62.37-20.75,87.86-32.61c12.86-5.98,28.62-17,39.16-26.49c20.66-18.61,42.7-49.27,56.81-73.23
					c7.02-11.92,10.63-30.69,12.45-44.4c3.36-25.22-2.21-60.72-12.88-83.82c-10.21-22.09-35.11-45.14-53.86-60.65
					c-19.1-15.79-52.26-25.53-76.24-31.77c-23.8-6.2-56.91-7.71-81.45-9.27C526.01,99.29,564.36,81.96,567.72,63.52z"/>
				<use xlink:href="#SVGID_43_"  style="overflow:visible;fill:none;stroke:#000000;stroke-width:0.55;stroke-miterlimit:10;"/>
			</g>
			<g class="st15">
				<defs>
					<path id="SVGID_45_" class="st15" d="M721.86,128.24c2.53,4.16,6.08,9.61,8.44,13.88c2.43,4.4,5.44,10.4,7.51,14.98
						c3.73,7.67,6.91,15.64,9.49,23.89c1.3,4.79,3.24,11.12,4.33,15.96c1.13,5.03,2.35,11.8,3.04,16.9
						c0.46,5.01,1.29,11.68,1.53,16.7c0.24,5.25,0.27,12.27,0.07,17.53c-0.35,5.01-0.44,11.72-1.17,16.69
						c-1.34,9.16-3.63,21.29-5.7,30.31c-1.99,8.47-4.6,16.7-7.79,24.63c0,0,0,0,0,0c-2.05,4.47-4.59,10.52-6.82,14.9
						c-2.3,4.52-5.61,10.43-8.25,14.76c-2.73,4.09-6.21,9.65-9.09,13.63c-2.98,4.12-7.16,9.45-10.44,13.34
						c-3.18,3.54-7.18,8.47-10.59,11.79c-6.35,6.18-15.11,14.11-21.88,19.81c-3.99,2.96-9.16,7.11-13.3,9.85
						c-6.62,4.39-15.64,9.95-22.52,13.91c-9.04,4.65-21.24,10.56-30.55,14.65c-6.13,2.69-14.56,5.69-20.88,7.91
						c-4.84,1.55-11.24,3.81-16.15,5.16c-10.3,2.85-24.09,6.51-34.52,8.85c-5.43,1.22-12.7,2.72-18.19,3.67
						c-9.86,1.7-23.05,3.76-32.96,5.16c-16.48,2.22-33.42,3.87-50.55,4.98l0,0c-5.39,0.18-12.57,0.72-17.96,0.9
						c-5.3,0.18-12.37,0.29-17.67,0.29c-10.88,0.26-21.75,0.3-32.55,0.13c-10.79-0.17-21.51-0.55-32.06-1.13l0,0
						c-5.13-0.23-11.98-0.46-17.11-0.78c-5.48-0.34-12.77-0.92-18.23-1.43c-16.09-1.56-31.61-3.58-46.28-6.03
						c-9.78-1.64-19.17-3.47-28.1-5.49c-4.71,2.36-12.02-2.54-17.14-3.78c-5.28-1.28-12.29-3.11-17.52-4.6
						c-4.99-1.54-11.68-3.48-16.63-5.14c-5.05-1.69-11.73-4.09-16.69-6.02c-4.88-2.02-11.48-4.48-16.26-6.72
						c-7.51-3.51-17.4-8.48-24.69-12.44c-4.45-2.71-10.54-6.09-14.85-9.03c-6.57-4.49-15.14-10.76-21.39-15.7
						c-3.71-3.24-8.77-7.43-12.36-10.8c-3.69-3.48-8.45-8.3-11.88-12.04c-3.17-3.74-7.54-8.59-10.56-12.45
						c-3.11-3.97-7.05-9.43-9.85-13.63c-2.53-4.16-6.08-9.61-8.44-13.88c-2.43-4.4-5.44-10.4-7.51-14.98
						c-1.83-4.43-4.6-10.2-6.09-14.75c-2.82-8.61-6.14-20.23-8.28-29.03c-0.79-4.83-2.22-11.23-2.64-16.11
						c-0.8-9.3-1.38-21.76-1.44-31.09c0.02-9.12,0.73-18.07,2.1-26.81l0,0c1.01-4.89,2.14-11.47,3.36-16.31
						c1.25-4.98,3.2-11.54,4.86-16.4c1.8-4.62,4.01-10.85,6-15.38c2.05-4.68,5.04-10.81,7.46-15.31c2.51-4.26,5.7-10.05,8.37-14.21
						c2.77-4.3,6.67-9.9,9.75-13.99c2.98-3.74,6.7-8.94,9.92-12.47c6-6.58,14.31-15.08,20.77-21.22c3.91-3.16,8.97-7.59,13.04-10.55
						c6.52-4.73,15.44-10.76,22.25-15.06c4.53-2.57,10.46-6.21,15.11-8.58c7.36-3.75,17.33-8.48,24.89-11.81
						c4.6-1.75,10.66-4.29,15.34-5.83c9.99-3.3,23.33-7.72,33.53-10.32c10.97-2.8,25.68-6.19,36.77-8.43
						c9.44-1.9,22.14-3.9,31.66-5.37c17.34-2.33,35.17-4.07,53.2-5.24l0,0c5.64-0.43,13.16-1.09,18.81-1.43
						c5.57-0.33,13.01-0.66,18.59-0.82c11.5-0.27,23-0.32,34.41-0.14c11.41,0.18,22.73,0.58,33.89,1.2l0,0
						c5.38,0.4,12.57,0.84,17.94,1.32c5.72,0.51,13.34,1.31,19.05,2c16.94,1.64,33.27,3.76,48.7,6.35
						c10.29,1.72,20.18,3.65,29.57,5.78l0,0c5.3,1.32,12.4,2.97,17.67,4.4c5.43,1.47,12.63,3.56,18,5.24
						c5.11,1.73,11.96,3.91,17.03,5.76c5.15,1.88,11.97,4.53,17.02,6.65c4.89,2.26,11.52,5.05,16.3,7.53
						c7.5,3.88,17.35,9.35,24.6,13.66c41,27.63,67.44,76.71,67.33,135.98c-0.19,100.31-76.34,191.85-170.1,204.46
						c-45.97-26.12-159.25-37.07-253.01-24.46c-68.19,9.17-107.27,28.28-105.84,48.06c0.54,7.42,6.78,14.94,19.31,22.06
						c45.97,26.12,159.25,37.07,253.01,24.46c63.93-8.6,102.27-25.93,105.63-44.36c1.57-8.6-4.48-17.45-19.11-25.76
						c93.76-12.61,169.91-104.15,170.1-204.46c0.11-59.28-26.33-108.35-67.33-135.98l0,0c8.41,5.52,19.46,13.17,27.38,19.37
						c4.7,3.68,10.43,9.26,14.63,13.5c3.29,3.41,7.91,7.73,10.95,11.36C709.38,111.63,716.95,120.82,721.86,128.24z"/>
				</defs>
				<clipPath id="SVGID_46_">
					<use xlink:href="#SVGID_45_"  style="overflow:visible;"/>
				</clipPath>
				<g class="st38">
					<g>
						<path class="st18" d="M378.51,242.22c-0.19,100.31,75.67,171.41,169.43,158.8c-45.97-26.12-159.25-37.07-253.01-24.46
							C340.9,402.68,378.32,342.54,378.51,242.22z"/>
						<path class="st18" d="M378.51,242.22c-0.19,100.31,46.48,162.12,104.23,138.05"/>
						<path class="st18" d="M378.51,242.22c-0.19,100.31,5.84,158.19,13.47,129.27"/>
					</g>
					<g>
						<path class="st18" d="M378.51,242.22c-0.19,100.31-37.61,160.46-83.58,134.34c-93.76,12.61-132.49,44-86.52,70.12
							C302.16,434.08,378.32,342.54,378.51,242.22z"/>
						<path class="st18" d="M378.51,242.22c-0.19,100.31-70.88,168.51-157.9,152.32"/>
						<path class="st18" d="M378.51,242.22C378.32,342.54,293.73,422,189.57,419.7"/>
					</g>
					<g>
						<path class="st18" d="M378.51,242.22c-0.19,100.31-76.34,191.85-170.1,204.46c45.97,26.12,159.25,37.07,253.01,24.46
							C415.44,445.03,378.32,342.54,378.51,242.22z"/>
						<path class="st18" d="M378.51,242.22c-0.19,100.31-47.16,201.15-104.91,225.21"/>
						<path class="st18" d="M378.51,242.22c-0.19,100.31-6.52,205.07-14.14,233.99"/>
					</g>
					<g>
						<path class="st18" d="M378.51,242.22c-0.19,100.31,36.93,202.81,82.9,228.93c93.76-12.61,132.49-44,86.52-70.12
							C454.17,413.64,378.32,342.54,378.51,242.22z"/>
						<path class="st18" d="M378.51,242.22c-0.19,100.31,70.21,194.76,157.22,210.95"/>
						<path class="st18" d="M378.51,242.22c-0.19,100.31,84.1,183.49,188.26,185.79"/>
					</g>
					<g>
						<path class="st18" d="M547.93,401.03c93.76-12.61,169.91-104.15,170.1-204.46c-91.95-52.24-318.49-74.14-506.01-48.93
							c-0.19,100.31,36.93,202.81,82.9,228.93C388.68,363.96,501.96,374.91,547.93,401.03z"/>
						<path class="st18" d="M633.66,364.71c-69.18-39.3-239.62-55.78-380.7-36.81"/>
						<path class="st18" d="M694.68,291.36c-85.67-48.67-296.75-69.08-471.47-45.59"/>
						<path class="st18" d="M482.74,380.27c57.75-24.07,104.72-124.9,104.91-225.21"/>
						<path class="st18" d="M391.97,371.5c7.62-28.92,13.96-133.68,14.14-233.99"/>
					</g>
					<g>
						<path class="st18" d="M294.93,376.56c-45.97-26.12-83.09-128.61-82.9-228.93C24.51,172.85-52.97,235.64,38.98,287.88
							c-0.19,100.31,75.67,171.41,169.42,158.8C162.43,420.57,201.17,389.17,294.93,376.56z"/>
						<path class="st18" d="M252.96,327.9c-141.08,18.97-199.37,66.21-130.19,105.51"/>
						<path class="st18" d="M223.22,245.77c-174.71,23.49-246.9,82-161.23,130.67"/>
						<path class="st18" d="M220.61,394.54C133.59,378.35,63.2,283.91,63.39,183.6"/>
						<path class="st18" d="M189.57,419.7C85.41,417.4,1.12,334.22,1.31,233.91"/>
					</g>
					<g>
						<path class="st18" d="M208.4,446.69c-93.76,12.61-169.61-58.49-169.42-158.8c91.95,52.24,318.49,74.14,506.01,48.93
							c-0.19,100.31-37.61,160.46-83.58,134.34C367.65,483.76,254.38,472.81,208.4,446.69z"/>
						<path class="st18" d="M122.77,433.41c69.18,39.3,239.62,55.78,380.7,36.81"/>
						<path class="st18" d="M61.99,376.44c85.67,48.67,296.75,69.08,471.47,45.59"/>
						<path class="st18" d="M273.6,467.44c-57.75,24.07-104.42-37.74-104.23-138.05"/>
						<path class="st18" d="M364.36,476.22c-7.62,28.92-13.65-28.96-13.47-129.27"/>
					</g>
					<g>
						<path class="st18" d="M461.41,471.15c45.97,26.12,83.39-34.03,83.58-134.34c187.51-25.22,264.99-88.01,173.04-140.24
							c-0.19,100.31-76.34,191.85-170.1,204.46C593.91,427.15,555.17,458.54,461.41,471.15z"/>
						<path class="st18" d="M503.47,470.22c141.08-18.97,199.37-66.21,130.19-105.51"/>
						<path class="st18" d="M533.45,422.03c174.71-23.49,246.9-82,161.23-130.67"/>
						<path class="st18" d="M535.73,453.17c87.02,16.19,157.71-52.01,157.9-152.32"/>
						<path class="st18" d="M566.77,428.01c104.16,2.3,188.75-77.16,188.94-177.48"/>
					</g>
					<g>
						<path class="st18" d="M718.03,196.57c0.19-100.31-75.67-171.41-169.42-158.81C502.63,11.64,389.36,0.69,295.6,13.3
							c-45.97-26.12-83.39,34.03-83.58,134.34C399.54,122.42,626.08,144.33,718.03,196.57z"/>
						<path class="st18" d="M695.02,108.01c-85.67-48.67-296.75-69.08-471.47-45.59"/>
						<path class="st18" d="M634.24,51.04c-69.18-39.3-239.62-55.78-380.7-36.81"/>
						<path class="st18" d="M587.65,155.06C587.83,54.75,541.17-7.06,483.41,17.01"/>
						<path class="st18" d="M406.12,137.51c0.19-100.31-5.84-158.19-13.47-129.28"/>
					</g>
					<g>
						<path class="st18" d="M212.02,147.64C212.21,47.32,249.63-12.82,295.6,13.3c-93.76,12.61-132.49,44-86.52,70.12
							C115.32,96.03,39.17,187.57,38.98,287.88C-52.97,235.64,24.51,172.85,212.02,147.64z"/>
						<path class="st18" d="M223.56,62.42c-174.71,23.49-246.9,82-161.23,130.67"/>
						<path class="st18" d="M253.54,14.22C112.46,33.2,54.17,80.44,123.35,119.74"/>
						<path class="st18" d="M63.39,183.6c0.19-100.31,70.88-168.51,157.9-152.32"/>
						<path class="st18" d="M1.31,233.91C1.49,133.6,86.08,54.14,190.24,56.43"/>
					</g>
					<g>
						<path class="st18" d="M38.98,287.88c0.19-100.31,76.34-191.86,170.1-204.46c45.97,26.12,159.25,37.07,253.01,24.46
							c45.97,26.12,83.09,128.61,82.9,228.93C357.47,362.03,130.93,340.12,38.98,287.88z"/>
						<path class="st18" d="M62.33,193.09c85.67,48.67,296.75,69.08,471.47,45.59"/>
						<path class="st18" d="M123.35,119.74c69.18,39.3,239.62,55.78,380.7,36.81"/>
						<path class="st18" d="M169.36,329.39c0.19-100.31,47.15-201.15,104.91-225.22"/>
						<path class="st18" d="M350.89,346.94c0.19-100.31,6.52-205.08,14.14-233.99"/>
					</g>
					<g>
						<path class="st18" d="M544.99,336.81c0.19-100.31-36.93-202.81-82.9-228.93c93.76-12.61,132.49-44,86.52-70.12
							c93.76-12.61,169.61,58.49,169.42,158.81C809.98,248.8,732.5,311.59,544.99,336.81z"/>
						<path class="st18" d="M533.79,238.68c174.71-23.49,246.9-82,161.23-130.67"/>
						<path class="st18" d="M504.05,156.55c141.08-18.97,199.37-66.21,130.19-105.51"/>
						<path class="st18" d="M693.62,300.85c0.19-100.31-70.2-194.76-157.22-210.95"/>
						<path class="st18" d="M755.7,250.54c0.19-100.31-84.1-183.5-188.26-185.79"/>
					</g>
				</g>
				<path class="st39" d="M721.86,128.24c2.53,4.16,6.08,9.61,8.44,13.88c2.43,4.4,5.44,10.4,7.51,14.98
					c3.73,7.67,6.91,15.64,9.49,23.89c1.3,4.79,3.24,11.12,4.33,15.96c1.13,5.03,2.35,11.8,3.04,16.9
					c0.46,5.01,1.29,11.68,1.53,16.7c0.24,5.25,0.27,12.27,0.07,17.53c-0.35,5.01-0.44,11.72-1.17,16.69
					c-1.34,9.16-3.63,21.29-5.7,30.31c-1.99,8.47-4.6,16.7-7.79,24.63c0,0,0,0,0,0c-2.05,4.47-4.59,10.52-6.82,14.9
					c-2.3,4.52-5.61,10.43-8.25,14.76c-2.73,4.09-6.21,9.65-9.09,13.63c-2.98,4.12-7.16,9.45-10.44,13.34
					c-3.18,3.54-7.18,8.47-10.59,11.79c-6.35,6.18-15.11,14.11-21.88,19.81c-3.99,2.96-9.16,7.11-13.3,9.85
					c-6.62,4.39-15.64,9.95-22.52,13.91c-9.04,4.65-21.24,10.56-30.55,14.65c-6.13,2.69-14.56,5.69-20.88,7.91
					c-4.84,1.55-11.24,3.81-16.15,5.16c-10.3,2.85-24.09,6.51-34.52,8.85c-5.43,1.22-12.7,2.72-18.19,3.67
					c-9.86,1.7-23.05,3.76-32.96,5.16c-16.48,2.22-33.42,3.87-50.55,4.98l0,0c-5.39,0.18-12.57,0.72-17.96,0.9
					c-5.3,0.18-12.37,0.29-17.67,0.29c-10.88,0.26-21.75,0.3-32.55,0.13c-10.79-0.17-21.51-0.55-32.06-1.13l0,0
					c-5.13-0.23-11.98-0.46-17.11-0.78c-5.48-0.34-12.77-0.92-18.23-1.43c-16.09-1.56-31.61-3.58-46.28-6.03
					c-9.78-1.64-19.17-3.47-28.1-5.49c-4.71,2.36-12.02-2.54-17.14-3.78c-5.28-1.28-12.29-3.11-17.52-4.6
					c-4.99-1.54-11.68-3.48-16.63-5.14c-5.05-1.69-11.73-4.09-16.69-6.02c-4.88-2.02-11.48-4.48-16.26-6.72
					c-7.51-3.51-17.4-8.48-24.69-12.44c-4.45-2.71-10.54-6.09-14.85-9.03c-6.57-4.49-15.14-10.76-21.39-15.7
					c-3.71-3.24-8.77-7.43-12.36-10.8c-3.69-3.48-8.45-8.3-11.88-12.04c-3.17-3.74-7.54-8.59-10.56-12.45
					c-3.11-3.97-7.05-9.43-9.85-13.63c-2.53-4.16-6.08-9.61-8.44-13.88c-2.43-4.4-5.44-10.4-7.51-14.98
					c-1.83-4.43-4.6-10.2-6.09-14.75c-2.82-8.61-6.14-20.23-8.28-29.03c-0.79-4.83-2.22-11.23-2.64-16.11
					c-0.8-9.3-1.38-21.76-1.44-31.09c0.02-9.12,0.73-18.07,2.1-26.81l0,0c1.01-4.89,2.14-11.47,3.36-16.31
					c1.25-4.98,3.2-11.54,4.86-16.4c1.8-4.62,4.01-10.85,6-15.38c2.05-4.68,5.04-10.81,7.46-15.31c2.51-4.26,5.7-10.05,8.37-14.21
					c2.77-4.3,6.67-9.9,9.75-13.99c2.98-3.74,6.7-8.94,9.92-12.47c6-6.58,14.31-15.08,20.77-21.22c3.91-3.16,8.97-7.59,13.04-10.55
					c6.52-4.73,15.44-10.76,22.25-15.06c4.53-2.57,10.46-6.21,15.11-8.58c7.36-3.75,17.33-8.48,24.89-11.81
					c4.6-1.75,10.66-4.29,15.34-5.83c9.99-3.3,23.33-7.72,33.53-10.32c10.97-2.8,25.68-6.19,36.77-8.43
					c9.44-1.9,22.14-3.9,31.66-5.37c17.34-2.33,35.17-4.07,53.2-5.24l0,0c5.64-0.43,13.16-1.09,18.81-1.43
					c5.57-0.33,13.01-0.66,18.59-0.82c11.5-0.27,23-0.32,34.41-0.14c11.41,0.18,22.73,0.58,33.89,1.2l0,0
					c5.38,0.4,12.57,0.84,17.94,1.32c5.72,0.51,13.34,1.31,19.05,2c16.94,1.64,33.27,3.76,48.7,6.35
					c10.29,1.72,20.18,3.65,29.57,5.78l0,0c5.3,1.32,12.4,2.97,17.67,4.4c5.43,1.47,12.63,3.56,18,5.24
					c5.11,1.73,11.96,3.91,17.03,5.76c5.15,1.88,11.97,4.53,17.02,6.65c4.89,2.26,11.52,5.05,16.3,7.53
					c7.5,3.88,17.35,9.35,24.6,13.66c41,27.63,67.44,76.71,67.33,135.98c-0.19,100.31-76.34,191.85-170.1,204.46
					c-45.97-26.12-159.25-37.07-253.01-24.46c-68.19,9.17-107.27,28.28-105.84,48.06c0.54,7.42,6.78,14.94,19.31,22.06
					c45.97,26.12,159.25,37.07,253.01,24.46c63.93-8.6,102.27-25.93,105.63-44.36c1.57-8.6-4.48-17.45-19.11-25.76
					c93.76-12.61,169.91-104.15,170.1-204.46c0.11-59.28-26.33-108.35-67.33-135.98l0,0c8.41,5.52,19.46,13.17,27.38,19.37
					c4.7,3.68,10.43,9.26,14.63,13.5c3.29,3.41,7.91,7.73,10.95,11.36C709.38,111.63,716.95,120.82,721.86,128.24z"/>
				<use xlink:href="#SVGID_45_"  style="overflow:visible;fill:none;stroke:#000000;stroke-width:0.55;stroke-miterlimit:10;"/>
			</g>
		</g>
	</g>
</g>
</svg>
