<svg width="210" height="38" viewBox="0 0 210 38" fill="none" xmlns="http://www.w3.org/2000/svg">
<g clip-path="url(#clip0_2_144)">
<path d="M14.7127 0.497681H0V36.8521H14.7127C25.8318 36.8521 29.9717 30.2687 29.9717 18.7007C29.9717 7.13266 25.9322 0.497681 14.7127 0.497681ZM25.1837 21.692C25.1837 29.5202 21.7421 32.7122 14.6625 32.7122H4.53855V4.63618H14.6625C21.4926 4.63618 25.1837 7.6275 25.1837 15.708V21.692Z" fill="#66CC33"/>
<path d="M45.0119 33.8593C40.2253 33.8593 37.0834 30.8178 37.0834 26.2291V24.7334H56.2831C56.3834 23.9347 56.4322 22.8879 56.4322 22.0404C56.4322 14.7098 51.8936 10.3204 44.8614 10.3204C37.3817 10.3204 32.6438 15.3078 32.6438 23.7354C32.6438 32.1629 37.2828 37.3496 44.9116 37.3496C50.8956 37.3496 55.5345 34.0586 56.5813 29.021H52.2923C51.4434 31.8646 48.7518 33.8593 45.0106 33.8593H45.0119ZM37.0834 20.8444C37.0834 16.6543 40.2755 13.8122 44.8614 13.8122C49.2006 13.8122 52.1432 16.5052 52.1432 20.5447V21.5428H37.0834V20.8444Z" fill="#66CC33"/>
<path d="M71.2578 24.6847L68.8644 32.4125H68.5661L66.0222 24.6847L61.4335 10.8209H56.697L66.1728 36.8521H71.3079L80.583 10.8209H75.8465L71.2578 24.6847Z" fill="#66CC33"/>
<path d="M99.9805 4.13711C106.413 4.13711 110.254 7.62744 111.2 12.6664H115.889C114.941 5.03618 109.056 0 100.081 0C89.2586 0 83.1756 6.98067 83.1756 18.7006C83.1756 30.4206 89.359 37.351 99.6822 37.351C108.508 37.351 114.642 32.4124 115.889 24.6846H111.2C110.004 29.9201 105.715 33.2613 99.8314 33.2613C92.7002 33.2613 87.9637 28.4245 87.9637 21.7923V15.9086C87.9637 8.62687 92.7002 4.1385 99.9819 4.1385L99.9805 4.13711Z" fill="#66CC33"/>
<path d="M130.448 10.3219C123.018 10.3219 117.931 15.3093 117.931 23.8372C117.931 32.3651 122.618 37.3525 130.448 37.3525C138.279 37.3525 142.916 31.9678 142.916 23.8372C142.916 15.2103 137.778 10.3219 130.448 10.3219ZM138.526 25.9796C138.526 31.0172 134.885 33.7604 130.448 33.7604C126.012 33.7604 122.369 31.0674 122.369 25.9796V21.9415C122.369 17.1534 125.761 13.9614 130.448 13.9614C135.136 13.9614 138.526 17.1032 138.526 21.9415V25.9796Z" fill="#66CC33"/>
<path d="M159.92 10.3219C156.029 10.3219 152.738 12.318 151.141 15.6592H150.794L150.245 10.8209H146.455V36.8521H150.794V23.2378C150.794 17.803 153.886 14.1621 158.473 14.1621C162.413 14.1621 164.606 16.4049 164.606 21.2933V36.8521H168.945V20.8445C168.945 14.4116 165.604 10.3219 159.92 10.3219Z" fill="#66CC33"/>
<path d="M208.797 22.4391C209.438 22.4391 209.957 22.9604 209.955 23.6016L209.93 35.9293C209.93 36.5705 209.409 37.089 208.768 37.0876L203.691 37.0765C203.05 37.0765 202.531 36.5551 202.533 35.914L202.558 23.5863C202.558 22.9451 203.079 22.4265 203.72 22.4279L208.797 22.4391ZM203.766 0.673267C203.125 0.673267 202.605 1.19041 202.604 1.8316L202.579 14.0143C202.579 14.6555 202.058 15.1741 201.416 15.1727L189.379 15.1476C188.737 15.1476 188.219 14.6262 188.22 13.9851L188.245 1.80233C188.245 1.16113 187.728 0.641207 187.087 0.639813L182.01 0.628662C181.369 0.628662 180.849 1.1458 180.848 1.787L180.823 14.1147C180.823 14.7559 181.34 15.2758 181.981 15.2772L186.913 15.287C187.554 15.287 188.072 15.8083 188.071 16.4495L188.061 21.3811C188.061 22.0223 188.578 22.5422 189.22 22.5436L201.547 22.5687C202.189 22.5687 202.708 22.0516 202.71 21.4104L202.72 16.4787C202.72 15.8375 203.241 15.319 203.882 15.3204L208.814 15.3302C209.455 15.3302 209.975 14.813 209.976 14.1718L210.001 1.84415C210.001 1.20295 209.484 0.683024 208.843 0.68163L203.766 0.670479V0.673267Z" fill="#66CC33"/>
</g>
<defs>
<clipPath id="clip0_2_144">
<rect width="210" height="37.351" fill="white"/>
</clipPath>
</defs>
</svg>
