<svg version="1.1" id="Layer_1" xmlns="http://www.w3.org/2000/svg" x="0" y="0" viewBox="0 0 558 575" xml:space="preserve"><g fill="#171719"><path d="M39.03 96.23h5.57l-6.75-6.94.66-.66 6.76 6.96.02-5.78h.95l-.02 7.42-7.19.03v-1.03zM36.5 71.19h1.87l2.85 6.54h.08l2.86-6.54h1.86v9.61h-1.4v-4.9l.11-2.78h-.08l-3.38 7.51-3.39-7.51h-.09l.12 2.79v4.89H36.5v-9.61zM48.93 71.19h6.49v1.28h-5.05v2.77h4.42v1.21h-4.42v3.07h5.05v1.28h-6.49v-9.61zM57.72 71.19h1.87l2.85 6.54h.08l2.86-6.54h1.86v9.61h-1.4v-4.9l.11-2.78h-.08l-3.37 7.51-3.39-7.51h-.09l.12 2.79v4.89h-1.41v-9.61zM70.15 71.19h4.64c1.75 0 2.65.98 2.65 2.44 0 1.03-.49 1.82-1.37 2.16v.11c1.11.28 1.62 1.16 1.62 2.33 0 1.54-1.09 2.57-2.97 2.57h-4.58v-9.61zm4.47 4.14c.84 0 1.34-.46 1.34-1.19v-.63c0-.71-.49-1.16-1.36-1.16h-3.05v2.98h3.07zm-.08 4.31c1.02 0 1.63-.49 1.63-1.24v-.65c0-.86-.57-1.28-1.46-1.28h-3.15v3.16h2.98zM80.13 71.19h6.49v1.28h-5.05v2.77h4.42v1.21h-4.42v3.07h5.05v1.28h-6.49v-9.61zM88.92 71.19h4.69c1.91 0 2.82 1.12 2.82 2.85 0 1.16-.57 1.99-1.41 2.29v.09h.49c.73 0 .95.41.95 1.03v3.35h-1.45v-3.62h-4.65v3.62h-1.44v-9.61zm4.37 4.79c1.04 0 1.61-.55 1.61-1.37v-.8c0-.92-.63-1.36-1.61-1.36h-2.94v3.53h2.94zM102.45 79.77c1.31 0 2.15-.59 2.15-1.62 0-1.12-1-1.32-1.44-1.42l-1.65-.37c-.86-.18-2.7-.58-2.7-2.54 0-1.71 1.38-2.75 3.45-2.75 2.08 0 3.51 1.04 3.55 2.81h-1.48c-.07-1.09-.87-1.65-2.08-1.65-1.24 0-1.94.57-1.94 1.41 0 1.02 1.04 1.24 1.62 1.37l1.74.37c1.75.38 2.44 1.36 2.44 2.62 0 1.89-1.5 2.94-3.73 2.94-2.53 0-3.82-1.4-3.81-3.11h1.48c.03 1.3.98 1.94 2.4 1.94z"/></g><g fill="#171719"><path d="m393.83 275.87-3.94 3.94 9.68.14v.93l-9.71-.14 4.08 4.1-.67.67-5.23-5.26 5.06-5.11.73.73zM392.32 290.26c2.18 0 3.82 1.2 4.13 2.98h-1.49c-.24-1.03-1.25-1.7-2.6-1.7-1.81 0-3.06 1.17-3.06 2.97v1.5c0 1.69 1.16 2.89 2.93 2.89 1.67 0 2.86-1.12 2.9-2.85h-3.24v-1.2h4.84v5.14h-1.17l-.13-1.58h-.09c-.66 1.16-1.9 1.71-3.32 1.71-2.66 0-4.22-1.89-4.22-4.85-.02-3.27 1.87-5.01 4.52-5.01zM399.46 290.38h1.44v8.32h4.38v1.29h-5.81v-9.61zM411.05 290.26c2.83 0 4.54 1.83 4.54 4.94 0 3.08-1.67 4.92-4.54 4.92-2.86 0-4.55-1.83-4.55-4.92 0-3.11 1.71-4.94 4.55-4.94zm0 8.58c1.94 0 3.03-1.2 3.03-2.98v-1.36c0-1.9-1.23-2.97-3.03-2.97-1.94 0-3.03 1.19-3.03 2.97v1.36c-.01 1.9 1.21 2.98 3.03 2.98zM417.94 290.38h4.64c1.75 0 2.65.98 2.65 2.44 0 1.03-.49 1.82-1.37 2.16v.11c1.11.28 1.62 1.16 1.62 2.33 0 1.54-1.09 2.57-2.97 2.57h-4.57v-9.61zm4.47 4.14c.84 0 1.34-.46 1.34-1.19v-.63c0-.71-.49-1.16-1.36-1.16h-3.04v2.98h3.06zm-.08 4.31c1.01 0 1.63-.49 1.63-1.24v-.65c0-.86-.57-1.28-1.46-1.28h-3.15v3.16h2.98zM435.19 294.08v5.91h-1.44v-2.21h-4.61v2.21h-1.44v-5.91l3.15-3.71h1.19l3.15 3.71zm-1.44 2.49v-2.1l-2.24-2.72h-.13l-2.24 2.72v2.1h4.61zM437.99 290.38h1.44v8.32h4.38v1.29H438v-9.61zM388.48 304.12h3.96c2.98 0 4.1 1.77 4.1 4.81 0 3.1-1.19 4.8-4.1 4.8h-3.96v-9.61zm3.93 8.34c1.82 0 2.62-.82 2.62-2.71v-1.61c0-2-.94-2.73-2.62-2.73h-2.49v7.05h2.49zM398.92 304.12h6.49v1.28h-5.05v2.77h4.42v1.21h-4.42v3.07h5.05v1.28h-6.49v-9.61zM406.95 308.95c0-3.1 1.65-4.96 4.52-4.96 2.4 0 3.99 1.36 4.23 3.4h-1.49c-.24-1.24-1.2-2.11-2.78-2.11-1.79 0-2.97 1.11-2.97 2.9v1.57c0 1.65 1.16 2.83 2.93 2.83 1.45 0 2.52-.83 2.82-2.12h1.49c-.32 2.08-1.96 3.4-4.34 3.4-2.76.01-4.41-1.81-4.41-4.91zM421.39 305.4v7.05h2.54v1.28h-6.54v-1.28h2.56v-7.05h-2.56v-1.28h6.54v1.28h-2.54zM429.62 312.71c1.3 0 2.15-.59 2.15-1.62 0-1.12-1-1.32-1.44-1.42l-1.65-.37c-.86-.18-2.7-.58-2.7-2.54 0-1.71 1.38-2.75 3.45-2.75 2.08 0 3.51 1.04 3.55 2.81h-1.48c-.07-1.09-.87-1.65-2.08-1.65-1.24 0-1.94.57-1.94 1.41 0 1.02 1.04 1.24 1.62 1.37l1.74.37c1.75.38 2.44 1.36 2.44 2.62 0 1.89-1.5 2.94-3.73 2.94-2.53 0-3.82-1.4-3.81-3.11h1.48c.04 1.29.99 1.94 2.4 1.94zM439.2 305.4v7.05h2.54v1.28h-6.54v-1.28h2.56v-7.05h-2.56v-1.28h6.54v1.28h-2.54zM447.8 304.01c2.83 0 4.54 1.83 4.54 4.94 0 3.08-1.67 4.92-4.54 4.92-2.86 0-4.55-1.83-4.55-4.92 0-3.11 1.72-4.94 4.55-4.94zm0 8.58c1.94 0 3.03-1.2 3.03-2.98v-1.36c0-1.9-1.23-2.97-3.03-2.97-1.94 0-3.03 1.19-3.03 2.97v1.36c0 1.9 1.21 2.98 3.03 2.98zM454.69 304.12h1.74l4.79 7.73h.07l-.09-2.88v-4.85h1.42v9.61h-1.74l-4.77-7.73h-.07l.09 2.77v4.96h-1.44v-9.61zM391.68 326.45c1.3 0 2.15-.59 2.15-1.62 0-1.12-1-1.32-1.44-1.42l-1.65-.37c-.86-.18-2.7-.58-2.7-2.54 0-1.71 1.38-2.75 3.45-2.75 2.08 0 3.51 1.04 3.55 2.81h-1.48c-.07-1.09-.87-1.65-2.08-1.65-1.24 0-1.94.57-1.94 1.41 0 1.02 1.04 1.24 1.62 1.37l1.74.37c1.75.38 2.44 1.36 2.44 2.62 0 1.89-1.5 2.94-3.73 2.94-2.53 0-3.82-1.4-3.81-3.11h1.48c.04 1.3.99 1.94 2.4 1.94zM403.89 319.15h-2.9v8.33h-1.42v-8.33h-2.9v-1.28h7.22v1.28zM412.27 321.58v5.91h-1.44v-2.21h-4.61v2.21h-1.44v-5.91l3.15-3.71h1.19l3.15 3.71zm-1.44 2.49v-2.1l-2.24-2.72h-.13l-2.24 2.72v2.1h4.61zM415.07 317.87h1.74l4.79 7.73h.07l-.09-2.88v-4.85H423v9.61h-1.74l-4.77-7.73h-.07l.09 2.77v4.96h-1.44v-9.61zM425.9 317.87h3.96c2.98 0 4.1 1.77 4.1 4.81 0 3.1-1.19 4.8-4.1 4.8h-3.96v-9.61zm3.93 8.33c1.82 0 2.62-.82 2.62-2.71v-1.61c0-2-.94-2.73-2.62-2.73h-2.49v7.05h2.49zM443.65 321.58v5.91h-1.44v-2.21h-4.61v2.21h-1.44v-5.91l3.15-3.71h1.19l3.15 3.71zm-1.44 2.49v-2.1l-2.24-2.72h-.13l-2.24 2.72v2.1h4.61zM446.45 317.87h4.69c1.91 0 2.82 1.12 2.82 2.85 0 1.16-.57 1.99-1.41 2.29v.09h.49c.73 0 .95.41.95 1.03v3.35h-1.45v-3.62h-4.65v3.62h-1.44v-9.61zm4.37 4.79c1.04 0 1.61-.55 1.61-1.37v-.8c0-.92-.63-1.36-1.61-1.36h-2.94v3.53h2.94zM456.71 317.87h3.96c2.98 0 4.1 1.77 4.1 4.81 0 3.1-1.19 4.8-4.1 4.8h-3.96v-9.61zm3.93 8.33c1.82 0 2.62-.82 2.62-2.71v-1.61c0-2-.94-2.73-2.62-2.73h-2.49v7.05h2.49z"/></g><path fill="none" stroke="#171719" stroke-width="1.25" stroke-miterlimit="10" d="m147.16 412.77 134.28 77.72L147 568.11 12.56 490.49z"/><ellipse fill="#171719" cx="60.18" cy="488.09" rx="2.8" ry="1.59"/><ellipse fill="none" stroke="#171719" stroke-width="1.25" stroke-linejoin="round" stroke-miterlimit="10" cx="60.18" cy="406.19" rx="12.96" ry="7.37"/><path fill="none" stroke="#171719" stroke-width="1.25" stroke-miterlimit="10" d="M60.18 488.09v-74.53"/><ellipse fill="#171719" cx="108.46" cy="496.9" rx="2.8" ry="1.59"/><ellipse fill="none" stroke="#171719" stroke-width="1.25" stroke-linejoin="round" stroke-miterlimit="10" cx="108.46" cy="414.99" rx="12.96" ry="7.37"/><path fill="none" stroke="#171719" stroke-width="1.25" stroke-miterlimit="10" d="M108.46 496.9v-74.54"/><ellipse fill="#171719" cx="147" cy="468.13" rx="2.8" ry="1.59"/><ellipse fill="none" stroke="#171719" stroke-width="1.25" stroke-linejoin="round" stroke-miterlimit="10" cx="147" cy="386.22" rx="12.96" ry="7.37"/><path fill="none" stroke="#171719" stroke-width="1.25" stroke-miterlimit="10" d="M147 468.13v-74.54"/><ellipse fill="#171719" cx="174.3" cy="531.1" rx="2.8" ry="1.59"/><ellipse fill="none" stroke="#171719" stroke-width="1.25" stroke-linejoin="round" stroke-miterlimit="10" cx="174.3" cy="449.2" rx="12.96" ry="7.37"/><path fill="none" stroke="#171719" stroke-width="1.25" stroke-miterlimit="10" d="M174.3 531.1v-74.53"/><ellipse fill="#171719" cx="220.37" cy="493.19" rx="2.8" ry="1.59"/><ellipse fill="none" stroke="#171719" stroke-width="1.25" stroke-linejoin="round" stroke-miterlimit="10" cx="220.37" cy="411.29" rx="12.96" ry="7.37"/><path fill="none" stroke="#171719" stroke-width="1.25" stroke-miterlimit="10" d="M220.37 493.19v-74.53"/><g fill="#171719"><path d="M3.88 387.94h5.57L2.7 381l.66-.66 6.76 6.96.02-5.78h.95l-.02 7.42-7.19.03v-1.03zM1.35 322.57h4.26c2.07 0 3.07 1.2 3.07 3.1 0 1.94-1.07 3.1-3.07 3.1H2.79v3.41H1.35v-9.61zm4.16 4.98c1.08 0 1.66-.59 1.66-1.42v-.91c0-.86-.62-1.32-1.54-1.32H2.79v3.65h2.72zM10.7 322.57h1.44v8.32h4.38v1.29H10.7v-9.61zM26.04 326.28v5.91H24.6v-2.21h-4.61v2.21h-1.44v-5.91l3.15-3.71h1.19l3.15 3.71zm-1.44 2.49v-2.1l-2.24-2.72h-.13l-2.24 2.72v2.1h4.61zM34.17 323.85h-2.9v8.33h-1.42v-8.33h-2.9v-1.28h7.22v1.28zM36.03 322.57h6.41v1.28h-4.97v3.41h4.44v1.23h-4.44v3.69h-1.44v-9.61zM48.41 322.46c2.83 0 4.54 1.83 4.54 4.94 0 3.08-1.67 4.92-4.54 4.92-2.86 0-4.55-1.83-4.55-4.92.01-3.11 1.72-4.94 4.55-4.94zm0 8.58c1.94 0 3.03-1.2 3.03-2.98v-1.36c0-1.9-1.23-2.97-3.03-2.97-1.94 0-3.03 1.19-3.03 2.97v1.36c0 1.9 1.21 2.98 3.03 2.98zM55.3 322.57H60c1.91 0 2.82 1.12 2.82 2.85 0 1.16-.57 1.99-1.41 2.29v.09h.49c.72 0 .95.41.95 1.03v3.35H61.4v-3.62h-4.65v3.62H55.3v-9.61zm4.38 4.79c1.04 0 1.61-.55 1.61-1.37v-.8c0-.92-.63-1.36-1.61-1.36h-2.94v3.53h2.94zM65.56 322.57h1.87l2.85 6.54h.08l2.86-6.54h1.86v9.61h-1.4v-4.9l.11-2.78h-.08l-3.38 7.51-3.39-7.51h-.09l.12 2.79v4.89h-1.41v-9.61zM.66 341.15c0-3.1 1.65-4.96 4.52-4.96 2.4 0 4 1.36 4.23 3.4H7.92c-.24-1.24-1.2-2.11-2.78-2.11-1.79 0-2.97 1.11-2.97 2.9v1.57c0 1.65 1.16 2.83 2.93 2.83 1.45 0 2.52-.83 2.82-2.12h1.49c-.32 2.08-1.96 3.4-4.34 3.4-2.77.01-4.41-1.81-4.41-4.91zM19.01 340.03v5.91h-1.44v-2.21h-4.61v2.21h-1.44v-5.91l3.15-3.71h1.19l3.15 3.71zm-1.44 2.49v-2.1l-2.24-2.72h-.13l-2.24 2.72v2.1h4.61zM21.8 336.32h4.26c2.07 0 3.07 1.2 3.07 3.1 0 1.94-1.07 3.1-3.07 3.1h-2.82v3.41H21.8v-9.61zm4.16 4.97c1.08 0 1.66-.59 1.66-1.42v-.91c0-.86-.62-1.32-1.54-1.32h-2.83v3.65h2.71zM38.61 340.03v5.91h-1.44v-2.21h-4.61v2.21h-1.44v-5.91l3.15-3.71h1.19l3.15 3.71zm-1.44 2.49v-2.1l-2.24-2.72h-.13l-2.24 2.72v2.1h4.61zM41.41 336.32h4.64c1.75 0 2.65.98 2.65 2.44 0 1.03-.49 1.82-1.37 2.16v.11c1.11.28 1.62 1.16 1.62 2.33 0 1.54-1.09 2.57-2.97 2.57h-4.57v-9.61zm4.46 4.14c.84 0 1.34-.46 1.34-1.19v-.63c0-.71-.49-1.16-1.36-1.16h-3.04v2.98h3.06zm-.08 4.31c1.01 0 1.63-.49 1.63-1.24v-.65c0-.86-.57-1.28-1.46-1.28h-3.15v3.16h2.98zM54.86 337.6v7.05h2.54v1.28h-6.54v-1.28h2.56v-7.05h-2.56v-1.28h6.54v1.28h-2.54zM59.75 336.32h1.44v8.32h4.38v1.29h-5.81v-9.61zM71.51 337.6v7.05h2.54v1.28h-6.54v-1.28h2.56v-7.05h-2.56v-1.28h6.54v1.28h-2.54zM83.05 337.6h-2.9v8.33h-1.42v-8.33h-2.9v-1.28h7.22v1.28zM92.17 339.47l-3.02 3.52v2.94h-1.44v-2.94l-3.02-3.52v-3.15h1.42v2.79l2.24 2.68h.14l2.23-2.68v-2.79h1.44v3.15zM8.79 353.78v5.91H7.35v-2.21H2.74v2.21H1.3v-5.91l3.15-3.71h1.19l3.15 3.71zm-1.44 2.49v-2.1l-2.24-2.72h-.13l-2.24 2.72v2.1h4.61zM11.44 350.07h1.42v5.91c0 1.6.98 2.52 2.51 2.52 1.52 0 2.5-.9 2.5-2.52v-5.91h1.42v6.03c0 2.27-1.52 3.72-3.94 3.72-2.54 0-3.92-1.5-3.92-3.72v-6.03zM28.35 351.35h-2.9v8.33h-1.42v-8.33h-2.9v-1.28h7.22v1.28zM33.94 349.95c2.83 0 4.54 1.83 4.54 4.94 0 3.08-1.67 4.92-4.54 4.92-2.86 0-4.55-1.83-4.55-4.92 0-3.1 1.71-4.94 4.55-4.94zm0 8.59c1.94 0 3.03-1.2 3.03-2.98v-1.36c0-1.9-1.23-2.97-3.03-2.97-1.94 0-3.03 1.19-3.03 2.97v1.36c-.01 1.89 1.21 2.98 3.03 2.98zM40.83 350.07h1.87l2.85 6.54h.08l2.86-6.54h1.86v9.61h-1.4v-4.9l.11-2.78h-.08l-3.38 7.51-3.39-7.51h-.09l.12 2.79v4.89h-1.41v-9.61zM60.64 353.78v5.91H59.2v-2.21h-4.61v2.21h-1.44v-5.91l3.15-3.71h1.19l3.15 3.71zm-1.44 2.49v-2.1l-2.24-2.72h-.13l-2.24 2.72v2.1h4.61zM68.76 351.35h-2.9v8.33h-1.42v-8.33h-2.9v-1.28h7.22v1.28zM74.51 351.35v7.05h2.54v1.28h-6.54v-1.28h2.56v-7.05h-2.56v-1.28h6.54v1.28h-2.54zM79.41 350.07h1.74l4.79 7.73H86l-.09-2.88v-4.85h1.42v9.61h-1.74l-4.77-7.73h-.07l.09 2.77v4.96H79.4v-9.61zM94.2 349.95c2.18 0 3.82 1.2 4.13 2.98h-1.49c-.24-1.03-1.25-1.7-2.6-1.7-1.81 0-3.06 1.17-3.06 2.97v1.5c0 1.69 1.16 2.89 2.93 2.89 1.67 0 2.86-1.12 2.9-2.85h-3.24v-1.2h4.84v5.14h-1.17l-.13-1.58h-.09c-.66 1.16-1.9 1.71-3.32 1.71-2.66 0-4.22-1.89-4.22-4.85-.01-3.27 1.87-5.01 4.52-5.01zM7.41 365.1H4.5v8.33H3.08v-8.33H.18v-1.28H7.4v1.28zM9.27 363.82h1.44v4.1h5.21v-4.1h1.44v9.61h-1.44v-4.31h-5.21v4.31H9.27v-9.61zM20.27 363.82h6.49v1.28H21.7v2.77h4.42v1.21H21.7v3.07h5.05v1.28h-6.49v-9.61zM33.08 363.82h3.96c2.98 0 4.1 1.77 4.1 4.81 0 3.1-1.19 4.8-4.1 4.8h-3.96v-9.61zm3.93 8.33c1.82 0 2.62-.82 2.62-2.72v-1.61c0-2-.94-2.73-2.62-2.73h-2.49v7.05h2.49zM43.52 363.82h6.49v1.28h-5.05v2.77h4.42v1.21h-4.42v3.07h5.05v1.28h-6.49v-9.61zM51.55 368.64c0-3.1 1.65-4.96 4.52-4.96 2.4 0 3.99 1.36 4.23 3.4h-1.49c-.24-1.24-1.2-2.11-2.78-2.11-1.79 0-2.97 1.11-2.97 2.9v1.57c0 1.65 1.16 2.83 2.93 2.83 1.45 0 2.52-.83 2.82-2.12h1.49c-.32 2.08-1.96 3.4-4.34 3.4-2.76.01-4.41-1.81-4.41-4.91zM65.99 365.1v7.05h2.54v1.28H62v-1.28h2.56v-7.05H62v-1.28h6.54v1.28h-2.55zM74.22 372.4c1.3 0 2.15-.59 2.15-1.62 0-1.12-1-1.32-1.44-1.42l-1.65-.37c-.86-.19-2.7-.58-2.7-2.54 0-1.71 1.38-2.76 3.45-2.76 2.08 0 3.51 1.04 3.55 2.81H76.1c-.07-1.09-.87-1.65-2.08-1.65-1.24 0-1.94.57-1.94 1.41 0 1.01 1.04 1.24 1.62 1.37l1.74.37c1.75.38 2.44 1.36 2.44 2.62 0 1.88-1.5 2.94-3.73 2.94-2.53 0-3.82-1.4-3.81-3.11h1.48c.04 1.3.99 1.95 2.4 1.95zM83.8 365.1v7.05h2.54v1.28H79.8v-1.28h2.56v-7.05H79.8v-1.28h6.54v1.28H83.8zM92.41 363.7c2.83 0 4.54 1.83 4.54 4.94 0 3.09-1.67 4.92-4.54 4.92-2.86 0-4.55-1.83-4.55-4.92 0-3.11 1.71-4.94 4.55-4.94zm0 8.58c1.94 0 3.03-1.2 3.03-2.98v-1.36c0-1.9-1.23-2.97-3.03-2.97-1.94 0-3.03 1.19-3.03 2.97v1.36c-.01 1.9 1.2 2.98 3.03 2.98zM99.29 363.82h1.74l4.79 7.72h.07l-.09-2.87v-4.85h1.42v9.61h-1.74l-4.77-7.73h-.07l.09 2.77v4.96h-1.44v-9.61z"/></g><path fill="#171719" d="m245.22 36.16 3.94 3.94.14-9.68h.93l-.14 9.71 4.1-4.08.67.67-5.26 5.23-5.11-5.06.73-.73z"/><g fill="#171719"><path d="M143.97.2h6.41v1.28h-4.97v3.41h4.44v1.23h-4.44v3.69h-1.44V.2zM152.42.2h6.49v1.28h-5.05v2.77h4.42v1.21h-4.42v3.07h5.05v1.28h-6.49V.2zM161.22.2h3.96c2.98 0 4.1 1.77 4.1 4.81 0 3.1-1.19 4.8-4.1 4.8h-3.96V.2zm3.93 8.33c1.82 0 2.62-.82 2.62-2.71V4.2c0-2-.94-2.73-2.62-2.73h-2.49v7.05h2.49zM171.66.2h6.49v1.28h-5.05v2.77h4.42v1.21h-4.42v3.07h5.05v1.28h-6.49V.2zM180.45.2h4.69c1.91 0 2.82 1.12 2.82 2.85 0 1.16-.57 1.99-1.41 2.29v.09h.49c.72 0 .95.41.95 1.03v3.35h-1.45V6.18h-4.65V9.8h-1.44V.2zm4.38 4.78c1.04 0 1.61-.55 1.61-1.37v-.8c0-.92-.63-1.36-1.61-1.36h-2.94v3.53h2.94zM198.06 3.9v5.91h-1.44V7.59h-4.61V9.8h-1.44V3.9l3.15-3.71h1.19l3.15 3.71zm-1.43 2.49V4.3l-2.24-2.72h-.13l-2.24 2.72v2.1h4.61zM206.19 1.48h-2.9v8.33h-1.42V1.48h-2.9V.2h7.22v1.28zM208.06.2h6.49v1.28h-5.05v2.77h4.42v1.21h-4.42v3.07h5.05v1.28h-6.49V.2zM216.85.2h3.96c2.98 0 4.1 1.77 4.1 4.81 0 3.1-1.19 4.8-4.1 4.8h-3.96V.2zm3.93 8.33c1.82 0 2.62-.82 2.62-2.71V4.2c0-2-.94-2.73-2.62-2.73h-2.49v7.05h2.49zM230.34 5.02c0-3.1 1.65-4.96 4.52-4.96 2.4 0 3.99 1.36 4.23 3.4h-1.49c-.24-1.24-1.2-2.11-2.78-2.11-1.79 0-2.97 1.11-2.97 2.9v1.57c0 1.65 1.16 2.83 2.93 2.83 1.45 0 2.52-.83 2.82-2.12h1.49c-.32 2.08-1.96 3.4-4.34 3.4-2.77.01-4.41-1.81-4.41-4.91zM245.37.08c2.83 0 4.54 1.83 4.54 4.94 0 3.08-1.67 4.92-4.54 4.92-2.86 0-4.55-1.83-4.55-4.92 0-3.11 1.71-4.94 4.55-4.94zm0 8.58c1.94 0 3.03-1.2 3.03-2.98V4.32c0-1.9-1.23-2.97-3.03-2.97-1.94 0-3.03 1.19-3.03 2.97v1.36c-.01 1.9 1.21 2.98 3.03 2.98zM252.26.2h1.87l2.85 6.54h.08L259.92.2h1.86v9.61h-1.4V4.9l.11-2.78h-.08l-3.38 7.51-3.39-7.51h-.09l.12 2.79V9.8h-1.41V.2zM264.69.2h4.26c2.07 0 3.07 1.2 3.07 3.1 0 1.94-1.07 3.1-3.07 3.1h-2.82v3.41h-1.44V.2zm4.15 4.97c1.08 0 1.66-.59 1.66-1.42v-.92c0-.86-.62-1.32-1.54-1.32h-2.83v3.65h2.71zM274 .2h1.42v5.9c0 1.6.97 2.52 2.5 2.52 1.52 0 2.51-.9 2.51-2.52V.2h1.42v6.03c0 2.27-1.52 3.72-3.94 3.72-2.54 0-3.92-1.5-3.92-3.72V.2zM290.91 1.48h-2.9v8.33h-1.42V1.48h-2.9V.2h7.22v1.28zM299.29 3.9v5.91h-1.44V7.59h-4.61V9.8h-1.44V3.9l3.15-3.71h1.19l3.15 3.71zm-1.44 2.49V4.3l-2.24-2.72h-.13l-2.24 2.72v2.1h4.61zM307.42 1.48h-2.9v8.33h-1.42V1.48h-2.9V.2h7.22v1.28zM313.16 1.48v7.05h2.54v1.28h-6.54V8.53h2.56V1.48h-2.56V.2h6.54v1.28h-2.54zM321.77.08c2.83 0 4.54 1.83 4.54 4.94 0 3.08-1.67 4.92-4.54 4.92-2.86 0-4.55-1.83-4.55-4.92 0-3.11 1.72-4.94 4.55-4.94zm0 8.58c1.94 0 3.03-1.2 3.03-2.98V4.32c0-1.9-1.23-2.97-3.03-2.97-1.94 0-3.03 1.19-3.03 2.97v1.36c0 1.9 1.21 2.98 3.03 2.98zM328.66.2h1.74l4.79 7.73h.07l-.09-2.88V.2h1.42v9.61h-1.74l-4.77-7.73h-.07l.09 2.77v4.96h-1.44V.2zM346.87 3.9v5.91h-1.44V7.59h-4.61V9.8h-1.44V3.9l3.15-3.71h1.19l3.15 3.71zm-1.44 2.49V4.3l-2.24-2.72h-.13l-2.24 2.72v2.1h4.61zM349.67.2h1.44v8.32h4.38v1.29h-5.81V.2zM203.54 13.83c2.17 0 3.82 1.2 4.13 2.98h-1.49c-.24-1.03-1.25-1.7-2.6-1.7-1.81 0-3.06 1.17-3.06 2.97v1.5c0 1.69 1.16 2.89 2.93 2.89 1.67 0 2.86-1.12 2.9-2.85h-3.24v-1.2h4.84v5.14h-1.17l-.13-1.58h-.09c-.66 1.16-1.9 1.71-3.32 1.71-2.66 0-4.22-1.89-4.22-4.85-.02-3.27 1.87-5.01 4.52-5.01zM214.61 13.83c2.83 0 4.54 1.83 4.54 4.94 0 3.08-1.67 4.92-4.54 4.92-2.86 0-4.55-1.83-4.55-4.92 0-3.11 1.72-4.94 4.55-4.94zm0 8.58c1.94 0 3.03-1.2 3.03-2.98v-1.36c0-1.9-1.23-2.97-3.03-2.97-1.94 0-3.03 1.19-3.03 2.97v1.36c0 1.9 1.21 2.98 3.03 2.98zM222.73 13.94v5.55l2.24 2.72h.14l2.23-2.72v-5.55h1.44v5.92l-3.14 3.69h-1.2l-3.14-3.69v-5.92h1.43zM231.57 13.94h6.49v1.28h-5.05v2.77h4.42v1.21h-4.42v3.07h5.05v1.28h-6.49v-9.61zM240.37 13.94h4.69c1.91 0 2.82 1.12 2.82 2.85 0 1.16-.57 1.99-1.41 2.29v.09h.49c.72 0 .95.41.95 1.03v3.35h-1.45v-3.62h-4.65v3.62h-1.44v-9.61zm4.37 4.79c1.04 0 1.61-.55 1.61-1.37v-.8c0-.92-.63-1.36-1.61-1.36h-2.94v3.53h2.94zM250.62 13.94h1.74l4.79 7.73h.07l-.09-2.88v-4.85h1.42v9.61h-1.74l-4.77-7.73h-.07l.09 2.77v4.96h-1.44v-9.61zM268.83 17.65v5.91h-1.44v-2.21h-4.61v2.21h-1.44v-5.91l3.15-3.71h1.19l3.15 3.71zm-1.43 2.49v-2.1l-2.24-2.72h-.13l-2.24 2.72v2.1h4.61zM271.63 13.94h1.74l4.79 7.73h.07l-.09-2.88v-4.85h1.42v9.61h-1.74l-4.77-7.73h-.07l.09 2.77v4.96h-1.44v-9.61zM281.92 18.77c0-3.1 1.65-4.96 4.52-4.96 2.4 0 3.99 1.36 4.23 3.4h-1.49c-.24-1.24-1.2-2.11-2.78-2.11-1.79 0-2.97 1.11-2.97 2.9v1.57c0 1.65 1.16 2.83 2.93 2.83 1.45 0 2.52-.83 2.82-2.12h1.49c-.32 2.08-1.96 3.4-4.34 3.4-2.76.01-4.41-1.81-4.41-4.91zM292.99 13.94h6.49v1.28h-5.05v2.77h4.42v1.21h-4.42v3.07h5.05v1.28h-6.49v-9.61z"/></g><g fill="#171719"><path d="M147 196.07h4.26c2.07 0 3.07 1.2 3.07 3.1 0 1.94-1.07 3.1-3.07 3.1h-2.82v3.41H147v-9.61zm4.16 4.98c1.08 0 1.66-.59 1.66-1.42v-.91c0-.86-.62-1.32-1.54-1.32h-2.83v3.65h2.71zM156.35 196.07h4.69c1.91 0 2.82 1.12 2.82 2.85 0 1.16-.57 1.99-1.41 2.29v.09h.49c.72 0 .95.41.95 1.03v3.35h-1.45v-3.62h-4.65v3.62h-1.44v-9.61zm4.38 4.79c1.04 0 1.61-.55 1.61-1.37v-.8c0-.92-.63-1.36-1.61-1.36h-2.94v3.53h2.94zM170.09 197.35v7.05h2.54v1.28h-6.54v-1.28h2.56v-7.05h-2.56v-1.28h6.54v1.28h-2.54zM174.98 196.07h1.74l4.79 7.73h.07l-.09-2.88v-4.85h1.42v9.61h-1.74l-4.77-7.73h-.07l.09 2.77v4.96h-1.44v-9.61zM185.27 200.9c0-3.1 1.65-4.96 4.52-4.96 2.4 0 4 1.36 4.23 3.4h-1.49c-.24-1.24-1.2-2.11-2.78-2.11-1.79 0-2.97 1.11-2.97 2.9v1.57c0 1.65 1.16 2.83 2.93 2.83 1.45 0 2.52-.83 2.82-2.12h1.49c-.32 2.08-1.96 3.4-4.34 3.4-2.77.01-4.41-1.81-4.41-4.91zM199.71 197.35v7.05h2.54v1.28h-6.54v-1.28h2.56v-7.05h-2.56v-1.28h6.54v1.28h-2.54zM204.6 196.07h4.26c2.07 0 3.07 1.2 3.07 3.1 0 1.94-1.07 3.1-3.07 3.1h-2.82v3.41h-1.44v-9.61zm4.15 4.98c1.08 0 1.66-.59 1.66-1.42v-.91c0-.86-.62-1.32-1.54-1.32h-2.83v3.65h2.71zM213.95 196.07h1.44v8.32h4.38v1.29h-5.81v-9.61zM221.82 196.07h6.49v1.28h-5.05v2.77h4.42v1.21h-4.42v3.07h5.05v1.28h-6.49v-9.61zM233.85 204.66c1.3 0 2.15-.59 2.15-1.62 0-1.12-1-1.32-1.44-1.42l-1.65-.37c-.86-.18-2.7-.58-2.7-2.54 0-1.71 1.38-2.75 3.45-2.75 2.08 0 3.51 1.04 3.55 2.81h-1.48c-.07-1.09-.87-1.65-2.08-1.65-1.24 0-1.94.57-1.94 1.41 0 1.02 1.04 1.24 1.62 1.37l1.74.37c1.75.38 2.44 1.36 2.44 2.62 0 1.89-1.5 2.94-3.73 2.94-2.53 0-3.82-1.4-3.81-3.11h1.48c.04 1.29.99 1.94 2.4 1.94zM243.74 196.07h1.42v5.91c0 1.6.97 2.52 2.5 2.52 1.52 0 2.51-.9 2.51-2.52v-5.91h1.42v6.03c0 2.27-1.52 3.72-3.94 3.72-2.54 0-3.92-1.5-3.92-3.72v-6.03zM254.43 196.07h1.74l4.79 7.73h.07l-.09-2.88v-4.85h1.42v9.61h-1.74l-4.77-7.73h-.07l.09 2.77v4.96h-1.44v-9.61zM265.26 196.07h3.96c2.98 0 4.1 1.77 4.1 4.81 0 3.1-1.19 4.8-4.1 4.8h-3.96v-9.61zm3.93 8.34c1.82 0 2.62-.82 2.62-2.71v-1.61c0-2-.94-2.73-2.62-2.73h-2.49v7.05h2.49zM275.7 196.07h6.49v1.28h-5.05v2.77h4.42v1.21h-4.42v3.07h5.05v1.28h-6.49v-9.61zM284.49 196.07h4.69c1.91 0 2.82 1.12 2.82 2.85 0 1.16-.57 1.99-1.41 2.29v.09h.49c.73 0 .95.41.95 1.03v3.35h-1.45v-3.62h-4.65v3.62h-1.44v-9.61zm4.38 4.79c1.04 0 1.61-.55 1.61-1.37v-.8c0-.92-.63-1.36-1.61-1.36h-2.94v3.53h2.94zM294.75 196.07h4.26c2.07 0 3.07 1.2 3.07 3.1 0 1.94-1.07 3.1-3.07 3.1h-2.82v3.41h-1.44v-9.61zm4.16 4.98c1.08 0 1.66-.59 1.66-1.42v-.91c0-.86-.62-1.32-1.54-1.32h-2.83v3.65h2.71zM307.83 197.35v7.05h2.54v1.28h-6.54v-1.28h2.56v-7.05h-2.56v-1.28h6.54v1.28h-2.54zM312.72 196.07h1.74l4.79 7.73h.07l-.09-2.88v-4.85h1.42v9.61h-1.74l-4.77-7.73h-.07l.09 2.77v4.96h-1.44v-9.61zM323.55 196.07h1.74l4.79 7.73h.07l-.09-2.88v-4.85h1.42v9.61h-1.74l-4.77-7.73h-.07l.09 2.77v4.96h-1.44v-9.61zM337.81 197.35v7.05h2.54v1.28h-6.54v-1.28h2.56v-7.05h-2.56v-1.28h6.54v1.28h-2.54zM342.7 196.07h1.74l4.79 7.73h.07l-.09-2.88v-4.85h1.42v9.61h-1.74l-4.77-7.73h-.07l.09 2.77v4.96h-1.44v-9.61zM357.5 195.96c2.18 0 3.82 1.2 4.13 2.98h-1.49c-.24-1.03-1.25-1.7-2.6-1.7-1.81 0-3.06 1.17-3.06 2.97v1.5c0 1.69 1.16 2.89 2.93 2.89 1.67 0 2.86-1.12 2.9-2.85h-3.24v-1.2h4.84v5.14h-1.17l-.13-1.58h-.09c-.66 1.16-1.9 1.71-3.32 1.71-2.66 0-4.22-1.89-4.22-4.85-.01-3.27 1.87-5.01 4.52-5.01zM126.26 211.1h-2.9v8.33h-1.42v-8.33h-2.9v-1.28h7.22v1.28zM128.13 209.82h1.44v4.1h5.21v-4.1h1.44v9.61h-1.44v-4.31h-5.21v4.31h-1.44v-9.61zM139.12 209.82h6.49v1.28h-5.05v2.77h4.42v1.21h-4.42v3.07h5.05v1.28h-6.49v-9.61zM155.14 218.41c1.3 0 2.15-.59 2.15-1.62 0-1.12-1-1.32-1.44-1.42l-1.65-.37c-.86-.18-2.7-.58-2.7-2.54 0-1.71 1.38-2.75 3.45-2.75 2.08 0 3.51 1.04 3.55 2.81h-1.48c-.07-1.09-.87-1.65-2.08-1.65-1.24 0-1.94.57-1.94 1.41 0 1.02 1.04 1.24 1.62 1.37l1.74.37c1.75.38 2.44 1.36 2.44 2.62 0 1.89-1.5 2.94-3.73 2.94-2.53 0-3.82-1.4-3.81-3.11h1.48c.04 1.29.99 1.94 2.4 1.94zM160.58 214.65c0-3.1 1.65-4.96 4.52-4.96 2.4 0 4 1.36 4.23 3.4h-1.49c-.24-1.24-1.2-2.11-2.78-2.11-1.79 0-2.97 1.11-2.97 2.9v1.57c0 1.65 1.16 2.83 2.93 2.83 1.45 0 2.52-.83 2.82-2.12h1.49c-.32 2.08-1.96 3.4-4.34 3.4-2.76.01-4.41-1.81-4.41-4.91zM175.61 209.7c2.83 0 4.54 1.83 4.54 4.94 0 3.08-1.67 4.92-4.54 4.92-2.86 0-4.55-1.83-4.55-4.92 0-3.1 1.72-4.94 4.55-4.94zm0 8.59c1.94 0 3.03-1.2 3.03-2.98v-1.36c0-1.9-1.23-2.97-3.03-2.97-1.94 0-3.03 1.19-3.03 2.97v1.36c0 1.9 1.21 2.98 3.03 2.98zM182.5 209.82h4.26c2.07 0 3.07 1.2 3.07 3.1 0 1.94-1.07 3.1-3.07 3.1h-2.82v3.41h-1.44v-9.61zm4.16 4.97c1.08 0 1.66-.59 1.66-1.42v-.91c0-.86-.62-1.32-1.54-1.32h-2.83v3.65h2.71zM191.85 209.82h6.49v1.28h-5.05v2.77h4.42v1.21h-4.42v3.07h5.05v1.28h-6.49v-9.61zM208.51 209.7c2.83 0 4.54 1.83 4.54 4.94 0 3.08-1.67 4.92-4.54 4.92-2.86 0-4.55-1.83-4.55-4.92.01-3.1 1.72-4.94 4.55-4.94zm0 8.59c1.94 0 3.03-1.2 3.03-2.98v-1.36c0-1.9-1.23-2.97-3.03-2.97-1.94 0-3.03 1.19-3.03 2.97v1.36c0 1.9 1.22 2.98 3.03 2.98zM215.4 209.82h6.41v1.28h-4.97v3.41h4.44v1.23h-4.44v3.69h-1.44v-9.61zM231.65 209.7c2.17 0 3.82 1.2 4.13 2.98h-1.49c-.24-1.03-1.25-1.7-2.6-1.7-1.81 0-3.06 1.17-3.06 2.97v1.5c0 1.69 1.16 2.89 2.93 2.89 1.67 0 2.86-1.12 2.9-2.85h-3.24v-1.2h4.84v5.14h-1.17l-.13-1.58h-.09c-.66 1.16-1.9 1.71-3.32 1.71-2.66 0-4.22-1.89-4.22-4.85-.02-3.27 1.87-5.01 4.52-5.01zM238.79 209.82h1.44v8.32h4.38v1.29h-5.81v-9.61zM250.38 209.7c2.83 0 4.54 1.83 4.54 4.94 0 3.08-1.67 4.92-4.54 4.92-2.86 0-4.55-1.83-4.55-4.92 0-3.1 1.71-4.94 4.55-4.94zm0 8.59c1.94 0 3.03-1.2 3.03-2.98v-1.36c0-1.9-1.23-2.97-3.03-2.97-1.94 0-3.03 1.19-3.03 2.97v1.36c-.01 1.9 1.21 2.98 3.03 2.98zM257.27 209.82h4.64c1.75 0 2.65.98 2.65 2.44 0 1.03-.49 1.82-1.37 2.16v.11c1.11.28 1.62 1.16 1.62 2.33 0 1.54-1.09 2.57-2.97 2.57h-4.58v-9.61zm4.47 4.14c.84 0 1.34-.46 1.34-1.19v-.63c0-.71-.49-1.16-1.36-1.16h-3.05v2.98h3.07zm-.08 4.31c1.02 0 1.63-.49 1.63-1.24v-.65c0-.86-.57-1.28-1.46-1.28h-3.15v3.16h2.98zM274.52 213.53v5.91h-1.44v-2.21h-4.61v2.21h-1.44v-5.91l3.15-3.71h1.19l3.15 3.71zm-1.43 2.49v-2.1l-2.24-2.72h-.13l-2.24 2.72v2.1h4.61zM277.32 209.82h1.44v8.32h4.38v1.29h-5.81v-9.61zM293.02 209.7c2.18 0 3.82 1.2 4.13 2.98h-1.49c-.24-1.03-1.25-1.7-2.6-1.7-1.81 0-3.06 1.17-3.06 2.97v1.5c0 1.69 1.16 2.89 2.93 2.89 1.67 0 2.86-1.12 2.9-2.85h-3.24v-1.2h4.84v5.14h-1.17l-.13-1.58h-.09c-.66 1.16-1.9 1.71-3.32 1.71-2.66 0-4.22-1.89-4.22-4.85-.01-3.27 1.87-5.01 4.52-5.01zM304.1 209.7c2.83 0 4.54 1.83 4.54 4.94 0 3.08-1.67 4.92-4.54 4.92-2.86 0-4.55-1.83-4.55-4.92 0-3.1 1.71-4.94 4.55-4.94zm0 8.59c1.94 0 3.03-1.2 3.03-2.98v-1.36c0-1.9-1.23-2.97-3.03-2.97-1.94 0-3.03 1.19-3.03 2.97v1.36c-.01 1.9 1.21 2.98 3.03 2.98zM312.21 209.82v5.55l2.24 2.72h.15l2.23-2.72v-5.55h1.44v5.92l-3.14 3.69h-1.2l-3.14-3.69v-5.92h1.42zM321.06 209.82h6.49v1.28h-5.05v2.77h4.42v1.21h-4.42v3.07h5.05v1.28h-6.49v-9.61zM329.85 209.82h4.69c1.91 0 2.82 1.12 2.82 2.85 0 1.16-.57 1.99-1.41 2.29v.09h.49c.72 0 .95.41.95 1.03v3.35h-1.45v-3.62h-4.65v3.62h-1.44v-9.61zm4.38 4.79c1.04 0 1.61-.55 1.61-1.37v-.8c0-.92-.63-1.36-1.61-1.36h-2.94v3.53h2.94zM340.11 209.82h1.74l4.79 7.73h.07l-.09-2.88v-4.85h1.42v9.61h-1.74l-4.77-7.73h-.07l.09 2.77v4.96h-1.44v-9.61zM358.32 213.53v5.91h-1.44v-2.21h-4.61v2.21h-1.44v-5.91l3.15-3.71h1.19l3.15 3.71zm-1.44 2.49v-2.1l-2.24-2.72h-.13l-2.24 2.72v2.1h4.61zM361.12 209.82h1.74l4.79 7.73h.07l-.09-2.88v-4.85h1.42v9.61h-1.74l-4.77-7.73h-.07l.09 2.77v4.96h-1.44v-9.61zM371.41 214.65c0-3.1 1.65-4.96 4.52-4.96 2.4 0 4 1.36 4.23 3.4h-1.49c-.24-1.24-1.2-2.11-2.78-2.11-1.79 0-2.97 1.11-2.97 2.9v1.57c0 1.65 1.16 2.83 2.93 2.83 1.45 0 2.52-.83 2.82-2.12h1.49c-.32 2.08-1.96 3.4-4.34 3.4-2.77.01-4.41-1.81-4.41-4.91zM382.48 209.82h6.49v1.28h-5.05v2.77h4.42v1.21h-4.42v3.07h5.05v1.28h-6.49v-9.61z"/></g><path fill="none" stroke="#171719" stroke-width="1.25" stroke-linejoin="round" stroke-miterlimit="10" d="M471.95 184.57c-9.26-36.23-35.81-68.58-75.96-91.41-40.11-22.81-92.07-35.37-146.32-35.37S143.46 70.35 103.35 93.16c-40.15 22.83-66.7 55.18-75.96 91.41h444.56z"/><path fill="none" stroke="#171719" stroke-width="1.25" stroke-linejoin="round" stroke-miterlimit="10" d="M369.44 184.57c-16.57-34.6-63.93-59.58-119.77-59.58-55.84 0-103.2 24.98-119.77 59.58"/><g fill="none" stroke="#171719" stroke-width="1.25" stroke-miterlimit="10"><circle cx="98.43" cy="135.5" r="7.51"/><path d="M89.37 148.31h18.12l-3.45 13.18H92.82z"/><circle cx="400.91" cy="135.5" r="7.51"/><path d="M391.84 148.31h18.13l-3.45 13.18H395.3z"/><circle cx="310.48" cy="90.55" r="7.51"/><path d="M301.42 103.36h18.13l-3.46 13.18h-11.22z"/><circle cx="188.86" cy="90.55" r="7.51"/><path d="M179.79 103.36h18.13l-3.45 13.18h-11.22z"/></g><path fill="none" d="M177.8 176.1v43.85"/><g stroke="#171719" stroke-width="1.25" stroke-linejoin="round" stroke-miterlimit="10"><path fill="#F0F0F0" d="M227.23 258.63h44.89v37.85h-44.89z"/><path fill="#F0F0F0" d="M219.74 267.67h59.85v31.79h-59.85z"/><g fill="none"><path d="M227.53 279.25h44.28M227.53 287.88h44.28"/></g><path fill="none" d="M249.67 229.58v29.05"/></g><g stroke="#171719" stroke-width="1.25" stroke-linejoin="round" stroke-miterlimit="10"><path fill="#F0F0F0" d="M136.18 258.63h44.89v37.85h-44.89z"/><path fill="#F0F0F0" d="M128.69 267.67h59.85v31.79h-59.85z"/><g fill="none"><path d="M136.48 279.25h44.28M136.48 287.88h44.28"/></g><path fill="none" d="M158.62 229.58v29.05"/><path fill="#F0F0F0" d="M318.28 258.63h44.89v37.85h-44.89z"/><path fill="#F0F0F0" d="M310.79 267.67h59.85v31.79h-59.85z"/><g fill="none"><path d="M318.58 279.25h44.28M318.58 287.88h44.28"/></g><path fill="none" d="M340.72 229.58v29.05"/></g><path fill="none" stroke="#171719" stroke-width="1.25" stroke-linejoin="round" stroke-miterlimit="10" d="m146 386.22 102.67-86.23M248.67 299.99l179.84 112.18"/><g fill="#171719"><path d="M315.91 530.31v-5.57l-6.94 6.75-.66-.66 6.96-6.76-5.78-.02v-.95l7.42.02.03 7.19h-1.03zM314.52 541.4v5.91h-1.44v-2.21h-4.61v2.21h-1.44v-5.91l3.15-3.71h1.19l3.15 3.71zm-1.43 2.49v-2.1l-2.24-2.72h-.13l-2.24 2.72v2.1h4.61zM320.5 546.28c1.3 0 2.15-.59 2.15-1.62 0-1.12-1-1.32-1.44-1.42l-1.65-.37c-.86-.18-2.7-.58-2.7-2.54 0-1.71 1.38-2.75 3.45-2.75 2.08 0 3.51 1.04 3.55 2.81h-1.48c-.07-1.09-.87-1.65-2.08-1.65-1.24 0-1.94.57-1.94 1.41 0 1.02 1.04 1.24 1.62 1.37l1.74.37c1.75.38 2.44 1.36 2.44 2.62 0 1.89-1.5 2.94-3.73 2.94-2.53 0-3.82-1.4-3.81-3.11h1.48c.04 1.29.99 1.94 2.4 1.94zM326.57 537.7h4.26c2.07 0 3.07 1.2 3.07 3.1 0 1.94-1.07 3.1-3.07 3.1h-2.82v3.41h-1.44v-9.61zm4.15 4.97c1.08 0 1.66-.59 1.66-1.42v-.91c0-.86-.62-1.32-1.54-1.32h-2.83v3.65h2.71zM335.92 537.7h6.49v1.28h-5.05v2.77h4.42v1.21h-4.42v3.07h5.05v1.28h-6.49v-9.61zM343.95 542.52c0-3.1 1.65-4.96 4.52-4.96 2.4 0 3.99 1.36 4.23 3.4h-1.49c-.24-1.24-1.2-2.11-2.78-2.11-1.79 0-2.97 1.11-2.97 2.9v1.57c0 1.65 1.16 2.83 2.93 2.83 1.45 0 2.52-.83 2.82-2.12h1.49c-.32 2.08-1.96 3.4-4.34 3.4-2.77.01-4.41-1.81-4.41-4.91zM361.15 538.97h-2.9v8.33h-1.42v-8.33h-2.9v-1.28h7.22v1.28zM370.65 537.58c2.83 0 4.54 1.83 4.54 4.94 0 3.08-1.67 4.92-4.54 4.92-2.86 0-4.55-1.83-4.55-4.92 0-3.11 1.72-4.94 4.55-4.94zm0 8.58c1.94 0 3.03-1.2 3.03-2.98v-1.36c0-1.9-1.23-2.97-3.03-2.97-1.94 0-3.03 1.19-3.03 2.97v1.36c0 1.9 1.21 2.98 3.03 2.98zM377.54 537.7h6.41v1.28h-4.97v3.41h4.44v1.23h-4.44v3.69h-1.44v-9.61zM389.95 537.7h3.96c2.98 0 4.1 1.77 4.1 4.81 0 3.1-1.19 4.8-4.1 4.8h-3.96v-9.61zm3.93 8.33c1.82 0 2.62-.82 2.62-2.71v-1.61c0-2-.94-2.73-2.62-2.73h-2.49v7.05h2.49zM407.7 541.4v5.91h-1.44v-2.21h-4.61v2.21h-1.44v-5.91l3.15-3.71h1.19l3.15 3.71zm-1.44 2.49v-2.1l-2.24-2.72h-.13l-2.24 2.72v2.1h4.61zM415.83 538.97h-2.9v8.33h-1.42v-8.33h-2.9v-1.28h7.22v1.28zM424.2 541.4v5.91h-1.44v-2.21h-4.61v2.21h-1.44v-5.91l3.15-3.71h1.19l3.15 3.71zm-1.43 2.49v-2.1l-2.24-2.72h-.13l-2.24 2.72v2.1h4.61zM430.98 537.7h4.26c2.07 0 3.07 1.2 3.07 3.1 0 1.94-1.07 3.1-3.07 3.1h-2.82v3.41h-1.44v-9.61zm4.15 4.97c1.08 0 1.66-.59 1.66-1.42v-.91c0-.86-.62-1.32-1.54-1.32h-2.83v3.65h2.71zM440.33 537.7h4.69c1.91 0 2.82 1.12 2.82 2.85 0 1.16-.57 1.99-1.41 2.29v.09h.49c.73 0 .95.41.95 1.03v3.35h-1.45v-3.62h-4.65v3.62h-1.44v-9.61zm4.37 4.78c1.04 0 1.61-.55 1.61-1.37v-.8c0-.92-.63-1.36-1.61-1.36h-2.94v3.53h2.94zM454.51 537.58c2.83 0 4.54 1.83 4.54 4.94 0 3.08-1.67 4.92-4.54 4.92-2.86 0-4.55-1.83-4.55-4.92 0-3.11 1.71-4.94 4.55-4.94zm0 8.58c1.94 0 3.03-1.2 3.03-2.98v-1.36c0-1.9-1.23-2.97-3.03-2.97-1.94 0-3.03 1.19-3.03 2.97v1.36c-.01 1.9 1.21 2.98 3.03 2.98zM461.4 537.7h3.96c2.98 0 4.1 1.77 4.1 4.81 0 3.1-1.19 4.8-4.1 4.8h-3.96v-9.61zm3.93 8.33c1.82 0 2.62-.82 2.62-2.71v-1.61c0-2-.94-2.73-2.62-2.73h-2.49v7.05h2.49zM471.75 537.7h1.42v5.91c0 1.6.97 2.52 2.5 2.52 1.52 0 2.51-.9 2.51-2.52v-5.91h1.42v6.03c0 2.27-1.52 3.72-3.94 3.72-2.54 0-3.92-1.5-3.92-3.72v-6.03zM481.86 542.52c0-3.1 1.65-4.96 4.52-4.96 2.4 0 3.99 1.36 4.23 3.4h-1.49c-.24-1.24-1.2-2.11-2.78-2.11-1.79 0-2.97 1.11-2.97 2.9v1.57c0 1.65 1.16 2.83 2.93 2.83 1.45 0 2.52-.83 2.82-2.12h1.49c-.32 2.08-1.96 3.4-4.34 3.4-2.76.01-4.41-1.81-4.41-4.91zM499.06 538.97h-2.9v8.33h-1.42v-8.33h-2.9v-1.28h7.22v1.28zM507.54 537.7h.9l-3.77 9.61h-.91l3.78-9.61zM307.09 551.44h3.96c2.98 0 4.1 1.77 4.1 4.81 0 3.1-1.19 4.8-4.1 4.8h-3.96v-9.61zm3.93 8.34c1.82 0 2.62-.82 2.62-2.71v-1.61c0-2-.94-2.73-2.62-2.73h-2.49v7.05h2.49zM321.52 551.33c2.83 0 4.54 1.83 4.54 4.94 0 3.08-1.67 4.92-4.54 4.92-2.86 0-4.55-1.83-4.55-4.92 0-3.11 1.71-4.94 4.55-4.94zm0 8.58c1.94 0 3.03-1.2 3.03-2.98v-1.36c0-1.9-1.23-2.97-3.03-2.97-1.94 0-3.03 1.19-3.03 2.97v1.36c0 1.9 1.21 2.98 3.03 2.98zM328.41 551.44h1.87l2.85 6.54h.08l2.86-6.54h1.86v9.61h-1.4v-4.9l.11-2.78h-.08l-3.38 7.51-3.39-7.51h-.09l.12 2.79v4.89h-1.41v-9.61zM348.22 555.15v5.91h-1.44v-2.21h-4.61v2.21h-1.44v-5.91l3.15-3.71h1.19l3.15 3.71zm-1.44 2.49v-2.1l-2.24-2.72h-.13l-2.24 2.72v2.1h4.61zM354.53 552.72v7.05h2.54v1.28h-6.54v-1.28h2.56v-7.05h-2.56v-1.28h6.54v1.28h-2.54zM359.42 551.44h1.74l4.79 7.73h.07l-.09-2.88v-4.85h1.42v9.61h-1.74l-4.77-7.73h-.07l.09 2.77v4.96h-1.44v-9.61zM374.18 551.44h6.41v1.28h-4.97v3.41h4.44v1.23h-4.44v3.69h-1.44v-9.61zM386.56 551.33c2.83 0 4.54 1.83 4.54 4.94 0 3.08-1.67 4.92-4.54 4.92-2.86 0-4.55-1.83-4.55-4.92 0-3.11 1.71-4.94 4.55-4.94zm0 8.58c1.94 0 3.03-1.2 3.03-2.98v-1.36c0-1.9-1.23-2.97-3.03-2.97-1.94 0-3.03 1.19-3.03 2.97v1.36c0 1.9 1.21 2.98 3.03 2.98zM393.45 551.44h1.44v8.32h4.38v1.29h-5.81v-9.61zM401.32 551.44h1.44v8.32h4.38v1.29h-5.81v-9.61zM412.91 551.33c2.83 0 4.54 1.83 4.54 4.94 0 3.08-1.67 4.92-4.54 4.92-2.86 0-4.55-1.83-4.55-4.92 0-3.11 1.72-4.94 4.55-4.94zm0 8.58c1.94 0 3.03-1.2 3.03-2.98v-1.36c0-1.9-1.23-2.97-3.03-2.97-1.94 0-3.03 1.19-3.03 2.97v1.36c0 1.9 1.21 2.98 3.03 2.98zM419.7 551.44h1.42v5.81l1.3 2.35h.16l1.42-2.43v-2.99h1.32v2.99l1.5 2.43h.16l1.31-2.35v-5.81h1.44v6.13l-2.07 3.48h-1.33l-1.66-2.68-1.58 2.68h-1.33l-2.06-3.48v-6.13zM436.08 552.72v7.05h2.54v1.28h-6.54v-1.28h2.56v-7.05h-2.56v-1.28h6.54v1.28h-2.54zM440.97 551.44h1.74l4.79 7.73h.07l-.09-2.88v-4.85h1.42v9.61h-1.74l-4.77-7.73h-.07l.09 2.77v4.96h-1.44v-9.61zM455.77 551.33c2.17 0 3.82 1.2 4.13 2.98h-1.49c-.24-1.03-1.25-1.7-2.6-1.7-1.81 0-3.06 1.17-3.06 2.97v1.5c0 1.69 1.16 2.89 2.93 2.89 1.67 0 2.86-1.12 2.9-2.85h-3.24v-1.2h4.84v5.14H459l-.13-1.58h-.09c-.66 1.16-1.9 1.71-3.32 1.71-2.66 0-4.22-1.89-4.22-4.85 0-3.27 1.89-5.01 4.53-5.01zM313.14 566.47h-2.9v8.33h-1.42v-8.33h-2.9v-1.28h7.22v1.28zM315.01 565.19h1.44v4.1h5.21v-4.1h1.44v9.61h-1.44v-4.31h-5.21v4.31h-1.44v-9.61zM326 565.19h6.49v1.28h-5.05v2.77h4.42v1.21h-4.42v3.07h5.05v1.28H326v-9.61zM342.65 565.07c2.18 0 3.82 1.2 4.13 2.98h-1.49c-.24-1.03-1.25-1.7-2.6-1.7-1.81 0-3.06 1.17-3.06 2.97v1.5c0 1.69 1.16 2.89 2.93 2.89 1.67 0 2.86-1.12 2.9-2.85h-3.24v-1.2h4.84v5.14h-1.17l-.13-1.58h-.09c-.66 1.16-1.9 1.71-3.32 1.71-2.66 0-4.22-1.89-4.22-4.85-.01-3.27 1.87-5.01 4.52-5.01zM349.79 565.19h1.44v8.32h4.38v1.29h-5.81v-9.61zM361.38 565.07c2.83 0 4.54 1.83 4.54 4.94 0 3.08-1.67 4.92-4.54 4.92-2.86 0-4.55-1.83-4.55-4.92 0-3.1 1.72-4.94 4.55-4.94zm0 8.59c1.94 0 3.03-1.2 3.03-2.98v-1.36c0-1.9-1.23-2.97-3.03-2.97-1.94 0-3.03 1.19-3.03 2.97v1.36c0 1.89 1.21 2.98 3.03 2.98zM368.27 565.19h4.64c1.75 0 2.65.98 2.65 2.44 0 1.03-.49 1.82-1.37 2.16v.11c1.11.28 1.62 1.16 1.62 2.33 0 1.54-1.09 2.57-2.97 2.57h-4.57v-9.61zm4.47 4.14c.84 0 1.34-.46 1.34-1.19v-.63c0-.71-.49-1.16-1.36-1.16h-3.04v2.98h3.06zm-.08 4.31c1.01 0 1.63-.49 1.63-1.24v-.65c0-.86-.57-1.28-1.46-1.28h-3.15v3.16h2.98zM385.53 568.9v5.91h-1.44v-2.21h-4.61v2.21h-1.44v-5.91l3.15-3.71h1.19l3.15 3.71zm-1.44 2.49v-2.1l-2.24-2.72h-.13l-2.24 2.72v2.1h4.61zM388.32 565.19h1.44v8.32h4.38v1.29h-5.81v-9.61zM403.39 573.77c1.31 0 2.15-.59 2.15-1.62 0-1.12-1-1.32-1.44-1.42l-1.65-.37c-.86-.18-2.7-.58-2.7-2.54 0-1.71 1.38-2.75 3.45-2.75 2.08 0 3.51 1.04 3.55 2.81h-1.48c-.07-1.09-.87-1.65-2.08-1.65-1.24 0-1.94.57-1.94 1.41 0 1.02 1.04 1.24 1.62 1.37l1.74.37c1.75.38 2.44 1.36 2.44 2.62 0 1.89-1.5 2.94-3.73 2.94-2.53 0-3.82-1.4-3.81-3.11h1.48c.04 1.3.99 1.94 2.4 1.94zM415.6 566.47h-2.9v8.33h-1.42v-8.33h-2.9v-1.28h7.22v1.28zM423.98 568.9v5.91h-1.44v-2.21h-4.61v2.21h-1.44v-5.91l3.15-3.71h1.19l3.15 3.71zm-1.44 2.49v-2.1l-2.24-2.72h-.13l-2.24 2.72v2.1h4.61zM426.78 565.19h1.74l4.79 7.73h.07l-.09-2.88v-4.85h1.42v9.61h-1.74l-4.77-7.73h-.07l.09 2.77v4.96h-1.44v-9.61zM437.61 565.19h3.96c2.98 0 4.1 1.77 4.1 4.81 0 3.1-1.19 4.8-4.1 4.8h-3.96v-9.61zm3.93 8.33c1.82 0 2.62-.82 2.62-2.71v-1.61c0-2-.94-2.73-2.62-2.73h-2.49v7.05h2.49zM455.36 568.9v5.91h-1.44v-2.21h-4.61v2.21h-1.44v-5.91l3.15-3.71h1.19l3.15 3.71zm-1.44 2.49v-2.1l-2.24-2.72h-.13l-2.24 2.72v2.1h4.61zM458.16 565.19h4.69c1.91 0 2.82 1.12 2.82 2.85 0 1.16-.57 1.99-1.41 2.29v.09h.49c.72 0 .95.41.95 1.03v3.35h-1.45v-3.62h-4.65v3.62h-1.44v-9.61zm4.38 4.79c1.04 0 1.61-.55 1.61-1.37v-.8c0-.92-.63-1.36-1.61-1.36h-2.94v3.53h2.94zM468.42 565.19h3.96c2.98 0 4.1 1.77 4.1 4.81 0 3.1-1.19 4.8-4.1 4.8h-3.96v-9.61zm3.93 8.33c1.82 0 2.62-.82 2.62-2.71v-1.61c0-2-.94-2.73-2.62-2.73h-2.49v7.05h2.49z"/></g><ellipse fill="none" stroke="#171719" stroke-width="1.25" stroke-linejoin="round" stroke-miterlimit="10" cx="428.51" cy="445.09" rx="128.68" ry="73.18"/><g fill="none" stroke="#171719" stroke-width="1.25" stroke-linejoin="round" stroke-miterlimit="10"><path d="M443.79 396.13h-30.55l-15.27 16.04 15.27 16.04h30.55l15.27-16.04zM443.79 461.96h-30.55L397.97 478l15.27 16.04h30.55L459.06 478z"/></g><ellipse fill="none" stroke="#171719" stroke-width="1.25" stroke-linejoin="round" stroke-miterlimit="10" cx="351.99" cy="444.25" rx="12.96" ry="7.37"/><path fill="none" stroke="#171719" stroke-width="1.25" stroke-linejoin="round" stroke-miterlimit="10" d="m406.17 420.42-43.79 19.42M405.89 469.45l-42.24-21.97"/><ellipse fill="none" stroke="#171719" stroke-width="1.25" stroke-linejoin="round" stroke-miterlimit="10" cx="505.1" cy="444.25" rx="12.96" ry="7.37"/><path fill="none" stroke="#171719" stroke-width="1.25" stroke-linejoin="round" stroke-miterlimit="10" d="m450.91 420.42 43.8 19.42M451.2 469.45l42.24-21.97"/></svg>