<svg width="213" height="107" fill="none" xmlns="http://www.w3.org/2000/svg"><path fill="#fff" d="M0 0h213v107H0z"/><path d="M10 101.5h16.107a4.5 4.5 0 004.5-4.5V62.143a4.5 4.5 0 00-4.5-4.5H10a4.5 4.5 0 00-4.5 4.5V97a4.5 4.5 0 004.5 4.5z" stroke="#1E2124"/><path d="M28.5 96.393V61.458a1.44 1.44 0 00-1.44-1.44h-3.114c-.665 0-1.205.54-1.205 1.205 0 .666-.54 1.206-1.205 1.206H14.57c-.665 0-1.205-.54-1.205-1.206 0-.666-.54-1.205-1.205-1.205H9.047a1.44 1.44 0 00-1.44 1.44v34.935a3 3 0 003 3H25.5a3 3 0 003-3z" stroke="#1E2124"/><path d="M18.96 60.5h-3a.375.375 0 010-.75h3a.375.375 0 010 .75zM21.21 98h-6.75a.375.375 0 010-.75h6.75a.375.375 0 010 .75zM20.086 60.125a.375.375 0 11.75 0 .375.375 0 01-.75 0z" fill="#1E2124"/><path d="M20.85 54.113a4.031 4.031 0 00-5.701 0M22.561 52.403a6.45 6.45 0 00-9.122 0M24.27 50.692a8.87 8.87 0 00-12.542 0M25.982 48.982c-4.409-4.408-11.556-4.408-15.964 0M41.336 40.5h16.107a4.5 4.5 0 014.5 4.5v34.857a4.5 4.5 0 01-4.5 4.5H41.336a4.5 4.5 0 01-4.5-4.5V45a4.5 4.5 0 014.5-4.5z" stroke="#1E2124"/><path d="M59.836 45.607v34.935a1.44 1.44 0 01-1.44 1.44h-3.114c-.666 0-1.205-.54-1.205-1.205 0-.666-.54-1.206-1.206-1.206h-6.964c-.666 0-1.205.54-1.205 1.206 0 .665-.54 1.205-1.206 1.205h-3.113a1.44 1.44 0 01-1.44-1.44V45.607a3 3 0 013-3h14.893a3 3 0 013 3z" stroke="#1E2124"/><path d="M50.297 81.5h-3a.375.375 0 000 .75h3a.375.375 0 000-.75zM52.547 44h-6.75a.375.375 0 000 .75h6.75a.375.375 0 000-.75zM51.422 81.874a.375.375 0 10.75 0 .375.375 0 00-.75 0z" fill="#1E2124"/><path d="M52.186 87.886a4.032 4.032 0 01-5.701 0M53.897 89.597a6.45 6.45 0 01-9.123 0M55.607 91.308a8.87 8.87 0 01-12.543 0M57.317 93.018c-4.408 4.408-11.555 4.408-15.964 0" stroke="#1E2124"/></svg>