<svg width="213" height="107" fill="none" xmlns="http://www.w3.org/2000/svg"><path fill="#fff" d="M0 0h213v107H0z"/><path stroke="#1E2124" d="M6.5 41.5h26.75V84H6.5zM9 48.5h7.915M11.25 95.75H24M31.5 95.75h8.25M45.75 95.75H54M59.25 95.75h3M9 57.5h7.915M9 50.75h13.256M9 62h13.256M9 55.25h17.25M9 64.25h17.25M9 53h10.465M9 59.75h10.465M6.5 90.25H64v10.25H6.5zM40.25 41.5H64v10.25H40.25zM40.25 60.25H49V84h-8.75zM55.25 60.25H64V84h-8.75zM33 47h7.059M48.75 71.75h6.75M19.5 84.5v6M28.5 89.75V101M42.75 89.75V101M57 89.75V101M44.25 52.25v7.5M59.823 84.235v6.177"/><path stroke="#1E2124" d="M42.75 44h3.75v1.5h-3.75zM46.5 44h15v1.5h-15zM42.75 47.75h3.75v1.5h-3.75zM46.5 47.75h15v1.5h-15z"/><circle cx="9.75" cy="44.75" r=".75" fill="#1E2124"/></svg>