<?xml version="1.0" encoding="UTF-8"?>
<svg id="Layer_2" data-name="Layer 2" xmlns="http://www.w3.org/2000/svg" xmlns:xlink="http://www.w3.org/1999/xlink" viewBox="0 0 1500 1048.2">
  <defs>
    <style>
      .cls-1, .cls-2, .cls-3 {
        fill: none;
      }

      .cls-4 {
        fill: #f0eeff;
      }

      .cls-4, .cls-2, .cls-3 {
        stroke: #000;
        stroke-linejoin: round;
        stroke-width: .5px;
      }

      .cls-4, .cls-3 {
        stroke-linecap: round;
      }

      .cls-5 {
        clip-path: url(#clippath);
      }
    </style>
    <clipPath id="clippath">
      <rect id="Clipping_Mask" data-name="Clipping Mask" class="cls-1" width="1500" height="1048.2"/>
    </clipPath>
  </defs>
  <g id="Layer_1-2" data-name="Layer 1">
    <g id="No_Labels" data-name="No Labels">
      <g id="Ontology_Layers" data-name="Ontology Layers">
        <g class="cls-5">
          <g id="OSDK">
            <polygon class="cls-3" points="1101.4 -82.8 400.61 -82.8 50.22 524.1 400.61 1130.99 1102.44 1130.99 1451.79 524.1 1101.4 -82.8"/>
            <polyline class="cls-3" points="1451.79 524.1 50.22 524.1 1102.44 1130.99 1101.4 -82.8"/>
            <polyline class="cls-3" points="1451.79 524.1 400.61 -82.8 400.61 1130.99 1451.79 524.1 50.22 524.1 1101.4 -82.8"/>
            <line class="cls-3" x1="400.61" y1="-82.8" x2="1102.44" y2="1130.99"/>
            <line class="cls-3" x1="400.61" y1="1130.99" x2="1101.4" y2="-82.8"/>
            <g>
              <rect class="cls-4" x="612.13" y="17.29" width="51" height="51"/>
              <rect class="cls-3" x="640.69" y="36.06" width="4.1" height="3.46" transform="translate(161.53 465.56) rotate(-45)"/>
              <rect class="cls-3" x="636.37" y="31.77" width="3.91" height="3.46" transform="translate(163.27 461.17) rotate(-45)"/>
              <rect class="cls-3" x="639.13" y="34.36" width="2.69" height="2.69" transform="translate(162.34 463.34) rotate(-45)"/>
              <rect class="cls-3" x="643.48" y="38.71" width="2.69" height="2.69" transform="translate(160.54 467.69) rotate(-45)"/>
              <path class="cls-3" d="M644.23,42.55l3.09-3.09s2.57,4.54,2.01,5.1c-.56.56-5.1-2.01-5.1-2.01Z"/>
              <rect class="cls-3" x="636.38" y="40.66" width="5.76" height="1.24" transform="translate(158.05 464.11) rotate(-45)"/>
              <rect class="cls-3" x="625.42" y="45.94" width="13.82" height="4.51" transform="translate(151.13 461.25) rotate(-45)"/>
            </g>
            <g>
              <rect class="cls-4" x="726.03" y="498.54" width="51" height="51"/>
              <rect class="cls-3" x="754.59" y="517.32" width="4.1" height="3.46" transform="translate(-145.41 687.05) rotate(-45)"/>
              <rect class="cls-3" x="750.27" y="513.03" width="3.91" height="3.46" transform="translate(-143.67 682.67) rotate(-45)"/>
              <rect class="cls-3" x="753.03" y="515.62" width="2.69" height="2.69" transform="translate(-144.6 684.84) rotate(-45)"/>
              <rect class="cls-3" x="757.38" y="519.97" width="2.69" height="2.69" transform="translate(-146.4 689.19) rotate(-45)"/>
              <path class="cls-3" d="M758.13,523.81l3.09-3.09s2.57,4.54,2.01,5.1c-.56.56-5.1-2.01-5.1-2.01Z"/>
              <rect class="cls-3" x="750.28" y="521.91" width="5.76" height="1.24" transform="translate(-148.89 685.61) rotate(-45)"/>
              <rect class="cls-3" x="739.32" y="527.2" width="13.82" height="4.51" transform="translate(-155.81 682.74) rotate(-45)"/>
            </g>
            <g>
              <rect class="cls-4" x="552.96" y="195.44" width="51" height="51"/>
              <rect class="cls-3" x="581.53" y="214.21" width="4.1" height="3.46" transform="translate(18.23 475.9) rotate(-45)"/>
              <rect class="cls-3" x="577.2" y="209.92" width="3.91" height="3.46" transform="translate(19.97 471.52) rotate(-45)"/>
              <rect class="cls-3" x="579.96" y="212.51" width="2.69" height="2.69" transform="translate(19.04 473.68) rotate(-45)"/>
              <rect class="cls-3" x="584.31" y="216.86" width="2.69" height="2.69" transform="translate(17.24 478.03) rotate(-45)"/>
              <path class="cls-3" d="M585.06,220.7l3.09-3.09s2.57,4.54,2.01,5.1c-.56.56-5.1-2.01-5.1-2.01Z"/>
              <rect class="cls-3" x="577.22" y="218.81" width="5.76" height="1.24" transform="translate(14.74 474.46) rotate(-45)"/>
              <rect class="cls-3" x="566.26" y="224.1" width="13.82" height="4.51" transform="translate(7.82 471.59) rotate(-45)"/>
            </g>
            <g>
              <rect class="cls-4" x="375.11" y="903.73" width="51" height="51"/>
              <polygon class="cls-3" points="400.61 929.26 390.61 923.48 390.61 935.03 400.61 940.81 400.61 929.26"/>
              <polygon class="cls-3" points="400.61 929.26 410.61 923.48 410.61 935.03 400.61 940.81 400.61 929.26"/>
              <polygon class="cls-3" points="400.61 917.66 390.61 923.44 400.61 929.21 410.62 923.44 400.61 917.66"/>
            </g>
            <rect class="cls-4" x="501.96" y="903.76" width="51" height="51"/>
            <rect class="cls-3" x="530.53" y="922.54" width="4.1" height="3.46" transform="translate(-497.57 647.3) rotate(-45)"/>
            <rect class="cls-3" x="526.2" y="918.25" width="3.91" height="3.46" transform="translate(-495.83 642.92) rotate(-45)"/>
            <rect class="cls-3" x="528.96" y="920.84" width="2.69" height="2.69" transform="translate(-496.76 645.08) rotate(-45)"/>
            <rect class="cls-3" x="533.31" y="925.19" width="2.69" height="2.69" transform="translate(-498.56 649.43) rotate(-45)"/>
            <path class="cls-3" d="M534.06,929.03l3.09-3.09s2.57,4.54,2.01,5.1-5.1-2.01-5.1-2.01Z"/>
            <rect class="cls-3" x="526.21" y="927.13" width="5.76" height="1.24" transform="translate(-501.05 645.86) rotate(-45)"/>
            <rect class="cls-3" x="515.26" y="932.42" width="13.82" height="4.51" transform="translate(-507.98 642.99) rotate(-45)"/>
            <rect class="cls-4" x="949.45" y="903.76" width="51" height="51"/>
            <rect class="cls-3" x="978.01" y="922.54" width="4.1" height="3.46" transform="translate(-366.5 963.72) rotate(-45)"/>
            <rect class="cls-3" x="973.68" y="918.25" width="3.91" height="3.46" transform="translate(-364.77 959.34) rotate(-45)"/>
            <rect class="cls-3" x="976.44" y="920.84" width="2.69" height="2.69" transform="translate(-365.69 961.5) rotate(-45)"/>
            <rect class="cls-3" x="980.79" y="925.19" width="2.69" height="2.69" transform="translate(-367.49 965.85) rotate(-45)"/>
            <path class="cls-3" d="M981.54,929.03l3.09-3.09s2.57,4.54,2.01,5.1c-.56.56-5.1-2.01-5.1-2.01Z"/>
            <rect class="cls-3" x="973.7" y="927.13" width="5.76" height="1.24" transform="translate(-369.99 962.28) rotate(-45)"/>
            <rect class="cls-3" x="962.74" y="932.42" width="13.82" height="4.51" transform="translate(-376.91 959.41) rotate(-45)"/>
            <g>
              <rect class="cls-4" x="725.5" y="903.76" width="51" height="51"/>
              <path d="M740.74,936.56h2.99l1.17-8.6h-2.08v-1.53h2.31l.6-4.45c.12-.78.47-1.55,1.79-1.55h2.97v1.53h-2.97l-.64,4.47h2.33v1.53h-2.54l-1.15,8.51c-.12.84-.54,1.61-1.83,1.61h-2.95v-1.53Z"/>
              <path d="M754.74,930.05l-2.76-5.34h1.98l2.06,4.14h.12l3.15-4.14h1.98l-4.18,5.3,2.8,5.46h-1.98l-2.1-4.27h-.14l-3.3,4.27h-1.92l4.29-5.42Z"/>
            </g>
            <g>
              <rect class="cls-4" x="118.96" y="643.31" width="51" height="51"/>
              <path d="M134.2,676.11h2.99l1.17-8.6h-2.08v-1.53h2.31l.6-4.45c.12-.78.47-1.55,1.79-1.55h2.97v1.53h-2.97l-.64,4.47h2.33v1.53h-2.54l-1.15,8.51c-.12.84-.54,1.61-1.83,1.61h-2.95v-1.53Z"/>
              <path d="M148.2,669.6l-2.76-5.34h1.98l2.06,4.14h.12l3.15-4.14h1.98l-4.18,5.3,2.8,5.46h-1.98l-2.1-4.27h-.14l-3.3,4.27h-1.92l4.29-5.42Z"/>
            </g>
            <g>
              <rect class="cls-4" x="1076.33" y="708.69" width="51" height="51"/>
              <path d="M1091.56,741.49h2.99l1.17-8.6h-2.08v-1.53h2.31l.6-4.45c.12-.78.47-1.55,1.79-1.55h2.97v1.53h-2.97l-.64,4.47h2.33v1.53h-2.54l-1.15,8.51c-.12.84-.54,1.61-1.83,1.61h-2.95v-1.53Z"/>
              <path d="M1105.57,734.98l-2.76-5.34h1.98l2.06,4.14h.12l3.15-4.14h1.98l-4.18,5.3,2.8,5.46h-1.98l-2.1-4.27h-.14l-3.3,4.27h-1.92l4.29-5.42Z"/>
            </g>
            <rect class="cls-4" x="1076.93" y="903.73" width="51" height="51"/>
            <polygon class="cls-3" points="1102.43 929.26 1092.43 923.48 1092.43 935.03 1102.43 940.81 1102.43 929.26"/>
            <polygon class="cls-3" points="1102.43 929.26 1112.44 923.48 1112.44 935.03 1102.43 940.81 1102.43 929.26"/>
            <polygon class="cls-3" points="1102.43 917.66 1092.43 923.44 1102.43 929.21 1112.44 923.44 1102.43 917.66"/>
            <rect class="cls-4" x="1332.06" y="642.87" width="51" height="51"/>
            <path d="M1347.3,675.66h2.99l1.17-8.6h-2.08v-1.53h2.31l.6-4.45c.12-.78.47-1.55,1.79-1.55h2.97v1.53h-2.97l-.64,4.47h2.33v1.53h-2.54l-1.15,8.51c-.12.84-.54,1.61-1.83,1.61h-2.95v-1.53Z"/>
            <path d="M1361.3,669.15l-2.76-5.34h1.98l2.06,4.14h.12l3.15-4.14h1.98l-4.18,5.3,2.8,5.46h-1.98l-2.1-4.27h-.14l-3.3,4.27h-1.92l4.29-5.42Z"/>
            <g>
              <rect class="cls-4" x="839.28" y="17.29" width="51" height="51"/>
              <path d="M854.51,50.08h2.99l1.17-8.6h-2.08v-1.53h2.31l.6-4.45c.12-.78.47-1.55,1.79-1.55h2.97v1.53h-2.97l-.64,4.47h2.33v1.53h-2.54l-1.15,8.51c-.12.84-.54,1.61-1.83,1.61h-2.95v-1.53Z"/>
              <path d="M868.51,43.57l-2.76-5.34h1.98l2.06,4.14h.12l3.15-4.14h1.98l-4.18,5.3,2.8,5.46h-1.98l-2.1-4.27h-.14l-3.3,4.27h-1.92l4.29-5.42Z"/>
            </g>
            <g>
              <rect class="cls-4" x="898.78" y="195.44" width="51" height="51"/>
              <path d="M914.01,228.24h2.99l1.17-8.6h-2.08v-1.53h2.31l.6-4.45c.12-.78.47-1.55,1.79-1.55h2.97v1.53h-2.97l-.64,4.47h2.33v1.53h-2.54l-1.15,8.51c-.12.84-.54,1.61-1.83,1.61h-2.95v-1.53Z"/>
              <path d="M928.02,221.73l-2.76-5.34h1.98l2.06,4.14h.12l3.15-4.14h1.98l-4.18,5.3,2.8,5.46h-1.98l-2.1-4.27h-.14l-3.3,4.27h-1.92l4.29-5.42Z"/>
            </g>
            <g>
              <rect class="cls-4" x="30.23" y="498.6" width="50.89" height="50.89"/>
              <line class="cls-2" x1="52.8" y1="522.34" x2="48.93" y2="519.64"/>
              <line class="cls-2" x1="61.9" y1="528.72" x2="58.55" y2="526.37"/>
              <line class="cls-2" x1="52.8" y1="526.37" x2="49.45" y2="528.72"/>
              <line class="cls-2" x1="62.42" y1="519.64" x2="58.55" y2="522.34"/>
              <line class="cls-2" x1="55.67" y1="527.87" x2="55.67" y2="532.59"/>
              <line class="cls-2" x1="55.67" y1="516.75" x2="55.67" y2="520.84"/>
              <circle class="cls-2" cx="55.68" cy="524.36" r="3.51"/>
              <circle class="cls-2" cx="47.82" cy="518.86" r="1.36"/>
              <circle class="cls-2" cx="63.53" cy="518.86" r="1.36"/>
              <circle class="cls-2" cx="47.82" cy="529.86" r="1.99"/>
              <circle class="cls-2" cx="55.68" cy="514.77" r="1.99"/>
              <circle class="cls-2" cx="55.68" cy="533.95" r="1.36"/>
              <circle class="cls-2" cx="63.53" cy="529.86" r="1.99"/>
            </g>
            <g>
              <rect class="cls-4" x="375.07" y="498.6" width="50.89" height="50.89"/>
              <line class="cls-2" x1="397.64" y1="522.34" x2="393.78" y2="519.64"/>
              <line class="cls-2" x1="406.75" y1="528.72" x2="403.4" y2="526.37"/>
              <line class="cls-2" x1="397.64" y1="526.37" x2="394.29" y2="528.72"/>
              <line class="cls-2" x1="407.26" y1="519.64" x2="403.4" y2="522.34"/>
              <line class="cls-2" x1="400.52" y1="527.87" x2="400.52" y2="532.59"/>
              <line class="cls-2" x1="400.52" y1="516.75" x2="400.52" y2="520.84"/>
              <circle class="cls-2" cx="400.52" cy="524.36" r="3.51"/>
              <circle class="cls-2" cx="392.66" cy="518.86" r="1.36"/>
              <circle class="cls-2" cx="408.37" cy="518.86" r="1.36"/>
              <circle class="cls-2" cx="392.66" cy="529.86" r="1.99"/>
              <circle class="cls-2" cx="400.52" cy="514.77" r="1.99"/>
              <circle class="cls-2" cx="400.52" cy="533.95" r="1.36"/>
              <circle class="cls-2" cx="408.37" cy="529.86" r="1.99"/>
            </g>
            <g>
              <rect class="cls-4" x="1418.88" y="498.6" width="50.89" height="50.89"/>
              <line class="cls-2" x1="1441.45" y1="522.34" x2="1437.58" y2="519.64"/>
              <line class="cls-2" x1="1450.55" y1="528.72" x2="1447.2" y2="526.37"/>
              <line class="cls-2" x1="1441.45" y1="526.37" x2="1438.1" y2="528.72"/>
              <line class="cls-2" x1="1451.07" y1="519.64" x2="1447.2" y2="522.34"/>
              <line class="cls-2" x1="1444.32" y1="527.87" x2="1444.32" y2="532.59"/>
              <line class="cls-2" x1="1444.32" y1="516.75" x2="1444.32" y2="520.84"/>
              <circle class="cls-2" cx="1444.32" cy="524.36" r="3.51"/>
              <circle class="cls-2" cx="1436.47" cy="518.86" r="1.36"/>
              <circle class="cls-2" cx="1452.18" cy="518.86" r="1.36"/>
              <circle class="cls-2" cx="1436.47" cy="529.86" r="1.99"/>
              <circle class="cls-2" cx="1444.32" cy="514.77" r="1.99"/>
              <circle class="cls-2" cx="1444.32" cy="533.95" r="1.36"/>
              <circle class="cls-2" cx="1452.18" cy="529.86" r="1.99"/>
            </g>
            <g>
              <rect class="cls-4" x="375.07" y="107.17" width="50.89" height="50.89"/>
              <line class="cls-2" x1="397.64" y1="130.91" x2="393.78" y2="128.21"/>
              <line class="cls-2" x1="406.75" y1="137.29" x2="403.4" y2="134.94"/>
              <line class="cls-2" x1="397.64" y1="134.94" x2="394.29" y2="137.29"/>
              <line class="cls-2" x1="407.26" y1="128.21" x2="403.4" y2="130.91"/>
              <line class="cls-2" x1="400.52" y1="136.44" x2="400.52" y2="141.15"/>
              <line class="cls-2" x1="400.52" y1="125.32" x2="400.52" y2="129.41"/>
              <circle class="cls-2" cx="400.52" cy="132.93" r="3.51"/>
              <circle class="cls-2" cx="392.66" cy="127.43" r="1.36"/>
              <circle class="cls-2" cx="408.37" cy="127.43" r="1.36"/>
              <circle class="cls-2" cx="392.66" cy="138.43" r="1.99"/>
              <circle class="cls-2" cx="400.52" cy="123.34" r="1.99"/>
              <circle class="cls-2" cx="400.52" cy="142.51" r="1.36"/>
              <circle class="cls-2" cx="408.37" cy="138.43" r="1.99"/>
            </g>
            <g>
              <rect class="cls-4" x="1077.75" y="498.6" width="50.89" height="50.89"/>
              <line class="cls-2" x1="1100.32" y1="522.34" x2="1096.45" y2="519.64"/>
              <line class="cls-2" x1="1109.42" y1="528.72" x2="1106.07" y2="526.37"/>
              <line class="cls-2" x1="1100.32" y1="526.37" x2="1096.97" y2="528.72"/>
              <line class="cls-2" x1="1109.94" y1="519.64" x2="1106.07" y2="522.34"/>
              <line class="cls-2" x1="1103.19" y1="527.87" x2="1103.19" y2="532.59"/>
              <line class="cls-2" x1="1103.19" y1="516.75" x2="1103.19" y2="520.84"/>
              <circle class="cls-2" cx="1103.19" cy="524.36" r="3.51"/>
              <circle class="cls-2" cx="1095.34" cy="518.86" r="1.36"/>
              <circle class="cls-2" cx="1111.05" cy="518.86" r="1.36"/>
              <circle class="cls-2" cx="1095.34" cy="529.86" r="1.99"/>
              <circle class="cls-2" cx="1103.19" cy="514.77" r="1.99"/>
              <circle class="cls-2" cx="1103.19" cy="533.95" r="1.36"/>
              <circle class="cls-2" cx="1111.05" cy="529.86" r="1.99"/>
            </g>
            <g>
              <rect class="cls-4" x="1077.75" y="107.17" width="50.89" height="50.89"/>
              <line class="cls-2" x1="1100.32" y1="130.91" x2="1096.45" y2="128.21"/>
              <line class="cls-2" x1="1109.42" y1="137.29" x2="1106.07" y2="134.94"/>
              <line class="cls-2" x1="1100.32" y1="134.94" x2="1096.97" y2="137.29"/>
              <line class="cls-2" x1="1109.94" y1="128.21" x2="1106.07" y2="130.91"/>
              <line class="cls-2" x1="1103.19" y1="136.44" x2="1103.19" y2="141.15"/>
              <line class="cls-2" x1="1103.19" y1="125.32" x2="1103.19" y2="129.41"/>
              <circle class="cls-2" cx="1103.19" cy="132.93" r="3.51"/>
              <circle class="cls-2" cx="1095.34" cy="127.43" r="1.36"/>
              <circle class="cls-2" cx="1111.05" cy="127.43" r="1.36"/>
              <circle class="cls-2" cx="1095.34" cy="138.43" r="1.99"/>
              <circle class="cls-2" cx="1103.19" cy="123.34" r="1.99"/>
              <circle class="cls-2" cx="1103.19" cy="142.51" r="1.36"/>
              <circle class="cls-2" cx="1111.05" cy="138.43" r="1.99"/>
            </g>
            <g>
              <rect class="cls-4" x="119.03" y="353.9" width="51" height="51"/>
              <polygon class="cls-3" points="144.53 379.42 134.52 373.64 134.52 385.2 144.53 390.97 144.53 379.42"/>
              <polygon class="cls-3" points="144.52 379.42 154.53 373.64 154.53 385.2 144.52 390.97 144.52 379.42"/>
              <polygon class="cls-3" points="144.53 367.82 134.52 373.6 144.53 379.38 154.54 373.6 144.53 367.82"/>
            </g>
            <g>
              <rect class="cls-4" x="375.02" y="292.56" width="51" height="51"/>
              <polygon class="cls-3" points="400.52 318.08 390.51 312.31 390.51 323.86 400.52 329.64 400.52 318.08"/>
              <polygon class="cls-3" points="400.51 318.08 410.52 312.31 410.52 323.86 400.51 329.64 400.51 318.08"/>
              <polygon class="cls-3" points="400.52 306.48 390.51 312.26 400.52 318.04 410.53 312.26 400.52 306.48"/>
            </g>
            <g>
              <rect class="cls-4" x="1077.64" y="292.56" width="51" height="51"/>
              <polygon class="cls-3" points="1103.14 318.08 1093.13 312.31 1093.13 323.86 1103.14 329.64 1103.14 318.08"/>
              <polygon class="cls-3" points="1103.13 318.08 1113.14 312.31 1113.14 323.86 1103.13 329.64 1103.13 318.08"/>
              <polygon class="cls-3" points="1103.14 306.48 1093.13 312.26 1103.14 318.04 1113.15 312.26 1103.14 306.48"/>
            </g>
            <g>
              <rect class="cls-4" x="1331.95" y="353.9" width="51" height="51"/>
              <polygon class="cls-3" points="1357.45 379.42 1347.45 373.64 1347.45 385.2 1357.45 390.97 1357.45 379.42"/>
              <polygon class="cls-3" points="1357.45 379.42 1367.46 373.64 1367.46 385.2 1357.45 390.97 1357.45 379.42"/>
              <polygon class="cls-3" points="1357.45 367.82 1347.45 373.6 1357.45 379.38 1367.46 373.6 1357.45 367.82"/>
            </g>
            <g>
              <rect class="cls-4" x="377" y="708.69" width="51" height="51"/>
              <polygon class="cls-3" points="402.51 734.22 392.5 728.44 392.5 740 402.51 745.77 402.51 734.22"/>
              <polygon class="cls-3" points="402.5 734.22 412.51 728.44 412.51 740 402.5 745.77 402.5 734.22"/>
              <polygon class="cls-3" points="402.51 722.62 392.5 728.4 402.51 734.17 412.51 728.4 402.51 722.62"/>
            </g>
          </g>
        </g>
      </g>
    </g>
  </g>
</svg>