<svg version="1.1" id="Layer_1" xmlns="http://www.w3.org/2000/svg" x="0" y="0" viewBox="0 0 519 315" xml:space="preserve"><path fill="none" stroke="#171719" stroke-width="1.25" stroke-linejoin="round" stroke-miterlimit="10" d="M347.28 107.29H201.02l-73.13 77.59 73.13 77.59h146.26l73.14-77.59z"/><path fill="none" stroke="#171719" stroke-width="1.25" stroke-linejoin="round" d="M274.15 184.88V82.11"/><path fill="#171719" d="m267.72 83.06 6.43-4.06 6.44 4.06v.05h-12.87z"/><path fill="none" stroke="#171719" stroke-width="1.25" stroke-linejoin="round" d="m274.36 184.88 154.23 52.88"/><path fill="#171719" d="m429.78 231.36 1.76 7.41-5.94 4.77-.04-.01 4.18-12.18z"/><path fill="none" stroke="#171719" stroke-width="1.25" stroke-linejoin="round" d="m273.95 184.88-154.23 52.88"/><path fill="#171719" d="m122.7 243.54-5.93-4.77 1.76-7.41.04-.01 4.17 12.18z"/><g fill="none" stroke="#171719" stroke-width="1.25" stroke-linejoin="round" stroke-miterlimit="10"><path d="M451.92 266.74v30.83l.01.01c0 9.19 13.15 16.71 29.34 16.71 16.23 0 29.38-7.52 29.38-16.71l.01-.01v-30.83"/><ellipse cx="481.29" cy="266.74" rx="29.37" ry="16.7"/></g><g stroke="#171719" stroke-width="1.25" stroke-linejoin="round" stroke-miterlimit="10"><g fill="none"><path d="m492.47 163.07-32.3 18.66-10.08-5.76 32.35-18.68z"/><path d="m460.22 222.43-10.13-5.71v-40.75l10.08 5.76z"/><path d="M492.47 163.07v40.75l-32.25 18.61-.05-40.7z"/></g><g fill="#F0F0F0"><path d="m513.66 176.8-32.3 18.66-10.08-5.76 32.35-18.68z"/><path d="m481.41 236.16-10.13-5.71V189.7l10.08 5.76z"/><path d="M513.66 176.8v40.75l-32.25 18.61-.05-40.7z"/></g></g><g fill="#171719"><path d="m476.96 136.78 3.94 3.94.14-9.68h.93l-.14 9.71 4.1-4.08.67.67-5.26 5.23-5.11-5.06.73-.73zM446.72 100.08h4.26c2.07 0 3.07 1.2 3.07 3.1 0 1.94-1.07 3.1-3.07 3.1h-2.82v3.41h-1.44v-9.61zm4.15 4.97c1.08 0 1.66-.59 1.66-1.42v-.91c0-.86-.62-1.32-1.54-1.32h-2.83v3.65h2.71zM460.23 99.96c2.83 0 4.54 1.83 4.54 4.94 0 3.08-1.67 4.92-4.54 4.92-2.86 0-4.55-1.83-4.55-4.92 0-3.1 1.71-4.94 4.55-4.94zm0 8.59c1.94 0 3.03-1.2 3.03-2.98v-1.36c0-1.9-1.23-2.97-3.03-2.97-1.94 0-3.03 1.19-3.03 2.97v1.36c-.01 1.89 1.21 2.98 3.03 2.98zM467.12 100.08h1.44v8.32h4.38v1.29h-5.81v-9.61zM480.73 103.23l-3.02 3.52v2.94h-1.44v-2.94l-3.02-3.52v-3.15h1.42v2.79l2.24 2.68h.14l2.23-2.68v-2.79h1.44v3.15zM487.08 99.96c2.17 0 3.82 1.2 4.13 2.98h-1.49c-.24-1.03-1.25-1.7-2.6-1.7-1.81 0-3.06 1.17-3.06 2.97v1.5c0 1.69 1.16 2.89 2.93 2.89 1.67 0 2.86-1.12 2.9-2.85h-3.24v-1.2h4.84v5.14h-1.17l-.13-1.58h-.09c-.66 1.16-1.9 1.71-3.32 1.71-2.66 0-4.22-1.89-4.22-4.85-.02-3.27 1.87-5.01 4.52-5.01zM494.22 100.08h1.44v8.32h4.38v1.29h-5.81v-9.61zM505.81 99.96c2.83 0 4.54 1.83 4.54 4.94 0 3.08-1.67 4.92-4.54 4.92-2.86 0-4.55-1.83-4.55-4.92 0-3.1 1.71-4.94 4.55-4.94zm0 8.59c1.94 0 3.03-1.2 3.03-2.98v-1.36c0-1.9-1.23-2.97-3.03-2.97-1.94 0-3.03 1.19-3.03 2.97v1.36c0 1.89 1.21 2.98 3.03 2.98zM518.62 101.36h-2.9v8.33h-1.42v-8.33h-2.9v-1.28h7.22v1.28zM464.98 113.83h3.96c2.98 0 4.1 1.77 4.1 4.81 0 3.1-1.19 4.8-4.1 4.8h-3.96v-9.61zm3.93 8.33c1.82 0 2.62-.82 2.62-2.71v-1.61c0-2-.94-2.73-2.62-2.73h-2.49v7.05h2.49zM482.74 117.53v5.91h-1.44v-2.21h-4.61v2.21h-1.44v-5.91l3.15-3.71h1.19l3.15 3.71zm-1.44 2.5v-2.1l-2.24-2.72h-.13l-2.24 2.72v2.1h4.61zM490.86 115.11h-2.9v8.33h-1.42v-8.33h-2.9v-1.28h7.22v1.28zM499.24 117.53v5.91h-1.44v-2.21h-4.61v2.21h-1.44v-5.91l3.15-3.71h1.19l3.15 3.71zm-1.44 2.5v-2.1l-2.24-2.72h-.13l-2.24 2.72v2.1h4.61z"/></g><g fill="none" stroke="#171719" stroke-width="1.25" stroke-linejoin="round" stroke-miterlimit="10"><path d="M96.33 256.65v31.66l.02.01-15.28 16.05H50.51l-15.25-16.05-.01-.01v-31.66"/><path d="M81.06 240.61H50.52l-15.27 16.04 15.27 16.04h30.54l15.27-16.04zM81.06 272.69v31.66M50.52 272.69v31.66"/></g><g fill="none" stroke="#171719" stroke-width="1.25" stroke-linejoin="round" stroke-miterlimit="10"><path d="m95.65 178.24-30.73 17.75-30.84-17.75 30.77-17.77z"/><path d="m64.97 226.15-30.89-17.7v-30.21l30.84 17.75z"/><path d="M95.65 178.24v30.21l-30.68 17.7-.05-30.16z"/></g><g fill="#171719"><path d="m61.39 140.78 3.94 3.94.14-9.68h.93l-.14 9.71 4.1-4.08.67.67-5.26 5.23-5.11-5.06.73-.73zM4.37 119.11v7.05h2.54v1.28H.38v-1.28h2.56v-7.05H.38v-1.28h6.54v1.28H4.37zM9.26 117.83H11l4.79 7.73h.07l-.09-2.88v-4.85h1.42v9.61h-1.74l-4.77-7.73h-.07l.09 2.77v4.96H9.26v-9.61zM20.09 117.83h6.41v1.28h-4.97v3.41h4.44v1.23h-4.44v3.69h-1.44v-9.61zM28.54 117.83h4.69c1.91 0 2.82 1.12 2.82 2.85 0 1.16-.57 1.99-1.41 2.29v.09h.49c.73 0 .95.41.95 1.03v3.35h-1.45v-3.62h-4.65v3.62h-1.44v-9.61zm4.38 4.79c1.04 0 1.61-.55 1.61-1.37v-.8c0-.92-.63-1.36-1.61-1.36h-2.94v3.53h2.94zM46.16 121.53v5.91h-1.44v-2.21h-4.61v2.21h-1.44v-5.91l3.15-3.71h1.19l3.15 3.71zm-1.44 2.5v-2.1l-2.24-2.72h-.13l-2.24 2.72v2.1h4.61zM52.14 126.41c1.3 0 2.15-.59 2.15-1.62 0-1.12-1-1.32-1.44-1.42L51.2 123c-.86-.18-2.7-.58-2.7-2.54 0-1.71 1.38-2.75 3.45-2.75 2.08 0 3.51 1.04 3.55 2.81h-1.48c-.07-1.09-.87-1.65-2.08-1.65-1.24 0-1.94.57-1.94 1.41 0 1.02 1.04 1.24 1.62 1.37l1.74.37c1.75.38 2.44 1.36 2.44 2.62 0 1.89-1.5 2.94-3.73 2.94-2.53 0-3.82-1.4-3.81-3.11h1.48c.04 1.3.99 1.94 2.4 1.94zM64.35 119.11h-2.9v8.33h-1.42v-8.33h-2.9v-1.28h7.22v1.28zM66.21 117.83h4.69c1.91 0 2.82 1.12 2.82 2.85 0 1.16-.57 1.99-1.41 2.29v.09h.49c.72 0 .95.41.95 1.03v3.35H72.3v-3.62h-4.65v3.62h-1.44v-9.61zm4.38 4.79c1.04 0 1.61-.55 1.61-1.37v-.8c0-.92-.63-1.36-1.61-1.36h-2.94v3.53h2.94zM76.34 117.83h1.42v5.91c0 1.6.98 2.52 2.51 2.52 1.52 0 2.5-.9 2.5-2.52v-5.91h1.42v6.03c0 2.27-1.52 3.72-3.94 3.72-2.54 0-3.92-1.5-3.92-3.72v-6.03zM86.45 122.66c0-3.1 1.65-4.96 4.52-4.96 2.4 0 4 1.36 4.23 3.4h-1.49c-.24-1.24-1.2-2.11-2.78-2.11-1.79 0-2.97 1.11-2.97 2.9v1.57c0 1.65 1.16 2.83 2.93 2.83 1.45 0 2.52-.83 2.82-2.12h1.49c-.32 2.08-1.96 3.4-4.34 3.4-2.76 0-4.41-1.82-4.41-4.91zM103.65 119.11h-2.9v8.33h-1.42v-8.33h-2.9v-1.28h7.22v1.28zM105.48 117.83h1.42v5.91c0 1.6.97 2.52 2.5 2.52 1.52 0 2.51-.9 2.51-2.52v-5.91h1.42v6.03c0 2.27-1.52 3.72-3.94 3.72-2.54 0-3.92-1.5-3.92-3.72v-6.03zM116.17 117.83h4.69c1.91 0 2.82 1.12 2.82 2.85 0 1.16-.57 1.99-1.41 2.29v.09h.49c.73 0 .95.41.95 1.03v3.35h-1.45v-3.62h-4.65v3.62h-1.44v-9.61zm4.38 4.79c1.04 0 1.61-.55 1.61-1.37v-.8c0-.92-.63-1.36-1.61-1.36h-2.94v3.53h2.94zM126.43 117.83h6.49v1.28h-5.05v2.77h4.42v1.21h-4.42v3.07h5.05v1.28h-6.49v-9.61z"/></g><g fill="#171719"><path d="M260.27 216.94h3.96c2.98 0 4.1 1.77 4.1 4.81 0 3.1-1.19 4.8-4.1 4.8h-3.96v-9.61zm3.93 8.33c1.82 0 2.62-.82 2.62-2.71v-1.61c0-2-.94-2.73-2.62-2.73h-2.49v7.05h2.49zM278.02 220.64v5.91h-1.44v-2.21h-4.61v2.21h-1.44v-5.91l3.15-3.71h1.19l3.15 3.71zm-1.43 2.49v-2.1l-2.24-2.72h-.13l-2.24 2.72v2.1h4.61zM286.15 218.22h-2.9v8.33h-1.42v-8.33h-2.9v-1.28h7.22v1.28zM294.53 220.64v5.91h-1.44v-2.21h-4.61v2.21h-1.44v-5.91l3.15-3.71h1.19l3.15 3.71zm-1.44 2.49v-2.1l-2.24-2.72h-.13l-2.24 2.72v2.1h4.61zM243.92 230.69h4.26c2.07 0 3.07 1.2 3.07 3.1 0 1.94-1.07 3.1-3.07 3.1h-2.82v3.41h-1.44v-9.61zm4.15 4.97c1.08 0 1.66-.59 1.66-1.42v-.91c0-.86-.62-1.32-1.54-1.32h-2.83v3.65h2.71zM253.26 230.69h4.69c1.91 0 2.82 1.12 2.82 2.85 0 1.16-.57 1.99-1.41 2.29v.09h.49c.73 0 .95.41.95 1.03v3.35h-1.45v-3.62h-4.65v3.62h-1.44v-9.61zm4.38 4.78c1.04 0 1.61-.55 1.61-1.37v-.8c0-.92-.63-1.36-1.61-1.36h-2.94v3.53h2.94zM267.44 230.57c2.83 0 4.54 1.83 4.54 4.94 0 3.08-1.67 4.92-4.54 4.92-2.86 0-4.55-1.83-4.55-4.92.01-3.11 1.72-4.94 4.55-4.94zm0 8.58c1.94 0 3.03-1.2 3.03-2.98v-1.36c0-1.9-1.23-2.97-3.03-2.97-1.94 0-3.03 1.19-3.03 2.97v1.36c0 1.9 1.21 2.98 3.03 2.98zM274.33 230.69h3.96c2.98 0 4.1 1.77 4.1 4.81 0 3.1-1.19 4.8-4.1 4.8h-3.96v-9.61zm3.93 8.33c1.82 0 2.62-.82 2.62-2.71v-1.61c0-2-.94-2.73-2.62-2.73h-2.49v7.05h2.49zM284.69 230.69h1.42v5.91c0 1.6.97 2.52 2.5 2.52 1.52 0 2.51-.9 2.51-2.52v-5.91h1.42v6.03c0 2.27-1.52 3.72-3.94 3.72-2.54 0-3.92-1.5-3.92-3.72v-6.03zM294.8 235.51c0-3.1 1.65-4.96 4.52-4.96 2.4 0 3.99 1.36 4.23 3.4h-1.49c-.24-1.24-1.2-2.11-2.78-2.11-1.79 0-2.97 1.11-2.97 2.9v1.57c0 1.65 1.16 2.83 2.93 2.83 1.45 0 2.52-.83 2.82-2.12h1.49c-.32 2.08-1.96 3.4-4.34 3.4-2.76.01-4.41-1.81-4.41-4.91zM312 231.96h-2.9v8.33h-1.42v-8.33h-2.9v-1.28H312v1.28z"/></g><g fill="#171719"><path d="M337.52 18.04v5.57l6.94-6.75.66.66-6.96 6.76 5.78.02v.95l-7.42-.02-.03-7.19h1.03zM335.56 5.37c0-3.1 1.65-4.96 4.52-4.96 2.4 0 4 1.36 4.23 3.4h-1.49c-.24-1.24-1.2-2.11-2.78-2.11-1.79 0-2.97 1.11-2.97 2.9v1.57c0 1.65 1.16 2.83 2.93 2.83 1.45 0 2.52-.83 2.82-2.12h1.49c-.32 2.08-1.96 3.4-4.34 3.4-2.76 0-4.41-1.82-4.41-4.91zM350.59.42c2.83 0 4.54 1.83 4.54 4.94 0 3.08-1.67 4.92-4.54 4.92-2.86 0-4.55-1.83-4.55-4.92 0-3.1 1.72-4.94 4.55-4.94zm0 8.59c1.94 0 3.03-1.2 3.03-2.98V4.67c0-1.9-1.23-2.97-3.03-2.97-1.94 0-3.03 1.19-3.03 2.97v1.36c0 1.89 1.21 2.98 3.03 2.98zM357.48.54h3.96c2.98 0 4.1 1.77 4.1 4.81 0 3.1-1.19 4.8-4.1 4.8h-3.96V.54zm3.93 8.33c1.82 0 2.62-.82 2.62-2.71V4.55c0-2-.94-2.73-2.62-2.73h-2.49v7.05h2.49zM367.92.54h6.49v1.28h-5.05v2.77h4.42V5.8h-4.42v3.07h5.05v1.28h-6.49V.54z"/></g><path fill="#F0F0F0" stroke="#171719" stroke-width="1.25" stroke-linejoin="round" stroke-miterlimit="10" d="M247.44.71h53.44v50.24h-53.44z"/><path fill="#F0F0F0" stroke="#171719" stroke-width="1.25" stroke-linejoin="round" stroke-miterlimit="10" d="M241.72 12.23h64.86v48.24h-64.86z"/><path fill="#F0F0F0" stroke="#171719" stroke-width="1.25" stroke-linejoin="round" stroke-miterlimit="10" d="M236.01 23.75h76.29v40.52h-76.29z"/><g fill="#171719"><path d="M250.98 34.96h3.16v1.05h-2.02V51.6h2.02v.98h-3.16V34.96zM261.69 44.32v-1.41l6.78-3.69v1.9l-5.11 2.46v.14l2.7 1.32 2.41 1.26v1.9l-6.78-3.88zM275.91 35.93h1.19l-5.02 12.8h-1.21l5.04-12.8zM278.97 46.31l2.39-1.26 2.74-1.32v-.14l-5.13-2.46v-1.9l6.78 3.69v1.41l-6.78 3.88v-1.9zM293.29 51.6h2.04V36.02h-2.04v-1.05h3.16v17.62h-3.16v-.99z"/></g></svg>