<svg version="1.1" id="Layer_1" xmlns="http://www.w3.org/2000/svg" x="0" y="0" viewBox="0 0 537 426" xml:space="preserve"><path fill="none" stroke="#171719" stroke-width="1.25" stroke-miterlimit="10" d="m401 255.89 134.28 77.72-134.44 77.62-134.44-77.62z"/><ellipse fill="#171719" cx="319.61" cy="338.55" rx="2.8" ry="1.59"/><ellipse fill="none" stroke="#171719" stroke-width="1.25" stroke-linejoin="round" stroke-miterlimit="10" cx="319.61" cy="256.64" rx="12.96" ry="7.37"/><path fill="none" stroke="#171719" stroke-width="1.25" stroke-miterlimit="10" d="M319.61 338.55v-74.54"/><ellipse fill="#171719" cx="374.43" cy="377.4" rx="2.8" ry="1.59"/><ellipse fill="none" stroke="#171719" stroke-width="1.25" stroke-linejoin="round" stroke-miterlimit="10" cx="374.43" cy="295.5" rx="12.96" ry="7.37"/><path fill="none" stroke="#171719" stroke-width="1.25" stroke-miterlimit="10" d="M374.43 377.4v-74.53"/><ellipse fill="#171719" cx="400.84" cy="310.96" rx="2.8" ry="1.59"/><ellipse fill="none" stroke="#171719" stroke-width="1.25" stroke-linejoin="round" stroke-miterlimit="10" cx="400.84" cy="229.05" rx="12.96" ry="7.37"/><path fill="none" stroke="#171719" stroke-width="1.25" stroke-miterlimit="10" d="M400.84 310.96v-74.54"/><ellipse fill="#171719" cx="451.26" cy="342.74" rx="2.8" ry="1.59"/><ellipse fill="none" stroke="#171719" stroke-width="1.25" stroke-linejoin="round" stroke-miterlimit="10" cx="451.26" cy="260.83" rx="12.96" ry="7.37"/><path fill="none" stroke="#171719" stroke-width="1.25" stroke-miterlimit="10" d="M451.26 342.74V268.2"/><ellipse fill="#171719" cx="498.51" cy="331.97" rx="2.8" ry="1.59"/><ellipse fill="none" stroke="#171719" stroke-width="1.25" stroke-linejoin="round" stroke-miterlimit="10" cx="498.51" cy="250.06" rx="12.96" ry="7.37"/><path fill="none" stroke="#171719" stroke-width="1.25" stroke-miterlimit="10" d="M498.51 331.97v-74.54M136.32 191.79l134.28 77.72-134.44 77.62L1.72 269.51z"/><ellipse fill="#171719" cx="62.3" cy="275.24" rx="2.8" ry="1.59"/><ellipse fill="none" stroke="#171719" stroke-width="1.25" stroke-linejoin="round" stroke-miterlimit="10" cx="62.3" cy="193.33" rx="12.96" ry="7.37"/><path fill="none" stroke="#171719" stroke-width="1.25" stroke-miterlimit="10" d="M62.3 275.24v-74.53"/><ellipse fill="#171719" cx="104" cy="313.3" rx="2.8" ry="1.59"/><ellipse fill="none" stroke="#171719" stroke-width="1.25" stroke-linejoin="round" stroke-miterlimit="10" cx="104" cy="231.4" rx="12.96" ry="7.37"/><path fill="none" stroke="#171719" stroke-width="1.25" stroke-miterlimit="10" d="M104 313.3v-74.53"/><ellipse fill="#171719" cx="136.16" cy="254.84" rx="2.8" ry="1.59"/><ellipse fill="none" stroke="#171719" stroke-width="1.25" stroke-linejoin="round" stroke-miterlimit="10" cx="136.16" cy="172.93" rx="12.96" ry="7.37"/><path fill="none" stroke="#171719" stroke-width="1.25" stroke-miterlimit="10" d="M136.16 254.84V180.3"/><ellipse fill="#171719" cx="162.66" cy="313.3" rx="2.8" ry="1.59"/><ellipse fill="none" stroke="#171719" stroke-width="1.25" stroke-linejoin="round" stroke-miterlimit="10" cx="162.66" cy="231.4" rx="12.96" ry="7.37"/><path fill="none" stroke="#171719" stroke-width="1.25" stroke-miterlimit="10" d="M162.66 313.3v-74.53"/><ellipse fill="#171719" cx="209.53" cy="285.53" rx="2.8" ry="1.59"/><ellipse fill="none" stroke="#171719" stroke-width="1.25" stroke-linejoin="round" stroke-miterlimit="10" cx="209.53" cy="203.62" rx="12.96" ry="7.37"/><path fill="none" stroke="#171719" stroke-width="1.25" stroke-miterlimit="10" d="M209.53 285.53v-74.54M316.98 72.63l134.28 77.72-134.44 77.62-134.45-77.62z"/><ellipse fill="#171719" cx="230" cy="147.95" rx="2.8" ry="1.59"/><ellipse fill="none" stroke="#171719" stroke-width="1.25" stroke-linejoin="round" stroke-miterlimit="10" cx="230" cy="66.05" rx="12.96" ry="7.37"/><path fill="none" stroke="#171719" stroke-width="1.25" stroke-miterlimit="10" d="M230 147.95V73.42"/><ellipse fill="#171719" cx="278.27" cy="156.76" rx="2.8" ry="1.59"/><ellipse fill="none" stroke="#171719" stroke-width="1.25" stroke-linejoin="round" stroke-miterlimit="10" cx="278.27" cy="74.86" rx="12.96" ry="7.37"/><path fill="none" stroke="#171719" stroke-width="1.25" stroke-miterlimit="10" d="M278.27 156.76V82.23"/><ellipse fill="#171719" cx="316.82" cy="127.99" rx="2.8" ry="1.59"/><ellipse fill="none" stroke="#171719" stroke-width="1.25" stroke-linejoin="round" stroke-miterlimit="10" cx="316.82" cy="46.08" rx="12.96" ry="7.37"/><path fill="none" stroke="#171719" stroke-width="1.25" stroke-miterlimit="10" d="M316.82 127.99V53.45"/><ellipse fill="#171719" cx="344.11" cy="190.97" rx="2.8" ry="1.59"/><ellipse fill="none" stroke="#171719" stroke-width="1.25" stroke-linejoin="round" stroke-miterlimit="10" cx="344.11" cy="109.06" rx="12.96" ry="7.37"/><path fill="none" stroke="#171719" stroke-width="1.25" stroke-miterlimit="10" d="M344.11 190.97v-74.54"/><ellipse fill="#171719" cx="390.18" cy="153.05" rx="2.8" ry="1.59"/><ellipse fill="none" stroke="#171719" stroke-width="1.25" stroke-linejoin="round" stroke-miterlimit="10" cx="390.18" cy="71.15" rx="12.96" ry="7.37"/><path fill="none" stroke="#171719" stroke-width="1.25" stroke-miterlimit="10" d="M390.18 153.05V78.52"/><g fill="#171719"><path d="M186.66 54.57h5.57l-6.75-6.94.66-.66 6.76 6.96.02-5.78h.95l-.02 7.42-7.19.03v-1.03zM184.13.3H186l2.85 6.54h.08L191.79.3h1.86v9.61h-1.4V5l.11-2.78h-.08l-3.38 7.51-3.39-7.51h-.09l.12 2.79V9.9h-1.41V.3zM196.56.3h6.49v1.28H198v2.77h4.42v1.21H198v3.07h5.05v1.28h-6.49V.3zM208.59 8.88c1.31 0 2.15-.59 2.15-1.62 0-1.12-1-1.32-1.44-1.42l-1.65-.37c-.86-.18-2.7-.58-2.7-2.54 0-1.71 1.38-2.75 3.45-2.75 2.08 0 3.51 1.04 3.55 2.81h-1.48c-.07-1.09-.87-1.65-2.08-1.65-1.24 0-1.94.57-1.94 1.41 0 1.02 1.04 1.24 1.62 1.37l1.74.37c1.75.38 2.44 1.36 2.44 2.62 0 1.89-1.5 2.94-3.73 2.94-2.53 0-3.82-1.4-3.81-3.11h1.48c.04 1.3.99 1.94 2.4 1.94zM214.66.3h1.44v4.1h5.21V.3h1.44v9.61h-1.44V5.6h-5.21v4.31h-1.44V.3zM187.34 22.63c1.3 0 2.15-.59 2.15-1.62 0-1.12-1-1.32-1.44-1.42l-1.65-.37c-.86-.18-2.7-.58-2.7-2.54 0-1.71 1.38-2.75 3.45-2.75 2.08 0 3.51 1.04 3.55 2.81h-1.48c-.07-1.09-.87-1.65-2.08-1.65-1.24 0-1.94.57-1.94 1.41 0 1.02 1.04 1.24 1.62 1.37l1.74.37c1.75.38 2.44 1.36 2.44 2.62 0 1.89-1.5 2.94-3.73 2.94-2.53 0-3.82-1.4-3.81-3.11h1.48c.04 1.29.99 1.94 2.4 1.94zM193.28 14.05h1.42v5.91c0 1.6.97 2.52 2.5 2.52 1.52 0 2.51-.9 2.51-2.52v-5.91h1.42v6.03c0 2.27-1.52 3.72-3.94 3.72-2.54 0-3.92-1.5-3.92-3.72v-6.03zM203.97 14.05h4.26c2.07 0 3.07 1.2 3.07 3.1 0 1.94-1.07 3.1-3.07 3.1h-2.82v3.41h-1.44v-9.61zm4.16 4.97c1.08 0 1.66-.59 1.66-1.42v-.91c0-.86-.62-1.32-1.54-1.32h-2.83v3.65h2.71zM213.32 14.05h6.49v1.28h-5.05v2.77h4.42v1.21h-4.42v3.07h5.05v1.28h-6.49v-9.61zM222.11 14.05h4.69c1.91 0 2.82 1.12 2.82 2.85 0 1.16-.57 1.99-1.41 2.29v.09h.49c.72 0 .95.41.95 1.03v3.35h-1.45v-3.62h-4.65v3.62h-1.44v-9.61zm4.38 4.78c1.04 0 1.61-.55 1.61-1.37v-.8c0-.92-.63-1.36-1.61-1.36h-2.94v3.53h2.94zM233.57 14.05v5.55l2.24 2.72h.14l2.23-2.72v-5.55h1.44v5.92l-3.14 3.69h-1.2l-3.14-3.69v-5.92h1.43zM245.96 15.33v7.05h2.54v1.28h-6.54v-1.28h2.56v-7.05h-2.56v-1.28h6.54v1.28h-2.54zM254.19 22.63c1.31 0 2.15-.59 2.15-1.62 0-1.12-1-1.32-1.44-1.42l-1.65-.37c-.86-.18-2.7-.58-2.7-2.54 0-1.71 1.38-2.75 3.45-2.75 2.08 0 3.51 1.04 3.55 2.81h-1.48c-.07-1.09-.87-1.65-2.08-1.65-1.24 0-1.94.57-1.94 1.41 0 1.02 1.04 1.24 1.62 1.37l1.74.37c1.75.38 2.44 1.36 2.44 2.62 0 1.89-1.5 2.94-3.73 2.94-2.53 0-3.82-1.4-3.81-3.11h1.48c.04 1.29.99 1.94 2.4 1.94zM263.77 15.33v7.05h2.54v1.28h-6.54v-1.28h2.56v-7.05h-2.56v-1.28h6.54v1.28h-2.54zM272.38 13.93c2.83 0 4.54 1.83 4.54 4.94 0 3.08-1.67 4.92-4.54 4.92-2.86 0-4.55-1.83-4.55-4.92 0-3.11 1.71-4.94 4.55-4.94zm0 8.58c1.94 0 3.03-1.2 3.03-2.98v-1.36c0-1.9-1.23-2.97-3.03-2.97-1.94 0-3.03 1.19-3.03 2.97v1.36c0 1.9 1.21 2.98 3.03 2.98zM279.27 14.05h1.74l4.79 7.73h.07l-.09-2.88v-4.85h1.42v9.61h-1.74l-4.77-7.73h-.07l.09 2.77v4.96h-1.44v-9.61zM184.13 27.79h4.26c2.07 0 3.07 1.2 3.07 3.1 0 1.94-1.07 3.1-3.07 3.1h-2.82v3.41h-1.44v-9.61zm4.15 4.97c1.08 0 1.66-.59 1.66-1.42v-.91c0-.86-.62-1.32-1.54-1.32h-2.83v3.65h2.71zM193.48 27.79h1.44v8.32h4.38v1.29h-5.81v-9.61zM208.82 31.5v5.91h-1.44V35.2h-4.61v2.21h-1.44V31.5l3.15-3.71h1.19l3.15 3.71zm-1.44 2.49v-2.1l-2.24-2.72h-.13l-2.24 2.72v2.1h4.61zM211.61 27.79h1.74l4.79 7.73h.07l-.09-2.88v-4.85h1.42v9.61h-1.74l-4.77-7.73h-.07l.09 2.77v4.96h-1.44v-9.61zM222.44 27.79h6.49v1.28h-5.05v2.77h4.42v1.21h-4.42v3.07h5.05v1.28h-6.49v-9.61z"/></g><g fill="#171719"><path d="M31.83 168.18h5.57l-6.75-6.94.66-.66 6.76 6.96.02-5.78h.95l-.02 7.42-7.19.03v-1.03zM29.3 100.91h3.96c2.98 0 4.1 1.77 4.1 4.81 0 3.1-1.19 4.8-4.1 4.8H29.3v-9.61zm3.93 8.33c1.82 0 2.62-.82 2.62-2.71v-1.61c0-2-.94-2.73-2.62-2.73h-2.49v7.05h2.49zM47.06 104.61v5.91h-1.44v-2.21h-4.61v2.21h-1.44v-5.91l3.15-3.71h1.19l3.15 3.71zm-1.44 2.5v-2.1l-2.24-2.72h-.13l-2.24 2.72v2.1h4.61zM55.18 102.19h-2.9v8.33h-1.42v-8.33h-2.9v-1.28h7.22v1.28zM63.56 104.61v5.91h-1.44v-2.21h-4.61v2.21h-1.44v-5.91l3.15-3.71h1.19l3.15 3.71zm-1.44 2.5v-2.1l-2.24-2.72h-.13l-2.24 2.72v2.1h4.61zM70.34 100.91h4.26c2.07 0 3.07 1.2 3.07 3.1 0 1.94-1.07 3.1-3.07 3.1h-2.82v3.41h-1.44v-9.61zm4.15 4.97c1.08 0 1.66-.59 1.66-1.42v-.91c0-.86-.62-1.32-1.54-1.32h-2.83v3.65h2.71zM79.68 100.91h4.69c1.91 0 2.82 1.12 2.82 2.85 0 1.16-.57 1.99-1.41 2.29v.09h.49c.72 0 .95.41.95 1.03v3.35h-1.45v-3.62h-4.65v3.62h-1.44v-9.61zm4.38 4.78c1.04 0 1.61-.55 1.61-1.37v-.8c0-.92-.63-1.36-1.61-1.36h-2.94v3.53h2.94zM93.86 100.79c2.83 0 4.54 1.83 4.54 4.94 0 3.08-1.67 4.92-4.54 4.92-2.86 0-4.55-1.83-4.55-4.92.01-3.11 1.72-4.94 4.55-4.94zm0 8.58c1.94 0 3.03-1.2 3.03-2.98v-1.36c0-1.9-1.23-2.97-3.03-2.97-1.94 0-3.03 1.19-3.03 2.97v1.36c0 1.9 1.22 2.98 3.03 2.98zM100.76 100.91h3.96c2.98 0 4.1 1.77 4.1 4.81 0 3.1-1.19 4.8-4.1 4.8h-3.96v-9.61zm3.92 8.33c1.82 0 2.62-.82 2.62-2.71v-1.61c0-2-.94-2.73-2.62-2.73h-2.49v7.05h2.49zM111.11 100.91h1.42v5.91c0 1.6.98 2.52 2.51 2.52 1.52 0 2.5-.9 2.5-2.52v-5.91h1.42v6.03c0 2.27-1.52 3.72-3.94 3.72-2.54 0-3.92-1.5-3.92-3.72v-6.03zM121.22 105.73c0-3.1 1.65-4.96 4.52-4.96 2.4 0 4 1.36 4.23 3.4h-1.49c-.24-1.24-1.2-2.11-2.78-2.11-1.79 0-2.97 1.11-2.97 2.9v1.57c0 1.65 1.16 2.83 2.93 2.83 1.45 0 2.52-.83 2.82-2.12h1.49c-.32 2.08-1.96 3.4-4.34 3.4-2.76.01-4.41-1.81-4.41-4.91zM138.42 102.19h-2.9v8.33h-1.42v-8.33h-2.9v-1.28h7.22v1.28zM29.3 114.66h3.96c2.98 0 4.1 1.77 4.1 4.81 0 3.1-1.19 4.8-4.1 4.8H29.3v-9.61zm3.93 8.33c1.82 0 2.62-.82 2.62-2.71v-1.61c0-2-.94-2.73-2.62-2.73h-2.49v7.05h2.49zM39.75 114.66h6.49v1.28h-5.05v2.77h4.42v1.21h-4.42v3.07h5.05v1.28h-6.49v-9.61zM49.86 114.66v5.55l2.24 2.72h.14l2.23-2.72v-5.55h1.44v5.92l-3.14 3.69h-1.2l-3.14-3.69v-5.92h1.43zM58.71 114.66h6.49v1.28h-5.05v2.77h4.42v1.21h-4.42v3.07h5.05v1.28h-6.49v-9.61zM67.5 114.66h1.44v8.32h4.38v1.29H67.5v-9.61zM79.09 114.54c2.83 0 4.54 1.83 4.54 4.94 0 3.08-1.67 4.92-4.54 4.92-2.86 0-4.55-1.83-4.55-4.92 0-3.11 1.71-4.94 4.55-4.94zm0 8.58c1.94 0 3.03-1.2 3.03-2.98v-1.36c0-1.9-1.23-2.97-3.03-2.97-1.94 0-3.03 1.19-3.03 2.97v1.36c0 1.9 1.21 2.98 3.03 2.98zM85.98 114.66h4.26c2.07 0 3.07 1.2 3.07 3.1 0 1.94-1.07 3.1-3.07 3.1h-2.82v3.41h-1.44v-9.61zm4.15 4.97c1.08 0 1.66-.59 1.66-1.42v-.91c0-.86-.62-1.32-1.54-1.32h-2.83v3.65h2.71zM95.33 114.66h6.49v1.28h-5.05v2.77h4.42v1.21h-4.42v3.07h5.05v1.28h-6.49v-9.61zM104.12 114.66h4.69c1.91 0 2.82 1.12 2.82 2.85 0 1.16-.57 1.99-1.41 2.29v.09h.49c.73 0 .95.41.95 1.03v3.35h-1.45v-3.62h-4.65v3.62h-1.44v-9.61zm4.37 4.78c1.04 0 1.61-.55 1.61-1.37v-.8c0-.92-.63-1.36-1.61-1.36h-2.94v3.53h2.94zM29.3 128.4h6.49v1.28h-5.05v2.77h4.42v1.21h-4.42v3.07h5.05v1.28H29.3v-9.61zM40.46 133.16l-2.94-4.76h1.7l1.17 1.96 1.09 1.94h.09l1.15-2 1.12-1.9h1.69l-2.97 4.8 2.98 4.81h-1.7l-1.07-1.73-1.23-2.12h-.08l-1.31 2.2-1.01 1.65h-1.69l3.01-4.85zM47.45 128.4h4.26c2.07 0 3.07 1.2 3.07 3.1 0 1.94-1.07 3.1-3.07 3.1h-2.82v3.41h-1.44v-9.61zm4.16 4.98c1.08 0 1.66-.59 1.66-1.42v-.91c0-.86-.62-1.32-1.54-1.32H48.9v3.65h2.71zM56.8 128.4h6.49v1.28h-5.05v2.77h4.42v1.21h-4.42v3.07h5.05v1.28H56.8v-9.61zM65.59 128.4h4.69c1.91 0 2.82 1.12 2.82 2.85 0 1.16-.57 1.99-1.41 2.29v.09h.49c.72 0 .95.41.95 1.03v3.35h-1.45v-3.62h-4.65v3.62h-1.44v-9.61zm4.38 4.79c1.04 0 1.61-.55 1.61-1.37v-.8c0-.92-.63-1.36-1.61-1.36h-2.94v3.53h2.94zM79.33 129.68v7.05h2.54v1.28h-6.54v-1.28h2.56v-7.05h-2.56v-1.28h6.54v1.28h-2.54zM84.22 128.4h6.49v1.28h-5.05v2.77h4.42v1.21h-4.42v3.07h5.05v1.28h-6.49v-9.61zM93.01 128.4h1.74l4.79 7.73h.07l-.09-2.88v-4.85h1.42v9.61H99.2l-4.77-7.73h-.07l.09 2.77v4.96h-1.44v-9.61zM103.3 133.23c0-3.1 1.65-4.96 4.52-4.96 2.4 0 3.99 1.36 4.23 3.4h-1.49c-.24-1.24-1.2-2.11-2.78-2.11-1.79 0-2.97 1.11-2.97 2.9v1.57c0 1.65 1.16 2.83 2.93 2.83 1.45 0 2.52-.83 2.82-2.12h1.49c-.32 2.08-1.96 3.4-4.34 3.4-2.76.01-4.41-1.81-4.41-4.91zM114.37 128.4h6.49v1.28h-5.05v2.77h4.42v1.21h-4.42v3.07h5.05v1.28h-6.49v-9.61zM29.3 142.15h4.26c2.07 0 3.07 1.2 3.07 3.1 0 1.94-1.07 3.1-3.07 3.1h-2.82v3.42H29.3v-9.62zm4.16 4.97c1.08 0 1.66-.59 1.66-1.42v-.91c0-.86-.62-1.32-1.54-1.32h-2.83v3.65h2.71zM38.65 142.15h1.44v8.32h4.38v1.29h-5.81v-9.61zM53.99 145.86v5.91h-1.44v-2.21h-4.61v2.21H46.5v-5.91l3.15-3.7h1.19l3.15 3.7zm-1.44 2.49v-2.1l-2.24-2.72h-.13l-2.24 2.72v2.1h4.61zM56.79 142.15h1.74l4.79 7.72h.07l-.1-2.87v-4.85h1.42v9.61h-1.74l-4.77-7.73h-.07l.09 2.77v4.96h-1.44v-9.61zM67.62 142.15h6.49v1.28h-5.05v2.77h4.42v1.21h-4.42v3.07h5.05v1.28h-6.49v-9.61z"/></g><g fill="#171719"><path d="M296.78 379.87v-5.57l-6.94 6.75-.66-.66 6.96-6.76-5.78-.02v-.95l7.42.02.03 7.19h-1.03zM263.61 388.73h3.96c2.98 0 4.1 1.77 4.1 4.81 0 3.1-1.19 4.8-4.1 4.8h-3.96v-9.61zm3.93 8.33c1.82 0 2.62-.82 2.62-2.71v-1.61c0-2-.94-2.73-2.62-2.73h-2.49v7.05h2.49zM281.36 392.43v5.91h-1.44v-2.21h-4.61v2.21h-1.44v-5.91l3.15-3.71h1.19l3.15 3.71zm-1.43 2.49v-2.1l-2.24-2.72h-.13l-2.24 2.72v2.1h4.61zM289.49 390h-2.9v8.33h-1.42V390h-2.9v-1.28h7.22V390zM297.87 392.43v5.91h-1.44v-2.21h-4.61v2.21h-1.44v-5.91l3.15-3.71h1.19l3.15 3.71zm-1.44 2.49v-2.1l-2.24-2.72h-.13l-2.24 2.72v2.1h4.61zM169.77 403.75v7.05h2.54v1.28h-6.54v-1.28h2.56v-7.05h-2.56v-1.28h6.54v1.28h-2.54zM174.66 402.47h1.74l4.79 7.73h.07l-.09-2.88v-4.85h1.42v9.61h-1.74l-4.77-7.73h-.07l.09 2.77v4.96h-1.44v-9.61zM185.49 402.47h6.41v1.28h-4.97v3.41h4.44v1.23h-4.44v3.69h-1.44v-9.61zM193.94 402.47h4.69c1.91 0 2.82 1.12 2.82 2.85 0 1.16-.57 1.99-1.41 2.29v.09h.49c.73 0 .95.41.95 1.03v3.35h-1.45v-3.62h-4.65v3.62h-1.44v-9.61zm4.38 4.79c1.04 0 1.61-.55 1.61-1.37v-.8c0-.92-.63-1.36-1.61-1.36h-2.94v3.53h2.94zM211.56 406.18v5.91h-1.44v-2.21h-4.61v2.21h-1.44v-5.91l3.15-3.71h1.19l3.15 3.71zm-1.44 2.49v-2.1l-2.24-2.72h-.13l-2.24 2.72v2.1h4.61zM217.54 411.06c1.3 0 2.15-.59 2.15-1.62 0-1.12-1-1.32-1.44-1.42l-1.65-.37c-.86-.18-2.7-.58-2.7-2.54 0-1.71 1.38-2.75 3.45-2.75 2.08 0 3.51 1.04 3.55 2.81h-1.48c-.07-1.09-.87-1.65-2.08-1.65-1.24 0-1.94.57-1.94 1.41 0 1.02 1.04 1.24 1.62 1.37l1.74.37c1.75.38 2.44 1.36 2.44 2.62 0 1.89-1.5 2.94-3.73 2.94-2.53 0-3.82-1.4-3.81-3.11h1.48c.04 1.29.99 1.94 2.4 1.94zM229.75 403.75h-2.9v8.33h-1.42v-8.33h-2.9v-1.28h7.22v1.28zM231.61 402.47h4.69c1.91 0 2.82 1.12 2.82 2.85 0 1.16-.57 1.99-1.41 2.29v.09h.49c.72 0 .95.41.95 1.03v3.35h-1.45v-3.62h-4.65v3.62h-1.44v-9.61zm4.38 4.79c1.04 0 1.61-.55 1.61-1.37v-.8c0-.92-.63-1.36-1.61-1.36h-2.94v3.53h2.94zM241.74 402.47h1.42v5.91c0 1.6.98 2.52 2.51 2.52 1.52 0 2.5-.9 2.5-2.52v-5.91h1.42v6.03c0 2.27-1.52 3.72-3.94 3.72-2.54 0-3.92-1.5-3.92-3.72v-6.03zM251.85 407.3c0-3.1 1.65-4.96 4.52-4.96 2.4 0 4 1.36 4.23 3.4h-1.49c-.24-1.24-1.2-2.11-2.78-2.11-1.79 0-2.97 1.11-2.97 2.9v1.57c0 1.65 1.16 2.83 2.93 2.83 1.45 0 2.52-.83 2.82-2.12h1.49c-.32 2.08-1.96 3.4-4.34 3.4-2.76.01-4.41-1.81-4.41-4.91zM269.05 403.75h-2.9v8.33h-1.42v-8.33h-2.9v-1.28h7.22v1.28zM270.88 402.47h1.42v5.91c0 1.6.97 2.52 2.5 2.52 1.52 0 2.51-.9 2.51-2.52v-5.91h1.42v6.03c0 2.27-1.52 3.72-3.94 3.72-2.54 0-3.92-1.5-3.92-3.72v-6.03zM281.57 402.47h4.69c1.91 0 2.82 1.12 2.82 2.85 0 1.16-.57 1.99-1.41 2.29v.09h.49c.73 0 .95.41.95 1.03v3.35h-1.45v-3.62h-4.65v3.62h-1.44v-9.61zm4.38 4.79c1.04 0 1.61-.55 1.61-1.37v-.8c0-.92-.63-1.36-1.61-1.36h-2.94v3.53h2.94zM291.83 402.47h6.49v1.28h-5.05v2.77h4.42v1.21h-4.42v3.07h5.05v1.28h-6.49v-9.61zM253.52 416.22h4.26c2.07 0 3.07 1.2 3.07 3.1 0 1.94-1.07 3.1-3.07 3.1h-2.82v3.41h-1.44v-9.61zm4.15 4.97c1.08 0 1.66-.59 1.66-1.42v-.91c0-.86-.62-1.32-1.54-1.32h-2.83v3.65h2.71zM262.86 416.22h1.44v8.32h4.38v1.29h-5.81v-9.61zM278.2 419.93v5.91h-1.44v-2.21h-4.61v2.21h-1.44v-5.91l3.15-3.71h1.19l3.15 3.71zm-1.43 2.49v-2.1l-2.24-2.72h-.13l-2.24 2.72v2.1h4.61zM281 416.22h1.74l4.79 7.73h.07l-.09-2.88v-4.85h1.42v9.61h-1.74l-4.77-7.73h-.07l.09 2.77v4.96H281v-9.61zM291.83 416.22h6.49v1.28h-5.05v2.77h4.42v1.21h-4.42v3.07h5.05v1.28h-6.49v-9.61z"/></g></svg>