<?xml version="1.0" encoding="UTF-8"?>
<svg width="1200" height="280" version="1.1" xmlns="http://www.w3.org/2000/svg">
 <title>Sierra Nevada Corporation | SNC</title>
 <desc>Sierra Nevada Corporation SNC Logo</desc>
 <g transform="matrix(4.593423 0 0 4.593423 29.4843 31.17554)">
  <g style="fill:#002d64">
   <path d="m20.882 29.795c0-.839-.681-1.52-1.521-1.52h-9.05c-5.485 0-9.932-4.448-9.932-9.933v-8.41c0-5.485 4.447-9.932 9.932-9.932h18.85c5.485 0 9.932 4.447 9.932 9.932v4.931h-17.18l-.004-1.321c0-.851-.69-1.542-1.542-1.542-.851 0-1.541.691-1.541 1.542v3.15c0 .865.541 1.297 1.495 1.297.999 0 8.965-.011 8.965-.011 5.485 0 9.811 4.447 9.811 9.932l-.004 9.941c0 5.486-4.446 9.933-9.932 9.933l-18.888.012c-5.485 0-9.932-4.447-9.932-9.932v-6.778h17.468l-.002 2.619c0 .85.69 1.542 1.541 1.542.852 0 1.542-.692 1.542-1.542v-3.063z"/>
   <path d="m63.312 14.263c0-.851-.69-1.542-1.542-1.542s-1.541.691-1.541 1.542v33.638h-16.477v-47.841h16.464v5.369l4.271-5.41 7.27-.019c5.486 0 9.932 4.447 9.932 9.932v37.969h-18.4z"/>
   <path d="m125.354 37.852c0 5.486-4.447 9.933-9.932 9.933l-18.888.012c-5.485 0-9.932-4.447-9.932-9.933l.039-27.932c0-5.485 4.446-9.932 9.932-9.932h18.85c5.485 0 9.932 4.447 9.932 9.932v11.493h-17.179l-.005-7.162c0-.851-.69-1.542-1.541-1.542-.852 0-1.542.691-1.542 1.542v19.317c0 .85.691 1.541 1.542 1.541s1.541-.691 1.541-1.541l.005-8.355h17.179v12.684z"/>
  </g>
  <g>
   <path d="m133.485 8.763 2.907-.182c.064.472.193.831.388 1.078.315.4.768.599 1.354.599.44 0 .777-.102 1.015-.308.236-.206.354-.443.354-.714 0-.257-.112-.487-.337-.69-.224-.203-.746-.395-1.563-.576-1.344-.302-2.3-.703-2.871-1.203-.578-.5-.864-1.136-.864-1.911 0-.508.147-.989.442-1.441.296-.452.739-.808 1.332-1.067.594-.258 1.406-.389 2.439-.389 1.267 0 2.232.235 2.896.704.666.469 1.062 1.214 1.188 2.237l-2.886.169c-.076-.445-.239-.769-.487-.971-.247-.203-.588-.304-1.024-.304-.358 0-.629.075-.81.227-.184.151-.272.335-.272.552 0 .158.075.3.229.426.147.132.49.253 1.032.366 1.336.289 2.294.581 2.872.876.579.295.999.662 1.265 1.1.263.438.394.927.394 1.468 0 .636-.176 1.223-.526 1.759-.353.537-.843.943-1.475 1.221-.631.278-1.425.416-2.386.416-1.687 0-2.854-.324-3.503-.972s-1.016-1.471-1.103-2.47z"/>
   <path d="m144.814 2.139h3.063v9.887h-3.063z"/>
   <path d="m150.739 2.139h8.188v2.103h-5.122v1.588h4.764v2.014h-4.764v1.945h5.278v2.237h-8.344z"/>
   <path d="m164.506 4.13h1.347c.561 0 .94.085 1.145.257.203.171.304.417.304.736 0 .216-.064.408-.192.574-.129.167-.294.271-.499.312-.401.09-.672.135-.81.135h-1.294zm0 7.896v-4.027h.271c.28 0 .531.077.751.23.162.118.349.373.558.765l1.64 3.032h3.445l-1.498-2.863c-.072-.145-.214-.352-.426-.62-.213-.268-.374-.443-.487-.524-.164-.123-.429-.246-.791-.368.456-.104.814-.234 1.077-.391.411-.246.732-.568.968-.965.234-.397.353-.87.353-1.417 0-.628-.153-1.161-.459-1.598-.307-.438-.709-.737-1.208-.898-.498-.162-1.221-.243-2.165-.243h-5.093v9.887z"/>
   <path d="m175.931 4.13h1.346c.561 0 .942.085 1.145.257.203.171.305.417.305.736 0 .216-.064.408-.193.574s-.294.271-.496.312c-.403.09-.674.135-.813.135h-1.293zm0 7.896v-4.027h.271c.28 0 .531.077.752.23.163.118.349.373.557.765l1.642 3.032h3.443l-1.497-2.863c-.072-.145-.215-.352-.427-.62-.213-.268-.374-.443-.485-.524-.165-.123-.431-.246-.79-.368.453-.104.813-.234 1.074-.391.411-.246.734-.568.969-.965s.352-.87.352-1.417c0-.628-.153-1.161-.457-1.598-.308-.438-.711-.737-1.21-.898-.498-.162-1.221-.243-2.165-.243h-5.093v9.887z"/>
   <path d="m187.523 8.246 1.072-3.548 1.073 3.548zm3.279 3.78h3.195l-3.677-9.887h-3.363l-3.696 9.887h3.116l.494-1.633h3.439z"/>
  </g>
  <g>
   <path d="m134.045 18.624h2.842l3.733 5.483v-5.483h2.886v9.887h-2.886l-3.712-5.454v5.454h-2.863z"/>
   <path d="m146.208 18.624h8.187v2.103h-5.122v1.588h4.764v2.013h-4.764v1.946h5.278v2.237h-8.343z"/>
   <path d="m155.605 18.624h3.191l2.234 7.116 2.19-7.116h3.099l-3.667 9.887h-3.311z"/>
   <path d="m170.501 24.731 1.075-3.548 1.072 3.548zm3.281 3.78h3.196l-3.677-9.887h-3.366l-3.696 9.887h3.118l.495-1.633h3.439z"/>
   <path d="m181.948 20.861c.791 0 1.357.194 1.698.582.343.387.512 1.106.512 2.156 0 .792-.075 1.365-.228 1.719s-.366.603-.635.744-.725.212-1.363.212h-.748v-5.413zm-3.807 7.65h4.532c.543 0 1.148-.09 1.817-.269.49-.131.948-.393 1.374-.787.427-.392.758-.88 1-1.463.239-.582.359-1.402.359-2.458 0-.674-.081-1.313-.243-1.916-.161-.603-.421-1.13-.781-1.584-.357-.455-.812-.803-1.361-1.046-.551-.243-1.273-.364-2.165-.364h-4.532z"/>
   <path d="m192.206 24.731 1.073-3.548 1.072 3.548zm3.281 3.78h3.196l-3.68-9.887h-3.362l-3.696 9.887h3.116l.495-1.633h3.439z"/>
  </g>
  <g>
   <path d="m140.599 40.97 2.684.81c-.179.749-.463 1.375-.851 1.876-.386.502-.865.881-1.439 1.138-.572.254-1.303.383-2.188.383-1.074 0-1.953-.157-2.635-.471-.682-.312-1.27-.862-1.765-1.65-.492-.789-.741-1.797-.741-3.025 0-1.639.436-2.898 1.307-3.779.87-.879 2.101-1.32 3.694-1.32 1.246 0 2.226.252 2.938.755.713.501 1.244 1.274 1.589 2.314l-2.705.6c-.095-.301-.192-.521-.298-.66-.169-.233-.38-.412-.625-.537-.247-.127-.523-.189-.829-.189-.689 0-1.22.279-1.59.841-.276.415-.417 1.069-.417 1.959 0 1.104.166 1.859.497 2.268.333.409.801.613 1.402.613.582 0 1.022-.163 1.32-.492.299-.331.517-.809.652-1.434z"/>
   <path d="m148.12 37.892c.376-.438.872-.657 1.493-.657.647 0 1.159.215 1.537.648.378.431.566 1.115.566 2.052 0 1.113-.181 1.885-.543 2.313-.362.431-.875.645-1.535.645-.641 0-1.148-.218-1.522-.658-.372-.438-.561-1.159-.561-2.164.001-1.013.189-1.739.565-2.179zm-2.925 5.06c.454.771 1.048 1.334 1.778 1.689s1.653.535 2.77.535c1.097 0 2.012-.207 2.748-.619.736-.411 1.297-.989 1.687-1.729.39-.741.582-1.69.582-2.85 0-1.594-.445-2.834-1.336-3.719-.89-.886-2.157-1.329-3.804-1.329-1.604 0-2.856.45-3.756 1.353-.898.899-1.351 2.16-1.351 3.776 0 1.158.228 2.123.682 2.893z"/>
   <path d="m159.363 37.101h1.346c.561 0 .94.085 1.145.256.203.171.304.417.304.737 0 .216-.063.407-.192.573s-.294.271-.497.311c-.402.091-.674.136-.812.136h-1.293zm0 7.896v-4.026h.271c.28 0 .531.077.752.229.161.118.349.373.557.765l1.642 3.032h3.443l-1.498-2.862c-.069-.146-.214-.353-.426-.621-.211-.268-.374-.441-.485-.523-.165-.123-.429-.245-.791-.368.454-.104.814-.232 1.075-.391.411-.246.734-.568.968-.966.236-.396.353-.868.353-1.417 0-.628-.151-1.16-.459-1.598-.304-.438-.709-.738-1.208-.898-.498-.162-1.221-.243-2.165-.243h-5.093v9.888z"/>
   <path d="m170.742 37.123h.871c.57 0 .96.108 1.168.324.206.218.31.481.31.792 0 .322-.119.584-.358.79-.239.205-.652.31-1.242.31h-.748zm-3.065 7.874h3.065v-3.669h1.673c1.233 0 2.148-.28 2.75-.842.6-.563.899-1.343.899-2.342 0-.971-.274-1.719-.823-2.246-.552-.525-1.381-.789-2.487-.789h-5.077z"/>
   <path d="m181.008 37.892c.374-.438.872-.657 1.491-.657.646 0 1.161.215 1.539.648.378.431.566 1.115.566 2.052 0 1.113-.181 1.885-.543 2.313-.362.431-.873.645-1.533.645-.645 0-1.15-.218-1.524-.658-.374-.438-.56-1.159-.56-2.164.001-1.013.188-1.739.564-2.179zm-2.926 5.06c.454.771 1.046 1.334 1.778 1.689.73.355 1.651.535 2.768.535 1.099 0 2.014-.207 2.748-.619.736-.411 1.299-.989 1.687-1.729.39-.741.584-1.69.584-2.85 0-1.594-.445-2.834-1.336-3.719-.89-.886-2.157-1.329-3.804-1.329-1.604 0-2.856.45-3.757 1.353-.899.899-1.348 2.16-1.348 3.776.001 1.158.227 2.123.68 2.893z"/>
   <path d="m192.249 37.101h1.348c.559 0 .942.085 1.145.256s.304.417.304.737c0 .216-.063.407-.192.573s-.294.271-.499.311c-.4.091-.672.136-.812.136h-1.293zm0 7.896v-4.026h.271c.282 0 .533.077.754.229.163.118.349.373.557.765l1.64 3.032h3.445l-1.498-2.862c-.071-.146-.214-.353-.426-.621-.213-.268-.374-.441-.485-.523-.167-.123-.431-.245-.793-.368.456-.104.814-.232 1.075-.391.413-.246.734-.568.97-.966.234-.396.353-.868.353-1.417 0-.628-.153-1.16-.459-1.598s-.709-.738-1.208-.898c-.498-.162-1.221-.243-2.163-.243h-5.095v9.888z"/>
   <path d="m203.84 41.216 1.075-3.549 1.071 3.549zm3.282 3.781h3.195l-3.679-9.888h-3.363l-3.694 9.888h3.116l.492-1.634h3.439z"/>
   <path d="m210.345 35.109h9.263v2.438h-3.11v7.449h-3.042v-7.449h-3.11z"/>
   <path d="m221.829 35.109h3.065v9.888h-3.065z"/>
   <path d="m230.981 37.892c.376-.438.875-.657 1.494-.657.646 0 1.16.215 1.536.648.378.431.567 1.115.567 2.052 0 1.113-.18 1.885-.544 2.313-.362.431-.872.645-1.532.645-.643 0-1.151-.218-1.523-.658-.374-.438-.561-1.159-.561-2.164 0-1.013.189-1.739.563-2.179zm-2.923 5.06c.454.771 1.046 1.334 1.776 1.689.732.355 1.655.535 2.77.535 1.096 0 2.014-.207 2.747-.619.736-.411 1.298-.989 1.687-1.729.39-.741.585-1.69.585-2.85 0-1.594-.446-2.834-1.336-3.719-.891-.886-2.16-1.329-3.804-1.329-1.606 0-2.859.45-3.757 1.353-.899.899-1.35 2.16-1.35 3.776 0 1.158.228 2.123.682 2.893z"/>
   <path d="m239.135 35.109h2.844l3.733 5.483v-5.483h2.886v9.888h-2.886l-3.712-5.454v5.454h-2.865z"/>
  </g>
 </g>
</svg>