<?xml version="1.0" encoding="UTF-8"?>
<svg id="_2026_02_04" data-name="2026_02_04" xmlns="http://www.w3.org/2000/svg" xmlns:xlink="http://www.w3.org/1999/xlink" viewBox="0 0 1469.15 718.39">
  <defs>
    <style>
      .cls-1, .cls-2 {
        fill: none;
      }

      .cls-2 {
        stroke: #231f20;
        stroke-linecap: round;
        stroke-linejoin: round;
        stroke-width: .5px;
      }

      .cls-3 {
        fill: url(#linear-gradient-2);
        fill-opacity: .75;
      }

      .cls-3, .cls-4 {
        opacity: .5;
      }

      .cls-5 {
        clip-path: url(#clippath-1);
      }

      .cls-4 {
        fill: url(#linear-gradient);
      }

      .cls-6 {
        opacity: .3;
      }

      .cls-7 {
        clip-path: url(#clippath);
      }
    </style>
    <clipPath id="clippath">
      <rect class="cls-1" x="-2516.22" y="-875.06" width="1500" height="1280.84"/>
    </clipPath>
    <clipPath id="clippath-1">
      <rect class="cls-1" x="-2516.22" y="-642.42" width="1500" height="1048.2"/>
    </clipPath>
    <linearGradient id="linear-gradient" x1="945.71" y1="463.24" x2="945.71" y2="136.3" gradientTransform="translate(24.18 397) rotate(-30) skewX(-30)" gradientUnits="userSpaceOnUse">
      <stop offset="0" stop-color="#9881f3" stop-opacity=".75"/>
      <stop offset="1" stop-color="#9881f3" stop-opacity="0"/>
    </linearGradient>
    <linearGradient id="linear-gradient-2" x1="-438.79" y1="-136.27" x2="-438.79" y2="-463.2" gradientTransform="translate(245.97 397) rotate(-150) scale(1 -1) skewX(-30)" xlink:href="#linear-gradient"/>
  </defs>
  <g id="_1" data-name="1">
    <g class="cls-7">
      <g class="cls-5">
        <g class="cls-6">
          <polygon class="cls-2" points="-3644.24 25.82 -1766.19 -1058.47 111.81 25.79 -1766.24 1110.09 -3644.24 25.82"/>
          <line class="cls-2" x1="-1803.8" y1="1088.4" x2="74.25" y2="4.11"/>
          <line class="cls-2" x1="-1841.36" y1="1066.72" x2="36.69" y2="-17.58"/>
          <line class="cls-2" x1="-1803.75" y1="-1036.78" x2="74.25" y2="47.48"/>
          <line class="cls-2" x1="-1841.31" y1="-1015.1" x2="36.69" y2="69.16"/>
        </g>
      </g>
    </g>
  </g>
  <g>
    <rect class="cls-1" width="1469.15" height="718.39"/>
    <polygon class="cls-4" points="951.79 396.34 734.57 521.71 734.57 144.24 951.79 21.98 951.79 396.34"/>
    <polygon class="cls-3" points="517.36 396.34 734.57 521.71 734.57 144.24 517.36 21.98 517.36 396.34"/>
  </g>
</svg>