<svg id="Layer_1" data-name="Layer 1" xmlns="http://www.w3.org/2000/svg" viewBox="0 0 1200 628"><defs><style>.cls-1{fill:#ce1f34;}</style></defs><title>JDP Red</title><path class="cls-1" d="M54.32,353.07c0,12.14,6.56,18.21,20.88,18.21s19.42-6.07,19.42-18.21V237.79c0-4.38,1.69-6.32,5.82-6.32h21.12c4.36,0,5.82,1.94,5.82,6.32V358.91c0,20.38-11.16,39.56-52.18,39.56C34.42,398.47,22,379.29,22,358.91V344.34c0-4.37,1.71-6.07,6.07-6.07H48.5c4.37,0,5.82,1.7,5.82,6.07Z"/><path class="cls-1" d="M172.77,390.45c0,4.37-1.45,6.07-5.82,6.07H146.32c-4.38,0-6.07-1.7-6.07-6.07V370.8c0-4.37,1.69-6.08,6.07-6.08H167c4.37,0,5.82,1.71,5.82,6.08Z"/><path class="cls-1" d="M212.58,396.52c-3.88,0-5.1-2.18-5.1-6.3V237.79c0-4.38,1.46-6.32,5.83-6.32h52.91c43.93,0,59.22,19.18,59.22,39.57V357c0,20.39-15.29,39.57-59.22,39.57Zm27.67-137.86V369.33h26c16.51,0,26.46-6.05,26.46-18.19V276.87c0-12.14-9.95-18.21-26.46-18.21Z"/><path class="cls-1" d="M369.38,390.45c0,4.37-1.46,6.07-5.83,6.07H342.92c-4.37,0-6.06-1.7-6.06-6.07V370.8c0-4.37,1.69-6.08,6.06-6.08h20.63c4.37,0,5.83,1.71,5.83,6.08Z"/><path class="cls-1" d="M471.41,338v52.2c0,4.37-1.46,6.3-5.82,6.3H444.46c-4.36,0-5.82-1.93-5.82-6.3V237.79c0-4.38,1.46-6.32,5.82-6.32h51c43.93,0,58.73,19.18,58.73,39.57v27.43c0,20.38-14.8,39.55-58.73,39.55Zm0-79.36v52.19h24c16.26,0,26.21-6.08,26.21-18v-16c0-12.14-9.95-18.21-26.21-18.21Z"/><path class="cls-1" d="M579.17,269.1c0-20.39,15.05-39.57,59-39.57s59,19.18,59,39.57v89.81c0,20.38-15,39.56-59,39.56s-59-19.18-59-39.56Zm85.19,5.82c0-12.13-10-18.2-26.21-18.2s-26,6.07-26,18.2v78.15c0,12.14,9.71,18.21,26,18.21s26.21-6.07,26.21-18.21Z"/><path class="cls-1" d="M854.9,320.08c1.93,8.24,3.64,21.82,3.89,24a224.41,224.41,0,0,1,4.36-23.78L884,237.54c1-3.88,2.92-6.07,7-6.07H909.5c4.37,0,5.59,2.19,4.61,6.07L875.52,390.45c-1,4.14-3.39,6.07-7.52,6.07H847.37c-3.63,0-5.83-2.18-6.79-6.07L819.22,306c-1.46-5.34-3.16-19.41-3.39-22.09-.24,2.43-2.2,17.24-3.41,22.09l-21.36,84.46c-1,4.14-3.15,6.07-7.53,6.07H762.91c-3.64,0-5.83-2.18-6.8-6.07l-38.6-152.91c-1-3.88.25-6.07,4.61-6.07h21.61c4.14,0,6.08,2.19,7,6.07l20.38,82.78c2.19,9,3.88,20.38,3.88,20.38s1.22-8,4.36-20.38l20.89-82.78c1-3.88,2.9-6.07,7.28-6.07h19.66c4.37,0,6.31,2.19,7.28,6.07Z"/><path class="cls-1" d="M942.76,396.52c-4.38,0-5.83-1.93-5.83-6.3V237.79c0-4.38,1.45-6.32,5.83-6.32h83c4.13,0,6.07,1.46,6.07,5.83v15.29c0,4.37-1.94,6.07-6.07,6.07H969.7V298h51.94c4.37,0,6.31,1.46,6.31,5.83v14.56c0,4.12-1.94,5.82-6.31,5.82H969.7v45.15h58.5c4.37,0,6.07,1.46,6.07,5.83v15.28c0,4.37-1.7,6.07-6.07,6.07Z"/><path class="cls-1" d="M1094,333.65v56.57c0,4.37-1.46,6.3-5.83,6.3h-21.09c-4.38,0-5.84-1.93-5.84-6.3V237.79c0-4.38,1.46-6.32,5.84-6.32H1118c43.94,0,58.76,19.18,58.76,39.57V294.1c0,14.32-7.3,27.91-26.71,34.95l26.21,61.17c1.71,3.88-1.2,6.3-5.58,6.3h-21.36c-3.4,0-4.37-2.42-6.07-6.3l-23.79-56.57H1094Zm0-75v47.81h24c16.27,0,26.23-6.06,26.23-18.2v-11.4c0-12.14-10-18.21-26.23-18.21Z"/></svg>