<svg version="1.1" id="Layer_1" xmlns="http://www.w3.org/2000/svg" x="0" y="0" viewBox="0 0 1102 442" xml:space="preserve"><g fill="none" stroke="#171719" stroke-width="1.25" stroke-linejoin="round" stroke-miterlimit="10"><path d="M1.04 1.07h1100v219.92H1.04zM661.19 1.07V221M56.02 1.07V221M111 1.07V221M1101.04 56.05H1.04M1101.04 111.03H1.04M1.04 1.07 220.96 221M1.04 56.05 165.98 221M1.04 111.03 111 221M165.98 1.07V221M1101.04 166.02H1.04M165.98 1.07 385.91 221M1.04 166.02 56.02 221M275.94 1.07V221M330.93 1.07V221M220.96 1.07 440.89 221M111 1.07 330.93 221M330.93 1.07 550.85 221M275.94 1.07 495.87 221M385.91 1.07V221M385.91 1.07 605.83 221M56.02 1.07 275.94 221M220.96 221V1.07M495.87 1.07V221M550.85 1.07V221M440.89 1.07 660.81 221M550.85 1.07l220.11 220.12M495.87 1.07l220.11 220.12M605.83 1.07V221M605.83 1.07l220.11 220.12M440.89 1.07V221M716.17 1.07V221M771.15 1.07V221M661.19 1.07 881.12 221M826.13 1.07V221M826.13 1.07 1046.06 221M936.1 1.07V221M991.08 1.07V221M881.12 1.07 1101.04 221M771.15 1.07 991.08 221M991.08 1.07l109.96 109.96M936.1 1.07l164.94 164.95M1046.06 1.07V221M1046.06 1.07l54.98 54.98M716.17 1.07 936.1 221M881.12 221V1.07"/></g><g fill="none" stroke="#171719" stroke-width="1.25" stroke-linejoin="round" stroke-miterlimit="10"><path d="M1.04 221h1100v219.92H1.04zM661.19 221v219.92M56.02 221v219.92M111 221v219.92M1101.04 275.98H1.04M1101.04 330.96H1.04M1.04 221l219.92 219.92M1.04 275.98l164.94 164.94M1.04 330.96 111 440.92M165.98 221v219.92M1101.04 385.94H1.04M165.98 221l219.93 219.92M1.04 385.94l54.98 54.98M275.94 221v219.92M330.93 221v219.92M220.96 221l219.93 219.92M111 221l219.93 219.92M330.93 221l219.92 219.92M275.94 221l219.93 219.92M385.91 221v219.92M385.91 221l219.92 219.92M56.02 221l219.92 219.92M220.96 440.92V221M495.87 221v219.92M550.85 221v219.92M440.89 221l219.92 219.92M550.85 221l220.11 220.11M495.87 221l220.11 220.11M605.83 221v219.92M605.83 221l220.11 220.11M440.89 221v219.92M716.17 221v219.92M771.15 221v219.92M661.19 221l219.93 219.92M826.13 221v219.92M826.13 221l219.93 219.92M936.1 221v219.92M991.08 221v219.92M881.12 221l219.92 219.92M771.15 221l219.93 219.92M991.08 221l109.96 109.96M936.1 221l164.94 164.94M1046.06 221v219.92M1046.06 221l54.98 54.98M716.17 221 936.1 440.92M881.12 440.92V221"/></g><path fill="#F0F0F0" stroke="#171719" stroke-width="1.25" stroke-linejoin="round" stroke-miterlimit="10" d="M880.8 1.07h219.92v439.69H880.8z"/><g fill="none" stroke="#171719" stroke-width="1.25" stroke-miterlimit="10"><circle cx="961.64" cy="164.03" r="7.51"/><path d="M952.57 176.84h18.13l-3.46 13.18h-11.21z"/><circle cx="1019.89" cy="164.03" r="7.51"/><path d="M1010.82 176.84h18.13l-3.46 13.18h-11.21z"/></g><g fill="none" stroke="#171719" stroke-width="1.25" stroke-miterlimit="10"><circle cx="961.64" cy="239.48" r="7.51"/><path d="M952.57 252.29h18.13l-3.46 13.19h-11.21z"/><circle cx="1019.89" cy="239.48" r="7.51"/><path d="M1010.82 252.29h18.13l-3.46 13.19h-11.21z"/></g><g fill="none" stroke="#171719" stroke-width="1.25" stroke-miterlimit="10"><circle cx="961.64" cy="314.94" r="7.51"/><path d="M952.57 327.75h18.13l-3.46 13.19h-11.21z"/><circle cx="1019.89" cy="314.94" r="7.51"/><path d="M1010.82 327.75h18.13l-3.46 13.19h-11.21z"/></g><g fill="#171719"><path d="M943.57 89.68c0-3.51 1.92-5.64 5.21-5.64 2.77 0 4.65 1.56 4.89 3.94h-2.05c-.24-1.31-1.25-2.19-2.9-2.19-1.84 0-3.07 1.14-3.07 3.01v1.79c0 1.72 1.18 2.94 3.04 2.94 1.5 0 2.62-.84 2.92-2.21h2.05c-.33 2.42-2.26 3.94-5.01 3.94-3.19.02-5.08-2.1-5.08-5.58zM960.76 84.06c3.23 0 5.24 2.13 5.24 5.62 0 3.46-1.96 5.59-5.24 5.59-3.27 0-5.23-2.13-5.23-5.59-.01-3.49 1.99-5.62 5.23-5.62zm0 9.48c2.03 0 3.15-1.25 3.15-3.1V88.9c0-1.98-1.26-3.09-3.15-3.09-2.02 0-3.16 1.23-3.16 3.09v1.54c-.01 1.97 1.27 3.1 3.16 3.1zM968.53 84.19h2.31l5.01 8.26h.09l-.12-3.21v-5.06h1.95v10.93h-2.33l-4.98-8.23h-.09l.1 3.1v5.13h-1.95V84.19zM984.78 93.7c1.35 0 2.19-.6 2.19-1.62 0-1.12-1.05-1.33-1.53-1.44l-1.79-.39c-.97-.23-3.15-.68-3.15-2.97 0-1.99 1.64-3.24 4.07-3.24s4.08 1.23 4.12 3.22h-2.03c-.06-1.09-.92-1.67-2.13-1.67-1.26 0-1.95.57-1.95 1.43 0 1.03 1.1 1.24 1.7 1.38l1.92.39c2.05.43 2.85 1.56 2.85 3.06 0 2.19-1.75 3.42-4.35 3.42-2.88 0-4.46-1.54-4.44-3.55h2.02c.05 1.31 1.03 1.98 2.5 1.98zM991.48 84.19h1.94v6.66c0 1.68 1 2.66 2.64 2.66 1.58 0 2.61-.95 2.61-2.66v-6.66h1.95V91c0 2.64-1.77 4.27-4.57 4.27-3.03 0-4.56-1.72-4.56-4.27v-6.81zM1003.67 84.19h2.5l2.98 6.88h.11l2.98-6.88h2.5v10.93h-1.92v-5.16l.13-3.1h-.09l-3.66 8.08-3.66-8.08h-.11l.14 3.12v5.15h-1.92V84.19zM1017.89 84.19h7.53v1.73h-5.58v2.74h4.83v1.62h-4.83v3.12h5.58v1.73h-7.53V84.19zM1028.05 84.19h5.46c2.21 0 3.25 1.29 3.25 3.23 0 1.33-.66 2.28-1.65 2.62v.1h.5c.88 0 1.18.51 1.18 1.28v3.7h-2.01V91.1H1030v4.02h-1.95V84.19zm4.98 5.31c1.06 0 1.65-.56 1.65-1.4v-.82c0-.94-.66-1.38-1.65-1.38H1030v3.6h3.03zM942.81 112.48h-1.54v-3.06h-2.88v-1.48h2.88v-2.98h1.54v2.98h2.88v1.48h-2.88v3.06zM952.88 102.65h4.96c2.38 0 3.57 1.36 3.57 3.6 0 2.23-1.25 3.6-3.57 3.6h-3.02v3.73h-1.95v-10.93zm4.75 5.55c1.12 0 1.69-.61 1.69-1.45v-.95c0-.9-.64-1.38-1.6-1.38h-2.9v3.78h2.81zM963.57 102.65h5.46c2.21 0 3.25 1.29 3.25 3.23 0 1.33-.66 2.28-1.65 2.62v.1h.5c.88 0 1.18.51 1.18 1.28v3.7h-2.01v-4.02h-4.79v4.02h-1.95v-10.93zm4.98 5.31c1.06 0 1.65-.56 1.65-1.4v-.82c0-.94-.66-1.38-1.65-1.38h-3.03v3.6h3.03zM979.79 102.52c3.23 0 5.24 2.13 5.24 5.62 0 3.46-1.96 5.59-5.24 5.59-3.27 0-5.23-2.13-5.23-5.59 0-3.49 1.99-5.62 5.23-5.62zm0 9.48c2.03 0 3.15-1.25 3.15-3.1v-1.54c0-1.98-1.26-3.09-3.15-3.09-2.02 0-3.16 1.23-3.16 3.09v1.54c0 1.97 1.27 3.1 3.16 3.1zM987.56 102.65h4.56c3.42 0 4.79 2.01 4.79 5.48 0 3.57-1.47 5.46-4.79 5.46h-4.56v-10.94zm4.52 9.21c2 0 2.76-.88 2.76-2.82v-1.84c0-2.11-.97-2.82-2.76-2.82h-2.57v7.48h2.57zM999.37 102.65h1.94v6.66c0 1.68 1 2.66 2.64 2.66 1.58 0 2.61-.95 2.61-2.66v-6.66h1.95v6.81c0 2.64-1.77 4.27-4.57 4.27-3.03 0-4.56-1.72-4.56-4.27v-6.81zM1010.93 108.14c0-3.51 1.92-5.64 5.21-5.64 2.77 0 4.65 1.56 4.89 3.94h-2.05c-.24-1.31-1.25-2.19-2.9-2.19-1.84 0-3.07 1.14-3.07 3.01v1.79c0 1.72 1.18 2.94 3.04 2.94 1.5 0 2.62-.84 2.92-2.21h2.05c-.33 2.42-2.26 3.94-5.01 3.94-3.19.02-5.08-2.1-5.08-5.58zM1023.52 102.65h7.53v1.73h-5.58v2.74h4.83v1.62h-4.83v3.12h5.58v1.73h-7.53v-10.94zM1033.68 102.65h5.46c2.21 0 3.25 1.29 3.25 3.23 0 1.33-.66 2.28-1.65 2.62v.1h.5c.88 0 1.18.51 1.18 1.28v3.7h-2.01v-4.02h-4.79v4.02h-1.95v-10.93zm4.98 5.31c1.06 0 1.65-.56 1.65-1.4v-.82c0-.94-.66-1.38-1.65-1.38h-3.03v3.6h3.03z"/></g><path fill="#F0F0F0" stroke="#171719" stroke-width="1.25" stroke-miterlimit="10" d="M.96 1.07h219.92v439.69H.96z"/><g fill="none" stroke="#171719" stroke-width="1.25" stroke-miterlimit="10"><circle cx="81.8" cy="164.03" r="7.51"/><path d="M72.73 176.84h18.13l-3.45 13.18H76.19z"/><circle cx="140.05" cy="164.03" r="7.51"/><path d="M130.98 176.84h18.13l-3.45 13.18h-11.22z"/></g><g fill="none" stroke="#171719" stroke-width="1.25" stroke-miterlimit="10"><circle cx="81.8" cy="239.48" r="7.51"/><path d="M72.73 252.29h18.13l-3.45 13.19H76.19z"/><circle cx="140.05" cy="239.48" r="7.51"/><path d="M130.98 252.29h18.13l-3.45 13.19h-11.22z"/></g><g fill="none" stroke="#171719" stroke-width="1.25" stroke-miterlimit="10"><circle cx="81.8" cy="314.94" r="7.51"/><path d="M72.73 327.75h18.13l-3.45 13.19H76.19z"/><circle cx="140.05" cy="314.94" r="7.51"/><path d="M130.98 327.75h18.13l-3.45 13.19h-11.22z"/></g><g fill="#171719"><path d="M63.73 89.68c0-3.51 1.92-5.64 5.21-5.64 2.77 0 4.65 1.56 4.89 3.94h-2.05c-.24-1.31-1.25-2.19-2.9-2.19-1.84 0-3.07 1.14-3.07 3.01v1.79c0 1.72 1.18 2.94 3.04 2.94 1.5 0 2.62-.84 2.92-2.21h2.05c-.33 2.42-2.26 3.94-5.01 3.94-3.19.02-5.08-2.1-5.08-5.58zM80.92 84.06c3.23 0 5.24 2.13 5.24 5.62 0 3.46-1.96 5.59-5.24 5.59-3.27 0-5.23-2.13-5.23-5.59 0-3.49 1.99-5.62 5.23-5.62zm0 9.48c2.03 0 3.15-1.25 3.15-3.1V88.9c0-1.98-1.26-3.09-3.15-3.09-2.02 0-3.16 1.23-3.16 3.09v1.54c0 1.97 1.27 3.1 3.16 3.1zM88.69 84.19H91l5.01 8.26h.09l-.12-3.21v-5.06h1.95v10.93H95.6l-4.98-8.23h-.09l.1 3.1v5.13h-1.95V84.19zM104.94 93.7c1.35 0 2.19-.6 2.19-1.62 0-1.12-1.05-1.33-1.53-1.44l-1.79-.39c-.97-.23-3.15-.68-3.15-2.97 0-1.99 1.64-3.24 4.07-3.24s4.08 1.23 4.12 3.22h-2.03c-.06-1.09-.92-1.67-2.13-1.67-1.26 0-1.95.57-1.95 1.43 0 1.03 1.1 1.24 1.7 1.38l1.92.39c2.05.43 2.85 1.56 2.85 3.06 0 2.19-1.75 3.42-4.35 3.42-2.88 0-4.46-1.54-4.44-3.55h2.02c.05 1.31 1.03 1.98 2.5 1.98zM111.64 84.19h1.94v6.66c0 1.68 1 2.66 2.64 2.66 1.58 0 2.61-.95 2.61-2.66v-6.66h1.95V91c0 2.64-1.77 4.27-4.57 4.27-3.03 0-4.56-1.72-4.56-4.27v-6.81zM123.83 84.19h2.5l2.98 6.88h.11l2.98-6.88h2.5v10.93H133v-5.16l.13-3.1h-.09l-3.66 8.08-3.66-8.08h-.11l.14 3.12v5.15h-1.92V84.19zM138.06 84.19h7.53v1.73h-5.58v2.74h4.83v1.62h-4.83v3.12h5.58v1.73h-7.53V84.19zM148.21 84.19h5.46c2.21 0 3.25 1.29 3.25 3.23 0 1.33-.66 2.28-1.65 2.62v.1h.5c.88 0 1.18.51 1.18 1.28v3.7h-2.01V91.1h-4.79v4.02h-1.95V84.19zm4.98 5.31c1.06 0 1.65-.56 1.65-1.4v-.82c0-.94-.66-1.38-1.65-1.38h-3.03v3.6h3.03zM62.98 112.48h-1.54v-3.06h-2.88v-1.48h2.88v-2.98h1.54v2.98h2.88v1.48h-2.88v3.06zM73.04 102.65H78c2.38 0 3.57 1.36 3.57 3.6 0 2.23-1.25 3.6-3.57 3.6h-3.02v3.73h-1.95v-10.93zm4.76 5.55c1.12 0 1.69-.61 1.69-1.45v-.95c0-.9-.64-1.38-1.6-1.38h-2.9v3.78h2.81zM83.73 102.65h5.46c2.21 0 3.25 1.29 3.25 3.23 0 1.33-.66 2.28-1.65 2.62v.1h.5c.88 0 1.18.51 1.18 1.28v3.7h-2.01v-4.02h-4.79v4.02h-1.95v-10.93zm4.98 5.31c1.06 0 1.65-.56 1.65-1.4v-.82c0-.94-.66-1.38-1.65-1.38h-3.03v3.6h3.03zM99.96 102.52c3.23 0 5.24 2.13 5.24 5.62 0 3.46-1.96 5.59-5.24 5.59-3.27 0-5.23-2.13-5.23-5.59-.01-3.49 1.99-5.62 5.23-5.62zm0 9.48c2.03 0 3.15-1.25 3.15-3.1v-1.54c0-1.98-1.26-3.09-3.15-3.09-2.02 0-3.16 1.23-3.16 3.09v1.54c-.01 1.97 1.27 3.1 3.16 3.1zM107.73 102.65h4.56c3.42 0 4.79 2.01 4.79 5.48 0 3.57-1.47 5.46-4.79 5.46h-4.56v-10.94zm4.51 9.21c2 0 2.76-.88 2.76-2.82v-1.84c0-2.11-.97-2.82-2.76-2.82h-2.57v7.48h2.57zM119.53 102.65h1.94v6.66c0 1.68 1 2.66 2.64 2.66 1.58 0 2.61-.95 2.61-2.66v-6.66h1.95v6.81c0 2.64-1.77 4.27-4.57 4.27-3.03 0-4.56-1.72-4.56-4.27v-6.81zM131.09 108.14c0-3.51 1.92-5.64 5.21-5.64 2.77 0 4.65 1.56 4.89 3.94h-2.05c-.24-1.31-1.25-2.19-2.9-2.19-1.84 0-3.07 1.14-3.07 3.01v1.79c0 1.72 1.18 2.94 3.04 2.94 1.5 0 2.62-.84 2.92-2.21h2.05c-.33 2.42-2.26 3.94-5.01 3.94-3.19.02-5.08-2.1-5.08-5.58zM143.68 102.65h7.53v1.73h-5.58v2.74h4.83v1.62h-4.83v3.12h5.58v1.73h-7.53v-10.94zM153.84 102.65h5.46c2.21 0 3.25 1.29 3.25 3.23 0 1.33-.66 2.28-1.65 2.62v.1h.5c.88 0 1.18.51 1.18 1.28v3.7h-2.01v-4.02h-4.79v4.02h-1.95v-10.93zm4.98 5.31c1.06 0 1.65-.56 1.65-1.4v-.82c0-.94-.66-1.38-1.65-1.38h-3.03v3.6h3.03z"/></g></svg>