<svg width="213" height="107" fill="none" xmlns="http://www.w3.org/2000/svg"><path fill="#fff" d="M0 0h213v107H0z"/><path d="M26 41h.5v-.5H26v.5zM6 41v-.5h-.5v.5H6zm20 6.25h-.5v.5h.5v-.5zm0 7.5v-.5h-.5v.5h.5zM26 61v.5h.5V61H26zm-6.25 0h-.5v.5h.5V61zm-7.5 0v.5h.5V61h-.5zM6 61h-.5v.5H6V61zm20-20.5H6v1h20v-1zm.5 6.75V41h-1v6.25h1zm-.5.5A3.25 3.25 0 0129.25 51h1A4.25 4.25 0 0026 46.75v1zM29.25 51A3.25 3.25 0 0126 54.25v1A4.25 4.25 0 0030.25 51h-1zM26.5 61v-6.25h-1V61h1zm-6.75.5H26v-1h-6.25v1zM16 57.75A3.25 3.25 0 0119.25 61h1A4.25 4.25 0 0016 56.75v1zM12.75 61A3.25 3.25 0 0116 57.75v-1A4.25 4.25 0 0011.75 61h1zM6 61.5h6.25v-1H6v1zM5.5 41v20h1V41h-1zM26 101h.5v.5H26v-.5zm-20 0v.5h-.5v-.5H6zm20-6.25h-.5v-.5h.5v.5zm0-7.5v.5h-.5v-.5h.5zM26 81v-.5h.5v.5H26zm-6.25 0v.5h-.5V81h.5zm-7.5 0h.5v.5h-.5V81zM6 81h-.5v-.5H6v.5zm20 20.5H6v-1h20v1zm.5-6.75V101h-1v-6.25h1zm-.5-.5A3.25 3.25 0 0029.25 91h1A4.25 4.25 0 0126 95.25v-1zM29.25 91A3.25 3.25 0 0026 87.75v-1A4.25 4.25 0 0130.25 91h-1zM26.5 81v6.25h-1V81h1zm-6.75-.5H26v1h-6.25v-1zm.5.5h-1 1zM16 76.75A4.25 4.25 0 0120.25 81h-1A3.25 3.25 0 0016 77.75v-1zM11.75 81A4.25 4.25 0 0116 76.75v1A3.25 3.25 0 0012.75 81h-1zm0 0h1-1zM6 80.5h6.25v1H6v-1zM5.5 101V81h1v20h-1zM46 41h-.5v-.5h.5v.5zm20 0v-.5h.5v.5H66zm-20 6.25h.5v.5H46v-.5zm0 7.5v-.5h.5v.5H46zM46 61v.5h-.5V61h.5zm6.25 0h.5v.5h-.5V61zm7.5 0v.5h-.5V61h.5zM66 61h.5v.5H66V61zM46 40.5h20v1H46v-1zm-.5 6.75V41h1v6.25h-1zm.5.5A3.25 3.25 0 0042.75 51h-1A4.25 4.25 0 0146 46.75v1zM42.75 51A3.25 3.25 0 0046 54.25v1A4.25 4.25 0 0141.75 51h1zm2.75 10v-6.25h1V61h-1zm6.75.5H46v-1h6.25v1zM56 57.75A3.25 3.25 0 0052.75 61h-1A4.25 4.25 0 0156 56.75v1zM59.25 61A3.25 3.25 0 0056 57.75v-1A4.25 4.25 0 0160.25 61h-1zm6.75.5h-6.25v-1H66v1zm.5-20.5v20h-1V41h1zM46 101h-.5v.5h.5v-.5zm20 0v.5h.5v-.5H66zm-20-6.25h.5v-.5H46v.5zm0-7.5v.5h.5v-.5H46zM46 81v-.5h-.5v.5h.5zm6.25 0v.5h.5V81h-.5zm7.5 0h-.5v.5h.5V81zM66 81h.5v-.5H66v.5zm-20 20.5h20v-1H46v1zm-.5-6.75V101h1v-6.25h-1zm.5-.5A3.25 3.25 0 0142.75 91h-1A4.25 4.25 0 0046 95.25v-1zM42.75 91A3.25 3.25 0 0146 87.75v-1A4.25 4.25 0 0041.75 91h1zm2.75-10v6.25h1V81h-1zm6.75-.5H46v1h6.25v-1zm-.5.5h1-1zM56 76.75A4.25 4.25 0 0051.75 81h1A3.25 3.25 0 0156 77.75v-1zM60.25 81A4.25 4.25 0 0056 76.75v1A3.25 3.25 0 0159.25 81h1zm0 0h-1 1zm5.75-.5h-6.25v1H66v-1zm.5 20.5V81h-1v20h1z" fill="#1E2124"/><path d="M66 61h.5v-.5H66v.5zm-6.25 0h-.5v.5h.5V61zM66 81v.5h.5V81H66zm-6.25 0h-.5v.5h.5V81zm-7.5 0v.5h.5V81h-.5zM46 81h-.5v.5h.5V81zm0-6.25v-.5h-.5v.5h.5zM49.75 71h.5-.5zM46 67.25h-.5v.5h.5v-.5zM46 61v-.5h-.5v.5h.5zm6.25 0v.5h.5V61h-.5zM66 60.5h-6.25v1H66v-1zm.5 20.5V61h-1v20h1zm-6.75.5H66v-1h-6.25v1zm.5-.5A4.25 4.25 0 0056 76.75v1A3.25 3.25 0 0159.25 81h1zM56 76.75A4.25 4.25 0 0051.75 81h1A3.25 3.25 0 0156 77.75v-1zM46 81.5h6.25v-1H46v1zm-.5-6.75V81h1v-6.25h-1zm.5-.5v1-1zM49.25 71A3.25 3.25 0 0146 74.25v1A4.25 4.25 0 0050.25 71h-1zM46 67.75A3.25 3.25 0 0149.25 71h1A4.25 4.25 0 0046 66.75v1zm0 0v-1 1zM45.5 61v6.25h1V61h-1zm6.75-.5H46v1h6.25v-1zM56 56.75A4.25 4.25 0 0051.75 61h1A3.25 3.25 0 0156 57.75v-1zM60.25 61A4.25 4.25 0 0056 56.75v1A3.25 3.25 0 0159.25 61h1zM6 61h-.5v-.5H6v.5zm6.25 0h.5v.5h-.5V61zM6 81v.5h-.5V81H6zm6.25 0h.5v.5h-.5V81zm7.5 0v.5h-.5V81h.5zM26 81h.5v.5H26V81zm0-6.25v-.5h.5v.5H26zM22.25 71h-.5.5zM26 67.25h.5v.5H26v-.5zM26 61v-.5h.5v.5H26zm-6.25 0v.5h-.5V61h.5zM6 60.5h6.25v1H6v-1zM5.5 81V61h1v20h-1zm6.75.5H6v-1h6.25v1zm-.5-.5A4.25 4.25 0 0116 76.75v1A3.25 3.25 0 0012.75 81h-1zM16 76.75A4.25 4.25 0 0120.25 81h-1A3.25 3.25 0 0016 77.75v-1zm10 4.75h-6.25v-1H26v1zm.5-6.75V81h-1v-6.25h1zm-.5-.5v1-1zM22.75 71A3.25 3.25 0 0026 74.25v1A4.25 4.25 0 0121.75 71h1zM26 67.75A3.25 3.25 0 0022.75 71h-1A4.25 4.25 0 0126 66.75v1zm0 0v-1 1zm.5-6.75v6.25h-1V61h1zm-6.75-.5H26v1h-6.25v-1zM16 56.75A4.25 4.25 0 0120.25 61h-1A3.25 3.25 0 0016 57.75v-1zM11.75 61A4.25 4.25 0 0116 56.75v1A3.25 3.25 0 0012.75 61h-1z" fill="#1E2124"/><path d="M26 41v-.5h-.5v.5h.5zm20 0h.5v-.5H46v.5zm-20 6.25h-.5v.5h.5v-.5zm0 7.5v-.5h-.5v.5h.5zM26 61h-.5v.5h.5V61zm6.25 0h.5v-.5h-.5v.5zm7.5 0v-.5h-.5v.5h.5zM46 61v.5h.5V61H46zm0-6.25h.5v-.5H46v.5zm0-7.5v.5h.5v-.5H46zM26 41.5h20v-1H26v1zm.5 5.75V41h-1v6.25h1zM30.25 51A4.25 4.25 0 0026 46.75v1A3.25 3.25 0 0129.25 51h1zM26 55.25A4.25 4.25 0 0030.25 51h-1A3.25 3.25 0 0126 54.25v1zm.5 5.75v-6.25h-1V61h1zm5.75-.5H26v1h6.25v-1zm.5.5h-1 1zM36 64.25A3.25 3.25 0 0132.75 61h-1A4.25 4.25 0 0036 65.25v-1zM39.25 61A3.25 3.25 0 0136 64.25v1A4.25 4.25 0 0040.25 61h-1zm0 0h1-1zm6.75-.5h-6.25v1H46v-1zm-.5-5.75V61h1v-6.25h-1zM41.75 51A4.25 4.25 0 0046 55.25v-1A3.25 3.25 0 0142.75 51h-1zM46 46.75A4.25 4.25 0 0041.75 51h1A3.25 3.25 0 0146 47.75v-1zM45.5 41v6.25h1V41h-1zM26 101v.5h-.5v-.5h.5zm20 0h.5v.5H46v-.5zm-20-6.25h-.5v-.5h.5v.5zm0-7.5v.5h-.5v-.5h.5zM26 81h-.5v-.5h.5v.5zm6.25 0h.5v.5h-.5V81zm7.5 0v.5h-.5V81h.5zM46 81v-.5h.5v.5H46zm0 6.25h.5v.5H46v-.5zm0 7.5v-.5h.5v.5H46zm-20 5.75h20v1H26v-1zm.5-5.75V101h-1v-6.25h1zM30.25 91A4.25 4.25 0 0126 95.25v-1A3.25 3.25 0 0029.25 91h1zM26 86.75A4.25 4.25 0 0130.25 91h-1A3.25 3.25 0 0026 87.75v-1zm.5-5.75v6.25h-1V81h1zm5.75.5H26v-1h6.25v1zm.5-.5h-1 1zM36 77.75A3.25 3.25 0 0032.75 81h-1A4.25 4.25 0 0136 76.75v1zM39.25 81A3.25 3.25 0 0036 77.75v-1A4.25 4.25 0 0140.25 81h-1zm0 0h1-1zm6.75.5h-6.25v-1H46v1zm-.5 5.75V81h1v6.25h-1zM41.75 91A4.25 4.25 0 0146 86.75v1A3.25 3.25 0 0042.75 91h-1zM46 95.25A4.25 4.25 0 0141.75 91h1A3.25 3.25 0 0046 94.25v1zm-.5 5.75v-6.25h1V101h-1z" fill="#1E2124"/><path d="M32.25 61h.5v-.5h-.5v.5zM26 61v-.5h-.5v.5h.5zm13.75 0v-.5h-.5v.5h.5zM46 61h.5v-.5H46v.5zm0 6.25h-.5v.5h.5v-.5zm0 7.5v-.5h-.5v.5h.5zM46 81v.5h.5V81H46zm-6.25 0h-.5v.5h.5V81zm-7.5 0v.5h.5V81h-.5zM26 81h-.5v.5h.5V81zm0-6.25h.5v-.5H26v.5zm0-7.5v.5h.5v-.5H26zm6.25-6.75H26v1h6.25v-1zM36 64.25A3.25 3.25 0 0132.75 61h-1A4.25 4.25 0 0036 65.25v-1zM39.25 61A3.25 3.25 0 0136 64.25v1A4.25 4.25 0 0040.25 61h-1zm6.75-.5h-6.25v1H46v-1zm.5 6.75V61h-1v6.25h1zm-.5.5A3.25 3.25 0 0149.25 71h1A4.25 4.25 0 0046 66.75v1zM49.25 71A3.25 3.25 0 0146 74.25v1A4.25 4.25 0 0050.25 71h-1zM46.5 81v-6.25h-1V81h1zm-6.75.5H46v-1h-6.25v1zm-.5-.5h1-1zM36 77.75A3.25 3.25 0 0139.25 81h1A4.25 4.25 0 0036 76.75v1zM32.75 81A3.25 3.25 0 0136 77.75v-1A4.25 4.25 0 0031.75 81h1zm0 0h-1 1zm-6.75.5h6.25v-1H26v1zm-.5-6.75V81h1v-6.25h-1zM21.75 71A4.25 4.25 0 0026 75.25v-1A3.25 3.25 0 0122.75 71h-1zM26 66.75A4.25 4.25 0 0021.75 71h1A3.25 3.25 0 0126 67.75v-1zM25.5 61v6.25h1V61h-1z" fill="#1E2124"/></svg>