<svg width="213" height="107" fill="none" xmlns="http://www.w3.org/2000/svg"><path fill="#fff" d="M0 0h213v107H0z"/><path d="M32.512 61.93l-5.582 3.488 5.582 3.489M44.372 68.907l5.582-3.488-5.582-3.489M40.186 60.535L36.697 71" stroke="#1E2124"/><path d="M91.116 101H6V41h85.116v60zM6 51.742h84.803M6 80.07h64.884M10.884 83.558h28.604M10.884 91.93H45.767M10.884 97.512H45.767M10.884 89.14h24.418M10.884 86.349H56.93M10.884 94.72H50.65M6 48.675h84.803M70.884 51.465V101M70.884 63.325h20.232M70.884 67.512h20.232M72.977 70.302h7.914M72.977 73.093h13.255M72.977 75.884h10.465" stroke="#1E2124"/><circle cx="9.837" cy="44.837" r="1.047" stroke="#1E2124"/><circle cx="14.023" cy="44.837" r="1.047" stroke="#1E2124"/><path stroke="#1E2124" d="M72.977 54.256h2.093v2.093h-2.093z"/><path stroke="#1E2124" d="M75.07 54.256h13.954v2.093H75.07zM72.977 58.442h2.093v2.093h-2.093z"/><path stroke="#1E2124" d="M75.07 58.442h13.954v2.093H75.07z"/></svg>