<?xml version="1.0" encoding="UTF-8"?>
<svg id="Layer_2" data-name="Layer 2" xmlns="http://www.w3.org/2000/svg" xmlns:xlink="http://www.w3.org/1999/xlink" viewBox="0 0 1500 1048.2">
  <defs>
    <style>
      .cls-1 {
        fill: none;
      }

      .cls-2 {
        fill: #f0eeff;
      }

      .cls-3 {
        clip-path: url(#clippath);
      }
    </style>
    <clipPath id="clippath">
      <rect id="Clipping_Mask" data-name="Clipping Mask" class="cls-1" width="1500" height="1048.2"/>
    </clipPath>
  </defs>
  <g id="Layer_1-2" data-name="Layer 1">
    <g id="No_Labels" data-name="No Labels">
      <g id="Ontology_Layers" data-name="Ontology Layers">
        <g class="cls-3">
          <g id="OSDK_Application" data-name="OSDK Application">
            <g>
              <rect class="cls-2" x="189.52" y="188.55" width="1122.98" height="671.09" rx="12.18" ry="12.18"/>
              <path d="M1300.32,859.89H201.69c-6.85,0-12.43-5.57-12.43-12.43V200.73c0-6.85,5.57-12.42,12.43-12.42h1098.62c6.85,0,12.42,5.57,12.42,12.42v646.74c0,6.85-5.57,12.43-12.42,12.43ZM201.69,188.8c-6.58,0-11.93,5.35-11.93,11.92v646.74c0,6.58,5.35,11.93,11.93,11.93h1098.62c6.58,0,11.92-5.35,11.92-11.93V200.73c0-6.58-5.35-11.92-11.92-11.92H201.69Z"/>
            </g>
            <path d="M209.65,217.37c-3.8,0-6.89-3.09-6.89-6.89s3.09-6.89,6.89-6.89,6.89,3.09,6.89,6.89-3.09,6.89-6.89,6.89ZM209.65,204.08c-3.53,0-6.39,2.87-6.39,6.39s2.87,6.39,6.39,6.39,6.39-2.87,6.39-6.39-2.87-6.39-6.39-6.39Z"/>
            <path d="M232.97,217.37c-3.8,0-6.89-3.09-6.89-6.89s3.09-6.89,6.89-6.89,6.89,3.09,6.89,6.89-3.09,6.89-6.89,6.89ZM232.97,204.08c-3.53,0-6.39,2.87-6.39,6.39s2.87,6.39,6.39,6.39,6.39-2.87,6.39-6.39-2.87-6.39-6.39-6.39Z"/>
            <path d="M256.29,217.37c-3.8,0-6.89-3.09-6.89-6.89s3.09-6.89,6.89-6.89,6.89,3.09,6.89,6.89-3.09,6.89-6.89,6.89ZM256.29,204.08c-3.52,0-6.39,2.87-6.39,6.39s2.87,6.39,6.39,6.39,6.39-2.87,6.39-6.39-2.87-6.39-6.39-6.39Z"/>
            <path d="M1312.49,230.19H189.52c-.14,0-.25-.11-.25-.25s.11-.25.25-.25h1122.98c.14,0,.25.11.25.25s-.11.25-.25.25Z"/>
            <path d="M1312.49,267.34H189.52c-.14,0-.25-.11-.25-.25s.11-.25.25-.25h1122.98c.14,0,.25.11.25.25s-.11.25-.25.25Z"/>
            <path d="M331.46,267.34c-.14,0-.25-.11-.25-.25v-37.15c0-.14.11-.25.25-.25s.25.11.25.25v37.15c0,.14-.11.25-.25.25Z"/>
            <path d="M481.15,267.34c-.14,0-.25-.11-.25-.25v-37.15c0-.14.11-.25.25-.25s.25.11.25.25v37.15c0,.14-.11.25-.25.25Z"/>
            <path d="M315.71,248.76h-111.23c-.14,0-.25-.11-.25-.25s.11-.25.25-.25h111.23c.14,0,.25.11.25.25s-.11.25-.25.25Z"/>
            <path d="M461.92,248.76h-111.23c-.14,0-.25-.11-.25-.25s.11-.25.25-.25h111.23c.14,0,.25.11.25.25s-.11.25-.25.25Z"/>
            <path d="M279.2,294.14h-71.64c-.14,0-.25-.11-.25-.25s.11-.25.25-.25h71.64c.14,0,.25.11.25.25s-.11.25-.25.25Z"/>
            <path d="M489.31,294.14h-189.82c-.14,0-.25-.11-.25-.25s.11-.25.25-.25h189.82c.14,0,.25.11.25.25s-.11.25-.25.25Z"/>
            <path d="M279.2,340.02h-71.64c-.14,0-.25-.11-.25-.25s.11-.25.25-.25h71.64c.14,0,.25.11.25.25s-.11.25-.25.25Z"/>
            <path d="M489.31,340.02h-189.82c-.14,0-.25-.11-.25-.25s.11-.25.25-.25h189.82c.14,0,.25.11.25.25s-.11.25-.25.25Z"/>
            <path d="M279.2,363.57h-71.64c-.14,0-.25-.11-.25-.25s.11-.25.25-.25h71.64c.14,0,.25.11.25.25s-.11.25-.25.25Z"/>
            <path d="M489.31,363.57h-189.82c-.14,0-.25-.11-.25-.25s.11-.25.25-.25h189.82c.14,0,.25.11.25.25s-.11.25-.25.25Z"/>
            <path d="M279.2,385.7h-71.64c-.14,0-.25-.11-.25-.25s.11-.25.25-.25h71.64c.14,0,.25.11.25.25s-.11.25-.25.25Z"/>
            <path d="M417.75,385.7h-118.25c-.14,0-.25-.11-.25-.25s.11-.25.25-.25h118.25c.14,0,.25.11.25.25s-.11.25-.25.25Z"/>
            <path d="M279.2,407.82h-71.64c-.14,0-.25-.11-.25-.25s.11-.25.25-.25h71.64c.14,0,.25.11.25.25s-.11.25-.25.25Z"/>
            <path d="M279.2,476.28h-71.64c-.14,0-.25-.11-.25-.25s.11-.25.25-.25h71.64c.14,0,.25.11.25.25s-.11.25-.25.25Z"/>
            <path d="M351.26,431.31h-143.7c-.14,0-.25-.11-.25-.25s.11-.25.25-.25h143.7c.14,0,.25.11.25.25s-.11.25-.25.25Z"/>
            <path d="M507.71,476.28h-34.21c-.14,0-.25-.11-.25-.25s.11-.25.25-.25h34.21c.14,0,.25.11.25.25s-.11.25-.25.25Z"/>
            <path d="M524.7,431.31h-49.27c-.14,0-.25-.11-.25-.25s.11-.25.25-.25h49.27c.14,0,.25.11.25.25s-.11.25-.25.25Z"/>
            <path d="M584.16,407.82h-284.66c-.14,0-.25-.11-.25-.25s.11-.25.25-.25h284.66c.14,0,.25.11.25.25s-.11.25-.25.25Z"/>
            <path d="M484.94,565.2h-212.41c-.14,0-.25-.11-.25-.25s.11-.25.25-.25h212.41c.14,0,.25.11.25.25s-.11.25-.25.25Z"/>
            <path d="M511.25,385.7h-71.64c-.14,0-.25-.11-.25-.25s.11-.25.25-.25h71.64c.14,0,.25.11.25.25s-.11.25-.25.25Z"/>
            <path d="M649.79,385.7h-118.25c-.14,0-.25-.11-.25-.25s.11-.25.25-.25h118.25c.14,0,.25.11.25.25s-.11.25-.25.25Z"/>
            <path d="M975.73,363.57h-71.64c-.14,0-.25-.11-.25-.25s.11-.25.25-.25h71.64c.14,0,.25.11.25.25s-.11.25-.25.25Z"/>
            <path d="M1293.64,363.57h-233.58c-.14,0-.25-.11-.25-.25s.11-.25.25-.25h233.58c.14,0,.25.11.25.25s-.11.25-.25.25Z"/>
            <path d="M676.31,363.57h-92.94c-.14,0-.25-.11-.25-.25s.11-.25.25-.25h92.94c.14,0,.25.11.25.25s-.11.25-.25.25Z"/>
            <path d="M855.44,363.57h-151.62c-.14,0-.25-.11-.25-.25s.11-.25.25-.25h151.62c.14,0,.25.11.25.25s-.11.25-.25.25Z"/>
            <path d="M630.01,340.02h-71.64c-.14,0-.25-.11-.25-.25s.11-.25.25-.25h71.64c.14,0,.25.11.25.25s-.11.25-.25.25Z"/>
            <path d="M840.12,340.02h-189.82c-.14,0-.25-.11-.25-.25s.11-.25.25-.25h189.82c.14,0,.25.11.25.25s-.11.25-.25.25Z"/>
            <path d="M855.44,294.14h-189.82c-.14,0-.25-.11-.25-.25s.11-.25.25-.25h189.82c.14,0,.25.11.25.25s-.11.25-.25.25Z"/>
            <path d="M640.81,294.14h-131.38c-.14,0-.25-.11-.25-.25s.11-.25.25-.25h131.38c.14,0,.25.11.25.25s-.11.25-.25.25Z"/>
            <path d="M1099.56,294.14h-218.9c-.14,0-.25-.11-.25-.25s.11-.25.25-.25h218.9c.14,0,.25.11.25.25s-.11.25-.25.25Z"/>
            <path d="M279.2,503.71h-71.64c-.14,0-.25-.11-.25-.25s.11-.25.25-.25h71.64c.14,0,.25.11.25.25s-.11.25-.25.25Z"/>
            <path d="M513.97,503.71h-214.47c-.14,0-.25-.11-.25-.25s.11-.25.25-.25h214.47c.14,0,.25.11.25.25s-.11.25-.25.25Z"/>
            <path d="M279.2,610.29h-71.64c-.14,0-.25-.11-.25-.25s.11-.25.25-.25h71.64c.14,0,.25.11.25.25s-.11.25-.25.25Z"/>
            <path d="M289.75,633.01h-53.04c-.14,0-.25-.11-.25-.25s.11-.25.25-.25h53.04c.14,0,.25.11.25.25s-.11.25-.25.25Z"/>
            <path d="M289.75,702.41h-53.04c-.14,0-.25-.11-.25-.25s.11-.25.25-.25h53.04c.14,0,.25.11.25.25s-.11.25-.25.25Z"/>
            <path d="M312,769.13h-53.04c-.14,0-.25-.11-.25-.25s.11-.25.25-.25h53.04c.14,0,.25.11.25.25s-.11.25-.25.25Z"/>
            <path d="M378.74,791.91h-61.37c-.14,0-.25-.11-.25-.25s.11-.25.25-.25h61.37c.14,0,.25.11.25.25s-.11.25-.25.25Z"/>
            <path d="M334,814.69h-22c-.14,0-.25-.11-.25-.25s.11-.25.25-.25h22c.14,0,.25.11.25.25s-.11.25-.25.25Z"/>
            <path d="M543.62,814.69h-197.18c-.14,0-.25-.11-.25-.25s.11-.25.25-.25h197.18c.14,0,.25.11.25.25s-.11.25-.25.25Z"/>
            <path d="M477.46,769.13h-140.96c-.14,0-.25-.11-.25-.25s.11-.25.25-.25h140.96c.14,0,.25.11.25.25s-.11.25-.25.25Z"/>
            <path d="M605.97,791.91h-206.49c-.14,0-.25-.11-.25-.25s.11-.25.25-.25h206.49c.14,0,.25.11.25.25s-.11.25-.25.25Z"/>
            <path d="M289.75,746.81h-53.04c-.14,0-.25-.11-.25-.25s.11-.25.25-.25h53.04c.14,0,.25.11.25.25s-.11.25-.25.25Z"/>
            <path d="M378.74,702.41h-70.5c-.14,0-.25-.11-.25-.25s.11-.25.25-.25h70.5c.14,0,.25.11.25.25s-.11.25-.25.25Z"/>
            <path d="M1088.67,836.56H285.49c-.14,0-.25-.11-.25-.25s.11-.25.25-.25h803.18c.14,0,.25.11.25.25s-.11.25-.25.25Z"/>
            <path d="M861.96,702.41h-59.38c-.14,0-.25-.11-.25-.25s.11-.25.25-.25h59.38c.14,0,.25.11.25.25s-.11.25-.25.25Z"/>
            <path d="M1220.05,836.56h-59.38c-.14,0-.25-.11-.25-.25s.11-.25.25-.25h59.38c.14,0,.25.11.25.25s-.11.25-.25.25Z"/>
            <path d="M1190.36,702.41h-117.14c-.14,0-.25-.11-.25-.25s.11-.25.25-.25h117.14c.14,0,.25.11.25.25s-.11.25-.25.25Z"/>
            <path d="M998.24,702.41h-114.33c-.14,0-.25-.11-.25-.25s.11-.25.25-.25h114.33c.14,0,.25.11.25.25s-.11.25-.25.25Z"/>
            <path d="M770.24,702.41h-311.45c-.14,0-.25-.11-.25-.25s.11-.25.25-.25h311.45c.14,0,.25.11.25.25s-.11.25-.25.25Z"/>
            <path d="M894.26,633.01h-255.5c-.14,0-.25-.11-.25-.25s.11-.25.25-.25h255.5c.14,0,.25.11.25.25s-.11.25-.25.25Z"/>
            <path d="M620.4,633.01h-307.55c-.14,0-.25-.11-.25-.25s.11-.25.25-.25h307.55c.14,0,.25.11.25.25s-.11.25-.25.25Z"/>
            <path d="M357.23,610.29h-63.15c-.14,0-.25-.11-.25-.25s.11-.25.25-.25h63.15c.14,0,.25.11.25.25s-.11.25-.25.25Z"/>
            <path d="M799.08,610.29h-221.2c-.14,0-.25-.11-.25-.25s.11-.25.25-.25h221.2c.14,0,.25.11.25.25s-.11.25-.25.25Z"/>
            <path d="M503.68,610.29h-134.82c-.14,0-.25-.11-.25-.25s.11-.25.25-.25h134.82c.14,0,.25.11.25.25s-.11.25-.25.25Z"/>
            <path d="M729.62,565.2h-204.93c-.14,0-.25-.11-.25-.25s.11-.25.25-.25h204.93c.14,0,.25.11.25.25s-.11.25-.25.25Z"/>
            <path d="M952.67,503.71h-332.27c-.14,0-.25-.11-.25-.25s.11-.25.25-.25h332.27c.14,0,.25.11.25.25s-.11.25-.25.25Z"/>
            <path d="M457.68,431.31h-88.82c-.14,0-.25-.11-.25-.25s.11-.25.25-.25h88.82c.14,0,.25.11.25.25s-.11.25-.25.25Z"/>
            <path d="M457.68,476.28h-88.82c-.14,0-.25-.11-.25-.25s.11-.25.25-.25h88.82c.14,0,.25.11.25.25s-.11.25-.25.25Z"/>
            <path d="M715.09,476.28h-124.57c-.14,0-.25-.11-.25-.25s.11-.25.25-.25h124.57c.14,0,.25.11.25.25s-.11.25-.25.25Z"/>
            <path d="M729.62,431.31h-184.28c-.14,0-.25-.11-.25-.25s.11-.25.25-.25h184.28c.14,0,.25.11.25.25s-.11.25-.25.25Z"/>
            <g>
              <rect class="cls-2" x="207.56" y="528.27" width="36.68" height="36.68"/>
              <path d="M244.24,565.2h-36.68c-.14,0-.25-.11-.25-.25v-36.68c0-.14.11-.25.25-.25h36.68c.14,0,.25.11.25.25v36.68c0,.14-.11.25-.25.25ZM207.81,564.7h36.18v-36.18h-36.18v36.18Z"/>
            </g>
            <path d="M229.41,545.19h0c-.07,0-.13-.03-.18-.07l-1.76-1.76c-.1-.1-.1-.26,0-.35l2.09-2.09c.1-.1.26-.1.35,0l1.76,1.76c.1.1.1.26,0,.35l-2.09,2.09s-.11.07-.18.07ZM228.01,543.18l1.41,1.41,1.73-1.73-1.41-1.41-1.73,1.73Z"/>
            <path d="M226.28,542.06c-.06,0-.13-.02-.18-.07l-1.76-1.76c-.1-.1-.1-.26,0-.35l1.99-1.99c.1-.1.26-.1.35,0l1.76,1.76c.1.1.1.26,0,.35l-1.99,1.99s-.11.07-.18.07ZM224.87,540.04l1.41,1.41,1.64-1.64-1.41-1.41-1.64,1.64Z"/>
            <path d="M227.94,543.13c-.06,0-.13-.02-.18-.07l-1.37-1.37c-.1-.1-.1-.26,0-.35l1.37-1.37c.1-.1.26-.1.35,0l1.37,1.37c.1.1.1.26,0,.35l-1.37,1.37s-.11.07-.18.07ZM226.93,541.51l1.01,1.01,1.01-1.01-1.01-1.01-1.01,1.01Z"/>
            <path d="M231.07,546.26c-.06,0-.13-.02-.18-.07l-1.37-1.37c-.1-.1-.1-.26,0-.35l1.37-1.37c.09-.09.26-.09.35,0l1.37,1.37s.07.11.07.18-.03.13-.07.18l-1.37,1.37s-.11.07-.18.07ZM230.06,544.64l1.01,1.01,1.01-1.01-1.01-1.01-1.01,1.01Z"/>
            <path d="M234.12,548.17c-.61,0-1.81-.51-3.6-1.52-.07-.04-.11-.11-.12-.18,0-.08.02-.15.07-.21l2.22-2.22c.05-.05.14-.08.21-.07.08.01.15.06.18.12,1.29,2.27,1.76,3.61,1.4,3.96-.08.08-.2.12-.37.12ZM231.05,546.38c1.24.68,2.63,1.31,3.04,1.31,0,0,.02,0,.03,0,.03-.37-.61-1.79-1.31-3.06l-1.75,1.75Z"/>
            <path d="M225.92,547.55h0c-.07,0-.13-.03-.18-.07l-.63-.63c-.1-.1-.1-.26,0-.35l2.93-2.93c.1-.1.26-.1.35,0l.63.63s.07.11.07.18-.03.13-.07.18l-2.93,2.93s-.11.07-.18.07ZM225.64,546.67l.28.28,2.57-2.57-.28-.28-2.57,2.57Z"/>
            <path d="M219.72,555.41c-.06,0-.13-.02-.18-.07l-2.29-2.29s-.07-.11-.07-.18.03-.13.07-.18l7.03-7.03s.11-.07.18-.07h0c.07,0,.13.03.18.07l2.29,2.29c.1.1.1.26,0,.35l-7.03,7.03s-.11.07-.18.07ZM217.78,552.87l1.94,1.94,6.67-6.67-1.94-1.94-6.68,6.68Z"/>
            <g>
              <rect class="cls-2" x="500.06" y="732.21" width="36.68" height="36.68"/>
              <path d="M536.74,769.13h-36.68c-.14,0-.25-.11-.25-.25v-36.68c0-.14.11-.25.25-.25h36.68c.14,0,.25.11.25.25v36.68c0,.14-.11.25-.25.25ZM500.31,768.63h36.18v-36.18h-36.18v36.18Z"/>
            </g>
            <path d="M521.92,749.12c-.06,0-.13-.02-.18-.07l-1.76-1.76c-.1-.1-.1-.26,0-.35l2.09-2.09c.09-.09.26-.09.35,0l1.76,1.76s.07.11.07.18-.03.13-.07.18l-2.09,2.09s-.11.07-.18.07ZM520.51,747.11l1.41,1.41,1.73-1.73-1.41-1.41-1.73,1.73Z"/>
            <path d="M518.78,745.99c-.06,0-.13-.02-.18-.07l-1.76-1.76s-.07-.11-.07-.18.03-.13.07-.18l1.99-1.99s.11-.07.18-.07h0c.07,0,.13.03.18.07l1.76,1.76c.1.1.1.26,0,.35l-1.99,1.99s-.11.07-.18.07ZM517.38,743.98l1.41,1.41,1.64-1.64-1.41-1.41-1.64,1.64Z"/>
            <path d="M520.44,747.07c-.06,0-.13-.02-.18-.07l-1.37-1.37s-.07-.11-.07-.18.03-.13.07-.18l1.37-1.37c.1-.1.26-.1.35,0l1.37,1.37s.07.11.07.18-.03.13-.07.18l-1.37,1.37s-.11.07-.18.07ZM519.43,745.45l1.01,1.01,1.01-1.01-1.01-1.01-1.01,1.01Z"/>
            <path d="M523.57,750.2c-.06,0-.13-.02-.18-.07l-1.37-1.37c-.1-.1-.1-.26,0-.35l1.37-1.37c.1-.1.26-.1.35,0l1.37,1.37c.1.1.1.26,0,.35l-1.37,1.37s-.11.07-.18.07ZM522.56,748.58l1.01,1.01,1.01-1.01-1.01-1.01-1.01,1.01Z"/>
            <path d="M526.62,752.11c-.61,0-1.81-.51-3.6-1.52-.07-.04-.11-.11-.12-.18,0-.08.02-.15.07-.21l2.22-2.22c.06-.05.14-.07.21-.07.08.01.15.06.18.12,1.29,2.27,1.76,3.61,1.4,3.96-.08.08-.2.12-.37.12ZM523.56,750.32c1.27.7,2.71,1.36,3.06,1.31.03-.37-.61-1.79-1.31-3.06l-1.75,1.75Z"/>
            <path d="M518.42,751.49c-.06,0-.13-.02-.18-.07l-.63-.63c-.1-.1-.1-.26,0-.35l2.93-2.93c.09-.09.26-.09.35,0l.63.63s.07.11.07.18-.03.13-.07.18l-2.93,2.93s-.11.07-.18.07ZM518.15,750.61l.28.28,2.57-2.57-.28-.28-2.57,2.57Z"/>
            <path d="M512.23,759.35c-.07,0-.13-.03-.18-.07l-2.29-2.29s-.07-.11-.07-.18.03-.13.07-.18l7.03-7.03c.1-.1.26-.1.35,0l2.29,2.29c.1.1.1.26,0,.35l-7.03,7.03s-.11.07-.18.07ZM510.29,756.8l1.94,1.94,6.67-6.68-1.94-1.94-6.68,6.67Z"/>
            <g>
              <rect class="cls-2" x="258.97" y="777.77" width="36.68" height="36.68"/>
              <path d="M295.64,814.69h-36.68c-.14,0-.25-.11-.25-.25v-36.68c0-.14.11-.25.25-.25h36.68c.14,0,.25.11.25.25v36.68c0,.14-.11.25-.25.25ZM259.22,814.19h36.18v-36.18h-36.18v36.18Z"/>
            </g>
            <path d="M280.82,794.68c-.06,0-.13-.02-.18-.07l-1.76-1.76c-.1-.1-.1-.26,0-.35l2.09-2.09c.09-.09.26-.09.35,0l1.76,1.76s.07.11.07.18-.03.13-.07.18l-2.09,2.09s-.11.07-.18.07ZM279.42,792.67l1.41,1.41,1.73-1.73-1.41-1.41-1.73,1.73Z"/>
            <path d="M277.69,791.55c-.06,0-.13-.02-.18-.07l-1.76-1.76s-.07-.11-.07-.18.03-.13.07-.18l1.99-1.99c.09-.09.26-.09.35,0l1.76,1.76c.1.1.1.26,0,.35l-1.99,1.99s-.11.07-.18.07ZM276.28,789.54l1.41,1.41,1.64-1.64-1.41-1.41-1.64,1.64Z"/>
            <path d="M279.35,792.63c-.06,0-.13-.02-.18-.07l-1.37-1.37c-.1-.1-.1-.26,0-.35l1.37-1.37c.1-.1.26-.1.35,0l1.37,1.37c.1.1.1.26,0,.35l-1.37,1.37s-.11.07-.18.07ZM278.34,791.01l1.01,1.01,1.01-1.01-1.01-1.01-1.01,1.01Z"/>
            <path d="M282.48,795.76c-.06,0-.13-.02-.18-.07l-1.37-1.37c-.1-.1-.1-.26,0-.35l1.37-1.37c.1-.1.26-.1.35,0l1.37,1.37c.1.1.1.26,0,.35l-1.37,1.37s-.11.07-.18.07ZM281.46,794.14l1.01,1.01,1.01-1.01-1.01-1.01-1.01,1.01Z"/>
            <path d="M285.52,797.67c-.61,0-1.81-.51-3.6-1.52-.07-.04-.11-.11-.12-.18,0-.08.02-.15.07-.21l2.22-2.22c.05-.05.13-.08.21-.07.08.01.15.06.18.12,1.29,2.27,1.76,3.61,1.4,3.97-.08.08-.2.12-.37.12ZM282.46,795.88c1.24.68,2.63,1.31,3.04,1.31,0,0,.02,0,.03,0,.03-.37-.61-1.79-1.31-3.07l-1.75,1.75Z"/>
            <path d="M277.33,797.05c-.06,0-.13-.02-.18-.07l-.63-.63c-.1-.1-.1-.26,0-.35l2.93-2.93c.09-.09.26-.09.35,0l.63.63s.07.11.07.18-.03.13-.07.18l-2.93,2.93s-.11.07-.18.07ZM277.05,796.17l.28.28,2.57-2.57-.28-.28-2.57,2.57Z"/>
            <path d="M271.13,804.91c-.07,0-.13-.03-.18-.07l-2.29-2.29s-.07-.11-.07-.18.03-.13.07-.18l7.03-7.03c.1-.1.26-.1.35,0l2.29,2.29c.1.1.1.26,0,.35l-7.03,7.03s-.11.07-.18.07ZM269.19,802.36l1.94,1.94,6.67-6.68-1.94-1.94-6.68,6.67Z"/>
            <g>
              <rect class="cls-2" x="1018.57" y="665.49" width="36.68" height="36.68"/>
              <path d="M1055.24,702.41h-36.68c-.14,0-.25-.11-.25-.25v-36.68c0-.14.11-.25.25-.25h36.68c.14,0,.25.11.25.25v36.68c0,.14-.11.25-.25.25ZM1018.82,701.91h36.18v-36.18h-36.18v36.18Z"/>
            </g>
            <path d="M1040.42,682.41c-.06,0-.13-.02-.18-.07l-1.76-1.76c-.1-.1-.1-.26,0-.35l2.09-2.09c.09-.09.26-.09.35,0l1.76,1.76s.07.11.07.18-.03.13-.07.18l-2.09,2.09s-.11.07-.18.07ZM1039.01,680.4l1.41,1.41,1.73-1.73-1.41-1.41-1.73,1.73Z"/>
            <path d="M1037.29,679.28c-.06,0-.13-.02-.18-.07l-1.76-1.76c-.1-.1-.1-.26,0-.35l1.99-1.99c.1-.1.26-.1.35,0l1.76,1.76c.1.1.1.26,0,.35l-1.99,1.99s-.11.07-.18.07ZM1035.88,677.26l1.41,1.41,1.64-1.64-1.41-1.41-1.64,1.64Z"/>
            <path d="M1038.95,680.35c-.06,0-.13-.02-.18-.07l-1.37-1.37s-.07-.11-.07-.18.03-.13.07-.18l1.37-1.37c.1-.1.26-.1.35,0l1.37,1.37s.07.11.07.18-.03.13-.07.18l-1.37,1.37s-.11.07-.18.07ZM1037.93,678.73l1.01,1.01,1.01-1.01-1.01-1.01-1.01,1.01Z"/>
            <path d="M1042.08,683.48c-.06,0-.13-.02-.18-.07l-1.37-1.37c-.1-.1-.1-.26,0-.35l1.37-1.37c.1-.1.26-.1.35,0l1.37,1.37c.1.1.1.26,0,.35l-1.37,1.37s-.11.07-.18.07ZM1041.06,681.86l1.01,1.01,1.01-1.01-1.01-1.01-1.01,1.01Z"/>
            <path d="M1045.12,685.39c-.61,0-1.81-.51-3.6-1.52-.07-.04-.11-.11-.12-.18,0-.08.02-.15.07-.21l2.22-2.22c.06-.05.13-.08.21-.07.08.01.15.06.18.12,1.29,2.27,1.76,3.61,1.4,3.96-.08.08-.2.12-.37.12ZM1042.06,683.6c1.27.7,2.67,1.34,3.07,1.31.03-.37-.61-1.79-1.31-3.06l-1.75,1.75Z"/>
            <path d="M1036.93,684.77c-.06,0-.13-.02-.18-.07l-.63-.63c-.1-.1-.1-.26,0-.35l2.93-2.93s.11-.07.18-.07h0c.07,0,.13.03.18.07l.63.63c.1.1.1.26,0,.35l-2.93,2.93s-.11.07-.18.07ZM1036.65,683.89l.28.28,2.57-2.57-.28-.28-2.57,2.57Z"/>
            <path d="M1030.73,692.63c-.07,0-.13-.03-.18-.07l-2.29-2.29s-.07-.11-.07-.18.03-.13.07-.18l7.03-7.03c.1-.1.26-.1.35,0l2.29,2.29c.1.1.1.26,0,.35l-7.03,7.03s-.11.07-.18.07ZM1028.79,690.09l1.94,1.94,6.67-6.68-1.94-1.94-6.68,6.67Z"/>
            <g>
              <rect class="cls-2" x="524.7" y="466.78" width="36.68" height="36.68"/>
              <path d="M561.37,503.71h-36.68c-.14,0-.25-.11-.25-.25v-36.68c0-.14.11-.25.25-.25h36.68c.14,0,.25.11.25.25v36.68c0,.14-.11.25-.25.25ZM524.95,503.21h36.18v-36.18h-36.18v36.18Z"/>
            </g>
            <path d="M535.65,490.37h2.15l.84-6.18h-1.5v-1.1h1.66l.43-3.2c.09-.56.34-1.11,1.29-1.11h2.13v1.1h-2.13l-.46,3.22h1.68v1.1h-1.82l-.83,6.12c-.09.61-.39,1.16-1.32,1.16h-2.12v-1.1Z"/>
            <path d="M545.72,485.69l-1.99-3.84h1.42l1.48,2.98h.09l2.27-2.98h1.42l-3.01,3.81,2.02,3.93h-1.42l-1.51-3.07h-.1l-2.37,3.07h-1.38l3.08-3.9Z"/>
            <g>
              <g>
                <rect class="cls-2" x="527.01" y="573.37" width="36.68" height="36.68"/>
                <path d="M563.69,610.29h-36.68c-.14,0-.25-.11-.25-.25v-36.68c0-.14.11-.25.25-.25h36.68c.14,0,.25.11.25.25v36.68c0,.14-.11.25-.25.25ZM527.26,609.79h36.18v-36.18h-36.18v36.18Z"/>
              </g>
              <rect x="541.63" y="587.81" width=".5" height="3.4" transform="translate(-251.78 695.58) rotate(-55.02)"/>
              <rect x="548.38" y="592.76" width=".5" height="2.95" transform="translate(-252.86 702.5) rotate(-54.98)"/>
              <rect x="540.59" y="593.98" width="2.95" height=".5" transform="translate(-242.78 418.27) rotate(-34.99)"/>
              <rect x="547.12" y="589.26" width="3.4" height=".5" transform="translate(-238.85 421.29) rotate(-34.99)"/>
              <rect x="545.1" y="594.46" width=".5" height="3.4"/>
              <rect x="545.1" y="586.45" width=".5" height="2.95"/>
              <path d="M545.35,594.71c-1.53,0-2.78-1.25-2.78-2.78s1.25-2.78,2.78-2.78,2.78,1.25,2.78,2.78-1.25,2.78-2.78,2.78ZM545.35,589.65c-1.26,0-2.28,1.02-2.28,2.28s1.02,2.28,2.28,2.28,2.28-1.02,2.28-2.28-1.02-2.28-2.28-2.28Z"/>
              <path d="M539.69,589.2c-.68,0-1.23-.55-1.23-1.23s.55-1.23,1.23-1.23,1.23.55,1.23,1.23-.55,1.23-1.23,1.23ZM539.69,587.24c-.4,0-.73.33-.73.73s.33.73.73.73.73-.33.73-.73-.33-.73-.73-.73Z"/>
              <path d="M551.01,589.2c-.68,0-1.23-.55-1.23-1.23s.55-1.23,1.23-1.23,1.23.55,1.23,1.23-.55,1.23-1.23,1.23ZM551.01,587.24c-.4,0-.73.33-.73.73s.33.73.73.73.73-.33.73-.73-.33-.73-.73-.73Z"/>
              <path d="M539.69,597.58c-.93,0-1.68-.75-1.68-1.68s.75-1.68,1.68-1.68,1.68.75,1.68,1.68-.75,1.68-1.68,1.68ZM539.69,594.71c-.65,0-1.18.53-1.18,1.18s.53,1.18,1.18,1.18,1.18-.53,1.18-1.18-.53-1.18-1.18-1.18Z"/>
              <path d="M545.35,586.7c-.93,0-1.68-.75-1.68-1.68s.75-1.68,1.68-1.68,1.68.75,1.68,1.68-.75,1.68-1.68,1.68ZM545.35,583.84c-.65,0-1.18.53-1.18,1.18s.53,1.18,1.18,1.18,1.18-.53,1.18-1.18-.53-1.18-1.18-1.18Z"/>
              <path d="M545.35,600.07c-.68,0-1.23-.55-1.23-1.23s.55-1.23,1.23-1.23,1.23.55,1.23,1.23-.55,1.23-1.23,1.23ZM545.35,598.11c-.4,0-.73.33-.73.73s.33.73.73.73.73-.33.73-.73-.33-.73-.73-.73Z"/>
              <path d="M551.01,597.58c-.93,0-1.68-.75-1.68-1.68s.75-1.68,1.68-1.68,1.68.75,1.68,1.68-.75,1.68-1.68,1.68ZM551.01,594.71c-.65,0-1.18.53-1.18,1.18s.53,1.18,1.18,1.18,1.18-.53,1.18-1.18-.53-1.18-1.18-1.18Z"/>
            </g>
            <g>
              <rect class="cls-2" x="1000.23" y="326.63" width="36.68" height="36.68"/>
              <path d="M1036.9,363.56h-36.68c-.14,0-.25-.11-.25-.25v-36.68c0-.14.11-.25.25-.25h36.68c.14,0,.25.11.25.25v36.68c0,.14-.11.25-.25.25ZM1000.48,363.06h36.18v-36.18h-36.18v36.18Z"/>
            </g>
            <rect x="1014.85" y="341.07" width=".5" height="3.4" transform="translate(152.33 978.03) rotate(-55.02)"/>
            <rect x="1021.6" y="346.02" width=".5" height="2.95" transform="translate(150.85 984.9) rotate(-54.98)"/>
            <rect x="1013.81" y="347.24" width="2.95" height=".5" transform="translate(-15.74 645.04) rotate(-34.99)"/>
            <rect x="1020.33" y="342.52" width="3.4" height=".5" transform="translate(-11.82 648.06) rotate(-34.99)"/>
            <rect x="1018.32" y="347.73" width=".5" height="3.4"/>
            <rect x="1018.32" y="339.72" width=".5" height="2.95"/>
            <path d="M1018.57,347.98c-1.53,0-2.78-1.25-2.78-2.78s1.25-2.78,2.78-2.78,2.78,1.25,2.78,2.78-1.25,2.78-2.78,2.78ZM1018.57,342.91c-1.26,0-2.28,1.02-2.28,2.28s1.02,2.28,2.28,2.28,2.28-1.02,2.28-2.28-1.02-2.28-2.28-2.28Z"/>
            <path d="M1012.91,342.46c-.68,0-1.23-.55-1.23-1.23s.55-1.23,1.23-1.23,1.23.55,1.23,1.23-.55,1.23-1.23,1.23ZM1012.91,340.5c-.4,0-.73.33-.73.73s.33.73.73.73.73-.33.73-.73-.33-.73-.73-.73Z"/>
            <path d="M1024.23,342.46c-.68,0-1.23-.55-1.23-1.23s.55-1.23,1.23-1.23,1.23.55,1.23,1.23-.55,1.23-1.23,1.23ZM1024.23,340.5c-.4,0-.73.33-.73.73s.33.73.73.73.73-.33.73-.73-.33-.73-.73-.73Z"/>
            <path d="M1012.91,350.84c-.93,0-1.68-.75-1.68-1.68s.75-1.68,1.68-1.68,1.68.75,1.68,1.68-.75,1.68-1.68,1.68ZM1012.91,347.98c-.65,0-1.18.53-1.18,1.18s.53,1.18,1.18,1.18,1.18-.53,1.18-1.18-.53-1.18-1.18-1.18Z"/>
            <path d="M1018.57,339.97c-.93,0-1.68-.75-1.68-1.68s.75-1.68,1.68-1.68,1.68.75,1.68,1.68-.75,1.68-1.68,1.68ZM1018.57,337.1c-.65,0-1.18.53-1.18,1.18s.53,1.18,1.18,1.18,1.18-.53,1.18-1.18-.53-1.18-1.18-1.18Z"/>
            <path d="M1018.57,353.34c-.68,0-1.23-.55-1.23-1.23s.55-1.23,1.23-1.23,1.23.55,1.23,1.23-.55,1.23-1.23,1.23ZM1018.57,351.37c-.4,0-.73.33-.73.73s.33.73.73.73.73-.33.73-.73-.33-.73-.73-.73Z"/>
            <path d="M1024.23,350.84c-.93,0-1.68-.75-1.68-1.68s.75-1.68,1.68-1.68,1.68.75,1.68,1.68-.75,1.68-1.68,1.68ZM1024.23,347.98c-.65,0-1.18.53-1.18,1.18s.53,1.18,1.18,1.18,1.18-.53,1.18-1.18-.53-1.18-1.18-1.18Z"/>
            <g>
              <rect class="cls-2" x="402.3" y="665.49" width="36.68" height="36.68"/>
              <path d="M438.97,702.41h-36.68c-.14,0-.25-.11-.25-.25v-36.68c0-.14.11-.25.25-.25h36.68c.14,0,.25.11.25.25v36.68c0,.14-.11.25-.25.25ZM402.55,701.91h36.18v-36.18h-36.18v36.18Z"/>
            </g>
            <rect x="416.92" y="679.93" width=".5" height="3.4" transform="translate(-380.48 632.57) rotate(-55.01)"/>
            <rect x="423.66" y="684.88" width=".5" height="2.95" transform="translate(-381.44 639.62) rotate(-54.98)"/>
            <rect x="415.88" y="686.1" width="2.95" height=".5" transform="translate(-318.15 363.41) rotate(-34.99)"/>
            <rect x="422.4" y="681.38" width="3.4" height=".5" transform="translate(-314.22 366.42) rotate(-34.99)"/>
            <rect x="420.38" y="686.58" width=".5" height="3.4"/>
            <rect x="420.38" y="678.57" width=".5" height="2.95"/>
            <path d="M420.63,686.83c-1.53,0-2.78-1.25-2.78-2.78s1.25-2.78,2.78-2.78,2.78,1.25,2.78,2.78-1.25,2.78-2.78,2.78ZM420.63,681.77c-1.26,0-2.28,1.02-2.28,2.28s1.02,2.28,2.28,2.28,2.28-1.02,2.28-2.28-1.02-2.28-2.28-2.28Z"/>
            <path d="M414.97,681.32c-.68,0-1.23-.55-1.23-1.23s.55-1.23,1.23-1.23,1.23.55,1.23,1.23-.55,1.23-1.23,1.23ZM414.97,679.36c-.4,0-.73.33-.73.73s.33.73.73.73.73-.33.73-.73-.33-.73-.73-.73Z"/>
            <path d="M426.29,681.32c-.68,0-1.23-.55-1.23-1.23s.55-1.23,1.23-1.23,1.23.55,1.23,1.23-.55,1.23-1.23,1.23ZM426.29,679.36c-.4,0-.73.33-.73.73s.33.73.73.73.73-.33.73-.73-.33-.73-.73-.73Z"/>
            <path d="M414.97,689.7c-.93,0-1.68-.75-1.68-1.68s.75-1.68,1.68-1.68,1.68.75,1.68,1.68-.75,1.68-1.68,1.68ZM414.97,686.83c-.65,0-1.18.53-1.18,1.18s.53,1.18,1.18,1.18,1.18-.53,1.18-1.18-.53-1.18-1.18-1.18Z"/>
            <path d="M420.63,678.82c-.93,0-1.68-.75-1.68-1.68s.75-1.68,1.68-1.68,1.68.75,1.68,1.68-.75,1.68-1.68,1.68ZM420.63,675.96c-.65,0-1.18.53-1.18,1.18s.53,1.18,1.18,1.18,1.18-.53,1.18-1.18-.53-1.18-1.18-1.18Z"/>
            <path d="M420.63,692.19c-.68,0-1.23-.55-1.23-1.23s.55-1.23,1.23-1.23,1.23.55,1.23,1.23-.55,1.23-1.23,1.23ZM420.63,690.23c-.4,0-.73.33-.73.73s.33.73.73.73.73-.33.73-.73-.33-.73-.73-.73Z"/>
            <path d="M426.29,689.7c-.93,0-1.68-.75-1.68-1.68s.75-1.68,1.68-1.68,1.68.75,1.68,1.68-.75,1.68-1.68,1.68ZM426.29,686.83c-.65,0-1.18.53-1.18,1.18s.53,1.18,1.18,1.18,1.18-.53,1.18-1.18-.53-1.18-1.18-1.18Z"/>
            <g>
              <rect class="cls-2" x="299.49" y="449.06" width="36.68" height="36.68"/>
              <path d="M336.17,485.98h-36.68c-.14,0-.25-.11-.25-.25v-36.68c0-.14.11-.25.25-.25h36.68c.14,0,.25.11.25.25v36.68c0,.14-.11.25-.25.25ZM299.74,485.48h36.18v-36.18h-36.18v36.18Z"/>
            </g>
            <path d="M317.83,475.97s-.09-.01-.12-.03l-7.2-4.15c-.08-.04-.12-.13-.12-.22v-8.31c0-.09.05-.17.12-.22.08-.04.17-.04.25,0l7.2,4.16c.08.04.12.13.12.22v8.31c0,.09-.05.17-.12.22-.04.02-.08.03-.12.03ZM310.88,471.42l6.7,3.87v-7.73l-6.7-3.87v7.73Z"/>
            <path d="M317.83,475.97s-.09-.01-.12-.03c-.08-.04-.12-.13-.12-.22v-8.31c0-.09.05-.17.12-.22l7.2-4.16c.08-.04.17-.04.25,0,.08.04.12.13.12.22v8.31c0,.09-.05.17-.12.22l-7.2,4.15s-.08.03-.12.03ZM318.08,467.55v7.73l6.7-3.87v-7.73l-6.7,3.87Z"/>
            <path d="M317.83,467.63s-.09-.01-.12-.03l-7.2-4.15c-.08-.04-.12-.13-.12-.22s.05-.17.12-.22l7.2-4.16c.08-.04.17-.04.25,0l7.2,4.16c.08.04.12.13.12.22s-.05.17-.12.22l-7.2,4.15s-.08.03-.12.03ZM311.13,463.22l6.7,3.87,6.7-3.87-6.7-3.87-6.7,3.87Z"/>
            <g>
              <rect class="cls-2" x="1110.38" y="799.64" width="36.68" height="36.68"/>
              <path d="M1147.05,836.56h-36.68c-.14,0-.25-.11-.25-.25v-36.68c0-.14.11-.25.25-.25h36.68c.14,0,.25.11.25.25v36.68c0,.14-.11.25-.25.25ZM1110.63,836.06h36.18v-36.18h-36.18v36.18Z"/>
            </g>
            <path d="M1128.72,826.55s-.09-.01-.12-.03l-7.2-4.16c-.08-.04-.12-.13-.12-.22v-8.31c0-.09.05-.17.12-.22.08-.04.17-.04.25,0l7.2,4.15c.08.04.12.13.12.22v8.31c0,.09-.05.17-.12.22-.04.02-.08.03-.12.03ZM1121.77,822l6.7,3.87v-7.73l-6.7-3.87v7.73Z"/>
            <path d="M1128.71,826.55s-.09-.01-.12-.03c-.08-.04-.12-.13-.12-.22v-8.31c0-.09.05-.17.12-.22l7.2-4.15c.08-.04.17-.04.25,0,.08.04.12.13.12.22v8.31c0,.09-.05.17-.12.22l-7.2,4.16s-.08.03-.12.03ZM1128.96,818.13v7.73l6.7-3.87v-7.73l-6.7,3.87Z"/>
            <path d="M1128.72,818.21s-.09-.01-.12-.03l-7.2-4.16c-.08-.04-.12-.13-.12-.22s.05-.17.12-.22l7.2-4.16c.08-.04.17-.04.25,0l7.2,4.16c.08.04.12.13.12.22s-.05.17-.12.22l-7.2,4.16s-.08.03-.12.03ZM1122.02,813.8l6.7,3.87,6.7-3.87-6.7-3.87-6.7,3.87Z"/>
            <g>
              <rect class="cls-2" x="742.19" y="394.38" width="36.68" height="36.68"/>
              <path d="M778.86,431.31h-36.68c-.14,0-.25-.11-.25-.25v-36.68c0-.14.11-.25.25-.25h36.68c.14,0,.25.11.25.25v36.68c0,.14-.11.25-.25.25ZM742.44,430.81h36.18v-36.18h-36.18v36.18Z"/>
            </g>
            <path d="M760.53,421.29s-.09-.01-.12-.03l-7.2-4.16c-.08-.04-.12-.13-.12-.22v-8.31c0-.09.05-.17.12-.22.08-.04.17-.04.25,0l7.2,4.16c.08.04.12.13.12.22v8.31c0,.09-.05.17-.12.22-.04.02-.08.03-.12.03ZM753.58,416.74l6.7,3.87v-7.73l-6.7-3.87v7.73Z"/>
            <path d="M760.52,421.29s-.09-.01-.12-.03c-.08-.04-.12-.13-.12-.22v-8.31c0-.09.05-.17.12-.22l7.2-4.16c.08-.04.17-.04.25,0,.08.04.12.13.12.22v8.31c0,.09-.05.17-.12.22l-7.2,4.16s-.08.03-.12.03ZM760.77,412.88v7.73l6.7-3.87v-7.73l-6.7,3.87Z"/>
            <path d="M760.53,412.95s-.09-.01-.12-.03l-7.2-4.16c-.08-.04-.12-.13-.12-.22s.05-.17.12-.22l7.2-4.15c.08-.04.17-.04.25,0l7.2,4.15c.08.04.12.13.12.22s-.05.17-.12.22l-7.2,4.16s-.08.03-.12.03ZM753.83,408.55l6.7,3.87,6.7-3.87-6.7-3.87-6.7,3.87Z"/>
            <g>
              <rect class="cls-2" x="508.53" y="326.65" width="36.68" height="36.68"/>
              <path d="M545.21,363.57h-36.68c-.14,0-.25-.11-.25-.25v-36.68c0-.14.11-.25.25-.25h36.68c.14,0,.25.11.25.25v36.68c0,.14-.11.25-.25.25ZM508.78,363.07h36.18v-36.18h-36.18v36.18Z"/>
            </g>
            <path d="M526.87,353.56s-.09-.01-.12-.03l-7.2-4.15c-.08-.04-.12-.13-.12-.22v-8.31c0-.09.05-.17.12-.22.08-.04.17-.04.25,0l7.2,4.16c.08.04.12.13.12.22v8.31c0,.09-.05.17-.12.22-.04.02-.08.03-.12.03ZM519.92,349.01l6.7,3.87v-7.73l-6.7-3.87v7.73Z"/>
            <path d="M526.86,353.56s-.09-.01-.12-.03c-.08-.04-.12-.13-.12-.22v-8.31c0-.09.05-.17.12-.22l7.2-4.16c.08-.04.17-.04.25,0,.08.04.12.13.12.22v8.31c0,.09-.05.17-.12.22l-7.2,4.15s-.08.03-.12.03ZM527.11,345.15v7.73l6.7-3.87v-7.73l-6.7,3.87Z"/>
            <path d="M526.87,345.22s-.09-.01-.12-.03l-7.2-4.15c-.08-.04-.12-.13-.12-.22s.05-.17.12-.22l7.2-4.16c.08-.04.17-.04.25,0l7.2,4.16c.08.04.12.13.12.22s-.05.17-.12.22l-7.2,4.15s-.08.03-.12.03ZM520.17,340.82l6.7,3.87,6.7-3.87-6.7-3.87-6.7,3.87Z"/>
          </g>
        </g>
      </g>
    </g>
  </g>
</svg>