<svg width="213" height="107" fill="none" xmlns="http://www.w3.org/2000/svg"><g clip-path="url(#clip0)"><path fill="#fff" d="M0 0h213v107H0z"/><path d="M42.554 64.072c-3.221-5.966-10.669-8.191-16.635-4.97m11.665 21.606c-5.966 3.22-13.414.996-16.635-4.97M38.657 69.905a6.906 6.906 0 11-6.906-6.906" stroke="#1E2124"/><path d="M31.751 87.553c-9.746 0-17.648-7.901-17.648-17.648s7.902-17.648 17.648-17.648M47.035 78.666c4.873-8.44 1.981-19.233-6.46-24.107" stroke="#1E2124"/><path d="M10.267 69.905c0 11.865 9.619 21.484 21.484 21.484 11.866 0 21.485-9.619 21.485-21.484 0-11.866-9.62-21.484-21.485-21.484" stroke="#1E2124"/><path d="M55.538 69.905c0-13.137-10.65-23.786-23.786-23.786-13.137 0-23.787 10.65-23.787 23.786" stroke="#1E2124"/><path d="M13.512 94.494c13.538 10.201 32.781 7.496 42.982-6.042 10.2-13.537 7.496-32.781-6.042-42.982-13.537-10.2-32.781-7.496-42.982 6.042M31.751 73.742a3.836 3.836 0 10-3.836-3.837" stroke="#1E2124"/><path d="M58.606 69.905c0 14.832-12.023 26.855-26.855 26.855m0-53.71c-11.883 0-21.964 7.718-25.502 18.415" stroke="#1E2124"/><circle cx="43.644" cy="69.521" r="1.151" stroke="#1E2124"/><circle cx="10.373" cy="91.648" r="1.151" transform="rotate(36.998 10.373 91.648)" stroke="#1E2124"/><circle cx="36.739" cy="86.402" r="1.151" stroke="#1E2124"/><circle cx="22.16" cy="62.616" r="1.151" stroke="#1E2124"/></g><defs><clipPath id="clip0"><path fill="#fff" d="M0 0h213v107H0z"/></clipPath></defs></svg>