<svg width="213" height="107" fill="none" xmlns="http://www.w3.org/2000/svg"><path fill="#fff" d="M0 0h213v107H0z"/><path d="M25.138 101h37.24M6 89.51h75.32M38.553 94.617V101M48.766 94.617V101M81.32 94.617H6V41h75.32v53.617z" stroke="#1E2124"/><path d="M44.55 59.733l-3.444 2.153 3.444 2.152M51.868 64.038l3.444-2.152-3.444-2.153M49.286 58.872l-2.153 6.457" stroke="#1E2124"/><path d="M74.476 85.043H21.957V48.02h52.52v37.022zM22 71h52.34M25 74h18M25 82h22M25 78h15M25 76h28M25 80h25M21.957 52.757h52.326" stroke="#1E2124"/><circle cx="24.325" cy="50.389" r=".646" fill="#1E2124"/><circle cx="26.908" cy="50.389" r=".646" fill="#1E2124"/><path d="M22.276 82.49h-9.893V45.468H64.9v2.553M12.383 69.085h9.574M15.575 71.638h6.382M15.575 79.298h5.106M15.575 73.553h6.382M15.575 77.383h5.744M12.383 49.936h9.574" stroke="#1E2124"/><circle cx="14.751" cy="47.836" r=".646" fill="#1E2124"/><circle cx="17.334" cy="47.836" r=".646" fill="#1E2124"/></svg>