<svg width="1469" height="718" viewBox="0 0 1469 718" fill="none" xmlns="http://www.w3.org/2000/svg">
<path d="M781.5 277L941 185L877.5 148.5L1004 75.5" stroke="url(#paint0_linear_6_2)"/>
<path d="M828.5 305L893.5 267.5L925 286L1036 222" stroke="url(#paint1_linear_6_2)"/>
<path d="M908.5 351L1067 259L1147 304.5L1385 166.5" stroke="url(#paint2_linear_6_2)"/>
<path d="M957 378.5L1052 323L1289.5 460L1417 386.5" stroke="url(#paint3_linear_6_2)"/>
<path d="M704 268.5L576.5 194.5L544.5 212.5L338 93.5" stroke="url(#paint4_linear_6_2)"/>
<path d="M640.5 305L449.5 194.5L385.5 231.5L196 121.5" stroke="url(#paint5_linear_6_2)"/>
<path d="M561.5 350.5L417.5 267.5L338.5 313.5L212 240.5L116 295.5" stroke="url(#paint6_linear_6_2)"/>
<path d="M512.5 414.5L433.5 460.5L244.5 350L53.5 460" stroke="url(#paint7_linear_6_2)"/>
<path d="M560.5 442L402 533.5L354.5 506L227 579.5" stroke="url(#paint8_linear_6_2)"/>
<path d="M623 478.5L528.5 533L575.5 560.5L434.5 643" stroke="url(#paint9_linear_6_2)"/>
<path d="M703 524.5L593 588.5L655.5 625L575.5 671" stroke="url(#paint10_linear_6_2)"/>
<path d="M766.5 523.5L877.5 588.5L941 551.5L1131 661.5L1162.5 643L1241 688.5" stroke="url(#paint11_linear_6_2)"/>
<path d="M893.5 451L1052.5 542.5L1083 524.5L1242.5 615.5" stroke="url(#paint12_linear_6_2)"/>
<path d="M941.5 423L1051.5 487.5L1131.5 441.5L1368.5 579L1432.5 542" stroke="url(#paint13_linear_6_2)"/>
<g clip-path="url(#paint14_diamond_6_2_clip_path)" data-figma-skip-parse="true"><g transform="matrix(0 0.147 -0.25375 0 734.75 396)"><rect x="0" y="0" width="1006.8" height="1003.94" fill="url(#paint14_diamond_6_2)" opacity="1" shape-rendering="crispEdges"/><rect x="0" y="0" width="1006.8" height="1003.94" transform="scale(1 -1)" fill="url(#paint14_diamond_6_2)" opacity="1" shape-rendering="crispEdges"/><rect x="0" y="0" width="1006.8" height="1003.94" transform="scale(-1 1)" fill="url(#paint14_diamond_6_2)" opacity="1" shape-rendering="crispEdges"/><rect x="0" y="0" width="1006.8" height="1003.94" transform="scale(-1)" fill="url(#paint14_diamond_6_2)" opacity="1" shape-rendering="crispEdges"/></g></g><path d="M728.991 540.09L495.881 404.646C489.246 400.791 489.246 391.209 495.881 387.354L728.991 251.91C732.089 250.11 735.914 250.105 739.016 251.898L973.508 387.341C980.173 391.19 980.173 400.81 973.508 404.659L739.016 540.102C735.914 541.895 732.089 541.89 728.991 540.09Z" data-figma-gradient-fill="{&#34;type&#34;:&#34;GRADIENT_DIAMOND&#34;,&#34;stops&#34;:[{&#34;color&#34;:{&#34;r&#34;:0.59607845544815063,&#34;g&#34;:0.50588238239288330,&#34;b&#34;:0.95294117927551270,&#34;a&#34;:0.0},&#34;position&#34;:0.86057692766189575},{&#34;color&#34;:{&#34;r&#34;:0.59607845544815063,&#34;g&#34;:0.50588238239288330,&#34;b&#34;:0.95294117927551270,&#34;a&#34;:1.0},&#34;position&#34;:1.0}],&#34;stopsVar&#34;:[{&#34;color&#34;:{&#34;r&#34;:0.59607845544815063,&#34;g&#34;:0.50588238239288330,&#34;b&#34;:0.95294117927551270,&#34;a&#34;:0.0},&#34;position&#34;:0.86057692766189575},{&#34;color&#34;:{&#34;r&#34;:0.59607845544815063,&#34;g&#34;:0.50588238239288330,&#34;b&#34;:0.95294117927551270,&#34;a&#34;:1.0},&#34;position&#34;:1.0}],&#34;transform&#34;:{&#34;m00&#34;:3.1075412832174895e-14,&#34;m01&#34;:-507.50,&#34;m02&#34;:988.50,&#34;m10&#34;:294.0,&#34;m11&#34;:1.8002308018317918e-14,&#34;m12&#34;:249.0},&#34;opacity&#34;:1.0,&#34;blendMode&#34;:&#34;NORMAL&#34;,&#34;visible&#34;:true}"/>
<defs>
<clipPath id="paint14_diamond_6_2_clip_path"><path d="M728.991 540.09L495.881 404.646C489.246 400.791 489.246 391.209 495.881 387.354L728.991 251.91C732.089 250.11 735.914 250.105 739.016 251.898L973.508 387.341C980.173 391.19 980.173 400.81 973.508 404.659L739.016 540.102C735.914 541.895 732.089 541.89 728.991 540.09Z"/></clipPath><linearGradient id="paint0_linear_6_2" x1="1009" y1="76" x2="798" y2="271.5" gradientUnits="userSpaceOnUse">
<stop stop-opacity="0"/>
<stop offset="1"/>
</linearGradient>
<linearGradient id="paint1_linear_6_2" x1="1040.66" y1="222.206" x2="972.946" y2="364.257" gradientUnits="userSpaceOnUse">
<stop stop-opacity="0"/>
<stop offset="1"/>
</linearGradient>
<linearGradient id="paint2_linear_6_2" x1="1395.71" y1="166.958" x2="1248.28" y2="486.449" gradientUnits="userSpaceOnUse">
<stop stop-opacity="0"/>
<stop offset="1"/>
</linearGradient>
<linearGradient id="paint3_linear_6_2" x1="1403" y1="375.5" x2="1248.45" y2="581.453" gradientUnits="userSpaceOnUse">
<stop stop-opacity="0"/>
<stop offset="1"/>
</linearGradient>
<linearGradient id="paint4_linear_6_2" x1="693" y1="256" x2="361.457" y2="308.797" gradientUnits="userSpaceOnUse">
<stop/>
<stop offset="1" stop-opacity="0"/>
</linearGradient>
<linearGradient id="paint5_linear_6_2" x1="627.141" y1="291.893" x2="227.86" y2="365.537" gradientUnits="userSpaceOnUse">
<stop/>
<stop offset="1" stop-opacity="0"/>
</linearGradient>
<linearGradient id="paint6_linear_6_2" x1="548.111" y1="342.643" x2="170.251" y2="459.165" gradientUnits="userSpaceOnUse">
<stop/>
<stop offset="1" stop-opacity="0"/>
</linearGradient>
<linearGradient id="paint7_linear_6_2" x1="360.5" y1="653" x2="289.678" y2="717.656" gradientUnits="userSpaceOnUse">
<stop offset="0.0542277"/>
<stop offset="1" stop-opacity="0"/>
</linearGradient>
<linearGradient id="paint8_linear_6_2" x1="572.111" y1="442.548" x2="501.362" y2="686.671" gradientUnits="userSpaceOnUse">
<stop/>
<stop offset="1" stop-opacity="0"/>
</linearGradient>
<linearGradient id="paint9_linear_6_2" x1="633" y1="479" x2="640.56" y2="639.817" gradientUnits="userSpaceOnUse">
<stop/>
<stop offset="1" stop-opacity="0"/>
</linearGradient>
<linearGradient id="paint10_linear_6_2" x1="709" y1="525" x2="738.702" y2="637.549" gradientUnits="userSpaceOnUse">
<stop/>
<stop offset="1" stop-opacity="0"/>
</linearGradient>
<linearGradient id="paint11_linear_6_2" x1="826" y1="524" x2="879.82" y2="439.751" gradientUnits="userSpaceOnUse">
<stop/>
<stop offset="1" stop-opacity="0"/>
</linearGradient>
<linearGradient id="paint12_linear_6_2" x1="937.263" y1="451.499" x2="995.791" y2="383.907" gradientUnits="userSpaceOnUse">
<stop/>
<stop offset="1" stop-opacity="0"/>
</linearGradient>
<linearGradient id="paint13_linear_6_2" x1="1003.07" y1="423.473" x2="1051.9" y2="339.814" gradientUnits="userSpaceOnUse">
<stop/>
<stop offset="1" stop-opacity="0"/>
</linearGradient>
<linearGradient id="paint14_diamond_6_2" x1="0" y1="0" x2="500" y2="500" gradientUnits="userSpaceOnUse">
<stop offset="0.860577" stop-color="#9881F3" stop-opacity="0"/>
<stop offset="1" stop-color="#9881F3"/>
</linearGradient>
</defs>
</svg>
