<svg version="1.1" id="Layer_1" xmlns="http://www.w3.org/2000/svg" x="0" y="0" viewBox="0 0 528 306" xml:space="preserve"><ellipse fill="none" stroke="#171719" stroke-width="1.25" stroke-linejoin="round" stroke-miterlimit="10" cx="266.55" cy="154.8" rx="128.68" ry="73.18"/><ellipse fill="none" stroke="#171719" stroke-width="1.25" stroke-linejoin="round" stroke-miterlimit="10" cx="471.27" cy="32.55" rx="55.86" ry="31.76"/><ellipse fill="none" stroke="#171719" stroke-width="1.25" stroke-linejoin="round" stroke-miterlimit="10" cx="56.73" cy="273.45" rx="55.86" ry="31.76"/><path fill="none" stroke="#171719" stroke-width="1.25" stroke-linejoin="round" stroke-miterlimit="10" d="M159.68 196.44c-33.57 13.64-4.02 40.63-54.45 61.58M426.51 51.8c-33.57 13.64-4.02 40.63-54.45 61.58"/><g fill="#171719"><path d="M200.67 140.54h3.96c2.98 0 4.1 1.77 4.1 4.81 0 3.1-1.19 4.8-4.1 4.8h-3.96v-9.61zm3.93 8.33c1.82 0 2.62-.82 2.62-2.71v-1.61c0-2-.94-2.73-2.62-2.73h-2.49v7.05h2.49zM215.1 140.42c2.83 0 4.54 1.83 4.54 4.94 0 3.08-1.67 4.92-4.54 4.92-2.86 0-4.55-1.83-4.55-4.92 0-3.11 1.72-4.94 4.55-4.94zm0 8.58c1.94 0 3.03-1.2 3.03-2.98v-1.36c0-1.9-1.23-2.97-3.03-2.97-1.94 0-3.03 1.19-3.03 2.97v1.36c0 1.9 1.21 2.98 3.03 2.98zM221.99 140.54h1.87l2.85 6.54h.08l2.86-6.54h1.86v9.61h-1.4v-4.9l.11-2.78h-.08l-3.38 7.51-3.39-7.51h-.09l.12 2.79v4.89h-1.41v-9.61zM241.8 144.24v5.91h-1.44v-2.21h-4.61v2.21h-1.44v-5.91l3.15-3.71h1.19l3.15 3.71zm-1.43 2.49v-2.1l-2.24-2.72H238l-2.24 2.72v2.1h4.61zM248.12 141.82v7.05h2.54v1.28h-6.54v-1.28h2.56v-7.05h-2.56v-1.28h6.54v1.28h-2.54zM253.01 140.54h1.74l4.79 7.73h.07l-.09-2.88v-4.85h1.42v9.61h-1.74l-4.77-7.73h-.07l.09 2.77v4.96h-1.44v-9.61zM267.76 140.54h4.64c1.75 0 2.65.98 2.65 2.44 0 1.03-.49 1.82-1.37 2.16v.11c1.11.28 1.62 1.16 1.62 2.33 0 1.54-1.09 2.57-2.97 2.57h-4.57v-9.61zm4.47 4.14c.84 0 1.34-.46 1.34-1.19v-.63c0-.71-.49-1.16-1.36-1.16h-3.05v2.98h3.07zm-.08 4.31c1.02 0 1.63-.49 1.63-1.24v-.65c0-.86-.57-1.28-1.46-1.28h-3.15v3.16h2.98zM281.66 140.42c2.83 0 4.54 1.83 4.54 4.94 0 3.08-1.67 4.92-4.54 4.92-2.86 0-4.55-1.83-4.55-4.92 0-3.11 1.71-4.94 4.55-4.94zm0 8.58c1.94 0 3.03-1.2 3.03-2.98v-1.36c0-1.9-1.23-2.97-3.03-2.97-1.94 0-3.03 1.19-3.03 2.97v1.36c0 1.9 1.21 2.98 3.03 2.98zM288.46 140.54h1.42v5.91c0 1.6.98 2.52 2.5 2.52s2.5-.9 2.5-2.52v-5.91h1.42v6.03c0 2.27-1.52 3.72-3.94 3.72-2.54 0-3.92-1.5-3.92-3.72v-6.03zM299.15 140.54h1.74l4.79 7.73h.07l-.09-2.88v-4.85h1.42v9.61h-1.74l-4.77-7.73h-.07l.09 2.77v4.96h-1.44v-9.61zM309.98 140.54h3.96c2.98 0 4.1 1.77 4.1 4.81 0 3.1-1.19 4.8-4.1 4.8h-3.96v-9.61zm3.93 8.33c1.82 0 2.62-.82 2.62-2.71v-1.61c0-2-.94-2.73-2.62-2.73h-2.49v7.05h2.49zM320.42 140.54h6.49v1.28h-5.05v2.77h4.42v1.21h-4.42v3.07h5.05v1.28h-6.49v-9.61zM329.21 140.54h3.96c2.98 0 4.1 1.77 4.1 4.81 0 3.1-1.19 4.8-4.1 4.8h-3.96v-9.61zm3.93 8.33c1.82 0 2.62-.82 2.62-2.71v-1.61c0-2-.94-2.73-2.62-2.73h-2.49v7.05h2.49zM236.06 161.36c0-3.1 1.65-4.96 4.52-4.96 2.4 0 3.99 1.36 4.23 3.4h-1.49c-.24-1.24-1.2-2.11-2.78-2.11-1.79 0-2.97 1.11-2.97 2.9v1.57c0 1.65 1.16 2.83 2.93 2.83 1.45 0 2.52-.83 2.82-2.12h1.49c-.32 2.08-1.96 3.4-4.34 3.4-2.76.01-4.41-1.81-4.41-4.91zM251.09 156.42c2.83 0 4.54 1.83 4.54 4.94 0 3.08-1.67 4.92-4.54 4.92-2.86 0-4.55-1.83-4.55-4.92 0-3.11 1.72-4.94 4.55-4.94zm0 8.58c1.94 0 3.03-1.2 3.03-2.98v-1.36c0-1.9-1.23-2.97-3.03-2.97-1.94 0-3.03 1.19-3.03 2.97v1.36c0 1.9 1.21 2.98 3.03 2.98zM257.98 156.54h1.74l4.79 7.73h.07l-.09-2.88v-4.85h1.42v9.61h-1.74l-4.77-7.73h-.07l.09 2.77v4.96h-1.44v-9.61zM275 157.82h-2.9v8.33h-1.42v-8.33h-2.9v-1.28H275v1.28zM276.87 156.54h6.49v1.28h-5.05v2.77h4.42v1.21h-4.42v3.07h5.05v1.28h-6.49v-9.61zM288.02 161.3l-2.94-4.76h1.7l1.17 1.96 1.09 1.94h.09l1.15-2 1.12-1.9h1.69l-2.97 4.8 2.98 4.81h-1.7l-1.07-1.73-1.23-2.12h-.08l-1.31 2.2-1.01 1.65h-1.69l3.01-4.85zM301.65 157.82h-2.9v8.33h-1.42v-8.33h-2.9v-1.28h7.22v1.28z"/></g><path fill="#171719" d="M56.73 266.53c4.25 0 6.74 2.73 6.74 7.4s-2.47 7.4-6.74 7.4-6.74-2.73-6.74-7.4 2.49-7.4 6.74-7.4zm0 13.17c3.1 0 4.84-1.92 4.84-4.79v-2.02c0-3.03-1.94-4.75-4.84-4.75-3.1 0-4.84 1.9-4.84 4.75v2.02c0 3.07 1.94 4.79 4.84 4.79zM466.76 26.85h5.83c4.45 0 6.05 2.67 6.05 7.22 0 4.59-1.64 7.2-6.05 7.2h-5.83V26.85zm5.82 12.78c2.81 0 4.17-1.27 4.17-4.37v-2.37c0-3.2-1.46-4.39-4.17-4.39h-4.01v11.13h4.01z"/><g opacity=".9" fill="#171719"><path d="M17.42 138.35c2.8 0 4.43 1.79 4.43 4.86s-1.62 4.86-4.43 4.86-4.43-1.79-4.43-4.86 1.64-4.86 4.43-4.86zm0 8.66c2.04 0 3.19-1.26 3.19-3.15v-1.33c0-1.99-1.27-3.12-3.19-3.12-2.04 0-3.19 1.25-3.19 3.12v1.33c0 2.02 1.28 3.15 3.19 3.15zM23.51 141.16h1.01l.12 1.2h.08c.44-.85 1.31-1.33 2.43-1.33 1.77 0 2.82 1.26 2.82 3.47 0 2.24-1.07 3.48-2.82 3.48-1.16 0-2-.51-2.43-1.33h-.08v3.46h-1.13v-8.95zm5.3 4.03v-1.37c0-1.11-.74-1.86-1.98-1.86-1.31 0-2.2.85-2.2 2.12v.85c0 1.26.88 2.11 2.2 2.11 1.21 0 1.98-.72 1.98-1.85zM34.31 141.03c1.83 0 3.02 1.14 3.02 3.05 0 .22-.01.49-.04.7h-5.01v.39c0 1.2.82 1.99 2.07 1.99.97 0 1.68-.52 1.9-1.26h1.12c-.27 1.31-1.48 2.17-3.04 2.17-1.99 0-3.2-1.37-3.2-3.55-.01-2.19 1.23-3.49 3.18-3.49zm1.89 2.93v-.26c0-1.05-.77-1.75-1.9-1.75-1.2 0-2.03.74-2.03 1.83v.18h3.93zM42.31 141.16v.94h-2.25v5.85h-1.13v-5.79c0-.47.14-1 1.03-1h2.35zM45.45 143.91h2.04v-.52c0-1.08-.64-1.46-1.53-1.46-1.03 0-1.55.49-1.59 1.26h-1.1c.08-1.35 1.12-2.16 2.76-2.16 2.41 0 2.59 1.79 2.59 2.38v3.71h1v.83h-1.16c-.66 0-.86-.3-.88-.77l-.01-.35h-.08c-.3.75-1.2 1.25-2.31 1.25-1.38 0-2.18-.83-2.18-2.08-.02-1.34.92-2.09 2.45-2.09zm-1.32 2.22c0 .69.52 1.04 1.29 1.04 1.29 0 2.07-.86 2.07-2.08v-.36h-1.94c-.92 0-1.42.42-1.42.99v.41zM53.57 147.01v.94h-1.56c-.73 0-.99-.38-.99-.95v-4.9h-1.23v-.94h1.23v-2.25h1.12v2.25h1.42v.94h-1.42v4.92h1.43zM54.97 138.42h1.12v1.48h-1.12v-1.48zm0 2.74h1.12v6.79h-1.12v-6.79zM60.92 141.03c1.91 0 3.25 1.27 3.25 3.52 0 2.12-1.18 3.52-3.25 3.52-2.04 0-3.26-1.38-3.26-3.52 0-2.22 1.33-3.52 3.26-3.52zm0 6.11c1.16 0 2.11-.72 2.11-2.03v-1.05c0-1.26-.9-2.08-2.11-2.08-1.22 0-2.11.83-2.11 2.08v1.05c.01 1.33.97 2.03 2.11 2.03zM65.75 141.16h.99l.14 1.26h.09c.42-.87 1.27-1.39 2.29-1.39 1.48 0 2.35 1.07 2.35 2.74v4.17h-1.13v-4.06c0-1.27-.57-1.86-1.6-1.86-1.2 0-2 .95-2 2.37v3.55h-1.13v-6.78zM75.56 143.91h2.04v-.52c0-1.08-.64-1.46-1.53-1.46-1.03 0-1.55.49-1.59 1.26h-1.11c.08-1.35 1.12-2.16 2.76-2.16 2.4 0 2.59 1.79 2.59 2.38v3.71h1v.83h-1.16c-.66 0-.86-.3-.88-.77l-.01-.35h-.08c-.3.75-1.2 1.25-2.31 1.25-1.38 0-2.18-.83-2.18-2.08-.01-1.34.94-2.09 2.46-2.09zm-1.31 2.22c0 .69.52 1.04 1.29 1.04 1.29 0 2.07-.86 2.07-2.08v-.36h-1.94c-.92 0-1.42.42-1.42.99v.41zM81 138.42h1.12v9.53H81v-9.53zM16.2 166.08c-2.03 0-3.22-1.38-3.22-3.51 0-2.26 1.34-3.54 3.26-3.54 1.57 0 2.72.92 2.94 2.34h-1.12c-.23-.95-.96-1.39-1.87-1.39-1.22 0-2.05.87-2.05 2.12v1.03c0 1.22.82 2.02 2.05 2.02 1.01 0 1.74-.58 1.91-1.51h1.12c-.23 1.5-1.38 2.44-3.02 2.44zM22.8 161.91h2.04v-.52c0-1.08-.64-1.46-1.53-1.46-1.03 0-1.55.49-1.59 1.26h-1.1c.08-1.35 1.12-2.16 2.76-2.16 2.41 0 2.59 1.79 2.59 2.38v3.71h1v.83H25.8c-.66 0-.86-.3-.88-.77l-.01-.35h-.08c-.3.75-1.2 1.25-2.31 1.25-1.38 0-2.18-.83-2.18-2.08-.01-1.34.94-2.09 2.46-2.09zm-1.32 2.22c0 .69.52 1.04 1.29 1.04 1.29 0 2.07-.86 2.07-2.08v-.36H22.9c-.92 0-1.42.42-1.42.99v.41zM28.24 159.16h1.01l.12 1.2h.08c.44-.85 1.31-1.33 2.43-1.33 1.77 0 2.82 1.26 2.82 3.47 0 2.24-1.07 3.48-2.82 3.48-1.16 0-2-.51-2.43-1.33h-.08v3.46h-1.13v-8.95zm5.3 4.03v-1.37c0-1.11-.74-1.86-1.98-1.86-1.31 0-2.2.85-2.2 2.12v.85c0 1.26.88 2.11 2.2 2.11 1.22 0 1.98-.72 1.98-1.85zM38.27 161.91h2.04v-.52c0-1.08-.64-1.46-1.53-1.46-1.03 0-1.55.49-1.59 1.26h-1.1c.08-1.35 1.12-2.16 2.76-2.16 2.41 0 2.59 1.79 2.59 2.38v3.71h1v.83h-1.16c-.66 0-.86-.3-.88-.77l-.01-.35h-.09c-.3.75-1.2 1.25-2.31 1.25-1.38 0-2.18-.83-2.18-2.08-.01-1.34.94-2.09 2.46-2.09zm-1.31 2.22c0 .69.52 1.04 1.29 1.04 1.29 0 2.07-.86 2.07-2.08v-.36h-1.94c-.92 0-1.42.42-1.42.99v.41zM43.71 156.42h1.13v4.04h.08c.36-.86 1.29-1.43 2.37-1.43 1.94 0 2.87 1.39 2.87 3.55 0 2.24-1.04 3.5-2.94 3.5-.99 0-1.9-.49-2.3-1.31h-.08l-.1 1.18h-1.03v-9.53zm3.33 8.72c1.24 0 1.98-.75 1.98-1.86v-1.4c0-1.17-.77-1.9-1.98-1.9-1.29 0-2.2.9-2.2 2.16v.88c0 1.2.91 2.12 2.2 2.12zM51.78 156.42h1.12v1.48h-1.12v-1.48zm0 2.74h1.12v6.79h-1.12v-6.79zM54.9 156.42h1.12v9.53H54.9v-9.53zM58.02 156.42h1.12v1.48h-1.12v-1.48zm0 2.74h1.12v6.79h-1.12v-6.79zM64.13 165.01v.94h-1.56c-.73 0-.99-.38-.99-.95v-4.9h-1.24v-.94h1.24v-2.25h1.12v2.25h1.42v.94H62.7v4.92h1.43zM66.19 159.16l.99 2.22 1.11 2.6h.08l2.12-4.82h1.24l-2.82 5.99v1.96c0 .4-.08 1-.99 1h-1.73v-.92h1.6v-2.05l-2.82-5.98h1.22zM13.53 177.16h1.01l.12 1.2h.08c.44-.85 1.31-1.33 2.43-1.33 1.77 0 2.82 1.26 2.82 3.47 0 2.24-1.07 3.48-2.82 3.48-1.16 0-2-.51-2.43-1.33h-.08v3.46h-1.13v-8.95zm5.31 4.03v-1.37c0-1.11-.74-1.86-1.98-1.86-1.31 0-2.2.85-2.2 2.12v.85c0 1.26.88 2.11 2.2 2.11 1.21 0 1.98-.72 1.98-1.85zM24.97 177.16v.94h-2.25v5.85h-1.13v-5.79c0-.47.14-1 1.03-1h2.35zM28.85 177.03c1.91 0 3.25 1.27 3.25 3.52 0 2.12-1.18 3.52-3.25 3.52-2.04 0-3.26-1.38-3.26-3.52-.01-2.22 1.32-3.52 3.26-3.52zm0 6.11c1.16 0 2.11-.72 2.11-2.03v-1.05c0-1.26-.9-2.08-2.11-2.08-1.22 0-2.11.83-2.11 2.08v1.05c0 1.33.96 2.03 2.11 2.03zM33.78 177.16l1.2 3.61.66 2.01h.08l.62-2.01 1.2-3.61h1.23l-2.42 6.79h-1.34l-2.47-6.79h1.24zM39.91 174.42h1.12v1.48h-1.12v-1.48zm0 2.74h1.12v6.79h-1.12v-6.79zM42.62 180.61c0-2.24 1.07-3.48 2.82-3.48 1.16 0 2 .51 2.43 1.33h.08v-4.03h1.13v9.53h-1.01l-.12-1.18h-.08c-.44.83-1.31 1.31-2.43 1.31-1.77-.01-2.82-1.27-2.82-3.48zm5.33.41v-.85c0-1.26-.88-2.11-2.2-2.11-1.21 0-1.98.71-1.98 1.85v1.37c0 1.1.74 1.86 1.98 1.86 1.32 0 2.2-.84 2.2-2.12zM53.84 177.03c1.83 0 3.02 1.14 3.02 3.05 0 .22-.01.49-.04.7h-5.01v.39c0 1.2.82 1.99 2.07 1.99.98 0 1.68-.52 1.9-1.26h1.12c-.27 1.31-1.48 2.17-3.04 2.17-1.99 0-3.2-1.37-3.2-3.55-.01-2.19 1.23-3.49 3.18-3.49zm1.9 2.93v-.26c0-1.05-.77-1.75-1.9-1.75-1.2 0-2.03.74-2.03 1.83v.18h3.93zM58.04 180.61c0-2.24 1.07-3.48 2.82-3.48 1.16 0 2 .51 2.43 1.33h.08v-4.03h1.13v9.53h-1.01l-.12-1.18h-.08c-.44.83-1.31 1.31-2.43 1.31-1.77-.01-2.82-1.27-2.82-3.48zm5.33.41v-.85c0-1.26-.88-2.11-2.2-2.11-1.21 0-1.98.71-1.98 1.85v1.37c0 1.1.74 1.86 1.98 1.86 1.31 0 2.2-.84 2.2-2.12zM15.43 197.91h2.04v-.52c0-1.08-.64-1.46-1.53-1.46-1.03 0-1.55.49-1.59 1.26h-1.1c.08-1.35 1.12-2.16 2.76-2.16 2.41 0 2.59 1.79 2.59 2.38v3.71h1v.83h-1.16c-.66 0-.86-.3-.88-.77l-.01-.35h-.08c-.3.75-1.2 1.25-2.31 1.25-1.38 0-2.18-.83-2.18-2.08-.02-1.34.93-2.09 2.45-2.09zm-1.31 2.22c0 .69.52 1.04 1.29 1.04 1.29 0 2.07-.86 2.07-2.08v-.36h-1.94c-.92 0-1.42.42-1.42.99v.41zM20.87 195.16h.99l.14 1.26h.09c.42-.87 1.27-1.39 2.29-1.39 1.48 0 2.35 1.07 2.35 2.74v4.17H25.6v-4.06c0-1.27-.57-1.86-1.6-1.86-1.2 0-2 .95-2 2.37v3.55h-1.13v-6.78zM28.26 198.61c0-2.24 1.07-3.48 2.82-3.48 1.16 0 2 .51 2.43 1.33h.08v-4.03h1.13v9.53h-1.01l-.12-1.18h-.08c-.44.83-1.31 1.31-2.43 1.31-1.76-.01-2.82-1.27-2.82-3.48zm5.33.41v-.85c0-1.26-.88-2.11-2.2-2.11-1.21 0-1.98.71-1.98 1.85v1.37c0 1.1.74 1.86 1.98 1.86 1.32 0 2.2-.84 2.2-2.12zM42.72 195.03c1.91 0 3.25 1.27 3.25 3.52 0 2.12-1.18 3.52-3.25 3.52-2.04 0-3.26-1.38-3.26-3.52 0-2.22 1.32-3.52 3.26-3.52zm0 6.11c1.16 0 2.11-.72 2.11-2.03v-1.05c0-1.26-.9-2.08-2.11-2.08-1.22 0-2.11.83-2.11 2.08v1.05c0 1.33.97 2.03 2.11 2.03zM55.97 195.16l-1.9 6.79H52.6l-.87-3.48-.44-1.92h-.08l-.42 1.92-.83 3.48h-1.5l-1.91-6.79h1.22l.95 3.6.44 2.07h.09l1.33-5.67h1.37l1.39 5.64h.06l.44-2 .94-3.64h1.19zM57.18 195.16h.99l.14 1.26h.09c.42-.87 1.27-1.39 2.29-1.39 1.48 0 2.35 1.07 2.35 2.74v4.17h-1.13v-4.06c0-1.27-.57-1.86-1.6-1.86-1.2 0-2 .95-2 2.37v3.55h-1.13v-6.78zM67.74 195.03c1.83 0 3.02 1.14 3.02 3.05 0 .22-.01.49-.04.7h-5v.39c0 1.2.82 1.99 2.07 1.99.98 0 1.68-.52 1.9-1.26h1.12c-.27 1.31-1.48 2.17-3.04 2.17-1.99 0-3.2-1.37-3.2-3.55-.02-2.19 1.22-3.49 3.17-3.49zm1.9 2.93v-.26c0-1.05-.77-1.75-1.9-1.75-1.2 0-2.03.74-2.03 1.83v.18h3.93zM71.94 198.61c0-2.24 1.07-3.48 2.82-3.48 1.16 0 2 .51 2.43 1.33h.08v-4.03h1.13v9.53h-1.01l-.12-1.18h-.08c-.44.83-1.31 1.31-2.43 1.31-1.77-.01-2.82-1.27-2.82-3.48zm5.33.41v-.85c0-1.26-.88-2.11-2.2-2.11-1.21 0-1.98.71-1.98 1.85v1.37c0 1.1.74 1.86 1.98 1.86 1.31 0 2.2-.84 2.2-2.12zM13.53 210.42h1.13v4.04h.08c.36-.86 1.29-1.43 2.37-1.43 1.94 0 2.87 1.39 2.87 3.55 0 2.24-1.04 3.5-2.94 3.5-.99 0-1.9-.49-2.3-1.31h-.08l-.1 1.18h-1.03v-9.53zm3.33 8.72c1.24 0 1.98-.75 1.98-1.86v-1.4c0-1.17-.77-1.9-1.98-1.9-1.29 0-2.2.9-2.2 2.16v.88c0 1.2.91 2.12 2.2 2.12zM21.62 213.16l.99 2.22 1.1 2.6h.08l2.12-4.82h1.23l-2.82 5.99v1.96c0 .4-.08 1-.99 1H21.6v-.92h1.6v-2.05l-2.82-5.98h1.24zM34.11 219.01v.94h-1.56c-.73 0-.99-.38-.99-.95v-4.9h-1.23v-.94h1.23v-2.25h1.12v2.25h1.42v.94h-1.42v4.92h1.43zM35.51 210.42h1.13v3.98h.08c.42-.86 1.29-1.37 2.29-1.37 1.48 0 2.35 1.05 2.35 2.73v4.19h-1.12v-4.07c0-1.29-.58-1.9-1.61-1.9-1.2 0-1.99.95-1.99 2.38v3.59h-1.13v-9.53zM46.05 213.03c1.83 0 3.02 1.14 3.02 3.05 0 .22-.01.49-.04.7h-5.01v.39c0 1.2.82 1.99 2.07 1.99.97 0 1.68-.52 1.9-1.26h1.12c-.27 1.31-1.48 2.17-3.04 2.17-1.99 0-3.2-1.37-3.2-3.55 0-2.19 1.23-3.49 3.18-3.49zm1.9 2.93v-.26c0-1.05-.77-1.75-1.9-1.75-1.2 0-2.03.74-2.03 1.83v.18h3.93zM53.28 216.61c0-2.24 1.07-3.48 2.82-3.48 1.16 0 2 .51 2.43 1.33h.08v-4.03h1.13v9.53h-1.01l-.12-1.18h-.08c-.44.83-1.31 1.31-2.43 1.31-1.77-.01-2.82-1.27-2.82-3.48zm5.33.41v-.85c0-1.26-.88-2.11-2.2-2.11-1.21 0-1.98.71-1.98 1.85v1.37c0 1.1.74 1.86 1.98 1.86 1.31 0 2.2-.84 2.2-2.12zM64.57 213.03c1.91 0 3.25 1.27 3.25 3.52 0 2.12-1.18 3.52-3.25 3.52-2.04 0-3.26-1.38-3.26-3.52 0-2.22 1.33-3.52 3.26-3.52zm0 6.11c1.16 0 2.11-.72 2.11-2.03v-1.05c0-1.26-.9-2.08-2.11-2.08-1.22 0-2.11.83-2.11 2.08v1.05c.01 1.33.97 2.03 2.11 2.03zM69.4 213.16h.98l.14 1.26h.1c.43-.99 1.17-1.39 2.09-1.39 1.04 0 1.74.62 1.99 1.48h.1c.4-1.01 1.24-1.48 2.22-1.48 1.42 0 2.26.97 2.26 2.68v4.24h-1.13v-4.09c0-1.34-.58-1.87-1.48-1.87-1.14 0-1.77.95-1.77 2.37v3.6h-1.1v-4.07c0-1.29-.52-1.9-1.47-1.9-1.09 0-1.79.95-1.79 2.35v3.61H69.4v-6.79zM83.25 215.91h2.04v-.52c0-1.08-.64-1.46-1.53-1.46-1.03 0-1.55.49-1.59 1.26h-1.11c.08-1.35 1.12-2.16 2.76-2.16 2.4 0 2.59 1.79 2.59 2.38v3.71h1v.83h-1.16c-.66 0-.86-.3-.88-.77l-.01-.35h-.08c-.3.75-1.2 1.25-2.31 1.25-1.38 0-2.18-.83-2.18-2.08-.01-1.34.94-2.09 2.46-2.09zm-1.31 2.22c0 .69.52 1.04 1.29 1.04 1.29 0 2.07-.86 2.07-2.08v-.36h-1.94c-.92 0-1.42.42-1.42.99v.41zM88.7 210.42h1.12v1.48H88.7v-1.48zm0 2.74h1.12v6.79H88.7v-6.79zM91.81 213.16h.99l.14 1.26h.09c.42-.87 1.27-1.39 2.29-1.39 1.48 0 2.35 1.07 2.35 2.74v4.17h-1.13v-4.06c0-1.27-.57-1.86-1.6-1.86-1.2 0-2 .95-2 2.37v3.55h-1.13v-6.78z"/></g><g fill="#171719" opacity=".9"><path d="M443.46 89.26v5.82h-1.17v-2.26h-4.88v2.26h-1.18v-5.82l3.08-3.65h1.07l3.08 3.65zm-1.17 2.54v-2.22l-2.38-2.89h-.12l-2.38 2.89v2.22h4.88zM445.55 88.29h.99l.14 1.26h.09c.42-.87 1.27-1.39 2.29-1.39 1.48 0 2.35 1.07 2.35 2.74v4.17h-1.13v-4.06c0-1.27-.57-1.86-1.6-1.86-1.2 0-2 .95-2 2.37v3.55h-1.13v-6.78zM455.36 91.04h2.04v-.52c0-1.08-.64-1.46-1.54-1.46-1.03 0-1.55.49-1.59 1.26h-1.1c.08-1.35 1.12-2.16 2.76-2.16 2.41 0 2.59 1.79 2.59 2.38v3.71h1v.83h-1.16c-.66 0-.86-.3-.88-.77l-.01-.35h-.08c-.3.75-1.2 1.25-2.31 1.25-1.38 0-2.18-.83-2.18-2.08-.01-1.34.94-2.09 2.46-2.09zm-1.32 2.22c0 .69.52 1.04 1.29 1.04 1.29 0 2.07-.86 2.07-2.08v-.36h-1.94c-.92 0-1.42.42-1.42.99v.41zM460.8 85.55h1.12v9.53h-1.12v-9.53zM464.28 88.29l.99 2.22 1.1 2.6h.08l2.12-4.82h1.24l-2.82 5.99v1.96c0 .4-.08 1-.99 1h-1.73v-.92h1.6v-2.05l-2.82-5.98h1.23zM474.24 94.14v.94h-1.56c-.73 0-.99-.38-.99-.95v-4.9h-1.24v-.94h1.24v-2.25h1.12v2.25h1.42v.94h-1.42v4.92h1.43zM475.63 85.55h1.12v1.48h-1.12v-1.48zm0 2.74h1.12v6.79h-1.12v-6.79zM481.55 95.21c-2.03 0-3.22-1.38-3.22-3.51 0-2.26 1.34-3.54 3.26-3.54 1.57 0 2.72.92 2.94 2.34h-1.12c-.23-.95-.96-1.39-1.87-1.39-1.22 0-2.05.87-2.05 2.12v1.03c0 1.22.82 2.02 2.05 2.02 1.01 0 1.74-.58 1.91-1.51h1.12c-.23 1.5-1.38 2.44-3.02 2.44zM488.15 91.04h2.04v-.52c0-1.08-.64-1.46-1.53-1.46-1.03 0-1.55.49-1.59 1.26h-1.11c.08-1.35 1.12-2.16 2.76-2.16 2.4 0 2.59 1.79 2.59 2.38v3.71h1v.83h-1.16c-.66 0-.86-.3-.88-.77l-.01-.35h-.08c-.3.75-1.2 1.25-2.31 1.25-1.38 0-2.18-.83-2.18-2.08-.01-1.34.94-2.09 2.46-2.09zm-1.32 2.22c0 .69.52 1.04 1.29 1.04 1.29 0 2.07-.86 2.07-2.08v-.36h-1.94c-.92 0-1.42.42-1.42.99v.41zM493.59 85.55h1.12v9.53h-1.12v-9.53zM499.44 91.74c0-2.24 1.07-3.48 2.82-3.48 1.16 0 2 .51 2.43 1.33h.08v-4.03h1.13v9.53h-1.01l-.12-1.18h-.08c-.44.83-1.31 1.31-2.43 1.31-1.77-.01-2.82-1.27-2.82-3.48zm5.33.42v-.85c0-1.26-.88-2.11-2.2-2.11-1.21 0-1.98.71-1.98 1.85v1.37c0 1.1.74 1.86 1.98 1.86 1.32-.01 2.2-.85 2.2-2.12zM509.94 91.04h2.04v-.52c0-1.08-.64-1.46-1.53-1.46-1.03 0-1.55.49-1.59 1.26h-1.11c.08-1.35 1.12-2.16 2.76-2.16 2.4 0 2.59 1.79 2.59 2.38v3.71h1v.83h-1.16c-.66 0-.86-.3-.88-.77l-.01-.35h-.08c-.3.75-1.2 1.25-2.31 1.25-1.38 0-2.18-.83-2.18-2.08-.02-1.34.93-2.09 2.46-2.09zm-1.32 2.22c0 .69.52 1.04 1.29 1.04 1.29 0 2.07-.86 2.07-2.08v-.36h-1.94c-.92 0-1.42.42-1.42.99v.41zM518.06 94.14v.94h-1.56c-.73 0-.99-.38-.99-.95v-4.9h-1.24v-.94h1.24v-2.25h1.12v2.25h1.42v.94h-1.42v4.92h1.43zM521.58 91.04h2.04v-.52c0-1.08-.64-1.46-1.53-1.46-1.03 0-1.55.49-1.59 1.26h-1.11c.08-1.35 1.12-2.16 2.76-2.16 2.4 0 2.59 1.79 2.59 2.38v3.71h1v.83h-1.16c-.66 0-.86-.3-.88-.77l-.01-.35h-.08c-.3.75-1.2 1.25-2.31 1.25-1.38 0-2.18-.83-2.18-2.08-.01-1.34.94-2.09 2.46-2.09zm-1.31 2.22c0 .69.52 1.04 1.29 1.04 1.29 0 2.07-.86 2.07-2.08v-.36h-1.94c-.92 0-1.42.42-1.42.99v.41zM436.12 106.29h1.01l.12 1.2h.08c.44-.85 1.31-1.33 2.43-1.33 1.77 0 2.82 1.26 2.82 3.47 0 2.24-1.07 3.48-2.82 3.48-1.16 0-2-.51-2.43-1.33h-.08v3.46h-1.13v-8.95zm5.3 4.03v-1.37c0-1.11-.74-1.86-1.98-1.86-1.31 0-2.2.85-2.2 2.12v.85c0 1.26.88 2.11 2.2 2.11 1.22 0 1.98-.71 1.98-1.85zM447.56 106.29v.94h-2.25v5.85h-1.13v-5.79c0-.47.14-1 1.03-1h2.35zM451.43 106.16c1.91 0 3.25 1.27 3.25 3.52 0 2.12-1.18 3.52-3.25 3.52-2.04 0-3.26-1.38-3.26-3.52 0-2.22 1.33-3.52 3.26-3.52zm0 6.11c1.16 0 2.11-.72 2.11-2.03v-1.05c0-1.26-.9-2.08-2.11-2.08-1.22 0-2.11.83-2.11 2.08v1.05c.01 1.33.97 2.03 2.11 2.03zM456.37 106.29l1.2 3.61.66 2.01h.08l.62-2.01 1.2-3.61h1.24l-2.42 6.79h-1.34l-2.47-6.79h1.23zM462.5 103.55h1.12v1.48h-1.12v-1.48zm0 2.74h1.12v6.79h-1.12v-6.79zM465.21 109.74c0-2.24 1.07-3.48 2.82-3.48 1.16 0 2 .51 2.43 1.33h.08v-4.03h1.13v9.53h-1.01l-.12-1.18h-.08c-.44.83-1.31 1.31-2.43 1.31-1.77-.01-2.82-1.27-2.82-3.48zm5.33.42v-.85c0-1.26-.88-2.11-2.2-2.11-1.21 0-1.98.71-1.98 1.85v1.37c0 1.1.74 1.86 1.98 1.86 1.31-.01 2.2-.85 2.2-2.12zM476.42 106.16c1.83 0 3.02 1.14 3.02 3.05 0 .22-.01.49-.04.7h-5v.39c0 1.2.82 1.99 2.07 1.99.97 0 1.68-.52 1.9-1.26h1.12c-.27 1.31-1.48 2.17-3.04 2.17-1.99 0-3.2-1.37-3.2-3.55-.01-2.19 1.23-3.49 3.17-3.49zm1.9 2.93v-.26c0-1.05-.77-1.75-1.9-1.75-1.2 0-2.03.74-2.03 1.83v.18h3.93zM480.62 109.74c0-2.24 1.07-3.48 2.82-3.48 1.16 0 2 .51 2.43 1.33h.08v-4.03h1.13v9.53h-1.01l-.12-1.18h-.08c-.44.83-1.31 1.31-2.43 1.31-1.76-.01-2.82-1.27-2.82-3.48zm5.33.42v-.85c0-1.26-.88-2.11-2.2-2.11-1.21 0-1.98.71-1.98 1.85v1.37c0 1.1.74 1.86 1.98 1.86 1.32-.01 2.2-.85 2.2-2.12zM494.27 109.04h2.04v-.52c0-1.08-.64-1.46-1.53-1.46-1.03 0-1.55.49-1.59 1.26h-1.11c.08-1.35 1.12-2.16 2.76-2.16 2.4 0 2.59 1.79 2.59 2.38v3.71h1v.83h-1.16c-.66 0-.86-.3-.88-.77l-.01-.35h-.08c-.3.75-1.2 1.25-2.31 1.25-1.38 0-2.18-.83-2.18-2.08-.01-1.34.94-2.09 2.46-2.09zm-1.31 2.22c0 .69.52 1.04 1.29 1.04 1.29 0 2.07-.86 2.07-2.08v-.36h-1.94c-.92 0-1.42.42-1.42.99v.41zM499.72 106.29h.99l.14 1.26h.09c.42-.87 1.27-1.39 2.29-1.39 1.48 0 2.35 1.07 2.35 2.74v4.17h-1.13v-4.06c0-1.27-.57-1.86-1.6-1.86-1.2 0-2 .95-2 2.37v3.55h-1.13v-6.78zM507.11 109.74c0-2.24 1.07-3.48 2.82-3.48 1.16 0 2 .51 2.43 1.33h.08v-4.03h1.13v9.53h-1.01l-.12-1.18h-.08c-.44.83-1.31 1.31-2.43 1.31-1.77-.01-2.82-1.27-2.82-3.48zm5.33.42v-.85c0-1.26-.88-2.11-2.2-2.11-1.21 0-1.98.71-1.98 1.85v1.37c0 1.1.74 1.86 1.98 1.86 1.31-.01 2.2-.85 2.2-2.12zM438.82 124.16c1.91 0 3.25 1.27 3.25 3.52 0 2.12-1.18 3.52-3.25 3.52-2.04 0-3.26-1.38-3.26-3.52 0-2.22 1.33-3.52 3.26-3.52zm0 6.11c1.16 0 2.11-.72 2.11-2.03v-1.05c0-1.26-.9-2.08-2.11-2.08-1.22 0-2.11.83-2.11 2.08v1.05c.01 1.33.97 2.03 2.11 2.03zM452.07 124.29l-1.9 6.79h-1.47l-.87-3.48-.44-1.92h-.08l-.42 1.92-.83 3.48h-1.5l-1.91-6.79h1.22l.95 3.6.44 2.07h.09l1.33-5.67h1.37l1.39 5.64h.07l.44-2 .94-3.64h1.18zM453.29 124.29h.99l.14 1.26h.09c.42-.87 1.27-1.39 2.29-1.39 1.48 0 2.35 1.07 2.35 2.74v4.17h-1.13v-4.06c0-1.27-.57-1.86-1.6-1.86-1.2 0-2 .95-2 2.37v3.55h-1.13v-6.78zM463.84 124.16c1.83 0 3.02 1.14 3.02 3.05 0 .22-.01.49-.04.7h-5v.39c0 1.2.82 1.99 2.07 1.99.97 0 1.68-.52 1.9-1.26h1.12c-.27 1.31-1.48 2.17-3.04 2.17-1.99 0-3.2-1.37-3.2-3.55-.01-2.19 1.22-3.49 3.17-3.49zm1.9 2.93v-.26c0-1.05-.77-1.75-1.9-1.75-1.2 0-2.03.74-2.03 1.83v.18h3.93zM468.04 127.74c0-2.24 1.07-3.48 2.82-3.48 1.16 0 2 .51 2.43 1.33h.08v-4.03h1.13v9.53h-1.01l-.12-1.18h-.08c-.44.83-1.31 1.31-2.43 1.31-1.77-.01-2.82-1.27-2.82-3.48zm5.33.42v-.85c0-1.26-.88-2.11-2.2-2.11-1.21 0-1.98.71-1.98 1.85v1.37c0 1.1.74 1.86 1.98 1.86 1.32-.01 2.2-.85 2.2-2.12zM479.79 121.55h1.13v4.04h.08c.36-.86 1.29-1.43 2.37-1.43 1.94 0 2.87 1.39 2.87 3.55 0 2.24-1.04 3.5-2.94 3.5-.99 0-1.9-.49-2.3-1.31h-.08l-.1 1.18h-1.03v-9.53zm3.33 8.72c1.24 0 1.98-.75 1.98-1.86v-1.4c0-1.17-.77-1.9-1.98-1.9-1.29 0-2.2.9-2.2 2.16v.88c0 1.2.91 2.12 2.2 2.12zM487.88 124.29l.99 2.22 1.11 2.6h.08l2.12-4.82h1.23l-2.82 5.99v1.96c0 .4-.08 1-.99 1h-1.73v-.92h1.6v-2.05l-2.82-5.98h1.23zM438.94 148.14v.94h-1.56c-.73 0-.99-.38-.99-.95v-4.9h-1.23v-.94h1.23v-2.25h1.12v2.25h1.42v.94h-1.42v4.92h1.43zM440.34 139.55h1.13v3.98h.08c.42-.86 1.29-1.37 2.29-1.37 1.48 0 2.35 1.05 2.35 2.73v4.19h-1.12v-4.07c0-1.29-.58-1.9-1.61-1.9-1.2 0-1.99.95-1.99 2.38v3.59h-1.13v-9.53zM450.88 142.16c1.83 0 3.02 1.14 3.02 3.05 0 .22-.01.49-.04.7h-5.01v.39c0 1.2.82 1.99 2.07 1.99.98 0 1.68-.52 1.9-1.26h1.12c-.27 1.31-1.48 2.17-3.04 2.17-1.99 0-3.2-1.37-3.2-3.55-.01-2.19 1.23-3.49 3.18-3.49zm1.9 2.93v-.26c0-1.05-.77-1.75-1.9-1.75-1.2 0-2.03.74-2.03 1.83v.18h3.93zM458.11 145.74c0-2.24 1.07-3.48 2.82-3.48 1.16 0 2 .51 2.43 1.33h.08v-4.03h1.13v9.53h-1.01l-.12-1.18h-.08c-.44.83-1.31 1.31-2.43 1.31-1.77-.01-2.82-1.27-2.82-3.48zm5.33.42v-.85c0-1.26-.88-2.11-2.2-2.11-1.21 0-1.98.71-1.98 1.85v1.37c0 1.1.74 1.86 1.98 1.86 1.31-.01 2.2-.85 2.2-2.12zM469.4 142.16c1.91 0 3.25 1.27 3.25 3.52 0 2.12-1.18 3.52-3.25 3.52-2.04 0-3.26-1.38-3.26-3.52 0-2.22 1.33-3.52 3.26-3.52zm0 6.11c1.16 0 2.11-.72 2.11-2.03v-1.05c0-1.26-.9-2.08-2.11-2.08-1.22 0-2.11.83-2.11 2.08v1.05c.01 1.33.97 2.03 2.11 2.03zM474.23 142.29h.98l.14 1.26h.1c.43-.99 1.17-1.39 2.09-1.39 1.04 0 1.74.62 1.99 1.48h.1c.4-1.01 1.24-1.48 2.22-1.48 1.42 0 2.26.97 2.26 2.68v4.24h-1.13v-4.09c0-1.34-.58-1.87-1.48-1.87-1.14 0-1.77.95-1.77 2.37v3.6h-1.12v-4.07c0-1.29-.52-1.9-1.47-1.9-1.09 0-1.79.95-1.79 2.35v3.61h-1.13v-6.79zM488.08 145.04h2.04v-.52c0-1.08-.64-1.46-1.53-1.46-1.03 0-1.55.49-1.59 1.26h-1.11c.08-1.35 1.12-2.16 2.76-2.16 2.4 0 2.59 1.79 2.59 2.38v3.71h1v.83h-1.16c-.66 0-.86-.3-.88-.77l-.01-.35h-.08c-.3.75-1.2 1.25-2.31 1.25-1.38 0-2.18-.83-2.18-2.08-.01-1.34.94-2.09 2.46-2.09zm-1.31 2.22c0 .69.52 1.04 1.29 1.04 1.29 0 2.07-.86 2.07-2.08v-.36h-1.94c-.92 0-1.42.42-1.42.99v.41zM493.52 139.55h1.12v1.48h-1.12v-1.48zm0 2.74h1.12v6.79h-1.12v-6.79zM496.64 142.29h.99l.14 1.26h.09c.42-.87 1.27-1.39 2.29-1.39 1.48 0 2.35 1.07 2.35 2.74v4.17h-1.13v-4.06c0-1.27-.57-1.86-1.6-1.86-1.2 0-2 .95-2 2.37v3.55h-1.13v-6.78z"/></g></svg>