<?xml version="1.0" encoding="UTF-8"?>
<svg id="_2026_02_04" data-name="2026_02_04" xmlns="http://www.w3.org/2000/svg" xmlns:xlink="http://www.w3.org/1999/xlink" viewBox="0 0 1469.15 718.39">
  <defs>
    <style>
      .cls-1, .cls-2, .cls-3 {
        fill: none;
      }

      .cls-4 {
        fill: #e1daf9;
      }

      .cls-4, .cls-2, .cls-5, .cls-6, .cls-3 {
        stroke-linecap: round;
        stroke-linejoin: round;
        stroke-width: .5px;
      }

      .cls-4, .cls-5, .cls-6, .cls-3 {
        stroke: #000;
      }

      .cls-2 {
        stroke: #231f20;
      }

      .cls-5 {
        fill: #ede7fb;
      }

      .cls-7 {
        clip-path: url(#clippath-1);
      }

      .cls-8 {
        opacity: .3;
      }

      .cls-9 {
        clip-path: url(#clippath);
      }
    </style>
    <clipPath id="clippath">
      <rect class="cls-1" x="-2516.22" y="-1646.23" width="1500" height="1280.84"/>
    </clipPath>
    <clipPath id="clippath-1">
      <rect class="cls-1" x="-2516.22" y="-1413.59" width="1500" height="1048.2"/>
    </clipPath>
  </defs>
  <g id="_1" data-name="1">
    <g class="cls-9">
      <g class="cls-7">
        <g class="cls-8">
          <polygon class="cls-2" points="-3644.24 -745.35 -1766.19 -1829.64 111.81 -745.38 -1766.24 338.92 -3644.24 -745.35"/>
          <line class="cls-2" x1="-1803.8" y1="317.23" x2="74.25" y2="-767.06"/>
          <line class="cls-2" x1="-1841.36" y1="295.54" x2="36.69" y2="-788.75"/>
        </g>
      </g>
    </g>
  </g>
  <g>
    <g>
      <polygon class="cls-5" points="734.58 137.16 517.36 262.57 734.57 387.98 951.79 262.57 734.58 137.16"/>
      <polygon class="cls-5" points="734.57 407.63 517.36 282.23 517.36 262.57 734.57 387.98 734.57 407.63"/>
      <polygon class="cls-5" points="734.57 407.63 951.79 282.23 951.79 262.57 734.57 387.98 734.57 407.63"/>
    </g>
    <g>
      <polygon class="cls-4" points="698.23 184.36 599.16 241.56 635.42 319.7 770.75 340.63 869.82 283.43 833.56 205.3 698.23 184.36"/>
      <g>
        <polyline class="cls-3" points="683.45 192.68 698.15 184.19 833.77 205.17 858.46 258.37"/>
        <polyline class="cls-3" points="861.96 265.92 870.12 283.48 770.84 340.8 635.21 319.81 619.85 286.72"/>
        <polyline class="cls-3" points="673.87 198.21 598.87 241.51 616.35 279.2"/>
        <polyline class="cls-3" points="770.84 340.8 713.51 307.7 684.85 291.15 656.19 274.61 598.87 241.51 677.17 229.4 716.32 223.34 755.47 217.29 833.77 205.17 784.13 233.83 771.02 241.4"/>
        <polyline class="cls-3" points="761.45 246.93 734.49 262.49 684.85 291.15 635.21 319.81"/>
        <polyline class="cls-3" points="722.23 306.35 713.51 307.7 635.21 319.81 656.19 274.61 666.68 252 677.17 229.4 698.15 184.19 755.47 217.29 784.13 233.83 812.79 250.38 870.12 283.48 791.82 295.6 752.67 301.65 735.3 304.33"/>
        <line class="cls-3" x1="598.87" y1="241.52" x2="870.12" y2="283.48"/>
        <polyline class="cls-3" points="698.15 184.19 770.83 340.8 833.78 205.17"/>
        <path class="cls-6" d="M771.03,241.4c-2.64-1.53-6.93-1.53-9.57,0-2.64,1.53-2.64,4,0,5.53,2.64,1.53,6.93,1.53,9.57,0s2.64-4,0-5.53Z"/>
        <path class="cls-6" d="M733.57,302.63c-2.64-1.53-6.93-1.53-9.57,0-2.64,1.53-2.64,4,0,5.53,2.64,1.53,6.93,1.53,9.57,0,2.64-1.53,2.64-4,0-5.53Z"/>
        <path class="cls-6" d="M623.43,280.11c-2.64-1.53-6.93-1.53-9.57,0-2.64,1.53-2.64,4,0,5.53s6.93,1.53,9.57,0c2.64-1.53,2.64-4,0-5.53Z"/>
        <path class="cls-6" d="M865.01,259.37c-2.64-1.53-6.93-1.53-9.57,0-2.64,1.53-2.64,4,0,5.53,2.64,1.53,6.93,1.53,9.57,0,2.64-1.53,2.64-4,0-5.53Z"/>
        <path class="cls-6" d="M683.45,192.68c-2.64-1.53-6.93-1.53-9.57,0-2.64,1.53-2.64,4,0,5.53,2.64,1.53,6.93,1.53,9.57,0s2.64-4,0-5.53Z"/>
      </g>
    </g>
    <rect class="cls-1" width="1469.15" height="718.39"/>
  </g>
</svg>