<svg width="603" height="405" viewBox="0 0 603 405" fill="none" xmlns="http://www.w3.org/2000/svg">
<rect y="113" width="148" height="43" rx="4" fill="white" fill-opacity="0.05"/>
<path d="M20.784 129.336V130.664H17.168V141H15.728V130.664H12.08V129.336H20.784ZM19.9693 138.712C19.9693 136.936 21.2973 136.024 23.3133 136.024H25.5373V135.4C25.5373 134.104 24.7693 133.592 23.6173 133.592C22.4493 133.592 21.7133 134.184 21.6653 135.08H20.3213C20.4493 133.512 21.7933 132.488 23.6813 132.488C25.8093 132.488 26.9133 133.656 26.9133 135.512V139.32C26.9133 139.64 26.9293 139.96 27.4253 139.96C27.5373 139.96 27.6653 139.944 27.7292 139.928V141C27.5052 141.064 27.2173 141.096 27.0253 141.096C26.1293 141.096 25.6173 140.616 25.6173 139.624H25.5213C25.1533 140.552 24.0493 141.16 22.7533 141.16C21.0893 141.16 19.9693 140.168 19.9693 138.712ZM21.3932 138.552C21.3932 139.496 22.0493 140.008 23.0413 140.008C24.5453 140.008 25.5373 138.952 25.5373 137.48V137.032H23.4253C22.0333 137.032 21.3932 137.624 21.3932 138.552ZM29.7045 141V132.648H30.9205L31.0965 134.344H31.1925C31.6725 133.096 32.6645 132.52 33.8965 132.52V133.768C32.0245 133.8 31.0965 134.984 31.0965 137.144V141H29.7045ZM34.7014 141.848C34.7014 141.048 35.2134 140.44 35.9654 140.216V140.104C35.4694 139.944 35.1334 139.48 35.1334 138.968C35.1334 138.296 35.5814 137.784 36.2214 137.592V137.496C35.4534 137.016 35.0214 136.2 35.0214 135.256C35.0214 133.592 36.3174 132.488 38.1574 132.488C38.7494 132.488 39.3574 132.616 39.7414 132.84C40.0774 131.96 40.9734 131.368 42.1254 131.368V132.52C41.3574 132.52 40.7334 132.856 40.5734 133.352C41.0534 133.832 41.3414 134.504 41.3414 135.304C41.3414 136.92 40.1094 138.024 38.2534 138.024C37.8694 138.024 37.4534 137.976 37.1174 137.896C36.6534 137.976 36.3974 138.28 36.3974 138.664C36.3974 139.352 37.1494 139.384 37.5174 139.384H39.7254C41.3254 139.384 42.2374 140.184 42.2374 141.464C42.2374 143.112 40.6694 143.896 38.2214 143.896C35.7734 143.896 34.7014 143.064 34.7014 141.848ZM36.3974 135.272C36.3974 136.392 37.1174 137.032 38.1894 137.032C39.3254 137.032 39.9814 136.328 39.9814 135.272C39.9814 134.152 39.2614 133.496 38.1894 133.496C37.0534 133.496 36.3974 134.216 36.3974 135.272ZM35.9654 141.624C35.9654 142.456 36.7014 142.856 38.2854 142.856C40.1254 142.856 40.8614 142.344 40.8614 141.512C40.8614 140.536 39.8054 140.536 39.5974 140.536H37.3414C36.3974 140.536 35.9654 140.968 35.9654 141.624ZM47.1716 141.16C44.8196 141.16 43.2196 139.48 43.2196 136.84C43.2196 134.2 44.8036 132.488 47.1556 132.488C49.5076 132.488 50.8516 133.992 50.8516 136.248C50.8516 136.52 50.8356 136.872 50.8036 137.112H44.6276C44.5956 138.984 45.6196 140.024 47.2036 140.024C48.4516 140.024 49.3156 139.384 49.5236 138.488H50.9156C50.6276 140.072 49.1716 141.16 47.1716 141.16ZM44.6436 136.088H49.4756C49.4756 134.504 48.6276 133.624 47.1396 133.624C45.6836 133.624 44.6916 134.6 44.6436 136.088ZM58.473 129.416H59.849V131.24H58.473V129.416ZM59.849 132.648V141H58.473V133.8H54.649V138.584C54.649 139.096 54.697 139.928 55.769 139.928C56.089 139.928 56.329 139.896 56.521 139.832V141C56.201 141.08 55.801 141.128 55.529 141.128C53.801 141.128 53.273 140.12 53.273 138.744V133.8H51.833V132.648H53.273V130.12L54.649 129.592V132.648H59.849ZM62.6264 141V132.648H63.8424L64.0184 134.2H64.1304C64.6424 133.128 65.6984 132.488 66.9464 132.488C68.7704 132.488 69.8424 133.8 69.8424 135.864V141H68.4504V136.008C68.4504 134.44 67.7464 133.72 66.4824 133.72C65.0104 133.72 64.0184 134.888 64.0184 136.632V141H62.6264ZM71.717 141.848C71.717 141.048 72.229 140.44 72.981 140.216V140.104C72.485 139.944 72.149 139.48 72.149 138.968C72.149 138.296 72.597 137.784 73.237 137.592V137.496C72.469 137.016 72.037 136.2 72.037 135.256C72.037 133.592 73.333 132.488 75.173 132.488C75.765 132.488 76.373 132.616 76.757 132.84C77.093 131.96 77.989 131.368 79.141 131.368V132.52C78.373 132.52 77.749 132.856 77.589 133.352C78.069 133.832 78.357 134.504 78.357 135.304C78.357 136.92 77.125 138.024 75.269 138.024C74.885 138.024 74.469 137.976 74.133 137.896C73.669 137.976 73.413 138.28 73.413 138.664C73.413 139.352 74.165 139.384 74.533 139.384H76.741C78.341 139.384 79.253 140.184 79.253 141.464C79.253 143.112 77.685 143.896 75.237 143.896C72.789 143.896 71.717 143.064 71.717 141.848ZM73.413 135.272C73.413 136.392 74.133 137.032 75.205 137.032C76.341 137.032 76.997 136.328 76.997 135.272C76.997 134.152 76.277 133.496 75.205 133.496C74.069 133.496 73.413 134.216 73.413 135.272ZM72.981 141.624C72.981 142.456 73.717 142.856 75.301 142.856C77.141 142.856 77.877 142.344 77.877 141.512C77.877 140.536 76.821 140.536 76.613 140.536H74.357C73.413 140.536 72.981 140.968 72.981 141.624ZM93.4855 135.464C93.2935 136.584 92.8135 137.88 92.2855 138.76L94.3495 141H92.6375L91.4695 139.72C90.5735 140.712 89.2135 141.16 87.8375 141.16C85.7095 141.16 84.2215 140.008 84.2215 138.152C84.2215 136.776 85.0375 135.736 86.7655 134.728V134.6C85.5335 133.416 85.1175 132.76 85.1175 131.784C85.1175 130.232 86.2535 129.208 88.0295 129.208C89.7255 129.208 90.8295 130.2 90.8295 131.704C90.8295 132.76 90.2855 133.64 88.7015 134.712V134.856L91.4535 137.864C91.9015 136.872 92.1255 136.008 92.2535 135.16L93.4855 135.464ZM86.4455 131.768C86.4455 132.44 86.7335 133.048 87.7575 133.992H87.9015C89.1815 133.064 89.5175 132.36 89.5175 131.72C89.5175 130.872 88.9095 130.312 87.9975 130.312C87.0695 130.312 86.4455 130.888 86.4455 131.768ZM85.6135 138.024C85.6135 139.256 86.5255 139.992 87.9495 139.992C89.1015 139.992 90.1255 139.544 90.6855 138.872L87.5815 135.464C86.0295 136.312 85.6135 137.192 85.6135 138.024ZM100.022 141V129.336H107.654V130.664H101.478V135.128H107.014V136.392H101.478V141H100.022ZM109.58 131.24V129.416H110.956V131.24H109.58ZM109.58 141V132.648H110.956V141H109.58ZM113.736 141V132.648H114.952L115.128 134.344H115.224C115.704 133.096 116.696 132.52 117.928 132.52V133.768C116.056 133.8 115.128 134.984 115.128 137.144V141H113.736ZM122.406 141.16C120.054 141.16 118.454 139.48 118.454 136.84C118.454 134.2 120.038 132.488 122.39 132.488C124.742 132.488 126.086 133.992 126.086 136.248C126.086 136.52 126.07 136.872 126.038 137.112H119.862C119.83 138.984 120.854 140.024 122.438 140.024C123.686 140.024 124.55 139.384 124.758 138.488H126.15C125.862 140.072 124.406 141.16 122.406 141.16ZM119.878 136.088H124.71C124.71 134.504 123.862 133.624 122.374 133.624C120.918 133.624 119.926 134.6 119.878 136.088ZM128.907 138.472C128.923 139.448 129.707 140.072 130.987 140.072C132.171 140.072 132.875 139.544 132.875 138.68C132.875 137.816 132.187 137.608 131.755 137.528L129.979 137.192C128.363 136.888 127.739 136.056 127.739 134.984C127.739 133.4 129.003 132.488 130.891 132.488C132.907 132.488 134.075 133.512 134.091 135.032H132.763C132.715 134.008 132.011 133.56 130.907 133.56C129.755 133.56 129.131 134.072 129.131 134.84C129.131 135.8 130.043 135.96 130.475 136.04L132.123 136.344C133.707 136.616 134.315 137.48 134.315 138.664C134.315 140.184 132.987 141.16 130.987 141.16C128.859 141.16 127.579 140.072 127.579 138.472H128.907Z" fill="white"/>
<rect x="54" y="362" width="153" height="43" rx="4" fill="white" fill-opacity="0.05"/>
<path d="M67.616 390V378.336H69.568L73.232 386.768H73.328L77.008 378.336H78.944V390H77.52V383.68L77.648 380.256H77.552L73.28 389.792L69.024 380.256H68.912L69.056 383.696V390H67.616ZM81.9545 380.24V378.416H83.3305V380.24H81.9545ZM81.9545 390V381.648H83.3305V390H81.9545ZM86.7668 387.472C86.7828 388.448 87.5668 389.072 88.8468 389.072C90.0308 389.072 90.7348 388.544 90.7348 387.68C90.7348 386.816 90.0468 386.608 89.6148 386.528L87.8388 386.192C86.2228 385.888 85.5988 385.056 85.5988 383.984C85.5988 382.4 86.8628 381.488 88.7508 381.488C90.7668 381.488 91.9348 382.512 91.9508 384.032H90.6228C90.5748 383.008 89.8708 382.56 88.7668 382.56C87.6148 382.56 86.9908 383.072 86.9908 383.84C86.9908 384.8 87.9028 384.96 88.3348 385.04L89.9828 385.344C91.5668 385.616 92.1748 386.48 92.1748 387.664C92.1748 389.184 90.8468 390.16 88.8468 390.16C86.7188 390.16 85.4388 389.072 85.4388 387.472H86.7668ZM94.9386 387.472C94.9546 388.448 95.7386 389.072 97.0186 389.072C98.2026 389.072 98.9066 388.544 98.9066 387.68C98.9066 386.816 98.2186 386.608 97.7866 386.528L96.0106 386.192C94.3946 385.888 93.7706 385.056 93.7706 383.984C93.7706 382.4 95.0346 381.488 96.9226 381.488C98.9386 381.488 100.107 382.512 100.123 384.032H98.7946C98.7466 383.008 98.0426 382.56 96.9386 382.56C95.7866 382.56 95.1626 383.072 95.1626 383.84C95.1626 384.8 96.0746 384.96 96.5066 385.04L98.1546 385.344C99.7386 385.616 100.347 386.48 100.347 387.664C100.347 389.184 99.0186 390.16 97.0186 390.16C94.8906 390.16 93.6106 389.072 93.6106 387.472H94.9386ZM102.455 380.24V378.416H103.831V380.24H102.455ZM102.455 390V381.648H103.831V390H102.455ZM105.923 385.856C105.923 383.28 107.539 381.488 109.955 381.488C112.355 381.488 113.939 383.264 113.939 385.84C113.939 388.4 112.355 390.16 109.955 390.16C107.539 390.16 105.923 388.416 105.923 385.856ZM107.347 385.824C107.347 387.68 108.275 388.928 109.939 388.928C111.507 388.928 112.515 387.776 112.515 385.808C112.515 383.968 111.603 382.72 109.939 382.72C108.371 382.72 107.347 383.888 107.347 385.824ZM116.048 390V381.648H117.264L117.44 383.2H117.552C118.064 382.128 119.12 381.488 120.368 381.488C122.192 381.488 123.264 382.8 123.264 384.864V390H121.872V385.008C121.872 383.44 121.168 382.72 119.904 382.72C118.432 382.72 117.44 383.888 117.44 385.632V390H116.048ZM134.601 378.336C137.129 378.336 138.617 379.856 138.617 382.048C138.617 384.32 137.017 385.776 134.601 385.76L131.353 385.744V390H129.897V378.336H134.601ZM134.425 384.464C136.217 384.464 137.081 383.536 137.081 382.048C137.081 379.744 134.969 379.68 134.425 379.68H131.353V384.464H134.425ZM140.47 390V378.272H141.846V390H140.47ZM143.922 387.712C143.922 385.936 145.25 385.024 147.266 385.024H149.49V384.4C149.49 383.104 148.722 382.592 147.57 382.592C146.402 382.592 145.666 383.184 145.618 384.08H144.274C144.402 382.512 145.746 381.488 147.634 381.488C149.762 381.488 150.866 382.656 150.866 384.512V388.32C150.866 388.64 150.882 388.96 151.378 388.96C151.49 388.96 151.618 388.944 151.682 388.928V390C151.458 390.064 151.17 390.096 150.978 390.096C150.082 390.096 149.57 389.616 149.57 388.624H149.474C149.106 389.552 148.002 390.16 146.706 390.16C145.042 390.16 143.922 389.168 143.922 387.712ZM145.346 387.552C145.346 388.496 146.002 389.008 146.994 389.008C148.498 389.008 149.49 387.952 149.49 386.48V386.032H147.378C145.986 386.032 145.346 386.624 145.346 387.552ZM153.658 390V381.648H154.874L155.05 383.2H155.162C155.674 382.128 156.73 381.488 157.978 381.488C159.802 381.488 160.874 382.8 160.874 384.864V390H159.482V385.008C159.482 383.44 158.778 382.72 157.514 382.72C156.042 382.72 155.05 383.888 155.05 385.632V390H153.658ZM163.548 390V381.648H164.764L164.94 383.2H165.052C165.564 382.128 166.62 381.488 167.868 381.488C169.692 381.488 170.764 382.8 170.764 384.864V390H169.372V385.008C169.372 383.44 168.668 382.72 167.404 382.72C165.932 382.72 164.94 383.888 164.94 385.632V390H163.548ZM173.439 380.24V378.416H174.815V380.24H173.439ZM173.439 390V381.648H174.815V390H173.439ZM177.595 390V381.648H178.811L178.987 383.2H179.099C179.611 382.128 180.667 381.488 181.915 381.488C183.739 381.488 184.811 382.8 184.811 384.864V390H183.419V385.008C183.419 383.44 182.715 382.72 181.451 382.72C179.979 382.72 178.987 383.888 178.987 385.632V390H177.595ZM186.686 390.848C186.686 390.048 187.198 389.44 187.95 389.216V389.104C187.454 388.944 187.118 388.48 187.118 387.968C187.118 387.296 187.566 386.784 188.206 386.592V386.496C187.438 386.016 187.006 385.2 187.006 384.256C187.006 382.592 188.302 381.488 190.142 381.488C190.734 381.488 191.342 381.616 191.726 381.84C192.062 380.96 192.958 380.368 194.11 380.368V381.52C193.342 381.52 192.718 381.856 192.558 382.352C193.038 382.832 193.326 383.504 193.326 384.304C193.326 385.92 192.094 387.024 190.238 387.024C189.854 387.024 189.438 386.976 189.102 386.896C188.638 386.976 188.382 387.28 188.382 387.664C188.382 388.352 189.134 388.384 189.502 388.384H191.71C193.31 388.384 194.222 389.184 194.222 390.464C194.222 392.112 192.654 392.896 190.206 392.896C187.758 392.896 186.686 392.064 186.686 390.848ZM188.382 384.272C188.382 385.392 189.102 386.032 190.174 386.032C191.31 386.032 191.966 385.328 191.966 384.272C191.966 383.152 191.246 382.496 190.174 382.496C189.038 382.496 188.382 383.216 188.382 384.272ZM187.95 390.624C187.95 391.456 188.686 391.856 190.27 391.856C192.11 391.856 192.846 391.344 192.846 390.512C192.846 389.536 191.79 389.536 191.582 389.536H189.326C188.382 389.536 187.95 389.968 187.95 390.624Z" fill="white"/>
<rect x="423" y="362" width="111" height="43" rx="4" fill="white" fill-opacity="0.05"/>
<path d="M438.072 390H436.616V378.336H438.072V390ZM441.08 390V381.648H442.296L442.472 383.2H442.584C443.096 382.128 444.152 381.488 445.4 381.488C447.224 381.488 448.296 382.8 448.296 384.864V390H446.904V385.008C446.904 383.44 446.2 382.72 444.936 382.72C443.464 382.72 442.472 383.888 442.472 385.632V390H441.08ZM449.599 381.648H451.039V379.12L452.415 378.592V381.648H454.287V382.8H452.415V387.616C452.415 388.208 452.495 388.928 453.583 388.928C453.855 388.928 454.159 388.88 454.287 388.832V390C453.935 390.096 453.599 390.128 453.247 390.128C451.583 390.128 451.039 389.12 451.039 387.744V382.8H449.599V381.648ZM459.359 390.16C457.007 390.16 455.407 388.48 455.407 385.84C455.407 383.2 456.991 381.488 459.343 381.488C461.695 381.488 463.039 382.992 463.039 385.248C463.039 385.52 463.023 385.872 462.991 386.112H456.815C456.783 387.984 457.807 389.024 459.391 389.024C460.639 389.024 461.503 388.384 461.711 387.488H463.103C462.815 389.072 461.359 390.16 459.359 390.16ZM456.831 385.088H461.663C461.663 383.504 460.815 382.624 459.327 382.624C457.871 382.624 456.879 383.6 456.831 385.088ZM465.205 390V378.272H466.581V390H465.205ZM469.361 390V378.272H470.737V390H469.361ZM473.517 380.24V378.416H474.893V380.24H473.517ZM473.517 390V381.648H474.893V390H473.517ZM476.873 390.848C476.873 390.048 477.385 389.44 478.137 389.216V389.104C477.641 388.944 477.305 388.48 477.305 387.968C477.305 387.296 477.753 386.784 478.393 386.592V386.496C477.625 386.016 477.193 385.2 477.193 384.256C477.193 382.592 478.489 381.488 480.329 381.488C480.921 381.488 481.529 381.616 481.913 381.84C482.249 380.96 483.145 380.368 484.297 380.368V381.52C483.529 381.52 482.905 381.856 482.745 382.352C483.225 382.832 483.513 383.504 483.513 384.304C483.513 385.92 482.281 387.024 480.425 387.024C480.041 387.024 479.625 386.976 479.289 386.896C478.825 386.976 478.569 387.28 478.569 387.664C478.569 388.352 479.321 388.384 479.689 388.384H481.897C483.497 388.384 484.409 389.184 484.409 390.464C484.409 392.112 482.841 392.896 480.393 392.896C477.945 392.896 476.873 392.064 476.873 390.848ZM478.569 384.272C478.569 385.392 479.289 386.032 480.361 386.032C481.497 386.032 482.153 385.328 482.153 384.272C482.153 383.152 481.433 382.496 480.361 382.496C479.225 382.496 478.569 383.216 478.569 384.272ZM478.137 390.624C478.137 391.456 478.873 391.856 480.457 391.856C482.297 391.856 483.033 391.344 483.033 390.512C483.033 389.536 481.977 389.536 481.769 389.536H479.513C478.569 389.536 478.137 389.968 478.137 390.624ZM489.344 390.16C486.992 390.16 485.392 388.48 485.392 385.84C485.392 383.2 486.976 381.488 489.328 381.488C491.68 381.488 493.024 382.992 493.024 385.248C493.024 385.52 493.008 385.872 492.976 386.112H486.799C486.768 387.984 487.792 389.024 489.376 389.024C490.624 389.024 491.488 388.384 491.696 387.488H493.088C492.8 389.072 491.344 390.16 489.344 390.16ZM486.816 385.088H491.648C491.648 383.504 490.8 382.624 489.312 382.624C487.856 382.624 486.864 383.6 486.816 385.088ZM495.189 390V381.648H496.405L496.581 383.2H496.693C497.205 382.128 498.261 381.488 499.509 381.488C501.333 381.488 502.405 382.8 502.405 384.864V390H501.013V385.008C501.013 383.44 500.309 382.72 499.045 382.72C497.573 382.72 496.581 383.888 496.581 385.632V390H495.189ZM512.056 387.152C511.88 388.96 510.408 390.16 508.376 390.16C505.96 390.16 504.392 388.448 504.392 385.84C504.392 383.232 505.96 381.488 508.44 381.488C510.392 381.488 511.832 382.64 512.008 384.368H510.6C510.36 383.232 509.448 382.72 508.391 382.72C506.696 382.72 505.816 384 505.816 385.856C505.816 387.856 506.824 388.944 508.376 388.944C509.624 388.944 510.504 388.224 510.632 387.152H512.056ZM517.375 390.16C515.023 390.16 513.423 388.48 513.423 385.84C513.423 383.2 515.007 381.488 517.359 381.488C519.711 381.488 521.055 382.992 521.055 385.248C521.055 385.52 521.039 385.872 521.007 386.112H514.831C514.799 387.984 515.823 389.024 517.407 389.024C518.655 389.024 519.519 388.384 519.727 387.488H521.119C520.831 389.072 519.375 390.16 517.375 390.16ZM514.847 385.088H519.679C519.679 383.504 518.831 382.624 517.343 382.624C515.887 382.624 514.895 383.6 514.847 385.088Z" fill="white"/>
<rect x="482" y="113" width="121" height="43" rx="4" fill="white" fill-opacity="0.05"/>
<path d="M496.272 137.4C496.336 139.096 497.36 139.976 499.36 139.976C501.216 139.976 502.256 139.096 502.256 137.816C502.256 136.36 500.96 136.056 500.416 135.928L498.288 135.464C497.248 135.256 495.04 134.76 495.04 132.408C495.04 130.456 496.704 129.176 499.2 129.176C501.872 129.176 503.344 130.52 503.392 132.552H501.904C501.808 131.064 500.752 130.36 499.104 130.36C497.472 130.36 496.56 131.096 496.56 132.232C496.56 133.592 497.888 133.912 498.64 134.072L500.768 134.52C502.064 134.792 503.792 135.528 503.792 137.704C503.792 139.912 502.032 141.16 499.376 141.16C496.32 141.16 494.816 139.592 494.768 137.4H496.272ZM513.15 132.648V141H511.966L511.774 139.448H511.646C511.198 140.472 510.142 141.16 508.814 141.16C507.102 141.16 506.046 140.024 506.046 137.976V132.648H507.422V137.784C507.422 139.24 508.094 139.944 509.278 139.944C510.798 139.944 511.758 138.76 511.758 137.016V132.648H513.15ZM516.454 138.472C516.47 139.448 517.254 140.072 518.534 140.072C519.718 140.072 520.422 139.544 520.422 138.68C520.422 137.816 519.734 137.608 519.302 137.528L517.526 137.192C515.91 136.888 515.286 136.056 515.286 134.984C515.286 133.4 516.55 132.488 518.438 132.488C520.454 132.488 521.622 133.512 521.638 135.032H520.31C520.262 134.008 519.558 133.56 518.454 133.56C517.302 133.56 516.678 134.072 516.678 134.84C516.678 135.8 517.59 135.96 518.022 136.04L519.67 136.344C521.254 136.616 521.862 137.48 521.862 138.664C521.862 140.184 520.534 141.16 518.534 141.16C516.406 141.16 515.126 140.072 515.126 138.472H516.454ZM522.755 132.648H524.195V130.12L525.571 129.592V132.648H527.443V133.8H525.571V138.616C525.571 139.208 525.651 139.928 526.739 139.928C527.011 139.928 527.315 139.88 527.443 139.832V141C527.091 141.096 526.755 141.128 526.403 141.128C524.739 141.128 524.195 140.12 524.195 138.744V133.8H522.755V132.648ZM528.641 138.712C528.641 136.936 529.969 136.024 531.985 136.024H534.209V135.4C534.209 134.104 533.441 133.592 532.289 133.592C531.121 133.592 530.385 134.184 530.337 135.08H528.993C529.121 133.512 530.465 132.488 532.353 132.488C534.481 132.488 535.585 133.656 535.585 135.512V139.32C535.585 139.64 535.601 139.96 536.097 139.96C536.209 139.96 536.337 139.944 536.401 139.928V141C536.177 141.064 535.889 141.096 535.697 141.096C534.801 141.096 534.289 140.616 534.289 139.624H534.193C533.825 140.552 532.721 141.16 531.425 141.16C529.761 141.16 528.641 140.168 528.641 138.712ZM530.065 138.552C530.065 139.496 530.721 140.008 531.713 140.008C533.217 140.008 534.209 138.952 534.209 137.48V137.032H532.097C530.705 137.032 530.065 137.624 530.065 138.552ZM538.376 131.24V129.416H539.752V131.24H538.376ZM538.376 141V132.648H539.752V141H538.376ZM542.533 141V132.648H543.749L543.925 134.2H544.037C544.549 133.128 545.605 132.488 546.853 132.488C548.677 132.488 549.749 133.8 549.749 135.864V141H548.357V136.008C548.357 134.44 547.653 133.72 546.389 133.72C544.917 133.72 543.925 134.888 543.925 136.632V141H542.533ZM552.423 141V132.648H553.623L553.799 134.2H553.927C554.455 133.048 555.367 132.488 556.503 132.488C557.719 132.488 558.583 133.256 558.951 134.312H559.079C559.575 133.096 560.647 132.488 561.815 132.488C563.559 132.488 564.599 133.768 564.599 135.864V141H563.207V136.008C563.207 134.44 562.551 133.72 561.383 133.72C559.879 133.72 559.207 134.904 559.207 136.568V141H557.831V135.992C557.831 134.456 557.191 133.72 556.023 133.72C554.647 133.72 553.815 134.888 553.815 136.552V141H552.423ZM570.515 141.16C568.163 141.16 566.563 139.48 566.563 136.84C566.563 134.2 568.147 132.488 570.499 132.488C572.851 132.488 574.195 133.992 574.195 136.248C574.195 136.52 574.179 136.872 574.147 137.112H567.971C567.939 138.984 568.963 140.024 570.547 140.024C571.795 140.024 572.659 139.384 572.867 138.488H574.259C573.971 140.072 572.515 141.16 570.515 141.16ZM567.987 136.088H572.819C572.819 134.504 571.971 133.624 570.483 133.624C569.027 133.624 568.035 134.6 567.987 136.088ZM576.361 141V132.648H577.577L577.753 134.2H577.865C578.377 133.128 579.433 132.488 580.681 132.488C582.505 132.488 583.577 133.8 583.577 135.864V141H582.185V136.008C582.185 134.44 581.481 133.72 580.217 133.72C578.745 133.72 577.753 134.888 577.753 136.632V141H576.361ZM584.88 132.648H586.32V130.12L587.696 129.592V132.648H589.568V133.8H587.696V138.616C587.696 139.208 587.776 139.928 588.864 139.928C589.136 139.928 589.44 139.88 589.568 139.832V141C589.216 141.096 588.88 141.128 588.528 141.128C586.864 141.128 586.32 140.12 586.32 138.744V133.8H584.88V132.648Z" fill="white"/>
<path d="M264 4C264 1.79086 265.791 0 268 0H363C365.209 0 367 1.79086 367 4V39C367 41.2091 365.209 43 363 43H268C265.791 43 264 41.2091 264 39V4Z" fill="white" fill-opacity="0.05"/>
<path d="M282.32 16.336C284.848 16.336 286.336 17.856 286.336 20.048C286.336 22.32 284.736 23.776 282.32 23.76L279.072 23.744V28H277.616V16.336H282.32ZM282.144 22.464C283.936 22.464 284.8 21.536 284.8 20.048C284.8 17.744 282.688 17.68 282.144 17.68H279.072V22.464H282.144ZM288.189 28V19.648H289.405L289.581 21.344H289.677C290.157 20.096 291.149 19.52 292.381 19.52V20.768C290.509 20.8 289.581 21.984 289.581 24.144V28H288.189ZM292.907 23.856C292.907 21.28 294.523 19.488 296.939 19.488C299.339 19.488 300.923 21.264 300.923 23.84C300.923 26.4 299.339 28.16 296.939 28.16C294.523 28.16 292.907 26.416 292.907 23.856ZM294.331 23.824C294.331 25.68 295.259 26.928 296.923 26.928C298.491 26.928 299.499 25.776 299.499 23.808C299.499 21.968 298.587 20.72 296.923 20.72C295.355 20.72 294.331 21.888 294.331 23.824ZM301.849 19.648H303.289V17.12L304.665 16.592V19.648H306.537V20.8H304.665V25.616C304.665 26.208 304.745 26.928 305.833 26.928C306.105 26.928 306.409 26.88 306.537 26.832V28C306.185 28.096 305.849 28.128 305.497 28.128C303.833 28.128 303.289 27.12 303.289 25.744V20.8H301.849V19.648ZM311.609 28.16C309.257 28.16 307.657 26.48 307.657 23.84C307.657 21.2 309.241 19.488 311.593 19.488C313.945 19.488 315.289 20.992 315.289 23.248C315.289 23.52 315.273 23.872 315.241 24.112H309.065C309.033 25.984 310.057 27.024 311.641 27.024C312.889 27.024 313.753 26.384 313.961 25.488H315.353C315.065 27.072 313.609 28.16 311.609 28.16ZM309.081 23.088H313.913C313.913 21.504 313.065 20.624 311.577 20.624C310.121 20.624 309.129 21.6 309.081 23.088ZM324.587 25.152C324.411 26.96 322.939 28.16 320.907 28.16C318.491 28.16 316.923 26.448 316.923 23.84C316.923 21.232 318.491 19.488 320.971 19.488C322.923 19.488 324.363 20.64 324.539 22.368H323.131C322.891 21.232 321.979 20.72 320.923 20.72C319.227 20.72 318.347 22 318.347 23.856C318.347 25.856 319.355 26.944 320.907 26.944C322.155 26.944 323.035 26.224 323.163 25.152H324.587ZM332.098 16.416H333.474V18.24H332.098V16.416ZM333.474 19.648V28H332.098V20.8H328.274V25.584C328.274 26.096 328.322 26.928 329.394 26.928C329.714 26.928 329.954 26.896 330.146 26.832V28C329.826 28.08 329.426 28.128 329.154 28.128C327.426 28.128 326.898 27.12 326.898 25.744V20.8H325.458V19.648H326.898V17.12L328.274 16.592V19.648H333.474ZM335.563 23.856C335.563 21.28 337.179 19.488 339.595 19.488C341.995 19.488 343.579 21.264 343.579 23.84C343.579 26.4 341.995 28.16 339.595 28.16C337.179 28.16 335.563 26.416 335.563 23.856ZM336.987 23.824C336.987 25.68 337.915 26.928 339.579 26.928C341.147 26.928 342.155 25.776 342.155 23.808C342.155 21.968 341.243 20.72 339.579 20.72C338.011 20.72 336.987 21.888 336.987 23.824ZM345.689 28V19.648H346.905L347.081 21.2H347.193C347.705 20.128 348.761 19.488 350.009 19.488C351.833 19.488 352.905 20.8 352.905 22.864V28H351.513V23.008C351.513 21.44 350.809 20.72 349.545 20.72C348.073 20.72 347.081 21.888 347.081 23.632V28H345.689Z" fill="white"/>
<path d="M315 60L364.964 149.23L465.267 169.175L395.844 244.268L407.87 345.825L315 303.004L222.13 345.825L234.156 244.268L164.733 169.175L265.036 149.23L315 60Z" stroke="#DCE0E5" stroke-width="0.5" stroke-dasharray="1 2"/>
<path d="M315 60L465.267 169.175L407.87 345.825H222.13L164.733 169.175L315 60Z" stroke="#DCE0E5" stroke-width="0.5" stroke-dasharray="1 2"/>
<path d="M315 376L465.267 266.825L407.87 90.1753H222.13L164.733 266.825L315 376Z" stroke="#DCE0E5" stroke-width="0.5" stroke-dasharray="1 2"/>
<circle cx="315" cy="218" r="163" transform="rotate(90 315 218)" stroke="white"/>
<circle cx="315" cy="218" r="158" transform="rotate(90 315 218)" stroke="#DCE0E5" stroke-width="0.5" stroke-dasharray="1 2"/>
<path d="M315 55.0312V218.156" stroke="white"/>
<path d="M219 350L315 218" stroke="white"/>
<path d="M160 168L315 218" stroke="white"/>
<path d="M470 168L315 218" stroke="white"/>
<path d="M411 350L315 218" stroke="white"/>
<circle cx="219" cy="350" r="4" fill="white"/>
<circle cx="411" cy="350" r="4" fill="white"/>
<circle cx="160" cy="168" r="4" fill="white"/>
<circle cx="470" cy="168" r="4" fill="white"/>
<circle cx="315" cy="55" r="4" fill="white"/>
<path d="M243 218C243 208.545 244.862 199.182 248.481 190.447C252.099 181.711 257.403 173.774 264.088 167.088C270.774 160.402 278.711 155.099 287.447 151.481C296.182 147.862 305.545 146 315 146C324.455 146 333.818 147.862 342.553 151.481C351.289 155.099 359.226 160.402 365.912 167.088C372.598 173.774 377.901 181.711 381.519 190.447C385.138 199.182 387 208.545 387 218L351 218C351 213.272 350.069 208.591 348.26 204.223C346.451 199.856 343.799 195.887 340.456 192.544C337.113 189.201 333.144 186.55 328.777 184.74C324.409 182.931 319.728 182 315 182C310.272 182 305.591 182.931 301.223 184.74C296.856 186.549 292.887 189.201 289.544 192.544C286.201 195.887 283.55 199.856 281.74 204.223C279.931 208.591 279 213.272 279 218L243 218Z" fill="#202426"/>
<path d="M243 218C243 208.545 244.862 199.182 248.481 190.447C252.099 181.711 257.403 173.774 264.088 167.088C270.774 160.402 278.711 155.099 287.447 151.481C296.182 147.862 305.545 146 315 146C324.455 146 333.818 147.862 342.553 151.481C351.289 155.099 359.226 160.402 365.912 167.088C372.598 173.774 377.901 181.711 381.519 190.447C385.138 199.182 387 208.545 387 218L351 218C351 213.272 350.069 208.591 348.26 204.223C346.451 199.856 343.799 195.887 340.456 192.544C337.113 189.201 333.144 186.55 328.777 184.74C324.409 182.931 319.728 182 315 182C310.272 182 305.591 182.931 301.223 184.74C296.856 186.549 292.887 189.201 289.544 192.544C286.201 195.887 283.55 199.856 281.74 204.223C279.931 208.591 279 213.272 279 218L243 218Z" fill="white" fill-opacity="0.05"/>
<path d="M243 218C243 208.545 244.862 199.182 248.481 190.447C252.099 181.711 257.403 173.774 264.088 167.088C270.774 160.402 278.711 155.099 287.447 151.481C296.182 147.862 305.545 146 315 146C324.455 146 333.818 147.862 342.553 151.481C351.289 155.099 359.226 160.402 365.912 167.088C372.598 173.774 377.901 181.711 381.519 190.447C385.138 199.182 387 208.545 387 218L351 218C351 213.272 350.069 208.591 348.26 204.223C346.451 199.856 343.799 195.887 340.456 192.544C337.113 189.201 333.144 186.55 328.777 184.74C324.409 182.931 319.728 182 315 182C310.272 182 305.591 182.931 301.223 184.74C296.856 186.549 292.887 189.201 289.544 192.544C286.201 195.887 283.55 199.856 281.74 204.223C279.931 208.591 279 213.272 279 218L243 218Z" stroke="white"/>
<path d="M387 218C387 227.455 385.138 236.818 381.519 245.553C377.901 254.289 372.597 262.226 365.912 268.912C359.226 275.598 351.289 280.901 342.553 284.519C333.818 288.138 324.455 290 315 290C305.545 290 296.182 288.138 287.447 284.519C278.711 280.901 270.774 275.598 264.088 268.912C257.402 262.226 252.099 254.289 248.481 245.553C244.862 236.818 243 227.455 243 218L279 218C279 222.728 279.931 227.409 281.74 231.777C283.549 236.144 286.201 240.113 289.544 243.456C292.887 246.799 296.856 249.451 301.223 251.26C305.591 253.069 310.272 254 315 254C319.728 254 324.409 253.069 328.777 251.26C333.144 249.451 337.113 246.799 340.456 243.456C343.799 240.113 346.45 236.144 348.26 231.777C350.069 227.409 351 222.728 351 218L387 218Z" fill="#202426"/>
<path d="M387 218C387 227.455 385.138 236.818 381.519 245.553C377.901 254.289 372.597 262.226 365.912 268.912C359.226 275.598 351.289 280.901 342.553 284.519C333.818 288.138 324.455 290 315 290C305.545 290 296.182 288.138 287.447 284.519C278.711 280.901 270.774 275.598 264.088 268.912C257.402 262.226 252.099 254.289 248.481 245.553C244.862 236.818 243 227.455 243 218L279 218C279 222.728 279.931 227.409 281.74 231.777C283.549 236.144 286.201 240.113 289.544 243.456C292.887 246.799 296.856 249.451 301.223 251.26C305.591 253.069 310.272 254 315 254C319.728 254 324.409 253.069 328.777 251.26C333.144 249.451 337.113 246.799 340.456 243.456C343.799 240.113 346.45 236.144 348.26 231.777C350.069 227.409 351 222.728 351 218L387 218Z" fill="white" fill-opacity="0.05"/>
<path d="M387 218C387 227.455 385.138 236.818 381.519 245.553C377.901 254.289 372.597 262.226 365.912 268.912C359.226 275.598 351.289 280.901 342.553 284.519C333.818 288.138 324.455 290 315 290C305.545 290 296.182 288.138 287.447 284.519C278.711 280.901 270.774 275.598 264.088 268.912C257.402 262.226 252.099 254.289 248.481 245.553C244.862 236.818 243 227.455 243 218L279 218C279 222.728 279.931 227.409 281.74 231.777C283.549 236.144 286.201 240.113 289.544 243.456C292.887 246.799 296.856 249.451 301.223 251.26C305.591 253.069 310.272 254 315 254C319.728 254 324.409 253.069 328.777 251.26C333.144 249.451 337.113 246.799 340.456 243.456C343.799 240.113 346.45 236.144 348.26 231.777C350.069 227.409 351 222.728 351 218L387 218Z" stroke="white"/>
<circle cx="315" cy="218" r="36" transform="rotate(90 315 218)" fill="#202426"/>
<path d="M288.854 210.904C288.854 207.754 290.758 205.668 293.614 205.668C296.526 205.668 298.388 207.782 298.388 210.89C298.388 214.068 296.484 216.14 293.614 216.14C290.688 216.14 288.854 213.998 288.854 210.904ZM290.198 210.89C290.198 213.382 291.542 214.964 293.614 214.964C295.742 214.964 297.058 213.34 297.058 210.904C297.058 208.426 295.7 206.816 293.614 206.816C291.528 206.816 290.198 208.426 290.198 210.89ZM300.242 216V208.692H301.306L301.46 210.176H301.544C301.964 209.084 302.832 208.58 303.91 208.58V209.672C302.272 209.7 301.46 210.736 301.46 212.626V216H300.242ZM311.329 216H310.237L310.111 214.726H310.041C309.649 215.594 308.669 216.14 307.507 216.14C305.603 216.14 304.371 214.684 304.371 212.402C304.371 210.05 305.645 208.552 307.521 208.552C308.767 208.552 309.663 209.21 310.041 210.12H310.111V205.738H311.329V216ZM310.111 212.85V211.912C310.111 210.526 309.131 209.63 307.843 209.63C306.401 209.63 305.617 210.708 305.617 212.416C305.617 214.152 306.485 215.076 307.815 215.076C309.159 215.076 310.111 214.11 310.111 212.85ZM316.62 216.14C314.562 216.14 313.162 214.67 313.162 212.36C313.162 210.05 314.548 208.552 316.606 208.552C318.664 208.552 319.84 209.868 319.84 211.842C319.84 212.08 319.826 212.388 319.798 212.598H314.394C314.366 214.236 315.262 215.146 316.648 215.146C317.74 215.146 318.496 214.586 318.678 213.802H319.896C319.644 215.188 318.37 216.14 316.62 216.14ZM314.408 211.702H318.636C318.636 210.316 317.894 209.546 316.592 209.546C315.318 209.546 314.45 210.4 314.408 211.702ZM321.735 216V208.692H322.799L322.953 210.176H323.037C323.457 209.084 324.325 208.58 325.403 208.58V209.672C323.765 209.7 322.953 210.736 322.953 212.626V216H321.735ZM329.472 212.374C329.472 210.12 330.886 208.552 333 208.552C335.1 208.552 336.486 210.106 336.486 212.36C336.486 214.6 335.1 216.14 333 216.14C330.886 216.14 329.472 214.614 329.472 212.374ZM330.718 212.346C330.718 213.97 331.53 215.062 332.986 215.062C334.358 215.062 335.24 214.054 335.24 212.332C335.24 210.722 334.442 209.63 332.986 209.63C331.614 209.63 330.718 210.652 330.718 212.346ZM341.594 209.7H339.844V216H338.626V209.7H337.31V208.692H338.626V207.726C338.626 206.298 339.466 205.654 340.768 205.654C341.062 205.654 341.384 205.696 341.594 205.752V206.746C341.342 206.69 341.132 206.676 340.936 206.676C340.124 206.676 339.844 207.096 339.844 207.852V208.692H341.594V209.7ZM297.13 233V222.794H301.68C303.57 222.794 304.662 223.858 304.662 225.384C304.662 226.448 304.144 227.302 303.192 227.68V227.792C304.34 228.156 304.914 229.094 304.914 230.214C304.914 231.908 303.668 233 301.666 233H297.13ZM298.39 227.246H301.484C302.688 227.246 303.36 226.602 303.36 225.566C303.36 224.502 302.604 223.872 301.484 223.872H298.39V227.246ZM298.39 231.908H301.54C302.94 231.908 303.584 231.166 303.584 230.102C303.584 228.898 302.758 228.324 301.54 228.324H298.39V231.908ZM306.257 230.998C306.257 229.444 307.419 228.646 309.183 228.646H311.129V228.1C311.129 226.966 310.457 226.518 309.449 226.518C308.427 226.518 307.783 227.036 307.741 227.82H306.565C306.677 226.448 307.853 225.552 309.505 225.552C311.367 225.552 312.333 226.574 312.333 228.198V231.53C312.333 231.81 312.347 232.09 312.781 232.09C312.879 232.09 312.991 232.076 313.047 232.062V233C312.851 233.056 312.599 233.084 312.431 233.084C311.647 233.084 311.199 232.664 311.199 231.796H311.115C310.793 232.608 309.827 233.14 308.693 233.14C307.237 233.14 306.257 232.272 306.257 230.998ZM307.503 230.858C307.503 231.684 308.077 232.132 308.945 232.132C310.261 232.132 311.129 231.208 311.129 229.92V229.528H309.281C308.063 229.528 307.503 230.046 307.503 230.858ZM322.324 226.7H320.686V230.886C320.686 231.334 320.742 232.062 321.68 232.062C321.946 232.062 322.17 232.034 322.324 231.978V233C322.044 233.07 321.708 233.112 321.456 233.112C319.958 233.112 319.482 232.23 319.482 231.026V226.7H316.108V230.886C316.108 231.334 316.15 232.062 317.088 232.062C317.368 232.062 317.578 232.034 317.746 231.978V233C317.466 233.07 317.116 233.112 316.878 233.112C315.366 233.112 314.904 232.23 314.904 231.026V226.7H313.644V225.692H314.904V223.48L316.108 223.018V225.692H319.482V223.48L320.686 223.018V225.692H322.324V226.7ZM324.004 233V222.738H325.208V233H324.004ZM330.387 233.14C328.329 233.14 326.929 231.67 326.929 229.36C326.929 227.05 328.315 225.552 330.373 225.552C332.431 225.552 333.607 226.868 333.607 228.842C333.607 229.08 333.593 229.388 333.565 229.598H328.161C328.133 231.236 329.029 232.146 330.415 232.146C331.507 232.146 332.263 231.586 332.445 230.802H333.663C333.411 232.188 332.137 233.14 330.387 233.14ZM328.175 228.702H332.403C332.403 227.316 331.661 226.546 330.359 226.546C329.085 226.546 328.217 227.4 328.175 228.702Z" fill="white"/>
<path d="M292.993 175.229L288.878 165.89L294.989 163.197L295.457 164.26L290.512 166.439L292.087 170.014L296.52 168.06L296.966 169.072L292.533 171.026L294.159 174.715L292.993 175.229Z" fill="white"/>
<path d="M300.502 172.198L298.537 165.159L299.561 164.873L300.109 166.261L300.19 166.239C300.301 165.074 301.001 164.355 302.039 164.065L302.333 165.117C300.763 165.584 300.259 166.801 300.767 168.621L301.675 171.871L300.502 172.198Z" fill="white"/>
<path d="M304.36 162.457L304.079 160.886L305.264 160.674L305.545 162.245L304.36 162.457ZM305.864 170.863L304.577 163.67L305.762 163.458L307.049 170.651L305.864 170.863Z" fill="white"/>
<path d="M312.101 170.226C310.047 170.353 308.559 168.972 308.417 166.667C308.274 164.361 309.565 162.78 311.619 162.653C313.673 162.526 314.928 163.767 315.05 165.738C315.065 165.975 315.07 166.283 315.055 166.495L309.661 166.828C309.734 168.465 310.685 169.318 312.068 169.232C313.158 169.165 313.878 168.559 314.011 167.765L315.227 167.69C315.061 169.089 313.848 170.118 312.101 170.226ZM309.62 165.933L313.84 165.672C313.754 164.289 312.966 163.566 311.667 163.646C310.395 163.725 309.581 164.631 309.62 165.933Z" fill="white"/>
<path d="M316.642 169.919L317.374 162.648L318.432 162.754L318.45 164.121L318.547 164.131C319.087 163.242 320.062 162.777 321.149 162.887C322.737 163.046 323.555 164.283 323.374 166.079L322.925 170.551L321.713 170.429L322.15 166.083C322.287 164.718 321.737 164.029 320.637 163.919C319.355 163.79 318.389 164.72 318.237 166.238L317.854 170.041L316.642 169.919Z" fill="white"/>
<path d="M330.875 172.57L329.822 172.281L330.038 171.019L329.971 171C329.363 171.733 328.273 172 327.152 171.692C325.317 171.187 324.515 169.456 325.12 167.256C325.744 164.988 327.37 163.882 329.178 164.379C330.38 164.71 331.069 165.582 331.192 166.559L331.26 166.578L332.422 162.353L333.596 162.676L330.875 172.57ZM330.536 169.21L330.785 168.306C331.152 166.969 330.445 165.845 329.203 165.504C327.813 165.121 326.771 165.953 326.318 167.6C325.857 169.274 326.449 170.395 327.732 170.747C329.027 171.104 330.202 170.425 330.536 169.21Z" fill="white"/>
<path d="M332.736 173.377L336.663 163.896L337.775 164.357L333.849 173.838L332.736 173.377Z" fill="white"/>
<path d="M338.334 167.726L339.503 168.36L338.923 172.075L338.501 174.41L338.575 174.45L340.264 172.802L342.974 170.241L344.119 170.862L338.269 176.131C337.481 176.85 336.23 177.717 334.68 176.877C334.532 176.797 334.317 176.664 334.147 176.508L334.641 175.598C334.817 175.741 334.99 175.835 335.101 175.895C335.999 176.382 336.685 175.91 337.046 175.596L337.382 175.3L338.334 167.726Z" fill="white"/>
<path d="M292.732 271.7L296.028 262.041L302.454 264.235L302.079 265.334L296.859 263.553L295.814 266.613L300.385 268.173L300.028 269.22L295.457 267.66L294.313 271.012L299.533 272.794L299.158 273.894L292.732 271.7Z" fill="white"/>
<path d="M303.197 274.894L304.263 267.664L305.315 267.819L305.27 269.185L305.366 269.2C305.946 268.337 306.942 267.918 308.023 268.077C309.602 268.31 310.362 269.582 310.099 271.369L309.443 275.815L308.238 275.637L308.875 271.316C309.075 269.959 308.558 269.245 307.464 269.084C306.19 268.896 305.182 269.781 304.959 271.291L304.402 275.072L303.197 274.894Z" fill="white"/>
<path d="M315.905 276.133C313.847 276.165 312.425 274.717 312.389 272.407C312.353 270.097 313.716 268.578 315.774 268.546C317.831 268.515 319.028 269.812 319.058 271.786C319.062 272.024 319.053 272.332 319.028 272.543L313.624 272.626C313.622 274.264 314.532 275.16 315.918 275.139C317.009 275.122 317.757 274.55 317.927 273.764L319.144 273.745C318.914 275.135 317.655 276.106 315.905 276.133ZM313.625 271.73L317.852 271.665C317.831 270.279 317.077 269.52 315.775 269.54C314.501 269.56 313.647 270.427 313.625 271.73Z" fill="white"/>
<path d="M321.904 275.85L320.37 268.705L321.397 268.485L321.833 269.78L321.942 269.757C322.182 268.674 322.86 268.028 323.832 267.819C324.872 267.596 325.752 268.094 326.261 268.93L326.37 268.907C326.571 267.775 327.377 267.058 328.376 266.844C329.868 266.524 330.993 267.428 331.378 269.221L332.321 273.615L331.13 273.871L330.213 269.6C329.925 268.258 329.232 267.763 328.233 267.977C326.946 268.253 326.588 269.39 326.894 270.813L327.708 274.605L326.53 274.858L325.611 270.573C325.329 269.259 324.646 268.747 323.647 268.961C322.47 269.214 321.973 270.366 322.278 271.79L323.095 275.595L321.904 275.85Z" fill="white"/>
<path d="M331.644 266.029L332.867 265.506L335.418 268.268L336.986 270.049L337.063 270.016L336.821 267.668L336.498 263.955L337.695 263.443L338.191 271.3C338.265 272.365 338.168 273.883 336.546 274.576C336.391 274.642 336.154 274.729 335.926 274.765L335.519 273.812C335.741 273.763 335.921 273.686 336.037 273.637C336.977 273.235 337.033 272.404 337.012 271.926L336.988 271.479L331.644 266.029Z" fill="white"/>
</svg>
